<?xml version="1.0" encoding="UTF-8"?><svg id="Layer_1" xmlns="http://www.w3.org/2000/svg" xmlns:xlink="http://www.w3.org/1999/xlink" viewBox="0 0 180 180"><defs><style>.cls-1{clip-path:url(#clippath-2);}.cls-2{stroke-width:3.66px;}.cls-2,.cls-3,.cls-4,.cls-5,.cls-6{fill:none;}.cls-2,.cls-5{stroke:#468ff3;}.cls-2,.cls-6{stroke-miterlimit:10;}.cls-3{stroke:#fff;stroke-width:9.66px;}.cls-3,.cls-5{stroke-linecap:round;stroke-linejoin:round;}.cls-4,.cls-7,.cls-8,.cls-9,.cls-10{stroke-width:0px;}.cls-11{clip-path:url(#clippath-1);}.cls-12{opacity:.15;}.cls-7{fill:#fff;}.cls-5{stroke-width:5.51px;}.cls-13{clip-path:url(#clippath);}.cls-8{fill:#784f98;}.cls-6{stroke:#0180c7;stroke-width:2.08px;}.cls-9{fill:#468ff3;}.cls-14{clip-path:url(#clippath-3);}.cls-10{fill:#2d5798;}</style><clipPath id="clippath"><path class="cls-4" d="m314.02,307.92h11.37c6.15,0,11.13-4.99,11.13-11.13v-46.95c0-8.11-6.58-14.69-14.69-14.69h-83.26c-8.11,0-14.69,6.58-14.69,14.69v84.18c0,8.11,6.58,14.69,14.69,14.69h49.21c6.15,0,11.13-4.99,11.13-11.13v-18.51c.53-5.6,5.44-11.13,15.1-11.13Z"/></clipPath><clipPath id="clippath-1"><rect class="cls-4" x="115.14" y="48.37" width="477.8" height="452.77"/></clipPath><clipPath id="clippath-2"><rect class="cls-4" x="115.14" y="48.37" width="477.8" height="452.77"/></clipPath><clipPath id="clippath-3"><path class="cls-4" d="m118.08,111.41h15.34c6.15,0,11.13-4.99,11.13-11.13v-46.95c0-8.11-6.58-14.69-14.69-14.69H46.6c-8.11,0-14.69,6.58-14.69,14.69v84.18c0,8.11,6.58,14.69,14.69,14.69h49.21c6.15,0,11.13-4.99,11.13-11.13v-18.51c0-6.15,4.99-11.13,11.13-11.13Z"/></clipPath></defs><g class="cls-13"><g class="cls-11"><rect class="cls-6" x="116.18" y="49.41" width="475.72" height="449.66" rx="67.5" ry="67.5"/></g><g class="cls-1"><rect class="cls-6" x="116.18" y="49.41" width="475.72" height="449.66" rx="67.5" ry="67.5"/></g></g><g class="cls-12"><path class="cls-9" d="m119.85,112.97h15.34c6.15,0,11.13-4.99,11.13-11.13v-46.95c0-8.11-6.58-14.69-14.69-14.69H48.37c-8.11,0-14.69,6.58-14.69,14.69v84.18c0,8.11,6.58,14.69,14.69,14.69h49.21c6.15,0,11.13-4.99,11.13-11.13v-18.51c0-6.15,4.99-11.13,11.13-11.13Z"/></g><path class="cls-10" d="m116.14,149.64v-26.88c0-1.4,1.14-2.54,2.54-2.54h26.88c2.26,0,3.39,2.73,1.79,4.33l-26.88,26.88c-1.6,1.6-4.33.47-4.33-1.79Z"/><path class="cls-2" d="m119.79,112.33h15.34c6.15,0,11.13-4.99,11.13-11.13v-46.95c0-8.11-6.58-14.69-14.69-14.69H48.31c-8.11,0-14.69,6.58-14.69,14.69v84.18c0,8.11,6.58,14.69,14.69,14.69h49.21c6.15,0,11.13-4.99,11.13-11.13v-18.51c0-6.15,4.99-11.13,11.13-11.13Z"/><line class="cls-3" x1="64.67" y1="27.98" x2="64.67" y2="53.6"/><line class="cls-5" x1="64.67" y1="26.39" x2="64.67" y2="52.01"/><line class="cls-3" x1="89.93" y1="27.98" x2="89.93" y2="53.6"/><line class="cls-5" x1="89.93" y1="26.25" x2="89.93" y2="51.87"/><line class="cls-3" x1="115.2" y1="27.98" x2="115.2" y2="53.6"/><line class="cls-5" x1="115.2" y1="26.25" x2="115.2" y2="51.87"/><g class="cls-14"><path class="cls-7" d="m99.7,68.47h-17.91c-11.62,0-21.03,9.37-21.03,20.92v12.24c0,9.01,5.74,16.67,13.77,19.62v10.99s.87,2.63,4.88-1.88c2.18-2.45,4.73-5.52,6.61-7.8h13.68c11.62,0,21.03-9.37,21.03-20.92v-12.24c0-11.56-9.42-20.92-21.03-20.92Z"/><path class="cls-8" d="m121.91,105.44c-2,16.41-14.37,17.99-16.55,18.7-.95.3-9.26,2.38-20.08,1.48-1.2,1.38-2.78,3.2-3.92,4.44-2.09,2.25-3.38,4.35-5.57,3.66-1.82-.55-1.71-3.31-1.71-3.31v-6.8s0,0,0,0c-15.82-4.45-15.59-20.86-15.41-29.62.18-8.76,1.88-15.83,6.7-20.65,8.67-7.95,26.46-6.89,26.46-6.89,15.09.07,21.86,4.98,23.53,6.52,5.56,4.83,8.64,15.53,6.56,32.46Zm-10.07-29.04c-1.42-1.29-7.53-5.14-20.29-5.19,0,0-15.11-.99-22.44,5.66-4.08,4.03-5.47,10.02-5.61,17.33-.15,7.31-.94,21.28,12.47,25t0,0s-.05,10.38-.05,11.29c-.01,1.38.75,1.45,1.45.75,2.13-2.15,8.98-10.4,8.98-10.4,9.18.59,16.49-1.22,17.28-1.47,1.84-.59,11.87-1.46,13.56-15.16,1.75-14.13-.65-23.77-5.35-27.8Zm-5.58,33.36c-1.42,2.5-4.08,5.27-6.82,4.39l-.03-.04c-2.78-.78-9.32-4.15-13.46-7.44-2.13-1.69-4.08-3.67-5.58-5.58-1.36-1.7-2.73-3.71-4.06-6.14-2.81-5.07-3.42-7.34-3.42-7.34-.88-2.74,1.87-5.4,4.39-6.82h.03c1.21-.63,2.37-.42,3.15.51,0,0,1.63,1.95,2.33,2.91.66.9,1.54,2.33,2,3.13.8,1.44.3,2.9-.49,3.5l-1.58,1.26c-.8.64-.7,1.84-.7,1.84,0,0,2.34,8.86,11.1,11.1,0,0,1.2.11,1.84-.7l1.26-1.58c.61-.79,2.07-1.29,3.5-.49,1.94,1.09,4.4,2.79,6.03,4.33.92.75,1.13,1.9.5,3.11v.03Zm-.21-12.93c-.08-10.73-7.23-16.58-15.91-16.65-1.12-.01-1.12-1.7,0-1.7,9.71.07,17.52,6.77,17.61,18.33.01,1.13-1.7,1.15-1.7.01Zm-14.47-12.22c-1.12-.08-1-1.78.12-1.7,7.64.55,11.71,5.81,11.56,12.18-.01,1.13-1.73,1.08-1.7-.04.13-5.58-3.36-9.96-9.98-10.44Zm5.61,9.03c-.15-2.9-1.5-4.31-4.29-4.46-1.13-.07-1.03-1.76.09-1.7,3.67.2,5.72,2.31,5.9,6.08.05,1.13-1.65,1.21-1.7.08Z"/></g></svg>