<?xml version="1.0" encoding="UTF-8"?><svg id="Layer_1" xmlns="http://www.w3.org/2000/svg" xmlns:xlink="http://www.w3.org/1999/xlink" viewBox="0 0 180 180"><defs><style>.cls-1{clip-path:url(#clippath-2);}.cls-2{stroke-width:3.66px;}.cls-2,.cls-3,.cls-4,.cls-5,.cls-6{fill:none;}.cls-2,.cls-5{stroke:#468ff3;}.cls-2,.cls-6{stroke-miterlimit:10;}.cls-3{stroke:#fff;stroke-width:9.66px;}.cls-3,.cls-5{stroke-linecap:round;stroke-linejoin:round;}.cls-4,.cls-7,.cls-8,.cls-9,.cls-10{stroke-width:0px;}.cls-11{clip-path:url(#clippath-1);}.cls-12{clip-path:url(#clippath-4);}.cls-13{opacity:.15;}.cls-7{fill:#fff;}.cls-8{fill:#2fa721;}.cls-5{stroke-width:5.51px;}.cls-14{clip-path:url(#clippath);}.cls-6{stroke:#0180c7;stroke-width:2.08px;}.cls-9{fill:#468ff3;}.cls-15{clip-path:url(#clippath-3);}.cls-10{fill:#2d5798;}</style><clipPath id="clippath"><path class="cls-4" d="m122.13,110.73h11.37c6.15,0,11.13-4.99,11.13-11.13v-46.95c0-8.11-6.58-14.69-14.69-14.69H46.67c-8.11,0-14.69,6.58-14.69,14.69v84.18c0,8.11,6.58,14.69,14.69,14.69h49.21c6.15,0,11.13-4.99,11.13-11.13v-18.51c.53-5.6,5.44-11.13,15.1-11.13Z"/></clipPath><clipPath id="clippath-1"><path class="cls-4" d="m118.86,111.61h15.46c6.2,0,11.23-4.99,11.23-11.13v-46.95c0-8.11-6.63-14.69-14.81-14.69H46.79c-8.18,0-14.81,6.58-14.81,14.69v84.18c0,8.11,6.63,14.69,14.81,14.69h49.61c6.2,0,11.23-4.99,11.23-11.13v-18.51c0-6.15,5.03-11.13,11.23-11.13Z"/></clipPath><clipPath id="clippath-2"><path class="cls-4" d="m-65.38,110.73h11.37c6.15,0,11.13-4.99,11.13-11.13v-46.95c0-8.11-6.58-14.69-14.69-14.69h-83.26c-8.11,0-14.69,6.58-14.69,14.69v84.18c0,8.11,6.58,14.69,14.69,14.69h49.21c6.15,0,11.13-4.99,11.13-11.13v-18.51c.53-5.6,5.44-11.13,15.1-11.13Z"/></clipPath><clipPath id="clippath-3"><rect class="cls-4" x="-264.26" y="-148.82" width="477.8" height="452.77"/></clipPath><clipPath id="clippath-4"><rect class="cls-4" x="-264.26" y="-148.82" width="477.8" height="452.77"/></clipPath></defs><g class="cls-13"><path class="cls-9" d="m118.16,111.61h15.34c6.15,0,11.13-4.99,11.13-11.13v-46.95c0-8.11-6.58-14.69-14.69-14.69H46.67c-8.11,0-14.69,6.58-14.69,14.69v84.18c0,8.11,6.58,14.69,14.69,14.69h49.21c6.15,0,11.13-4.99,11.13-11.13v-18.51c0-6.15,4.99-11.13,11.13-11.13Z"/></g><path class="cls-10" d="m116.06,149.96v-26.88c0-1.4,1.14-2.54,2.54-2.54h26.88c2.26,0,3.39,2.73,1.79,4.33l-26.88,26.88c-1.6,1.6-4.33.47-4.33-1.79Z"/><path class="cls-2" d="m119.71,112.65h15.34c6.15,0,11.13-4.99,11.13-11.13v-46.95c0-8.11-6.58-14.69-14.69-14.69H48.23c-8.11,0-14.69,6.58-14.69,14.69v84.18c0,8.11,6.58,14.69,14.69,14.69h49.21c6.15,0,11.13-4.99,11.13-11.13v-18.51c0-6.15,4.99-11.13,11.13-11.13Z"/><line class="cls-3" x1="64.59" y1="28.3" x2="64.59" y2="53.92"/><line class="cls-5" x1="64.59" y1="26.71" x2="64.59" y2="52.33"/><line class="cls-3" x1="89.85" y1="28.3" x2="89.85" y2="53.92"/><line class="cls-5" x1="89.85" y1="26.57" x2="89.85" y2="52.19"/><line class="cls-3" x1="115.12" y1="28.3" x2="115.12" y2="53.92"/><line class="cls-5" x1="115.12" y1="26.57" x2="115.12" y2="52.19"/><g class="cls-14"><g class="cls-11"><path class="cls-7" d="m89.19,68.67c-14.79,0-26.77,11.99-26.77,26.77,0,5.84,1.87,11.23,5.04,15.63l-3.54,12.36,12.9-4.24c3.7,1.93,7.9,3.03,12.36,3.03,14.79,0,26.77-11.99,26.77-26.77s-11.99-26.77-26.77-26.77Z"/><path class="cls-8" d="m121.1,96.22c0,16.97-14.11,30.78-31.07,30.78h-.01c-5.16,0-10.22-1.29-14.71-3.74l-16.32,4.28,4.37-15.94c-2.69-4.67-4.1-9.97-4.1-15.39,0-16.97,13.81-30.78,30.78-30.78,8.22,0,15.96,3.2,21.77,9.03s9.3,13.54,9.3,21.77Zm-5.2,0c.01-6.83-2.95-13.25-7.78-18.09-4.83-4.84-11.24-7.5-18.08-7.5-14.11,0-25.59,11.48-25.59,25.58,0,4.84,1.34,9.54,3.91,13.61l.61.97-2.58,9.44,9.68-2.54.93.55c3.92,2.33,8.43,3.56,13.03,3.56,14.1,0,25.87-11.48,25.87-25.59Zm-10.38,7.35c.19.32.19,1.86-.44,3.66-.64,1.8-3.7,3.44-5.19,3.66-2.44.36-4.35.18-9.23-1.93-7.72-3.34-12.75-11.1-13.14-11.62-.37-.51-3.13-4.17-3.13-7.96s1.98-5.64,2.69-6.42c.71-.76,1.54-.96,2.05-.96s1.03,0,1.47.03c.47.03,1.11-.18,1.73,1.32.64,1.54,2.18,5.32,2.37,5.71.19.39.32.83.07,1.34-1.47,2.94-3.05,2.84-2.26,4.2,2.98,5.12,5.95,6.89,10.47,9.15.76.39,1.22.32,1.66-.19.46-.53,1.93-2.25,2.44-3.02.51-.78,1.03-.65,1.73-.39.71.25,4.49,2.11,5.25,2.5.76.37,1.28.57,1.46.92Z"/></g></g><g class="cls-1"><g class="cls-15"><rect class="cls-6" x="-263.22" y="-147.78" width="475.72" height="449.66" rx="67.5" ry="67.5"/></g><g class="cls-12"><rect class="cls-6" x="-263.22" y="-147.78" width="475.72" height="449.66" rx="67.5" ry="67.5"/></g></g></svg>