<?xml version="1.0" encoding="UTF-8"?><svg id="Layer_1" xmlns="http://www.w3.org/2000/svg" xmlns:xlink="http://www.w3.org/1999/xlink" viewBox="0 0 180 180"><defs><style>.cls-1{stroke:#468ff3;stroke-linecap:round;stroke-linejoin:round;stroke-width:3px;}.cls-1,.cls-2,.cls-3{fill:none;}.cls-4{clip-path:url(#clippath-2);}.cls-5{font-family:FontAwesome6Pro-Solid, 'Font Awesome 6 Pro';font-size:20.29px;}.cls-5,.cls-6{fill:#fff;}.cls-2,.cls-6,.cls-7,.cls-8{stroke-width:0px;}.cls-9{clip-path:url(#clippath-1);}.cls-10{clip-path:url(#clippath-4);}.cls-11{opacity:.15;}.cls-12{clip-path:url(#clippath);}.cls-7{fill:#468ff3;}.cls-13{clip-path:url(#clippath-3);}.cls-8{fill:#2d5798;}.cls-3{stroke:#2d5798;stroke-miterlimit:10;stroke-width:5px;}</style><clipPath id="clippath"><rect class="cls-2" x="40.31" y="55.24" width="9.89" height="15.08"/></clipPath><clipPath id="clippath-1"><rect class="cls-2" x="102.94" y="55.24" width="9.89" height="15.08"/></clipPath><clipPath id="clippath-2"><rect class="cls-2" x="60.99" y="76.61" width="9.89" height="15.08"/></clipPath><clipPath id="clippath-3"><rect class="cls-2" x="82.27" y="76.61" width="9.89" height="15.08"/></clipPath><clipPath id="clippath-4"><rect class="cls-2" x="82.27" y="97.76" width="9.89" height="15.08"/></clipPath></defs><g class="cls-11"><path class="cls-7" d="m89.32,15.38h15.6c11.66,0,21.12,9.02,21.12,20.15v87.61c0,11.13-9.45,20.15-21.12,20.15h-49.1c-5,0-9.9,1.27-14.22,3.67l-17.29,9.62c-2.44,1.36-5.29-1-4.24-3.5l6.8-16.11c2.34-5.54,3.54-11.45,3.54-17.41V35.53c0-11.13,9.45-20.15,21.12-20.15h16.44s21.35,0,21.35,0Z"/></g><path class="cls-3" d="m87.61,15.38h15.6c11.66,0,21.12,9.02,21.12,20.15v87.61c0,11.13-9.45,20.15-21.12,20.15h-49.1c-5,0-9.9,1.27-14.22,3.67l-17.29,9.62c-2.44,1.36-5.29-1-4.24-3.5l6.8-16.11c2.34-5.54,3.54-11.45,3.54-17.41V35.53c0-11.13,9.45-20.15,21.12-20.15h16.44s21.35,0,21.35,0Z"/><path class="cls-7" d="m144.39,115.45c5.82,0,10.56-4.71,10.56-10.51s-4.74-10.52-10.56-10.52-10.56,4.71-10.56,10.52,4.74,10.51,10.56,10.51Z"/><path class="cls-7" d="m161.86,144.76v-22.17c0-2.3-1.9-4.19-4.21-4.19h-7.31l-5.83,8.6-5.82-8.6h-7.55c-2.31,0-4.21,1.88-4.21,4.19v22.17c0,3.22,2.59,5.86,5.81,5.97v15.62c0,1.69,1.21,3.13,2.86,3.44,2.85.54,5.79.83,8.8.83s6.01-.29,8.88-.84c1.66-.32,2.86-1.76,2.86-3.44v-15.62c3.18-.15,5.73-2.77,5.73-5.96Z"/><rect class="cls-7" x="78.78" y="54.14" width="16.46" height="17.06" rx="2.48" ry="2.48"/><rect class="cls-7" x="37.03" y="75.51" width="16.46" height="17.06" rx="2.48" ry="2.48"/><rect class="cls-7" x="57.9" y="54.14" width="16.46" height="17.06" rx="2.48" ry="2.48"/><text class="cls-5" transform="translate(99.66 129.53)"><tspan x="0" y="0">link</tspan></text><line class="cls-1" x1="38.87" y1="47.29" x2="50.84" y2="47.29"/><line class="cls-1" x1="59.95" y1="47.29" x2="71.92" y2="47.29"/><line class="cls-1" x1="81.03" y1="47.29" x2="93" y2="47.29"/><rect class="cls-7" x="37.24" y="96.66" width="16.46" height="17.06" rx="2.48" ry="2.48"/><rect class="cls-7" x="58.11" y="96.66" width="16.46" height="17.06" rx="2.48" ry="2.48"/><rect class="cls-7" x="99.66" y="75.51" width="16.46" height="17.06" rx="2.48" ry="2.48"/><rect class="cls-7" x="99.86" y="96.77" width="16.46" height="17.06" rx="2.48" ry="2.48"/><line class="cls-1" x1="102.11" y1="47.29" x2="114.08" y2="47.29"/><rect class="cls-8" x="37.03" y="54.14" width="16.46" height="17.06" rx="2.48" ry="2.48"/><g class="cls-12"><path class="cls-6" d="m45.26,61.35c1.3,0,2.36-1.05,2.36-2.35s-1.06-2.35-2.36-2.35-2.36,1.05-2.36,2.35,1.06,2.35,2.36,2.35Z"/><path class="cls-6" d="m49.16,68.15v-4.95c0-.51-.42-.94-.94-.94h-1.63l-1.3,1.92-1.3-1.92h-1.69c-.52,0-.94.42-.94.94v4.95c0,.72.58,1.31,1.3,1.33v3.49c0,.38.27.7.64.77.64.12,1.29.18,1.97.18s1.34-.06,1.98-.19c.37-.07.64-.39.64-.77v-3.49c.71-.03,1.28-.62,1.28-1.33Z"/></g><path class="cls-6" d="m113.13,144.11c-11.6,0-21.04-9.44-21.04-21.04s9.44-21.04,21.04-21.04,21.04,9.44,21.04,21.04-9.44,21.04-21.04,21.04Z"/><path class="cls-8" d="m113.13,103.54c10.77,0,19.54,8.77,19.54,19.54s-8.77,19.54-19.54,19.54-19.54-8.77-19.54-19.54,8.77-19.54,19.54-19.54m0-3c-12.45,0-22.54,10.09-22.54,22.54s10.09,22.54,22.54,22.54,22.54-10.09,22.54-22.54-10.09-22.54-22.54-22.54h0Z"/><path class="cls-7" d="m110.28,129.27c.49.49,1.06.87,1.66,1.19l-1.72,1.72c-1.09,1.09-2.53,1.64-3.96,1.64s-2.87-.55-3.96-1.64c-1.09-1.09-1.64-2.53-1.64-3.96s.55-2.87,1.64-3.96l5.28-5.28c1.09-1.09,2.52-1.64,3.96-1.64s2.83.55,3.96,1.64c1.82,1.82,2.1,4.58.89,6.72-.34.33-.78.51-1.25.51s-.93-.19-1.27-.53c-.13-.13-.21-.29-.3-.44l.14-.14c.58-.58.9-1.35.9-2.17s-.32-1.59-.9-2.17-1.32-.9-2.17-.9-1.59.32-2.16.9l-5.28,5.28c-.58.58-.9,1.35-.9,2.17s.32,1.59.9,2.17,1.35.9,2.17.9,1.59-.35,2.17-.9l1.5-1.5c.11.13.22.27.35.39Zm15.74-10.27c.03,1.48-.51,2.97-1.64,4.09l-5.28,5.28c-1.09,1.09-2.53,1.64-3.96,1.64s-2.87-.55-3.96-1.64c-1.82-1.82-2.1-4.58-.89-6.72.34-.33.78-.51,1.25-.51s.93.19,1.27.53c.13.13.21.29.3.44l-.18.14c-.58.58-.9,1.35-.9,2.17s.35,1.59.93,2.17c.58.58,1.35.9,2.17.9s1.59-.35,2.16-.9l5.28-5.28c.58-.58.9-1.35.9-2.17s-.32-1.59-.9-2.17-1.35-.9-2.17-.9-1.59.32-2.17.9l-1.5,1.5c-.11-.13-.22-.26-.35-.39-.49-.49-1.06-.87-1.66-1.19l1.72-1.72c1.09-1.09,2.53-1.64,3.96-1.64s2.83.55,3.96,1.64c1.06,1.06,1.61,2.41,1.64,3.83Z"/><rect class="cls-8" x="99.66" y="54.14" width="16.46" height="17.06" rx="2.48" ry="2.48"/><g class="cls-9"><path class="cls-6" d="m107.89,61.35c1.3,0,2.36-1.05,2.36-2.35s-1.06-2.35-2.36-2.35-2.36,1.05-2.36,2.35,1.06,2.35,2.36,2.35Z"/><path class="cls-6" d="m111.79,68.15v-4.95c0-.51-.42-.94-.94-.94h-1.63l-1.3,1.92-1.3-1.92h-1.69c-.52,0-.94.42-.94.94v4.95c0,.72.58,1.31,1.3,1.33v3.49c0,.38.27.7.64.77.64.12,1.29.18,1.97.18s1.34-.06,1.98-.19c.37-.07.64-.39.64-.77v-3.49c.71-.03,1.28-.62,1.28-1.33Z"/></g><rect class="cls-8" x="57.7" y="75.51" width="16.46" height="17.06" rx="2.48" ry="2.48"/><g class="cls-4"><path class="cls-6" d="m65.93,82.72c1.3,0,2.36-1.05,2.36-2.35s-1.06-2.35-2.36-2.35-2.36,1.05-2.36,2.35,1.06,2.35,2.36,2.35Z"/><path class="cls-6" d="m69.84,89.52v-4.95c0-.51-.42-.94-.94-.94h-1.63l-1.3,1.92-1.3-1.92h-1.69c-.52,0-.94.42-.94.94v4.95c0,.72.58,1.31,1.3,1.33v3.49c0,.38.27.7.64.77.64.12,1.29.18,1.97.18s1.34-.06,1.98-.19c.37-.07.64-.39.64-.77v-3.49c.71-.03,1.28-.62,1.28-1.33Z"/></g><rect class="cls-8" x="78.99" y="75.51" width="16.46" height="17.06" rx="2.48" ry="2.48"/><g class="cls-13"><path class="cls-6" d="m87.22,82.72c1.3,0,2.36-1.05,2.36-2.35s-1.06-2.35-2.36-2.35-2.36,1.05-2.36,2.35,1.06,2.35,2.36,2.35Z"/><path class="cls-6" d="m91.12,89.52v-4.95c0-.51-.42-.94-.94-.94h-1.63l-1.3,1.92-1.3-1.92h-1.69c-.52,0-.94.42-.94.94v4.95c0,.72.58,1.31,1.3,1.33v3.49c0,.38.27.7.64.77.64.12,1.29.18,1.97.18s1.34-.06,1.98-.19c.37-.07.64-.39.64-.77v-3.49c.71-.03,1.28-.62,1.28-1.33Z"/></g><rect class="cls-8" x="78.99" y="96.66" width="16.46" height="17.06" rx="2.48" ry="2.48"/><g class="cls-10"><path class="cls-6" d="m87.22,103.87c1.3,0,2.36-1.05,2.36-2.35s-1.06-2.35-2.36-2.35-2.36,1.05-2.36,2.35,1.06,2.35,2.36,2.35Z"/><path class="cls-6" d="m91.12,110.67v-4.95c0-.51-.42-.94-.94-.94h-1.63l-1.3,1.92-1.3-1.92h-1.69c-.52,0-.94.42-.94.94v4.95c0,.72.58,1.31,1.3,1.33v3.49c0,.38.27.7.64.77.64.12,1.29.18,1.97.18s1.34-.06,1.98-.19c.37-.07.64-.39.64-.77v-3.49c.71-.03,1.28-.62,1.28-1.33Z"/></g></svg>