<?xml version="1.0" encoding="UTF-8"?><svg id="Layer_1" xmlns="http://www.w3.org/2000/svg" xmlns:xlink="http://www.w3.org/1999/xlink" viewBox="0 0 180 180"><defs><style>.cls-1{fill:#fdfefe;}.cls-1,.cls-2,.cls-3,.cls-4,.cls-5,.cls-6,.cls-7{stroke-width:0px;}.cls-8{clip-path:url(#clippath-2);}.cls-9{stroke-width:3.66px;}.cls-9,.cls-10,.cls-2,.cls-11,.cls-12{fill:none;}.cls-9,.cls-11{stroke:#468ff3;}.cls-9,.cls-12{stroke-miterlimit:10;}.cls-10{stroke:#fff;stroke-width:9.66px;}.cls-10,.cls-11{stroke-linecap:round;stroke-linejoin:round;}.cls-13{clip-path:url(#clippath-1);}.cls-14{clip-path:url(#clippath-4);}.cls-15{opacity:.15;}.cls-3{fill:#fff;}.cls-11{stroke-width:5.51px;}.cls-16{clip-path:url(#clippath);}.cls-12{stroke:#0180c7;stroke-width:2.08px;}.cls-4{fill:#468ff3;}.cls-5{fill:#0172b1;}.cls-17{clip-path:url(#clippath-3);}.cls-18{clip-path:url(#clippath-5);}.cls-6{fill:#2d5798;}.cls-7{fill:#0180c7;}</style><clipPath id="clippath"><path class="cls-2" d="m123.04,110.73h11.37c6.15,0,11.13-4.99,11.13-11.13v-46.95c0-8.11-6.58-14.69-14.69-14.69H47.59c-8.11,0-14.69,6.58-14.69,14.69v84.18c0,8.11,6.58,14.69,14.69,14.69h49.21c6.15,0,11.13-4.99,11.13-11.13v-18.51c.53-5.6,5.44-11.13,15.1-11.13Z"/></clipPath><clipPath id="clippath-1"><rect class="cls-2" x="-75.83" y="-148.82" width="477.8" height="452.77"/></clipPath><clipPath id="clippath-2"><rect class="cls-2" x="-75.83" y="-148.82" width="477.8" height="452.77"/></clipPath><clipPath id="clippath-3"><rect class="cls-2" x="54.21" y="64.59" width="68.6" height="65.3"/></clipPath><clipPath id="clippath-4"><rect class="cls-2" x="54.21" y="64.59" width="24.53" height="65.3"/></clipPath><clipPath id="clippath-5"><rect class="cls-2" x="66.38" y="111.26" width="56.44" height="18.64"/></clipPath></defs><g class="cls-15"><path class="cls-4" d="m118.16,111.61h15.34c6.15,0,11.13-4.99,11.13-11.13v-46.95c0-8.11-6.58-14.69-14.69-14.69H46.67c-8.11,0-14.69,6.58-14.69,14.69v84.18c0,8.11,6.58,14.69,14.69,14.69h49.21c6.15,0,11.13-4.99,11.13-11.13v-18.51c0-6.15,4.99-11.13,11.13-11.13Z"/></g><path class="cls-6" d="m116.06,149.96v-26.88c0-1.4,1.14-2.54,2.54-2.54h26.88c2.26,0,3.39,2.73,1.79,4.33l-26.88,26.88c-1.6,1.6-4.33.47-4.33-1.79Z"/><path class="cls-9" d="m119.71,112.65h15.34c6.15,0,11.13-4.99,11.13-11.13v-46.95c0-8.11-6.58-14.69-14.69-14.69H48.23c-8.11,0-14.69,6.58-14.69,14.69v84.18c0,8.11,6.58,14.69,14.69,14.69h49.21c6.15,0,11.13-4.99,11.13-11.13v-18.51c0-6.15,4.99-11.13,11.13-11.13Z"/><line class="cls-10" x1="64.59" y1="28.3" x2="64.59" y2="53.92"/><line class="cls-11" x1="64.59" y1="26.71" x2="64.59" y2="52.33"/><line class="cls-10" x1="89.85" y1="28.3" x2="89.85" y2="53.92"/><line class="cls-11" x1="89.85" y1="26.57" x2="89.85" y2="52.19"/><line class="cls-10" x1="115.12" y1="28.3" x2="115.12" y2="53.92"/><line class="cls-11" x1="115.12" y1="26.57" x2="115.12" y2="52.19"/><g class="cls-16"><g class="cls-13"><rect class="cls-12" x="-74.8" y="-147.78" width="475.72" height="449.66" rx="67.5" ry="67.5"/></g><g class="cls-8"><rect class="cls-12" x="-74.8" y="-147.78" width="475.72" height="449.66" rx="67.5" ry="67.5"/></g><rect class="cls-3" x="54.32" y="64.57" width="68.6" height="65.1" rx="9.66" ry="9.66"/><g class="cls-17"><path class="cls-1" d="m103.81,91.07c0-2.35.01-4.68,0-7.03,0-1.2-.76-1.94-1.9-1.93-1.11.01-1.84.76-1.85,1.91-.01.7,0,1.39,0,2.09v11.89c0,.93.57,1.73,1.32,1.93,1.03.28,2.09-.33,2.36-1.36.05-.18.07-.36.06-.55.03-2.32.01-4.64.01-6.95h0Zm1.32,2.98c-.06,3.74,3.04,6.57,6.92,6.18,3.57-.36,5.89-3.04,5.77-6.82-.12-3.74-2.9-6.3-6.72-6.18-3.57.1-6.1,2.98-5.98,6.82Zm-10.37-5.55c-1.87-1.63-3.93-1.73-5.95-.54-2.45,1.44-3.35,3.78-3.05,6.51.28,2.54,1.39,4.62,4.05,5.47,1.66.54,3.2.34,4.56-.76.36-.28.46-.22.72.09.49.63,1.35.87,2.09.58.75-.22,1.24-.91,1.24-1.69.01-2.99.03-5.98,0-8.97-.01-1.2-1.14-1.96-2.3-1.72-.64.13-1,.57-1.36,1.03Zm-17.35,7.87c.25-.33.39-.52.54-.72,1.96-2.48,3.92-4.97,5.88-7.46.57-.72,1.14-1.45,1.5-2.32.42-.99-.03-1.91-1.05-2.27-.45-.13-.93-.19-1.41-.16-2.66-.01-5.34-.01-8,0-.37,0-.75.05-1.11.13-.84.21-1.35,1.06-1.14,1.91.15.57.6,1.02,1.17,1.15.36.09.73.13,1.11.12,1.62.01,3.25,0,4.86.01.18,0,.4-.12.54.15-.13.18-.27.36-.4.52-2.32,2.93-4.62,5.88-6.94,8.81-.57.73-.87,1.54-.45,2.44.42.9,1.27,1.06,2.14,1.12.69.05,1.39.01,2.09.01,2.42,0,4.83.01,7.25-.01,1.29-.01,1.97-.79,1.84-1.99-.1-.94-.75-1.44-1.94-1.45-2.11-.01-4.22,0-6.48,0h0Zm-10.84,25.2c-.27-.12-.46-.25-.15-.52.19-.15.4-.28.61-.42,1.96-1.27,3.8-2.66,5.01-4.71,1.02-1.71.85-2.71-.42-3.96-7.09-7.09-10.2-15.57-8.64-25.59.88-5.65,3.47-10.54,7.24-14.79,2.27-2.57,4.98-4.65,7.94-6.39.18-.1.43-.13.46-.4-.06-.15-.16-.1-.25-.1-5.04,0-10.08-.1-15.11.03-4.82.15-8.97,3.87-8.96,9.21.03,15.6,0,31.2,0,46.81,0,4.85,3.69,8.9,8.53,9.08,4.08.16,8.17.03,12.26.01.3.01.6.03.9.03h21.6c5.38,0,10.77.03,16.15,0,5,0,9.05-4.04,9.05-9.02v-8.84c0-.21.07-.43-.06-.66-.27.01-.37.24-.52.39-2.9,2.92-6.33,5.26-10.08,6.93-9.2,4.05-18.56,4.34-28.06,1.08-.82-.3-1.72-.33-2.57-.12-1.26.31-2.5.69-3.74,1.06-3.65,1.14-7.37,1.65-11.19.9h0Z"/></g><g class="cls-14"><path class="cls-7" d="m75.08,129.83c-4.08,0-8.18.13-12.26-.01-4.83-.19-8.53-4.25-8.53-9.08,0-15.6.03-31.2,0-46.81,0-5.34,4.17-9.06,8.97-9.2,5.03-.13,10.07-.03,15.11-.03.09,0,.21-.05.25.1-.03.27-.3.3-.46.4-2.96,1.73-5.67,3.81-7.94,6.39-3.75,4.25-6.36,9.12-7.24,14.79-1.56,10.01,1.57,18.5,8.65,25.59,1.26,1.27,1.42,2.26.42,3.96-1.21,2.05-3.05,3.44-5.01,4.71-.21.12-.42.27-.63.4-.31.27-.12.4.15.52.06.13.13.25.22.37,1.72,1.53,3.35,3.16,5.04,4.71.79.73,1.59,1.5,2.35,2.26.31.28.84.37.91.91h0Z"/></g><g class="cls-18"><path class="cls-5" d="m75.08,129.83c-.07-.52-.6-.61-.91-.93-.76-.78-1.56-1.53-2.35-2.26-1.69-1.56-3.32-3.19-5.04-4.71-.09-.12-.16-.24-.22-.37,3.81.75,7.54.24,11.2-.88,1.24-.37,2.48-.75,3.74-1.06.85-.22,1.75-.18,2.57.12,9.48,3.26,18.84,2.96,28.06-1.08,3.75-1.66,7.18-3.99,10.08-6.91.15-.15.25-.37.52-.39.13.21.06.43.06.66v8.75c.03,5-3.98,9.06-8.97,9.11h-.07c-5.38.03-10.77,0-16.15,0h-21.61c-.3-.03-.6-.05-.9-.05Z"/></g><path class="cls-7" d="m77.41,96.36c2.26,0,4.38-.01,6.49,0,1.18.01,1.82.51,1.94,1.45.13,1.18-.55,1.97-1.84,1.99-2.42.03-4.83.01-7.25.01-.7,0-1.39.03-2.09-.01-.87-.05-1.72-.22-2.14-1.12-.42-.9-.12-1.71.45-2.44,2.3-2.93,4.62-5.88,6.94-8.81.13-.18.27-.36.4-.52-.15-.25-.36-.13-.54-.15-1.62-.01-3.25,0-4.86-.01-.37,0-.75-.05-1.11-.12-.85-.19-1.38-1.05-1.18-1.88.13-.57.58-1.03,1.15-1.17.36-.09.73-.13,1.11-.13,2.66-.01,5.34-.01,8,0,.48-.01.94.05,1.41.16,1.02.34,1.45,1.29,1.05,2.27-.36.85-.93,1.59-1.5,2.32-1.96,2.5-3.92,4.98-5.88,7.45-.16.19-.31.39-.55.72h0Z"/><path class="cls-7" d="m103.81,91.07c0,2.32.01,4.64,0,6.95.01,1.06-.82,1.94-1.88,1.97-.18,0-.37-.01-.55-.06-.75-.19-1.32-.99-1.32-1.93v-11.89c0-.7-.01-1.39,0-2.09.01-1.15.75-1.9,1.85-1.9,1.14-.01,1.9.73,1.9,1.93.01,2.33,0,4.68,0,7.01Zm5.07,2.62c-.03.75.19,1.48.64,2.09.82,1.08,2.36,1.29,3.44.45.16-.12.3-.27.43-.42.87-1.14.87-3.05.01-4.19-.42-.57-1.08-.93-1.78-.94-1.62-.09-2.75,1.14-2.75,3.01h0Zm-3.75.36c-.12-3.84,2.41-6.72,6-6.82,3.81-.12,6.6,2.44,6.72,6.18.12,3.78-2.2,6.46-5.77,6.82-3.9.39-7-2.44-6.94-6.18Zm-15.66-.09c.03.66.24,1.29.63,1.81.81,1.08,2.35,1.3,3.44.49.18-.13.34-.3.49-.49.84-1.14.84-3.01,0-4.14-.42-.58-1.08-.93-1.78-.94-1.65-.1-2.8,1.17-2.78,3.28Zm5.29-5.46c.36-.46.73-.9,1.35-1.02,1.18-.24,2.29.52,2.3,1.72.05,2.99.03,5.98,0,8.97,0,.78-.51,1.47-1.24,1.69-.75.28-1.6.06-2.09-.58-.25-.31-.36-.37-.72-.09-1.36,1.11-2.9,1.3-4.56.76-2.66-.87-3.75-2.95-4.05-5.47-.31-2.74.6-5.07,3.05-6.51,2.03-1.21,4.1-1.11,5.97.52Z"/><path class="cls-1" d="m108.88,93.68c0-1.85,1.14-3.1,2.75-3.01.7.01,1.36.37,1.78.94.85,1.14.85,3.07-.01,4.19-.84,1.06-2.39,1.24-3.45.4-.16-.12-.3-.27-.42-.43-.45-.61-.66-1.35-.64-2.09Zm-19.41.27c-.01-2.11,1.14-3.38,2.77-3.29.7.03,1.36.37,1.78.96.84,1.12.84,3.01,0,4.14-.81,1.08-2.35,1.3-3.44.49-.18-.13-.34-.3-.49-.49-.37-.52-.58-1.15-.61-1.81Z"/></g></svg>