<?xml version="1.0" encoding="UTF-8"?><svg id="Layer_1" xmlns="http://www.w3.org/2000/svg" xmlns:xlink="http://www.w3.org/1999/xlink" viewBox="0 0 180 180"><defs><style>.cls-1{clip-path:url(#clippath-2);}.cls-2{stroke-width:3.66px;}.cls-2,.cls-3,.cls-4,.cls-5,.cls-6{fill:none;}.cls-2,.cls-5{stroke:#468ff3;}.cls-2,.cls-6{stroke-miterlimit:10;}.cls-3{stroke:#fff;stroke-width:9.66px;}.cls-3,.cls-5{stroke-linecap:round;stroke-linejoin:round;}.cls-4,.cls-7,.cls-8,.cls-9{stroke-width:0px;}.cls-10{clip-path:url(#clippath-1);}.cls-11{opacity:.15;}.cls-7{fill:#fff;}.cls-5{stroke-width:5.51px;}.cls-12{clip-path:url(#clippath);}.cls-6{stroke:#0180c7;stroke-width:2.08px;}.cls-8{fill:#468ff3;}.cls-13{clip-path:url(#clippath-3);}.cls-9{fill:#2d5798;}</style><clipPath id="clippath"><path class="cls-4" d="m118.93,112.33h15.34c6.15,0,11.13-4.99,11.13-11.13v-46.95c0-8.11-6.58-14.69-14.69-14.69H47.45c-8.11,0-14.69,6.58-14.69,14.69v84.18c0,8.11,6.58,14.69,14.69,14.69h49.21c6.15,0,11.13-4.99,11.13-11.13v-18.51c0-6.15,4.99-11.13,11.13-11.13Z"/></clipPath><clipPath id="clippath-1"><path class="cls-4" d="m123.04,307.92h11.37c6.15,0,11.13-4.99,11.13-11.13v-46.95c0-8.11-6.58-14.69-14.69-14.69H47.59c-8.11,0-14.69,6.58-14.69,14.69v84.18c0,8.11,6.58,14.69,14.69,14.69h49.21c6.15,0,11.13-4.99,11.13-11.13v-18.51c.53-5.6,5.44-11.13,15.1-11.13Z"/></clipPath><clipPath id="clippath-2"><rect class="cls-4" x="-75.83" y="48.37" width="477.8" height="452.77"/></clipPath><clipPath id="clippath-3"><rect class="cls-4" x="-75.83" y="48.37" width="477.8" height="452.77"/></clipPath></defs><g class="cls-11"><path class="cls-8" d="m118.93,112.97h15.34c6.15,0,11.13-4.99,11.13-11.13v-46.95c0-8.11-6.58-14.69-14.69-14.69H47.45c-8.11,0-14.69,6.58-14.69,14.69v84.18c0,8.11,6.58,14.69,14.69,14.69h49.21c6.15,0,11.13-4.99,11.13-11.13v-18.51c0-6.15,4.99-11.13,11.13-11.13Z"/></g><path class="cls-9" d="m115.28,149.64v-26.88c0-1.4,1.14-2.54,2.54-2.54h26.88c2.26,0,3.39,2.73,1.79,4.33l-26.88,26.88c-1.6,1.6-4.33.47-4.33-1.79Z"/><path class="cls-2" d="m118.93,112.33h15.34c6.15,0,11.13-4.99,11.13-11.13v-46.95c0-8.11-6.58-14.69-14.69-14.69H47.45c-8.11,0-14.69,6.58-14.69,14.69v84.18c0,8.11,6.58,14.69,14.69,14.69h49.21c6.15,0,11.13-4.99,11.13-11.13v-18.51c0-6.15,4.99-11.13,11.13-11.13Z"/><line class="cls-3" x1="63.81" y1="27.98" x2="63.81" y2="53.6"/><line class="cls-5" x1="63.81" y1="26.39" x2="63.81" y2="52.01"/><line class="cls-3" x1="89.07" y1="27.98" x2="89.07" y2="53.6"/><line class="cls-5" x1="89.07" y1="26.25" x2="89.07" y2="51.87"/><line class="cls-3" x1="114.34" y1="27.98" x2="114.34" y2="53.6"/><line class="cls-5" x1="114.34" y1="26.25" x2="114.34" y2="51.87"/><g class="cls-12"><path class="cls-8" d="m132.07,88.23v-9.04c0-6.76-5.48-12.24-12.24-12.24h-53.2c-6.76,0-12.24,5.48-12.24,12.24v28.45c0,2.9-.77,5.74-2.23,8.24l-5.84,10.02c-.82,1.41.61,3.07,2.12,2.45l9.78-3.94c3.36-1.35,6.95-2.05,10.57-2.05h51.03c6.76,0,12.24-5.48,12.24-12.24v-9.53s0-12.38,0-12.38Z"/><path class="cls-7" d="m69.45,100.84c0-1.14.94-2.08,2.08-2.08.39,0,.75.09,1.05.27,1.05.62,2.24.98,3.58.98.87,0,1.69-.3,1.69-.89s-.64-.89-2.15-1.16c-2.51-.46-6.34-1.05-6.34-4.86,0-2.58,2.15-4.93,6.55-4.93,1.62,0,3.38.32,4.75.94.71.32,1.21,1.05,1.21,1.87,0,1.14-.94,2.05-2.05,2.05-.32,0-.64-.07-.91-.18-1.35-.52-2.4-.8-3.24-.8-1.37,0-1.62.41-1.62.8,0,.59.62.8,2.24,1.07,2.51.43,6.23,1.16,6.23,4.68s-2.49,5.29-6.57,5.29c-2.21,0-3.93-.43-5.39-1.23-.66-.36-1.1-1.03-1.1-1.83Z"/><path class="cls-7" d="m97.48,101.55v-7.53l-3.17,8.95c-.18.5-.68.89-1.26.89s-1.07-.39-1.26-.89l-3.17-8.95v7.53c0,1.25-1.03,2.3-2.3,2.3s-2.3-1.05-2.3-2.3v-9.7c0-2.01,1.64-3.67,3.67-3.67,1.6,0,2.97,1.03,3.47,2.46l1.89,5.52,1.89-5.52c.5-1.44,1.87-2.46,3.47-2.46,2.03,0,3.67,1.67,3.67,3.67v9.7c0,1.25-1.03,2.3-2.3,2.3s-2.3-1.05-2.3-2.3Z"/><path class="cls-7" d="m103.98,100.84c0-1.14.94-2.08,2.08-2.08.39,0,.75.09,1.05.27,1.05.62,2.24.98,3.58.98.87,0,1.69-.3,1.69-.89s-.64-.89-2.15-1.16c-2.51-.46-6.34-1.05-6.34-4.86,0-2.58,2.15-4.93,6.55-4.93,1.62,0,3.38.32,4.75.94.71.32,1.21,1.05,1.21,1.87,0,1.14-.94,2.05-2.05,2.05-.32,0-.64-.07-.91-.18-1.35-.52-2.4-.8-3.24-.8-1.37,0-1.62.41-1.62.8,0,.59.62.8,2.24,1.07,2.51.43,6.23,1.16,6.23,4.68s-2.49,5.29-6.57,5.29c-2.21,0-3.93-.43-5.39-1.23-.66-.36-1.1-1.03-1.1-1.83Z"/></g><g class="cls-10"><g class="cls-1"><rect class="cls-6" x="-74.8" y="49.41" width="475.72" height="449.66" rx="67.5" ry="67.5"/></g><g class="cls-13"><rect class="cls-6" x="-74.8" y="49.41" width="475.72" height="449.66" rx="67.5" ry="67.5"/></g></g></svg>