<?xml version="1.0" encoding="UTF-8"?><svg id="Layer_1" xmlns="http://www.w3.org/2000/svg" viewBox="0 0 180 180"><defs><style>.cls-1,.cls-2{stroke-width:3px;}.cls-1,.cls-3,.cls-4,.cls-5,.cls-6,.cls-7{stroke:#468ff3;}.cls-1,.cls-3,.cls-4,.cls-6,.cls-7{stroke-linecap:round;}.cls-1,.cls-4,.cls-6{stroke-linejoin:round;}.cls-1,.cls-6,.cls-8{fill:none;}.cls-2,.cls-3,.cls-5,.cls-7{fill:#fff;}.cls-2,.cls-3,.cls-5,.cls-7,.cls-8{stroke-miterlimit:10;}.cls-2,.cls-8{stroke:#2d5798;}.cls-3,.cls-5{stroke-width:1.01px;}.cls-9{fill:#d4e4f9;font-family:FontAwesome6Pro-Solid, 'Font Awesome 6 Pro';font-size:17.65px;}.cls-4,.cls-6{stroke-width:2.3px;}.cls-4,.cls-10{fill:#468ff3;}.cls-11{opacity:.15;}.cls-10,.cls-12{stroke-width:0px;}.cls-12{fill:#2d5798;}.cls-7{stroke-width:1.04px;}.cls-8{stroke-width:5px;}</style></defs><g class="cls-11"><path class="cls-10" d="m87.78,15.92h15.6c11.66,0,21.12,9.02,21.12,20.15v87.61c0,11.13-9.45,20.15-21.12,20.15h-49.1c-5,0-9.9,1.27-14.22,3.67l-17.29,9.62c-2.44,1.36-5.29-1-4.24-3.5l6.8-16.11c2.34-5.54,3.54-11.45,3.54-17.41V36.07c0-11.13,9.45-20.15,21.12-20.15h16.44s21.35,0,21.35,0Z"/></g><path class="cls-8" d="m87.78,15.4h15.6c11.66,0,21.12,9.02,21.12,20.15v87.61c0,11.13-9.45,20.15-21.12,20.15h-49.1c-5,0-9.9,1.27-14.22,3.67l-17.29,9.62c-2.44,1.36-5.29-1-4.24-3.5l6.8-16.11c2.34-5.54,3.54-11.45,3.54-17.41V35.55c0-11.13,9.45-20.15,21.12-20.15h16.44s21.35,0,21.35,0Z"/><path class="cls-10" d="m144.21,115.43c5.82,0,10.56-4.71,10.56-10.51s-4.74-10.52-10.56-10.52-10.56,4.71-10.56,10.52,4.74,10.51,10.56,10.51Z"/><path class="cls-10" d="m161.68,144.74v-22.17c0-2.3-1.9-4.19-4.21-4.19h-7.31l-5.83,8.6-5.82-8.6h-7.55c-2.31,0-4.21,1.88-4.21,4.19v22.17c0,3.22,2.59,5.86,5.81,5.97v15.62c0,1.69,1.21,3.13,2.86,3.44,2.85.54,5.79.83,8.8.83s6.01-.29,8.88-.84c1.66-.32,2.86-1.76,2.86-3.44v-15.62c3.18-.15,5.73-2.77,5.73-5.96Z"/><text class="cls-9" transform="translate(104.97 119.99)"><tspan x="0" y="0">heart</tspan></text><circle class="cls-10" cx="72.73" cy="68.48" r="5.24"/><line class="cls-4" x1="43.51" y1="65.7" x2="58.73" y2="65.7"/><line class="cls-4" x1="43.62" y1="71.93" x2="54.26" y2="71.93"/><circle class="cls-3" cx="89.21" cy="68.48" r="5.24"/><circle class="cls-10" cx="89.21" cy="68.48" r="2.66"/><circle class="cls-10" cx="105.7" cy="68.48" r="5.24"/><circle class="cls-10" cx="72.73" cy="86.36" r="5.24"/><line class="cls-6" x1="43.51" y1="83.58" x2="58.73" y2="83.58"/><line class="cls-6" x1="43.62" y1="89.81" x2="54.26" y2="89.81"/><circle class="cls-10" cx="89.21" cy="86.36" r="5.24"/><circle class="cls-5" cx="105.7" cy="86.36" r="5.24"/><circle class="cls-10" cx="105.7" cy="86.36" r="2.66"/><rect class="cls-10" x="42.06" y="31.87" width="68.85" height="3.96" rx="1.98" ry="1.98"/><rect class="cls-10" x="42.06" y="41.91" width="68.85" height="3.96" rx="1.98" ry="1.98"/><rect class="cls-12" x="68.06" y="54.55" width="7.8" height="3.58" rx="1.79" ry="1.79"/><rect class="cls-12" x="84.77" y="54.55" width="7.8" height="3.58" rx="1.79" ry="1.79"/><rect class="cls-12" x="101.47" y="54.55" width="7.8" height="3.58" rx="1.79" ry="1.79"/><circle class="cls-10" cx="72.73" cy="104.24" r="5.24"/><line class="cls-6" x1="43.51" y1="101.46" x2="58.73" y2="101.46"/><line class="cls-6" x1="43.62" y1="107.69" x2="54.26" y2="107.69"/><circle class="cls-7" cx="89.21" cy="104.24" r="5.24"/><circle class="cls-10" cx="89.21" cy="104.24" r="2.66"/><circle class="cls-10" cx="105.7" cy="104.24" r="5.24"/><path class="cls-2" d="m73.94,108.9v-6.25c0-4.67,3.93-8.46,8.77-8.46h38.12c4.84,0,8.77,3.79,8.77,8.46v19.67c0,2,.55,3.97,1.59,5.7l4.19,6.93c.59.98-.44,2.12-1.52,1.7l-7.01-2.72c-2.41-.94-4.98-1.42-7.58-1.42h-36.56c-4.84,0-8.77-3.79-8.77-8.46v-6.59s0-8.55,0-8.55Z"/><line class="cls-1" x1="85.08" y1="106.88" x2="96.06" y2="106.88"/><line class="cls-1" x1="85.08" y1="113.54" x2="112.09" y2="113.54"/><line class="cls-1" x1="85.08" y1="120.19" x2="119.23" y2="120.19"/><line class="cls-1" x1="100.71" y1="106.88" x2="119.23" y2="106.88"/></svg>