<?xml version="1.0" encoding="UTF-8"?><svg id="Layer_1" xmlns="http://www.w3.org/2000/svg" xmlns:xlink="http://www.w3.org/1999/xlink" viewBox="0 0 180 180"><defs><style>.cls-1{clip-path:url(#clippath-2);}.cls-2{stroke-width:3.66px;}.cls-2,.cls-3,.cls-4,.cls-5,.cls-6{fill:none;}.cls-2,.cls-5{stroke:#468ff3;}.cls-2,.cls-6{stroke-miterlimit:10;}.cls-3{stroke:#fff;stroke-width:9.66px;}.cls-3,.cls-5{stroke-linecap:round;stroke-linejoin:round;}.cls-4,.cls-7,.cls-8,.cls-9{stroke-width:0px;}.cls-10{clip-path:url(#clippath-1);}.cls-11{opacity:.15;}.cls-7{fill:#fff;}.cls-5{stroke-width:5.51px;}.cls-12{clip-path:url(#clippath);}.cls-6{stroke:#0180c7;stroke-width:2.08px;}.cls-8{fill:#468ff3;}.cls-13{clip-path:url(#clippath-3);}.cls-9{fill:#2d5798;}</style><clipPath id="clippath"><path class="cls-4" d="m314.02,110.73h11.37c6.15,0,11.13-4.99,11.13-11.13v-46.95c0-8.11-6.58-14.69-14.69-14.69h-83.26c-8.11,0-14.69,6.58-14.69,14.69v84.18c0,8.11,6.58,14.69,14.69,14.69h49.21c6.15,0,11.13-4.99,11.13-11.13v-18.51c.53-5.6,5.44-11.13,15.1-11.13Z"/></clipPath><clipPath id="clippath-1"><rect class="cls-4" x="115.14" y="-148.82" width="477.8" height="452.77"/></clipPath><clipPath id="clippath-2"><rect class="cls-4" x="115.14" y="-148.82" width="477.8" height="452.77"/></clipPath><clipPath id="clippath-3"><path class="cls-4" d="m118.93,112.33h15.34c6.15,0,11.13-4.99,11.13-11.13v-46.95c0-8.11-6.58-14.69-14.69-14.69H47.45c-8.11,0-14.69,6.58-14.69,14.69v84.18c0,8.11,6.58,14.69,14.69,14.69h49.21c6.15,0,11.13-4.99,11.13-11.13v-18.51c0-6.15,4.99-11.13,11.13-11.13Z"/></clipPath></defs><g class="cls-12"><g class="cls-10"><rect class="cls-6" x="116.18" y="-147.78" width="475.72" height="449.66" rx="67.5" ry="67.5"/></g><g class="cls-1"><rect class="cls-6" x="116.18" y="-147.78" width="475.72" height="449.66" rx="67.5" ry="67.5"/></g></g><g class="cls-11"><path class="cls-8" d="m118.94,112.97h15.34c6.15,0,11.13-4.99,11.13-11.13v-46.95c0-8.11-6.58-14.69-14.69-14.69H47.46c-8.11,0-14.69,6.58-14.69,14.69v84.18c0,8.11,6.58,14.69,14.69,14.69h49.21c6.15,0,11.13-4.99,11.13-11.13v-18.51c0-6.15,4.99-11.13,11.13-11.13Z"/></g><path class="cls-9" d="m115.28,149.64v-26.88c0-1.4,1.14-2.54,2.54-2.54h26.88c2.26,0,3.39,2.73,1.79,4.33l-26.88,26.88c-1.6,1.6-4.33.47-4.33-1.79Z"/><path class="cls-2" d="m118.94,112.33h15.34c6.15,0,11.13-4.99,11.13-11.13v-46.95c0-8.11-6.58-14.69-14.69-14.69H47.46c-8.11,0-14.69,6.58-14.69,14.69v84.18c0,8.11,6.58,14.69,14.69,14.69h49.21c6.15,0,11.13-4.99,11.13-11.13v-18.51c0-6.15,4.99-11.13,11.13-11.13Z"/><line class="cls-3" x1="63.81" y1="27.98" x2="63.81" y2="53.6"/><line class="cls-5" x1="63.81" y1="26.39" x2="63.81" y2="52.01"/><line class="cls-3" x1="89.08" y1="27.98" x2="89.08" y2="53.6"/><line class="cls-5" x1="89.08" y1="26.25" x2="89.08" y2="51.87"/><line class="cls-3" x1="114.34" y1="27.98" x2="114.34" y2="53.6"/><line class="cls-5" x1="114.34" y1="26.25" x2="114.34" y2="51.87"/><g class="cls-13"><path class="cls-8" d="m132.07,88.23v-9.04c0-6.76-5.48-12.24-12.24-12.24h-53.2c-6.76,0-12.24,5.48-12.24,12.24v28.45c0,2.9-.77,5.74-2.23,8.24l-5.84,10.02c-.82,1.41.61,3.07,2.12,2.45l9.78-3.94c3.36-1.35,6.95-2.05,10.57-2.05h51.03c6.76,0,12.24-5.48,12.24-12.24v-9.53s0-12.38,0-12.38Z"/><path class="cls-7" d="m102.27,108.39h-26.99c-1.76,0-3.19-1.23-3.19-2.74s1.43-2.74,3.19-2.74h26.99c1.76,0,3.19,1.23,3.19,2.74s-1.43,2.74-3.19,2.74Z"/><path class="cls-7" d="m114.33,94.61c0,1.51-1.43,2.74-3.19,2.74h-35.86c-1.76,0-3.19-1.23-3.19-2.74h0c0-1.51,1.43-2.74,3.19-2.74h35.86c1.76,0,3.19,1.23,3.19,2.74h0Z"/><path class="cls-7" d="m111.14,86.3h-35.86c-1.76,0-3.19-1.23-3.19-2.74s1.43-2.74,3.19-2.74h35.86c1.76,0,3.19,1.23,3.19,2.74s-1.43,2.74-3.19,2.74Z"/></g></svg>