<?xml version="1.0" encoding="UTF-8"?>
<svg id="Layer_1" data-name="Layer 1" xmlns="http://www.w3.org/2000/svg" viewBox="0 0 180 180">
  <defs>
    <style>
      .cls-1 {
        stroke-width: 5.7px;
      }

      .cls-1, .cls-2, .cls-3 {
        fill: none;
        stroke: #2d5798;
        stroke-linecap: round;
        stroke-linejoin: round;
      }

      .cls-4, .cls-5 {
        fill: #468ff3;
      }

      .cls-6 {
        fill: #2d5798;
      }

      .cls-2 {
        stroke-width: 5.02px;
      }

      .cls-3 {
        stroke-width: 3px;
      }

      .cls-5 {
        opacity: .15;
      }
    </style>
  </defs>
  <path class="cls-5" d="M94.85,133.08c0-.93,.51-1.83,1.35-2.32l7.67-4.43c-.35-1.87-.55-3.79-.55-5.76s.2-3.88,.55-5.77l-7.67-4.43c-.84-.48-1.35-1.38-1.35-2.32,0-2.81,7.26-16.3,10.51-16.3,.47,0,.94,.12,1.36,.36l6.87,3.95V30.64c0-9.33-7.56-16.9-16.9-16.9H21.9c-9.33,0-16.9,7.56-16.9,16.9V123.01c0,9.33,7.56,16.9,16.9,16.9H96.69c.29,0,.56-.03,.85-.04-1.57-3.03-2.69-5.85-2.69-6.78Z"/>
  <path class="cls-5" d="M173.65,134.31l-7.67-4.43c.35-1.88,.54-3.94,.54-5.76s-.2-3.89-.55-5.76l7.67-4.43c.84-.48,1.35-1.38,1.35-2.32,0-2.32-6.91-16.3-10.51-16.3-.47,0-.94,.12-1.36,.36l-7.69,4.44c-2.92-2.5-6.29-4.45-9.98-5.76v-8.87c0-1.24-.85-2.35-2.06-2.6-2.74-.57-5.56-.9-8.47-.9s-5.74,.32-8.47,.9c-1.21,.25-2.06,1.37-2.06,2.6v8.87c-3.69,1.31-7.06,3.26-9.97,5.75l-7.7-4.43c-.42-.24-.89-.36-1.36-.36-3.25,0-10.51,13.49-10.51,16.3,0,.93,.51,1.83,1.35,2.32l7.67,4.43c-.35,1.88-.55,3.79-.55,5.77s.2,3.89,.55,5.76l-7.67,4.43c-.84,.48-1.35,1.38-1.35,2.32,0,2.32,6.91,16.3,10.51,16.3,.47,0,.94-.12,1.36-.36l7.69-4.44c2.92,2.49,6.29,4.45,9.98,5.75v8.87c0,1.24,.85,2.35,2.06,2.6,2.74,.58,5.56,.91,8.32,.91s5.74-.33,8.47-.9c1.35-.4,2.21-1.37,2.21-2.61v-8.87c3.69-1.31,7.07-3.26,9.98-5.76l7.69,4.44c.42,.24,.89,.36,1.36,.36,3.24,0,10.51-13.49,10.51-16.3,0-.93-.51-1.83-1.35-2.32Zm-21.38-12.57c.11,.78,.16,1.57,.16,2.37,0,9.65-7.86,17.51-17.51,17.51s-17.51-7.86-17.51-17.51,7.86-17.51,17.51-17.51c8.85,0,16.19,6.6,17.35,15.14"/>
  <path class="cls-2" d="M97.05,141.38H21.9c-9.33,0-16.9-7.56-16.9-16.9V32.12c0-9.33,7.56-16.9,16.9-16.9H96.69c9.33,0,16.9,7.56,16.9,16.9v63.95"/>
  <rect class="cls-4" x="16.04" y="37.02" width="32.89" height="5.59" rx="2.8" ry="2.8"/>
  <rect class="cls-4" x="16.04" y="47.89" width="84.79" height="17.35" rx="8.68" ry="8.68"/>
  <rect class="cls-6" x="16.04" y="79.91" width="32.89" height="5.59" rx="2.8" ry="2.8"/>
  <rect class="cls-6" x="16.04" y="90.78" width="66.08" height="11.93" rx="5.97" ry="5.97"/>
  <g>
    <path class="cls-1" d="M164.49,150.85c-.47,0-.94-.12-1.36-.36l-7.69-4.44c-2.92,2.49-6.29,4.45-9.98,5.76v8.87c0,1.23-.86,2.21-2.21,2.61-2.74,.57-5.71,.9-8.47,.9s-5.58-.33-8.32-.91c-1.21-.25-2.06-1.37-2.06-2.6v-8.87c-3.69-1.3-7.06-3.26-9.98-5.75l-7.69,4.44c-.42,.24-.89,.36-1.36,.36-3.6,0-10.51-13.98-10.51-16.3,0-.93,.51-1.83,1.35-2.32l7.67-4.43c-.35-1.87-.55-3.79-.55-5.76s.2-3.88,.55-5.77l-7.67-4.43c-.84-.48-1.35-1.38-1.35-2.32,0-2.81,7.26-16.3,10.51-16.3,.47,0,.94,.12,1.36,.36l7.7,4.43c2.91-2.49,6.29-4.44,9.97-5.75v-8.87c0-1.24,.86-2.35,2.06-2.6,2.74-.57,5.56-.9,8.47-.9s5.73,.32,8.47,.9c1.21,.25,2.06,1.37,2.06,2.6v8.87c3.69,1.31,7.06,3.26,9.98,5.76l7.69-4.44c.42-.24,.89-.36,1.36-.36,3.6,0,10.51,13.98,10.51,16.3,0,.93-.51,1.83-1.35,2.32l-7.67,4.43c.35,1.87,.55,3.94,.55,5.76s-.2,3.88-.54,5.76l7.67,4.43c.84,.48,1.35,1.38,1.35,2.32,0,2.81-7.28,16.29-10.51,16.3Z"/>
    <circle class="cls-3" cx="134.92" cy="122.05" r="17.51"/>
  </g>
</svg>