<?xml version="1.0" encoding="UTF-8"?>
<svg id="Layer_1" data-name="Layer 1" xmlns="http://www.w3.org/2000/svg" viewBox="0 0 180 180">
  <defs>
    <style>
      .cls-1, .cls-2, .cls-3 {
        fill: #468ff3;
      }

      .cls-2 {
        stroke: #468ff3;
      }

      .cls-2, .cls-4 {
        stroke-linecap: round;
        stroke-linejoin: round;
        stroke-width: 5px;
      }

      .cls-3 {
        opacity: .15;
      }

      .cls-4 {
        fill: none;
        stroke: #2d5798;
      }
    </style>
  </defs>
  <g>
    <path class="cls-4" d="M174.33,71.31v-17.81c0-13.31-10.79-24.1-24.1-24.1H45.46c-13.31,0-24.1,10.79-24.1,24.1v56.04c0,5.7-1.51,11.3-4.38,16.23l-11.51,19.74c-1.62,2.78,1.2,6.04,4.18,4.83l19.26-7.76c6.62-2.67,13.69-4.04,20.82-4.04h100.49c13.31,0,24.1-10.79,24.1-24.1v-18.76s0-24.37,0-24.37Z"/>
    <path class="cls-3" d="M150.9,29.4H46.13c-13.31,0-24.1,10.79-24.1,24.1v56.04c0,5.7-1.51,11.3-4.38,16.23l-11.51,19.74c-1.62,2.78,1.2,6.04,4.18,4.83l19.26-7.76c6.62-2.67,13.69-4.04,20.83-4.04h100.49c13.31,0,24.1-10.79,24.1-24.1V53.5c0-13.31-10.79-24.1-24.1-24.1Zm-7.79,63.6c0,3.13-2.53,5.66-5.66,5.66H58.58c-3.13,0-5.66-2.53-5.66-5.66V48.48c0-3.13,2.53-5.66,5.66-5.66h78.87c3.13,0,5.66,2.53,5.66,5.66v44.52Z"/>
  </g>
  <g>
    <path class="cls-1" d="M51.34,49.87v46.03c0,2.35,1.9,4.25,4.25,4.25h85.08c2.35,0,4.25-1.9,4.25-4.25V49.87c0-4.86-3.94-8.81-8.81-8.81H60.15c-4.86,0-8.81,3.94-8.81,8.81Zm9.83-5.83h73.92c3.53,0,6.39,2.86,6.39,6.39v40.91c0,1.66-2.13,2.33-3.08,.97l-11.42-16.27c-2.08-2.97-6.22-3.6-9.09-1.39l-17.9,13.78c-2.07,1.59-4.9,1.76-7.14,.42l-14.1-8.41c-2.48-1.48-5.63-1.11-7.7,.9l-12.97,12.6c-1.23,1.2-3.29,.32-3.29-1.39V50.43c0-3.53,2.86-6.39,6.39-6.39Z"/>
    <path class="cls-1" d="M67.51,70.46c7.17,1.18,13.27-4.93,12.1-12.1-.71-4.34-4.21-7.84-8.55-8.55-7.17-1.18-13.27,4.93-12.1,12.1,.71,4.34,4.21,7.84,8.55,8.55Z"/>
  </g>
  <line class="cls-2" x1="51.34" y1="111.02" x2="112.98" y2="111.02"/>
  <line class="cls-2" x1="51.34" y1="124.54" x2="100.31" y2="124.54"/>
</svg>