<?xml version="1.0" encoding="UTF-8"?>
<svg id="Layer_1" data-name="Layer 1" xmlns="http://www.w3.org/2000/svg" viewBox="0 0 180 180">
  <defs>
    <style>
      .cls-1 {
        stroke: #468ff3;
        stroke-width: 5.7px;
      }

      .cls-1, .cls-2 {
        fill: none;
        stroke-linecap: round;
        stroke-linejoin: round;
      }

      .cls-2 {
        stroke: #cfde56;
        stroke-width: 4px;
      }

      .cls-3 {
        fill: #468ff3;
        opacity: .15;
      }
    </style>
  </defs>
  <path class="cls-1" d="M111.49,40.9c-8.97-5.2-19.03-7.92-29.49-7.92-32.66,0-59.23,26.57-59.23,59.23s26.57,59.23,59.23,59.23,59.23-26.57,59.23-59.23c0-.8-.02-1.6-.05-2.41"/>
  <path class="cls-3" d="M87.16,125.56c-3.07,3.07-8.05,3.07-11.12,0l-32.6-32.6c-3.07-3.07-3.07-8.05,0-11.12l9.91-9.91c3.07-3.07,8.05-3.07,11.12,0l11.57,11.57c3.07,3.07,8.05,3.07,11.12,0l33.16-33.16c-10.2-8.85-23.49-14.21-38.05-14.21-32.09,0-58.11,26.02-58.11,58.11s26.02,58.11,58.11,58.11,58.11-26.02,58.11-58.11c0-6.57-1.11-12.89-3.12-18.78l-50.1,50.11Z"/>
  <path class="cls-2" d="M151.14,61.57l10.58-10.58c3.07-3.07,3.07-8.05,0-11.12l-9.91-9.91c-3.07-3.07-8.05-3.07-11.12,0l-53.53,53.53c-3.07,3.07-8.05,3.07-11.12,0l-11.57-11.57c-3.07-3.07-8.05-3.07-11.12,0l-9.91,9.91c-3.07,3.07-3.07,8.05,0,11.12l32.6,32.6c3.07,3.07,8.05,3.07,11.12,0l53.21-53.21,10.77-10.77Z"/>
</svg>