<?xml version="1.0" encoding="UTF-8"?>
<svg id="Layer_1" data-name="Layer 1" xmlns="http://www.w3.org/2000/svg" viewBox="0 0 180 180">
  <defs>
    <style>
      .cls-1 {
        stroke: #468ff3;
      }

      .cls-1, .cls-2 {
        fill: none;
        stroke-linecap: round;
        stroke-linejoin: round;
        stroke-width: 5.7px;
      }

      .cls-2 {
        stroke: #2d5798;
      }

      .cls-3 {
        fill: #468ff3;
      }

      .cls-4 {
        opacity: .15;
      }
    </style>
  </defs>
  <g>
    <g class="cls-4">
      <path class="cls-3" d="M98.2,37.56c10.99,.33,18.37,2.79,23.95,5.41l-4.92,18.53c-4.1-1.97-11.81-5.74-23.62-5.74-10.66,0-14.1,4.76-14.1,9.35,0,5.25,5.74,8.86,19.68,13.94,19.68,6.89,27.39,15.91,27.39,30.83s-10.17,26.9-29.19,30.18l-.22,.05c-5.2,1.15-10.55,1.52-15.86,1.1h0c-10.99-.33-21.65-3.44-27.88-6.89l4.92-19.19c6.89,3.77,16.56,7.22,27.23,7.22,9.35,0,15.91-3.77,15.91-10.17s-5.41-10.17-17.55-14.27c-17.55-5.9-29.52-14.11-29.52-30.01,0-14.6,10.17-25.91,27.72-29.19l.93-.18c4.99-.96,10.07-1.28,15.14-.97h0Zm0,0c10.99,.33,18.37,2.79,23.95,5.41l-4.92,18.53c-4.1-1.97-11.81-5.74-23.62-5.74-10.66,0-14.1,4.76-14.1,9.35,0,5.25,5.74,8.86,19.68,13.94,19.68,6.89,27.39,15.91,27.39,30.83s-10.17,26.9-29.19,30.18l-.22,.05c-5.2,1.15-10.55,1.52-15.86,1.1h0c-10.99-.33-21.65-3.44-27.88-6.89l4.92-19.19c6.89,3.77,16.56,7.22,27.23,7.22,9.35,0,15.91-3.77,15.91-10.17s-5.41-10.17-17.55-14.27c-17.55-5.9-29.52-14.11-29.52-30.01,0-14.6,10.17-25.91,27.72-29.19l.93-.18c4.99-.96,10.07-1.28,15.14-.97h0Z"/>
    </g>
    <path class="cls-1" d="M82.37,37.44v-15.58h16.07v14.43m-.41,104.95v16.89h-16.07v-15.75"/>
    <path class="cls-1" d="M98.2,37.56c10.99,.33,18.37,2.79,23.95,5.41l-4.92,18.53c-4.1-1.97-11.81-5.74-23.62-5.74-10.66,0-14.1,4.76-14.1,9.35,0,5.25,5.74,8.86,19.68,13.94,19.68,6.89,27.39,15.91,27.39,30.83s-10.17,26.9-29.19,30.18l-.22,.05c-5.2,1.15-10.55,1.52-15.86,1.1h0c-10.99-.33-21.65-3.44-27.88-6.89l4.92-19.19c6.89,3.77,16.56,7.22,27.23,7.22,9.35,0,15.91-3.77,15.91-10.17s-5.41-10.17-17.55-14.27c-17.55-5.9-29.52-14.11-29.52-30.01,0-14.6,10.17-25.91,27.72-29.19l.93-.18c4.99-.96,10.07-1.28,15.14-.97h0Zm-16.89,103.65c-10.99-.33-21.65-3.44-27.88-6.89l4.92-19.19c6.89,3.77,16.56,7.22,27.23,7.22m-4.26,18.86c-10.99-.33-21.65-3.44-27.88-6.89l4.92-19.19c6.89,3.77,16.56,7.22,27.23,7.22m-4.26,18.86c-10.99-.33-21.65-3.44-27.88-6.89l4.92-19.19c6.89,3.77,16.56,7.22,27.23,7.22"/>
  </g>
  <line class="cls-2" x1="122.15" y1="42.97" x2="117.23" y2="61.5"/>
  <line class="cls-2" x1="53.43" y1="134.33" x2="58.35" y2="115.14"/>
</svg>