<?xml version="1.0" encoding="UTF-8"?>
<svg id="Layer_1" data-name="Layer 1" xmlns="http://www.w3.org/2000/svg" viewBox="0 0 180 180">
  <defs>
    <style>
      .cls-1 {
        fill: #fff;
      }

      .cls-2 {
        fill: #25d266;
      }

      .cls-3 {
        fill: none;
        stroke: #25d266;
        stroke-miterlimit: 10;
        stroke-width: 5.7px;
      }
    </style>
  </defs>
  <g>
    <polygon class="cls-2" points="135.81 128.95 124.09 131.15 119.81 142.41 108.05 140.42 100.23 149.53 89.85 143.58 79.43 149.43 71.68 140.25 59.91 142.14 55.73 130.84 44.03 128.53 43.93 116.46 33.71 110.24 37.69 98.87 30.19 89.49 37.77 80.18 33.9 68.77 44.17 62.64 44.38 50.58 56.1 48.38 60.38 37.11 72.14 39.1 79.96 30 90.34 35.94 100.77 30.1 108.51 39.27 120.28 37.39 124.46 48.69 136.16 51 136.26 63.06 146.48 69.28 142.5 80.66 150 90.04 142.42 99.35 146.29 110.76 136.02 116.88 135.81 128.95"/>
    <path class="cls-2" d="M81.93,109.37c-1.66,0-3.23-.66-4.41-1.85l-13.25-13.41c-1.43-1.45-1.43-3.79,0-5.24,1.43-1.45,3.74-1.45,5.17,0l12.48,12.63,28.6-28.96c1.43-1.45,3.74-1.45,5.17,0,1.43,1.45,1.43,3.79,0,5.24l-29.37,29.74c-1.18,1.19-2.74,1.85-4.41,1.85Z"/>
  </g>
  <g>
    <polygon class="cls-3" points="135.62 129.42 123.9 131.62 119.62 142.89 107.86 140.9 100.04 150 89.66 144.06 79.23 149.9 71.49 140.73 59.72 142.61 55.54 131.31 43.84 129 43.74 116.94 33.52 110.72 37.5 99.34 30 89.96 37.58 80.65 33.71 69.24 43.98 63.12 44.19 51.05 55.91 48.85 60.19 37.59 71.95 39.58 79.77 30.47 90.15 36.42 100.57 30.57 108.32 39.75 120.09 37.86 124.27 49.16 135.97 51.47 136.07 63.54 146.29 69.76 142.31 81.13 149.81 90.51 142.23 99.82 146.1 111.23 135.83 117.36 135.62 129.42"/>
    <path class="cls-1" d="M81.73,109.85c-1.66,0-3.23-.66-4.41-1.85l-13.25-13.41c-1.43-1.45-1.43-3.79,0-5.24,1.43-1.45,3.74-1.45,5.17,0l12.48,12.63,28.6-28.96c1.43-1.45,3.74-1.45,5.17,0,1.43,1.45,1.43,3.79,0,5.24l-29.37,29.74c-1.18,1.19-2.74,1.85-4.41,1.85Z"/>
  </g>
</svg>