<?xml version="1.0" encoding="UTF-8"?>
<svg id="Layer_1" data-name="Layer 1" xmlns="http://www.w3.org/2000/svg" viewBox="0 0 180 180">
  <defs>
    <style>
      .cls-1, .cls-2 {
        fill: #468ff3;
      }

      .cls-2 {
        opacity: .15;
      }

      .cls-3 {
        fill: none;
        stroke: #2d5798;
        stroke-linecap: round;
        stroke-linejoin: round;
        stroke-width: 5px;
      }
    </style>
  </defs>
  <path class="cls-2" d="M90.28,50.26c11.08,0,20.08-8.95,20.08-19.98s-9.01-20-20.08-20-20.08,8.96-20.08,20,9.01,19.98,20.08,19.98Z"/>
  <path class="cls-2" d="M127.27,114.55v-46.93c0-4.88-4.01-8.86-8.92-8.86h-15.48l-12.34,18.2-12.33-18.2h-15.98c-4.89,0-8.92,3.99-8.92,8.86v46.93c0,6.83,5.49,12.4,12.3,12.63v33.07c0,3.57,2.55,6.62,6.06,7.29,6.03,1.15,12.26,1.75,18.63,1.75s12.71-.61,18.8-1.78c3.51-.67,6.05-3.72,6.05-7.29v-33.05c6.72-.31,12.13-5.85,12.13-12.62Z"/>
  <path class="cls-1" d="M89.99,14.44c9.18,0,16.66,7.43,16.66,16.56s-7.47,16.54-16.66,16.54-16.65-7.42-16.65-16.54,7.47-16.56,16.65-16.56m0-5.7c-12.32,0-22.35,9.97-22.35,22.26s10.03,22.24,22.35,22.24,22.36-9.97,22.36-22.24-10.03-22.26-22.36-22.26h0Z"/>
  <path class="cls-3" d="M144.1,56.23c9.26,0,16.76-7.46,16.76-16.67s-7.49-16.72-16.76-16.72-16.76,7.48-16.76,16.72,7.49,16.67,16.76,16.67Z"/>
  <path class="cls-3" d="M35.89,56.23c9.27,0,16.76-7.46,16.76-16.67s-7.49-16.72-16.76-16.72-16.76,7.48-16.76,16.72,7.49,16.67,16.76,16.67Z"/>
  <path class="cls-1" d="M118.06,65.17c1.74,0,3.22,1.45,3.22,3.16v46.93c0,3.65-3,6.75-6.69,6.92-3.04,.14-5.44,2.65-5.44,5.69v33.05c0,.82-.6,1.53-1.43,1.69-5.8,1.12-11.76,1.68-17.72,1.68s-11.81-.56-17.56-1.65c-.83-.16-1.43-.87-1.43-1.69v-33.07c0-3.07-2.43-5.59-5.5-5.7-3.75-.13-6.8-3.24-6.8-6.94v-46.93c0-1.71,1.48-3.16,3.22-3.16h12.96l10.63,15.7c1.06,1.57,2.83,2.5,4.72,2.5h0c1.89,0,3.66-.94,4.72-2.5l10.65-15.7h12.46m0-5.7h-15.48l-12.34,18.2-12.33-18.2h-15.98c-4.89,0-8.92,3.99-8.92,8.86v46.93c0,6.83,5.49,12.4,12.3,12.63v33.07c0,3.57,2.55,6.62,6.06,7.29,6.03,1.15,12.26,1.75,18.63,1.75s12.71-.61,18.8-1.78c3.51-.67,6.05-3.72,6.05-7.29v-33.05c6.72-.31,12.13-5.85,12.13-12.62v-46.93c0-4.88-4.01-8.86-8.92-8.86h0Z"/>
  <path class="cls-3" d="M44.31,115.26v-46.93c0-.57,.13-1.11,.19-1.63H12.45c-4.1,0-7.45,3.35-7.45,7.45v39.16c0,5.68,4.6,10.34,10.28,10.56v12.05c8.48,9.77,18.85,17.85,30.54,23.69,4.95,2.48,10.79-1.05,10.79-6.59v-18.48c-7.29-3.4-12.29-10.72-12.29-19.27Z"/>
  <path class="cls-3" d="M175,113.32v-39.21c0-4.09-3.31-7.4-7.4-7.4h-32.17c.07,.52,.18,1.07,.18,1.63v46.93c0,8.42-4.94,15.74-12.14,19.15v18.57c0,5.54,5.84,9.07,10.8,6.59,11.71-5.86,22.09-13.98,30.58-23.79v-11.92c5.63-.28,10.16-4.89,10.16-10.55Z"/>
</svg>