<?xml version="1.0" encoding="UTF-8"?>
<svg id="Layer_1" data-name="Layer 1" xmlns="http://www.w3.org/2000/svg" viewBox="0 0 180 180">
  <defs>
    <style>
      .cls-1, .cls-2 {
        fill: #468ff3;
      }

      .cls-3 {
        fill: #2d5798;
      }

      .cls-2 {
        opacity: .15;
      }

      .cls-4 {
        fill: none;
        stroke: #2d5798;
        stroke-linecap: round;
        stroke-linejoin: round;
        stroke-width: 5px;
      }
    </style>
  </defs>
  <g>
    <path class="cls-2" d="M150.9,29.4H46.13c-13.31,0-24.1,10.79-24.1,24.1v56.04c0,5.7-1.51,11.3-4.38,16.23l-11.51,19.74c-1.62,2.78,1.2,6.04,4.18,4.83l19.26-7.76c6.62-2.67,13.69-4.04,20.83-4.04h100.49c13.31,0,24.1-10.79,24.1-24.1V53.5c0-13.31-10.79-24.1-24.1-24.1Zm-17.64,60.92c0,3.02-2.45,5.46-5.46,5.46h-18.42v19.49c0,2.87-2.32,5.19-5.19,5.19h-33.37c-2.87,0-5.19-2.32-5.19-5.19V59.86c0-3.88,3.15-7.03,7.03-7.03h53.57c3.88,0,7.03,3.15,7.03,7.03v30.46Z"/>
    <path class="cls-4" d="M174.33,71.31v-17.81c0-13.31-10.79-24.1-24.1-24.1H45.46c-13.31,0-24.1,10.79-24.1,24.1v56.04c0,5.7-1.51,11.3-4.38,16.23l-11.51,19.74c-1.62,2.78,1.2,6.04,4.18,4.83l19.26-7.76c6.62-2.67,13.69-4.04,20.82-4.04h100.49c13.31,0,24.1-10.79,24.1-24.1v-18.76s0-24.37,0-24.37Z"/>
  </g>
  <g>
    <path class="cls-3" d="M93.68,99c-.83,0-1.65-.31-2.28-.94l-7.6-7.6c-1.26-1.26-1.26-3.3,0-4.56,1.26-1.26,3.3-1.26,4.56,0l5.32,5.32,14.79-14.79c1.26-1.26,3.3-1.26,4.56,0,1.26,1.26,1.26,3.3,0,4.56l-17.07,17.07c-.63,.63-1.46,.94-2.28,.94Z"/>
    <g>
      <path class="cls-3" d="M111.99,115.6v-14.98c0-.78,.63-1.41,1.41-1.41h14.98c1.26,0,1.89,1.52,1,2.41l-14.98,14.98c-.89,.89-2.41,.26-2.41-1Z"/>
      <g>
        <rect class="cls-1" x="102.99" y="55.28" width="7.51" height="3.51" rx="1.75" ry="1.75"/>
        <rect class="cls-1" x="88.91" y="55.28" width="7.51" height="3.51" rx="1.75" ry="1.75"/>
        <path class="cls-1" d="M121.61,55.28h-2.79c-.97,0-1.75,.78-1.75,1.75h0c0,.97,.78,1.75,1.75,1.75h2.79c2.59,0,4.68,2.1,4.68,4.68v26.16c0,1.49-1.21,2.7-2.7,2.7h-8.55c-5.36,0-9.71,4.35-9.71,9.71v10.32c0,1.49-1.21,2.7-2.7,2.7h-27.42c-2.59,0-4.68-2.1-4.68-4.68V63.46c0-2.59,2.1-4.68,4.68-4.68h5.37c.97,0,1.75-.78,1.75-1.75h0c0-.97-.78-1.75-1.75-1.75h-5.37c-4.52,0-8.19,3.67-8.19,8.19v46.91c0,4.52,3.67,8.19,8.19,8.19h27.42c3.43,0,6.2-2.78,6.2-6.2v-10.32c0-3.43,2.78-6.2,6.2-6.2h8.55c3.43,0,6.2-2.78,6.2-6.2v-26.16c0-4.52-3.67-8.19-8.19-8.19Z"/>
      </g>
      <g>
        <path class="cls-1" d="M85.62,63.31c-.7,0-1.26-.56-1.26-1.26v-10.03c0-.7,.56-1.26,1.26-1.26s1.26,.56,1.26,1.26v10.03c0,.7-.56,1.26-1.26,1.26Z"/>
        <path class="cls-1" d="M99.7,63.31c-.7,0-1.26-.56-1.26-1.26v-10.03c0-.7,.56-1.26,1.26-1.26s1.26,.56,1.26,1.26v10.03c0,.7-.56,1.26-1.26,1.26Z"/>
        <path class="cls-1" d="M113.78,63.31c-.7,0-1.26-.56-1.26-1.26v-10.03c0-.7,.56-1.26,1.26-1.26s1.26,.56,1.26,1.26v10.03c0,.7-.56,1.26-1.26,1.26Z"/>
      </g>
    </g>
  </g>
</svg>