<?xml version="1.0" encoding="UTF-8"?>
<svg id="Layer_1" data-name="Layer 1" xmlns="http://www.w3.org/2000/svg" viewBox="0 0 180 180">
  <defs>
    <style>
      .cls-1 {
        fill: #fff;
        stroke: #468ff3;
        stroke-width: 5.7px;
      }

      .cls-1, .cls-2 {
        stroke-linecap: round;
        stroke-linejoin: round;
      }

      .cls-3 {
        fill: #468ff3;
        opacity: .15;
      }

      .cls-2 {
        fill: none;
        stroke: #2d5798;
        stroke-width: 5.85px;
      }
    </style>
  </defs>
  <path class="cls-3" d="M153.86,81.96c.35-1.58,.54-3.22,.54-4.91,0-12.55-10.17-22.73-22.73-22.73-2.44,0-4.78,.39-6.98,1.1-7.72-14.07-22.67-23.62-39.86-23.62-22.89,0-41.82,16.93-44.97,38.94-19.41,.94-34.86,16.98-34.86,36.62s16.42,36.67,36.67,36.67c7.85,0,15.13-2.48,21.09-6.68,7.37,8.4,18.17,13.71,30.22,13.71,13.39,0,25.24-6.55,32.54-16.62,5.22,4.24,11.88,6.79,19.13,6.79,16.76,0,30.35-13.59,30.35-30.35,0-13.55-8.88-25.02-21.14-28.92Zm-40.9,13.78l-33.32,21.34c-3.4,2.18-7.87-.26-7.87-4.31v-42.68c0-4.04,4.47-6.49,7.87-4.31l33.32,21.34c3.14,2.01,3.14,6.6,0,8.61Z"/>
  <path class="cls-2" d="M153.86,81.96c.35-1.58,.54-3.22,.54-4.91,0-12.55-10.17-22.73-22.73-22.73-2.44,0-4.78,.39-6.98,1.1-7.72-14.07-22.67-23.62-39.86-23.62-22.89,0-41.82,16.93-44.97,38.94-19.41,.94-34.86,16.98-34.86,36.62s16.42,36.67,36.67,36.67c7.85,0,15.13-2.48,21.09-6.68,7.37,8.4,18.17,13.71,30.22,13.71,13.39,0,25.24-6.55,32.54-16.62,5.22,4.24,11.87,6.79,19.13,6.79,16.76,0,30.35-13.59,30.35-30.35,0-13.55-8.88-25.02-21.14-28.92Z"/>
  <path class="cls-1" d="M79.64,65.79l33.32,21.34c3.14,2.01,3.14,6.6,0,8.61l-33.32,21.34c-3.4,2.18-7.87-.26-7.87-4.31v-42.68c0-4.04,4.47-6.49,7.87-4.31Z"/>
</svg>