<?xml version="1.0" encoding="UTF-8"?>
<svg id="Layer_1" data-name="Layer 1" xmlns="http://www.w3.org/2000/svg" viewBox="0 0 180 180">
  <defs>
    <style>
      .cls-1, .cls-2 {
        fill: #468ff3;
      }

      .cls-3 {
        fill: #2d5798;
      }

      .cls-2 {
        opacity: .15;
      }
    </style>
  </defs>
  <g>
    <path class="cls-2" d="M116.51,117.23h-34.3v15.58c0,5.38,4.38,9.76,9.76,9.76h55.07c4.37,0,8.64,.83,12.7,2.46l6.24,2.51-3.96-6.8c-1.88-3.22-2.87-6.9-2.87-10.63v-30.71c0-5.38-4.38-9.76-9.76-9.76h-11.49v6.2c0,11.79-9.59,21.38-21.38,21.38Z"/>
    <path class="cls-3" d="M174.26,148.1l-6.3-10.82c-1.27-2.17-1.93-4.65-1.93-7.16v-30.71c0-9.18-7.47-16.65-16.65-16.65h-11.49v3.44h11.13c7.29,0,13.21,5.91,13.21,13.21v30.71c0,3.12,.83,6.19,2.4,8.89l6.3,10.82c.89,1.52-.66,3.31-2.29,2.65l-10.55-4.25c-3.63-1.46-7.5-2.21-11.41-2.21h-55.07c-7.29,0-13.21-5.91-13.21-13.21v-15.58h-3.08v15.58c0,9.18,7.47,16.65,16.65,16.65h55.07c3.48,0,6.89,.66,10.12,1.96l10.55,4.25c.66,.27,1.34,.4,2.01,.4,1.49,0,2.94-.64,3.97-1.84,1.5-1.74,1.73-4.14,.57-6.13Z"/>
    <path class="cls-3" d="M149.38,89.66c5.38,0,9.76,4.38,9.76,9.76v30.71c0,3.73,.99,7.4,2.87,10.63l3.96,6.8-6.24-2.51c-4.06-1.63-8.33-2.46-12.7-2.46h-55.07c-5.38,0-9.76-4.38-9.76-9.76v-15.58h-3.81v15.58c0,7.29,5.91,13.21,13.21,13.21h55.07c3.91,0,7.78,.75,11.41,2.21l10.55,4.25c1.64,.66,3.18-1.13,2.29-2.65l-6.3-10.82c-1.57-2.7-2.4-5.77-2.4-8.89v-30.71c0-7.29-5.91-13.21-13.21-13.21h-11.13v3.44h11.49Zm18.95,61.91h0Z"/>
  </g>
  <path class="cls-1" d="M10.94,126.21c-1.68,0-3.3-.72-4.47-2.07-1.69-1.96-1.94-4.66-.64-6.9l8.56-14.69c1.83-3.13,2.79-6.71,2.79-10.34V50.51c0-11.79,9.59-21.38,21.38-21.38H116.51c11.79,0,21.38,9.59,21.38,21.38v45.34c0,11.79-9.59,21.38-21.38,21.38H41.74c-4.89,0-9.67,.93-14.21,2.75l-14.33,5.77c-.74,.3-1.51,.44-2.26,.44ZM38.56,36.03c-7.99,0-14.49,6.5-14.49,14.49v41.69c0,4.85-1.29,9.62-3.73,13.81l-7.19,12.34,11.81-4.76c5.36-2.16,11-3.25,16.78-3.25H116.51c7.99,0,14.49-6.5,14.49-14.49V50.51c0-7.99-6.5-14.49-14.49-14.49H38.56Z"/>
  <g>
    <path class="cls-1" d="M43.89,84.63v-21.23h6.43v15.63h8.05v5.6h-14.48Z"/>
    <path class="cls-1" d="M60.95,84.63v-21.23h6.43v21.23h-6.43Z"/>
    <path class="cls-1" d="M76.35,84.63l-7.83-21.23h7.29l4.58,14.29,4.58-14.29h7.29l-7.83,21.23h-8.08Z"/>
    <path class="cls-1" d="M93.41,84.63v-21.23h16.11v5.6h-9.68v2.1h9.45v5.6h-9.45v2.32h9.68v5.6h-16.11Z"/>
  </g>
</svg>