<?xml version="1.0" encoding="UTF-8"?>
<svg id="Layer_1" data-name="Layer 1" xmlns="http://www.w3.org/2000/svg" viewBox="0 0 180 180">
  <defs>
    <style>
      .cls-1 {
        fill: #468ff3;
      }

      .cls-2 {
        fill: #2d5798;
      }

      .cls-3 {
        opacity: .15;
      }
    </style>
  </defs>
  <g class="cls-3">
    <path class="cls-1" d="M10,28.42v31.72c0,10.17,8.25,18.42,18.42,18.42h31.72c10.17,0,18.42-8.25,18.42-18.42V28.42c0-10.17-8.25-18.42-18.42-18.42H28.42c-10.17,0-18.42,8.25-18.42,18.42Z"/>
  </g>
  <g class="cls-3">
    <path class="cls-1" d="M10,119.85v31.72c0,10.17,8.25,18.42,18.42,18.42h31.72c10.17,0,18.42-8.25,18.42-18.42v-31.72c0-10.17-8.25-18.42-18.42-18.42H28.42c-10.17,0-18.42,8.25-18.42,18.42Z"/>
  </g>
  <g class="cls-3">
    <path class="cls-1" d="M101.43,28.42v31.72c0,10.17,8.25,18.42,18.42,18.42h31.72c10.17,0,18.42-8.25,18.42-18.42V28.42c0-10.17-8.25-18.42-18.42-18.42h-31.72c-10.17,0-18.42,8.25-18.42,18.42Z"/>
  </g>
  <rect class="cls-2" x="101.43" y="101.43" width="22.86" height="22.86" rx="6.57" ry="6.57"/>
  <rect class="cls-2" x="147.14" y="101.43" width="22.86" height="22.86" rx="6.57" ry="6.57"/>
  <rect class="cls-2" x="124.29" y="147.14" width="22.86" height="22.86" rx="6.57" ry="6.57"/>
  <path class="cls-1" d="M60.15,15.7c7.02,0,12.72,5.71,12.72,12.72v31.72c0,7.02-5.71,12.72-12.72,12.72H28.42c-7.02,0-12.72-5.71-12.72-12.72V28.42c0-7.02,5.71-12.72,12.72-12.72h31.72m0-5.7H28.42c-10.17,0-18.42,8.25-18.42,18.42v31.72c0,10.17,8.25,18.42,18.42,18.42h31.72c10.17,0,18.42-8.25,18.42-18.42V28.42c0-10.17-8.25-18.42-18.42-18.42h0Z"/>
  <path class="cls-1" d="M60.15,107.13c7.02,0,12.72,5.71,12.72,12.72v31.72c0,7.02-5.71,12.72-12.72,12.72H28.42c-7.02,0-12.72-5.71-12.72-12.72v-31.72c0-7.02,5.71-12.72,12.72-12.72h31.72m0-5.7H28.42c-10.17,0-18.42,8.25-18.42,18.42v31.72c0,10.17,8.25,18.42,18.42,18.42h31.72c10.17,0,18.42-8.25,18.42-18.42v-31.72c0-10.17-8.25-18.42-18.42-18.42h0Z"/>
  <rect class="cls-1" x="30.4" y="120.3" width="28.64" height="28.64" rx="11.33" ry="11.33"/>
  <rect class="cls-1" x="30.4" y="28.87" width="28.64" height="28.64" rx="11.33" ry="11.33"/>
  <path class="cls-1" d="M151.58,15.7c7.02,0,12.72,5.71,12.72,12.72v31.72c0,7.02-5.71,12.72-12.72,12.72h-31.72c-7.02,0-12.72-5.71-12.72-12.72V28.42c0-7.02,5.71-12.72,12.72-12.72h31.72m0-5.7h-31.72c-10.17,0-18.42,8.25-18.42,18.42v31.72c0,10.17,8.25,18.42,18.42,18.42h31.72c10.17,0,18.42-8.25,18.42-18.42V28.42c0-10.17-8.25-18.42-18.42-18.42h0Z"/>
  <rect class="cls-1" x="121.83" y="28.87" width="28.64" height="28.64" rx="11.33" ry="11.33"/>
</svg>