<?xml version="1.0" encoding="UTF-8"?>
<svg id="Layer_1" data-name="Layer 1" xmlns="http://www.w3.org/2000/svg" viewBox="0 0 180 180">
  <defs>
    <style>
      .cls-1 {
        fill: #468ff3;
      }

      .cls-2 {
        opacity: .15;
      }

      .cls-3 {
        fill: none;
        stroke: #2d5798;
        stroke-linecap: round;
        stroke-linejoin: round;
        stroke-width: 5px;
      }
    </style>
  </defs>
  <g class="cls-2">
    <path class="cls-1" d="M175,71.39v-17.73c0-13.25-10.74-23.99-23.99-23.99H46.71c-13.25,0-23.99,10.74-23.99,23.99v55.79c0,5.68-1.51,11.25-4.36,16.15l-11.45,19.65c-1.61,2.77,1.19,6.01,4.16,4.81l19.17-7.72c6.59-2.65,13.63-4.02,20.73-4.02h100.04c13.25,0,23.99-10.74,23.99-23.99v-42.94Z"/>
  </g>
  <g>
    <path class="cls-3" d="M173.57,71.39v-17.73c0-13.25-10.74-23.99-23.99-23.99H45.28c-13.25,0-23.99,10.74-23.99,23.99v55.79c0,5.68-1.51,11.25-4.36,16.15l-11.45,19.65c-1.61,2.77,1.19,6.01,4.16,4.81l19.17-7.72c6.59-2.65,13.63-4.02,20.73-4.02h100.04c13.25,0,23.99-10.74,23.99-23.99v-18.68s0-24.26,0-24.26Z"/>
    <g>
      <path class="cls-1" d="M51.08,95.41c0-2.24,1.83-4.07,4.07-4.07,.76,0,1.48,.18,2.06,.54,2.06,1.21,4.38,1.92,7.02,1.92,1.7,0,3.31-.58,3.31-1.74s-1.25-1.74-4.21-2.28c-4.92-.89-12.44-2.06-12.44-9.53,0-5.06,4.21-9.66,12.84-9.66,3.18,0,6.62,.63,9.31,1.84,1.39,.63,2.37,2.06,2.37,3.67,0,2.24-1.83,4.03-4.03,4.03-.63,0-1.25-.13-1.79-.36-2.64-1.03-4.7-1.57-6.35-1.57-2.68,0-3.18,.81-3.18,1.57,0,1.16,1.21,1.57,4.38,2.1,4.92,.85,12.21,2.28,12.21,9.17s-4.88,10.38-12.89,10.38c-4.34,0-7.7-.85-10.56-2.42-1.3-.72-2.15-2.01-2.15-3.58Z"/>
      <path class="cls-1" d="M106.02,96.8v-14.76l-6.22,17.54c-.36,.98-1.34,1.75-2.46,1.75s-2.1-.76-2.46-1.75l-6.22-17.54v14.76c0,2.46-2.01,4.52-4.52,4.52s-4.52-2.06-4.52-4.52v-19.02c0-3.94,3.22-7.2,7.2-7.2,3.13,0,5.82,2.01,6.8,4.83l3.71,10.83,3.71-10.83c.98-2.82,3.67-4.83,6.8-4.83,3.98,0,7.2,3.27,7.2,7.2v19.02c0,2.46-2.01,4.52-4.52,4.52s-4.52-2.06-4.52-4.52Z"/>
      <path class="cls-1" d="M118.78,95.41c0-2.24,1.83-4.07,4.07-4.07,.76,0,1.48,.18,2.06,.54,2.06,1.21,4.38,1.92,7.02,1.92,1.7,0,3.31-.58,3.31-1.74s-1.25-1.74-4.21-2.28c-4.92-.89-12.44-2.06-12.44-9.53,0-5.06,4.21-9.66,12.84-9.66,3.18,0,6.62,.63,9.31,1.84,1.39,.63,2.37,2.06,2.37,3.67,0,2.24-1.83,4.03-4.03,4.03-.63,0-1.25-.13-1.79-.36-2.64-1.03-4.7-1.57-6.35-1.57-2.68,0-3.18,.81-3.18,1.57,0,1.16,1.21,1.57,4.38,2.1,4.92,.85,12.21,2.28,12.21,9.17s-4.88,10.38-12.89,10.38c-4.34,0-7.7-.85-10.56-2.42-1.3-.72-2.15-2.01-2.15-3.58Z"/>
    </g>
  </g>
</svg>