<?xml version="1.0" encoding="UTF-8"?>
<svg id="Layer_1" data-name="Layer 1" xmlns="http://www.w3.org/2000/svg" viewBox="0 0 180 180">
  <defs>
    <style>
      .cls-1 {
        stroke-width: 5.7px;
      }

      .cls-1, .cls-2, .cls-3 {
        fill: none;
        stroke-linecap: round;
        stroke-linejoin: round;
      }

      .cls-1, .cls-3 {
        stroke: #2d5798;
      }

      .cls-2 {
        stroke: #468ff3;
        stroke-width: 6.11px;
      }

      .cls-4, .cls-5 {
        fill: #468ff3;
      }

      .cls-3 {
        stroke-width: 6.11px;
      }

      .cls-5 {
        opacity: .15;
      }
    </style>
  </defs>
  <path class="cls-5" d="M89.02,92.02l-18.84,66.76c-1.82,6.45-8.95,9.74-15.06,6.99C25.04,152.17,5,121.91,5,88.19c0-29.15,14.98-56.05,39.03-71.55,5.66-3.65,13.23-1.5,15.99,4.65l28.44,63.28c1.05,2.34,1.25,4.98,.55,7.45Z"/>
  <path class="cls-5" d="M160.8,141.86c-9.99,16.65-37.86,30.16-61.04,30.16-2.34,0-4.67-.11-6.99-.33-6.77-.64-11.37-7.14-9.58-13.7l16.57-60.74,60.21-18.42c6.49-1.99,13.14,2.4,13.98,9.14,.38,3.07,.58,6.17,.58,9.28,0,6.45-1.71,15.42-3.28,21.41"/>
  <path class="cls-3" d="M90.29,90.04l-19.94,70.65c-1.81,6.41-8.9,9.68-14.97,6.95C25.26,154.06,5.19,123.78,5.19,90.04c0-29.29,15.12-56.29,39.36-71.76,5.54-3.53,12.94-1.21,15.64,4.79l30.1,66.97Z"/>
  <path class="cls-1" d="M99.15,82.74l-25.45-57.59c-2.71-6.14,.72-13.29,7.22-14.92,5.94-1.49,12.06-2.25,18.22-2.25,28.38,0,54.03,16.16,66.62,40.84,3.08,6.04,.02,13.4-6.46,15.39l-60.17,18.53Z"/>
  <path class="cls-2" d="M171.87,115.25c-10.56,39.92-48.46,53.96-71.64,53.96-2.34,0-4.67-.11-6.99-.33-6.77-.64-11.37-7.14-9.58-13.7l16.57-60.74,60.21-18.42c6.49-1.99,13.14,2.4,13.98,9.14,.38,3.07,.58,6.17,.58,9.28,0,6.45-1.71,15.42-3.28,21.41"/>
  <g>
    <path class="cls-4" d="M47.41,74.03c5.21,0,9.44-4.21,9.44-9.39s-4.24-9.4-9.44-9.4-9.44,4.21-9.44,9.4,4.24,9.39,9.44,9.39Z"/>
    <path class="cls-4" d="M64.79,104.25v-22.06c0-2.29-1.89-4.17-4.19-4.17h-7.28l-5.8,8.56-5.8-8.56h-7.51c-2.3,0-4.19,1.87-4.19,4.17v22.06c0,3.21,2.58,5.83,5.78,5.94v15.55c0,1.68,1.2,3.11,2.85,3.43,2.84,.54,5.76,.82,8.76,.82s5.98-.29,8.84-.84c1.65-.32,2.85-1.75,2.85-3.43v-15.54c3.16-.15,5.7-2.75,5.7-5.93Z"/>
  </g>
</svg>