<?xml version="1.0" encoding="UTF-8"?>
<svg id="Layer_1" data-name="Layer 1" xmlns="http://www.w3.org/2000/svg" viewBox="0 0 180 180">
  <defs>
    <style>
      .cls-1 {
        fill: #468ff3;
      }

      .cls-2 {
        opacity: .15;
      }

      .cls-3 {
        fill: none;
        stroke: #2d5798;
        stroke-linecap: round;
        stroke-linejoin: round;
        stroke-width: 5px;
      }
    </style>
  </defs>
  <g class="cls-2">
    <path class="cls-1" d="M155.42,93.48v28.61c0,10.89-8.83,19.72-19.72,19.72H53.45c-5.84,0-11.63,1.12-17.04,3.3l-15.76,6.35c-2.44,.98-4.75-1.68-3.42-3.96l9.42-16.15c2.35-4.03,3.59-8.61,3.59-13.28v-45.86c0-10.89,8.83-19.72,19.72-19.72h49.14v8.02c0,18.21,14.76,32.97,32.97,32.97h23.35Z"/>
  </g>
  <g>
    <path class="cls-1" d="M135.19,31.32c14.54,0,26.37,11.83,26.37,26.37s-11.83,26.37-26.37,26.37-26.37-11.83-26.37-26.37,11.83-26.37,26.37-26.37m0-3c-16.22,0-29.37,13.15-29.37,29.37s13.15,29.37,29.37,29.37,29.37-13.15,29.37-29.37-13.15-29.37-29.37-29.37h0Z"/>
    <path class="cls-3" d="M97.69,52.49H48.55c-10.89,0-19.72,8.83-19.72,19.72v45.86c0,4.67-1.24,9.25-3.59,13.28l-9.42,16.15c-1.33,2.28,.98,4.94,3.42,3.96l15.76-6.35c5.42-2.18,11.2-3.3,17.04-3.3h82.24c10.89,0,19.72-8.83,19.72-19.72v-29.93"/>
    <path class="cls-1" d="M136.91,74h0c-2.38,0-4.31-1.93-4.31-4.31v-15.71c0-.88-1.06-1.31-1.68-.69l-1.37,1.38c-1.41,1.42-3.71,1.4-5.08-.05h0c-1.33-1.4-1.3-3.61,.08-4.96l7.66-7.56c.99-.98,2.33-1.53,3.72-1.53h0c2.92,0,5.3,2.37,5.3,5.3v23.83c0,2.38-1.93,4.31-4.31,4.31Z"/>
  </g>
</svg>