<?xml version="1.0" encoding="UTF-8"?>
<svg id="Layer_1" data-name="Layer 1" xmlns="http://www.w3.org/2000/svg" xmlns:xlink="http://www.w3.org/1999/xlink" viewBox="0 0 180 180">
  <defs>
    <style>
      .cls-1 {
        stroke: #fff;
      }

      .cls-1, .cls-2 {
        stroke-width: 3px;
      }

      .cls-1, .cls-2, .cls-3, .cls-4, .cls-5 {
        stroke-linecap: round;
        stroke-linejoin: round;
      }

      .cls-1, .cls-6 {
        fill: #468ff3;
      }

      .cls-2, .cls-7, .cls-3, .cls-4, .cls-5 {
        fill: none;
      }

      .cls-2, .cls-5 {
        stroke: #2d5798;
      }

      .cls-8 {
        clip-path: url(#clippath);
      }

      .cls-3 {
        stroke-width: 5.7px;
      }

      .cls-3, .cls-4 {
        stroke: #468ff3;
      }

      .cls-6 {
        opacity: .15;
      }

      .cls-4 {
        stroke-width: 2.97px;
      }

      .cls-5 {
        stroke-width: 5.85px;
      }
    </style>
    <clipPath id="clippath">
      <path class="cls-7" d="M145.71,39.44V114.28c0,5.17-4.19,9.36-9.36,9.36H41.67c-4.99,0-9.03-4.04-9.03-9.03V39.44H3.92v126.5H173.92V39.44h-28.21Z"/>
    </clipPath>
  </defs>
  <g class="cls-8">
    <g>
      <path class="cls-6" d="M150.23,91.08c.33-1.51,.51-3.08,.51-4.69,0-12-9.73-21.72-21.72-21.72-2.33,0-4.57,.37-6.68,1.05-7.38-13.45-21.68-22.58-38.11-22.58-21.88,0-39.97,16.18-42.99,37.23-18.56,.9-33.33,16.23-33.33,35.01s15.69,35.05,35.05,35.05c7.51,0,14.46-2.37,20.16-6.39,7.04,8.03,17.37,13.11,28.89,13.11,12.8,0,24.12-6.26,31.11-15.89,4.99,4.06,11.35,6.49,18.28,6.49,16.03,0,29.02-12.99,29.02-29.02,0-12.95-8.49-23.92-20.2-27.65Z"/>
      <path class="cls-5" d="M150.23,91.08c.33-1.51,.51-3.08,.51-4.69,0-12-9.73-21.72-21.72-21.72-2.33,0-4.57,.37-6.68,1.05-7.38-13.45-21.68-22.58-38.1-22.58-21.88,0-39.97,16.18-42.99,37.23-18.56,.9-33.33,16.23-33.33,35.01s15.69,35.05,35.05,35.05c7.51,0,14.46-2.37,20.16-6.39,7.04,8.03,17.37,13.11,28.89,13.11,12.8,0,24.12-6.26,31.11-15.89,4.99,4.06,11.35,6.49,18.28,6.49,16.03,0,29.02-12.99,29.02-29.02,0-12.95-8.49-23.92-20.2-27.65Z"/>
    </g>
  </g>
  <g>
    <rect class="cls-6" x="103.98" y="43" width="32.64" height="18.58" rx="3.6" ry="3.6"/>
    <rect class="cls-6" x="103.98" y="68.63" width="32.64" height="18.58" rx="3.6" ry="3.6"/>
    <rect class="cls-6" x="103.98" y="94.26" width="32.64" height="18.58" rx="3.6" ry="3.6"/>
    <rect class="cls-3" x="33.6" y="31.8" width="113.07" height="91.85" rx="12.24" ry="12.24"/>
    <path class="cls-1" d="M60.53,67.45v20.81c0,2.64,3.01,4.17,5.14,2.6l14.18-10.41c1.76-1.29,1.76-3.92,0-5.2l-14.18-10.41c-2.13-1.56-5.14-.04-5.14,2.6Z"/>
    <rect class="cls-2" x="44.94" y="43.84" width="48.25" height="68.02" rx="6.25" ry="6.25"/>
    <rect class="cls-4" x="103.98" y="43" width="32.64" height="18.58" rx="3.6" ry="3.6"/>
    <rect class="cls-4" x="103.98" y="68.63" width="32.64" height="18.58" rx="3.6" ry="3.6"/>
    <rect class="cls-4" x="103.98" y="94.26" width="32.64" height="18.58" rx="3.6" ry="3.6"/>
  </g>
</svg>