<?xml version="1.0" encoding="utf-8"?>
<!-- Generator: Adobe Illustrator 27.9.0, SVG Export Plug-In . SVG Version: 6.00 Build 0)  -->
<svg version="1.1" id="Layer_1" xmlns="http://www.w3.org/2000/svg" xmlns:xlink="http://www.w3.org/1999/xlink" x="0px" y="0px"
	 viewBox="0 0 260 260" style="enable-background:new 0 0 260 260;" xml:space="preserve">
<style type="text/css">
	.st0{fill:none;stroke:#468FF3;stroke-width:5.7;stroke-linecap:round;stroke-linejoin:round;}
	.st1{fill:none;stroke:#FFFFFF;stroke-width:3;stroke-linecap:round;stroke-linejoin:round;}
	.st2{opacity:0.15;fill:#468FF3;enable-background:new    ;}
	.st3{clip-path:url(#SVGID_00000119090755220605929420000014974480525495230131_);}
	.st4{opacity:0.15;}
	.st5{fill:#FFFFFF;}
	.st6{fill:#2D5798;}
	.st7{fill:#468FF3;}
</style>
<g>
	<g>
		<g>
			<polygon class="st0" points="134.5,244.9 228.4,201.5 228.4,165 155,199.8 134.5,155.7 228.4,113.9 134.5,155.7 39.2,126.9 
				39.2,211.4 			"/>
			<line class="st1" x1="134.5" y1="155.7" x2="134.5" y2="226.7"/>
			<polygon class="st0" points="39.2,126.9 134.2,91.3 228.4,113.9 134.5,155.7 			"/>
			<polygon class="st2" points="134.2,91.3 39.2,126.9 39.2,211.4 134.5,244.9 228.4,201.5 228.4,165 155,199.8 134.5,155.7 
				228.4,113.9 			"/>
		</g>
		<polygon class="st0" points="5,170.5 39.2,161.5 39.2,126.9 		"/>
		<polygon class="st2" points="39.2,161.5 5,170.5 39.2,126.9 		"/>
		<polygon class="st0" points="155,199.8 134.5,155.7 228.4,113.9 255,152.4 		"/>
		<polygon class="st2" points="155,199.8 134.5,155.7 228.4,113.9 255,152.4 		"/>
	</g>
	<g>
		<defs>
			<path id="SVGID_1_" d="M23.3,61.2l15.9,61.5l95.1,28.8l91.2-40.5l2.9-39.7l-54.7-38.5l-17.3,9.4l-25.3,35.3l-29-51.5
				c-5.7-10.1-18.4-13.8-28.6-8.4L33.1,39.1C25.1,43.3,21.1,52.5,23.3,61.2L23.3,61.2z"/>
		</defs>
		<clipPath id="SVGID_00000008134972498794409210000007611360173702378684_">
			<use xlink:href="#SVGID_1_"  style="overflow:visible;"/>
		</clipPath>
		<g style="clip-path:url(#SVGID_00000008134972498794409210000007611360173702378684_);">
			<g>
				<g>
					<g>
						<g class="st4">
							<path class="st5" d="M130,189.9c-0.4,0-0.8-0.1-1.1-0.4l-34.5-25.9c-0.8-0.6-1-1.8-0.4-2.6c4.1-5.4,3-13.2-2.4-17.7
								c-1.1-0.9-1.3-2.5-0.4-3.6l68.4-91c0.5-0.7,1.3-1,2.1-1c0.5,0,1.1,0.2,1.5,0.5c2.3,1.5,4.9,2.4,7.6,2.4c4,0,7.7-1.8,10.1-5
								c0.4-0.5,0.9-0.8,1.5-0.8c0.4,0,0.8,0.1,1.1,0.4L217.9,71c0.4,0.3,0.7,0.7,0.7,1.2c0.1,0.5-0.1,1-0.4,1.4
								c-4.1,5.4-3,13.2,2.4,17.7c1.1,0.9,1.3,2.5,0.4,3.6l-68.4,91c-0.5,0.7-1.3,1-2.1,1c-0.5,0-1.1-0.2-1.5-0.5
								c-2.3-1.5-4.9-2.4-7.6-2.4c-4,0-7.7,1.8-10.1,5C131.1,189.7,130.5,189.9,130,189.9L130,189.9z"/>
							<path class="st6" d="M182.3,46.6l34.5,25.9c-4.7,6.3-3.5,15.2,2.7,20.3c0.3,0.3,0.4,0.7,0.1,1l-68.4,91
								c-0.2,0.2-0.4,0.3-0.6,0.3c-0.2,0-0.3-0.1-0.4-0.1c-2.6-1.8-5.7-2.7-8.6-2.7c-4.4,0-8.8,2-11.6,5.7l-34.5-25.9
								c4.7-6.3,3.5-15.2-2.7-20.3c-0.3-0.3-0.4-0.7-0.1-1l68.4-91c0.2-0.2,0.4-0.3,0.6-0.3c0.2,0,0.3,0.1,0.4,0.1
								c2.6,1.8,5.7,2.7,8.6,2.7C175.1,52.3,179.5,50.4,182.3,46.6 M182.3,42.8c-1.1,0-2.3,0.5-3,1.5c-2,2.7-5.1,4.2-8.6,4.2
								c-2.3,0-4.6-0.7-6.5-2c-0.8-0.5-1.7-0.8-2.6-0.8c-1.4,0-2.8,0.7-3.6,1.8l-68.4,91c-1.4,1.9-1.1,4.7,0.7,6.2
								c4.7,3.8,5.6,10.5,2.1,15.1c-1.3,1.7-0.9,4,0.8,5.3l34.5,25.9c0.7,0.5,1.5,0.8,2.3,0.8c0.2,0,0.4,0,0.5,0
								c1-0.1,1.9-0.7,2.5-1.5c2-2.7,5.1-4.2,8.6-4.2c2.3,0,4.6,0.7,6.5,2c0.8,0.5,1.7,0.8,2.6,0.8c1.4,0,2.8-0.7,3.6-1.8l68.4-91
								c1.4-1.9,1.1-4.7-0.7-6.2c-4.7-3.8-5.6-10.5-2.1-15.1c0.6-0.8,0.9-1.8,0.7-2.8c-0.1-1-0.7-1.9-1.5-2.5l-34.5-25.9
								C183.9,43.1,183.1,42.8,182.3,42.8C182.3,42.8,182.3,42.8,182.3,42.8z"/>
						</g>
						<g>
							<path class="st5" d="M130,190.6c-0.5,0-1.1-0.2-1.5-0.5L94,164.1c-1.1-0.8-1.3-2.4-0.5-3.5c3.9-5.2,2.9-12.6-2.3-16.8
								c-1.4-1.1-1.6-3.1-0.5-4.5l68.4-91c0.6-0.8,1.6-1.3,2.6-1.3c0.7,0,1.3,0.2,1.9,0.6c2.2,1.5,4.7,2.2,7.2,2.2
								c3.8,0,7.3-1.7,9.6-4.7c0.5-0.7,1.2-1,2-1c0.5,0,1.1,0.2,1.5,0.5l34.5,25.9c0.5,0.4,0.9,1,1,1.7c0.1,0.7-0.1,1.3-0.5,1.9
								c-3.9,5.2-2.9,12.6,2.3,16.8c1.3,1.1,1.6,3.1,0.5,4.5l-68.4,91c-0.6,0.8-1.6,1.3-2.6,1.3c-0.7,0-1.3-0.2-1.9-0.6
								c-2.2-1.5-4.6-2.2-7.2-2.2c-3.8,0-7.3,1.7-9.6,4.7C131.5,190.2,130.7,190.6,130,190.6L130,190.6z"/>
							<path class="st7" d="M182.3,46.6l34.5,25.9c-4.7,6.3-3.5,15.2,2.7,20.3c0.3,0.3,0.4,0.7,0.1,1l-68.4,91
								c-0.2,0.2-0.4,0.3-0.6,0.3c-0.2,0-0.3-0.1-0.4-0.1c-2.6-1.8-5.7-2.7-8.6-2.7c-4.4,0-8.8,2-11.6,5.7l-34.5-25.9
								c4.7-6.3,3.5-15.2-2.7-20.3c-0.3-0.3-0.4-0.7-0.1-1l68.4-91c0.2-0.2,0.4-0.3,0.6-0.3c0.2,0,0.3,0.1,0.4,0.1
								c2.6,1.8,5.7,2.7,8.6,2.7C175.1,52.3,179.5,50.4,182.3,46.6 M182.3,41.6c-1.5,0-3,0.7-4,2c-1.8,2.4-4.5,3.7-7.6,3.7
								c-2.1,0-4.1-0.6-5.8-1.8c-1-0.7-2.1-1-3.3-1c-1.8,0-3.5,0.9-4.6,2.3l-68.4,91c-1.9,2.5-1.4,6,0.9,7.9c4.1,3.4,5,9.3,1.9,13.4
								c-1.7,2.2-1.2,5.4,1,7.1l34.5,25.9c0.9,0.7,1.9,1,3,1c0.2,0,0.5,0,0.7-0.1c1.3-0.2,2.5-0.9,3.3-2c1.8-2.4,4.5-3.7,7.6-3.7
								c2.1,0,4.1,0.6,5.8,1.8c1,0.7,2.1,1,3.3,1c1.8,0,3.5-0.9,4.6-2.3l68.4-91c1.9-2.5,1.4-6-1-7.9c-4.1-3.4-5-9.3-1.9-13.4
								c0.8-1.1,1.1-2.4,1-3.7c-0.2-1.3-0.9-2.5-2-3.3l-34.5-25.9C184.4,41.9,183.3,41.6,182.3,41.6L182.3,41.6L182.3,41.6z"/>
						</g>
					</g>
					<g>
						<path class="st6" d="M198.2,110.9c0.7,0.5,0.8,1.4,0.3,2.1c-0.5,0.7-1.4,0.8-2.1,0.3l-4-3c-0.7-0.5-0.8-1.4-0.3-2.1
							c0.5-0.7,1.4-0.8,2.1-0.3L198.2,110.9z"/>
						<path class="st6" d="M189.6,104.4c0.7,0.5,0.8,1.4,0.3,2.1c-0.5,0.7-1.4,0.8-2.1,0.3l-4-3c-0.7-0.5-0.8-1.4-0.3-2.1
							s1.4-0.8,2.1-0.3L189.6,104.4z"/>
						<path class="st6" d="M181,98c0.7,0.5,0.8,1.4,0.3,2.1c-0.5,0.7-1.4,0.8-2.1,0.3l-4-3c-0.7-0.5-0.8-1.4-0.3-2.1
							c0.5-0.7,1.4-0.8,2.1-0.3L181,98z"/>
						<path class="st6" d="M172.4,91.5c0.7,0.5,0.8,1.4,0.3,2.1c-0.5,0.7-1.4,0.8-2.1,0.3l-4-3c-0.7-0.5-0.8-1.4-0.3-2.1
							c0.5-0.7,1.4-0.8,2.1-0.3L172.4,91.5z"/>
						<path class="st6" d="M163.8,85c0.7,0.5,0.8,1.4,0.3,2.1s-1.4,0.8-2.1,0.3l-4-3c-0.7-0.5-0.8-1.4-0.3-2.1s1.4-0.8,2.1-0.3
							L163.8,85z"/>
						<path class="st6" d="M155.2,78.6c0.7,0.5,0.8,1.4,0.3,2.1c-0.5,0.7-1.4,0.8-2.1,0.3l-4-3c-0.7-0.5-0.8-1.4-0.3-2.1
							c0.5-0.7,1.4-0.8,2.1-0.3L155.2,78.6z"/>
					</g>
				</g>
				<g>
					<g>
						<g class="st4">
							<path class="st5" d="M108.8,173.6c-0.7,0-1.3-0.4-1.7-1c-2.2-4-6.5-6.4-11.1-6.4c-2.1,0-4.1,0.5-6,1.4
								c-0.4,0.2-0.8,0.3-1.2,0.3l0,0c-1,0-1.8-0.5-2.3-1.3L31.1,67.1c-0.7-1.2-0.3-2.8,0.9-3.5c6-3.7,8.1-11.3,4.8-17.2
								c-0.5-0.9-0.2-2.1,0.7-2.6l37.7-21c0.3-0.2,0.6-0.2,0.9-0.2c0.2,0,0.4,0,0.5,0.1c0.5,0.1,0.9,0.5,1.1,0.9
								c2.2,4,6.5,6.4,11.1,6.4c2.1,0,4.1-0.5,6-1.4c0.4-0.2,0.8-0.3,1.2-0.3c1,0,1.8,0.5,2.3,1.3l55.3,99.4
								c0.7,1.2,0.3,2.8-0.9,3.5c-6,3.7-8.1,11.3-4.8,17.2c0.2,0.4,0.3,1,0.2,1.4c-0.1,0.5-0.5,0.9-0.9,1.1l-37.7,21
								C109.4,173.5,109.1,173.6,108.8,173.6L108.8,173.6z"/>
							<path class="st6" d="M76.2,24.5c2.6,4.7,7.6,7.4,12.8,7.4c2.3,0,4.7-0.5,6.9-1.6c0.1-0.1,0.2-0.1,0.4-0.1
								c0.3,0,0.5,0.1,0.6,0.4l55.3,99.4c0.2,0.4,0.1,0.8-0.3,1c-6.8,4.2-9.3,12.9-5.4,19.7l-37.7,21c-2.6-4.7-7.6-7.4-12.8-7.4
								c-2.3,0-4.7,0.5-6.9,1.6c-0.1,0.1-0.2,0.1-0.4,0.1c-0.3,0-0.5-0.1-0.6-0.4L32.8,66.2c-0.2-0.4-0.1-0.8,0.3-1
								c6.8-4.2,9.3-12.9,5.4-19.7L76.2,24.5 M76.2,20.7c-0.6,0-1.3,0.2-1.8,0.5l-37.7,21c-0.9,0.5-1.5,1.3-1.8,2.3
								c-0.3,1-0.2,2,0.3,2.9c2.8,5.1,1,11.5-4.1,14.7c-2.1,1.3-2.8,3.9-1.6,6.1l55.3,99.4c0.8,1.4,2.3,2.3,4,2.3
								c0.7,0,1.4-0.2,2-0.5c1.6-0.8,3.4-1.2,5.2-1.2c4,0,7.6,2.1,9.5,5.5c0.5,0.9,1.3,1.5,2.3,1.8c0.3,0.1,0.7,0.1,1,0.1
								c0.6,0,1.3-0.2,1.8-0.5l37.7-21c0.9-0.5,1.5-1.3,1.8-2.3c0.3-1,0.2-2-0.3-2.9c-2.8-5.1-1-11.5,4.1-14.7
								c2.1-1.3,2.8-3.9,1.6-6.1l-55.3-99.4c-0.8-1.4-2.3-2.3-4-2.3l0,0c-0.7,0-1.4,0.2-2,0.5c-1.6,0.8-3.4,1.2-5.2,1.2
								c-4,0-7.6-2.1-9.5-5.5c-0.5-0.9-1.3-1.5-2.3-1.8C76.9,20.7,76.6,20.7,76.2,20.7L76.2,20.7L76.2,20.7z"/>
						</g>
						<g>
							<path class="st5" d="M108.8,174.2c-0.9,0-1.7-0.5-2.2-1.3c-2.1-3.8-6.2-6.1-10.6-6.1c-2,0-3.9,0.5-5.7,1.4
								c-0.5,0.2-1,0.4-1.5,0.4l0,0c-1.2,0-2.3-0.6-2.8-1.7L30.6,67.4c-0.8-1.5-0.3-3.5,1.1-4.4c5.7-3.5,7.7-10.7,4.6-16.4
								c-0.7-1.2-0.2-2.7,1-3.4l37.7-21c0.4-0.2,0.8-0.3,1.2-0.3c0.2,0,0.5,0,0.7,0.1c0.6,0.2,1.2,0.6,1.5,1.2
								c2.1,3.8,6.2,6.1,10.6,6.1c2,0,3.9-0.5,5.7-1.4c0.5-0.2,1-0.3,1.5-0.3c1.2,0,2.3,0.6,2.8,1.7l55.3,99.4
								c0.8,1.5,0.3,3.5-1.1,4.4c-5.7,3.5-7.7,10.7-4.6,16.4c0.3,0.6,0.4,1.3,0.2,1.9c-0.2,0.6-0.6,1.2-1.2,1.5l-37.7,21
								C109.6,174.1,109.2,174.2,108.8,174.2z"/>
							<path class="st6" d="M76.2,24.5c2.6,4.7,7.6,7.4,12.8,7.4c2.3,0,4.7-0.5,6.9-1.6c0.1-0.1,0.2-0.1,0.4-0.1
								c0.3,0,0.5,0.1,0.6,0.4l55.3,99.4c0.2,0.4,0.1,0.8-0.3,1c-6.8,4.2-9.3,12.9-5.4,19.7l-37.7,21c-2.6-4.7-7.6-7.4-12.8-7.4
								c-2.3,0-4.7,0.5-6.9,1.6c-0.1,0.1-0.2,0.1-0.4,0.1c-0.3,0-0.5-0.1-0.6-0.4L32.8,66.2c-0.2-0.4-0.1-0.8,0.3-1
								c6.8-4.2,9.3-12.9,5.4-19.7L76.2,24.5 M76.2,19.4c-0.8,0-1.7,0.2-2.4,0.6L36.1,41c-1.2,0.7-2,1.7-2.4,3
								c-0.4,1.3-0.2,2.7,0.4,3.8c2.5,4.5,0.9,10.2-3.7,13c-2.6,1.6-3.5,5-2,7.7l55.3,99.4c1,1.8,2.9,3,5.1,3c0.9,0,1.8-0.2,2.6-0.6
								c1.4-0.7,3-1.1,4.6-1.1c3.5,0,6.7,1.8,8.4,4.8c0.7,1.2,1.7,2,3,2.4c0.5,0.1,0.9,0.2,1.4,0.2c0.8,0,1.7-0.2,2.4-0.6l37.7-21
								c1.2-0.7,2-1.7,2.4-3c0.4-1.3,0.2-2.7-0.4-3.8c-2.5-4.5-0.9-10.2,3.7-13c2.6-1.6,3.5-5,2-7.7l-55.3-99.4c-1-1.8-2.9-3-5.1-3
								c-0.9,0-1.8,0.2-2.6,0.6c-1.5,0.7-3,1.1-4.6,1.1c-3.5,0-6.7-1.8-8.4-4.8c-0.7-1.2-1.7-2-3-2.4C77.2,19.5,76.7,19.4,76.2,19.4
								L76.2,19.4L76.2,19.4z"/>
						</g>
					</g>
					<g>
						<path class="st6" d="M103.7,57c0.7-0.4,1.6-0.1,2,0.6s0.1,1.6-0.6,2l-4.4,2.4c-0.7,0.4-1.6,0.1-2-0.6s-0.1-1.6,0.6-2L103.7,57
							z"/>
						<path class="st6" d="M94.3,62.3c0.7-0.4,1.6-0.1,2,0.6s0.1,1.6-0.6,2l-4.4,2.4c-0.7,0.4-1.6,0.1-2-0.6c-0.4-0.7-0.1-1.6,0.6-2
							L94.3,62.3z"/>
						<path class="st6" d="M84.9,67.5c0.7-0.4,1.6-0.1,2,0.6s0.1,1.6-0.6,2L82,72.6c-0.7,0.4-1.6,0.1-2-0.6c-0.4-0.7-0.1-1.6,0.6-2
							L84.9,67.5z"/>
						<path class="st6" d="M75.5,72.8c0.7-0.4,1.6-0.1,2,0.6s0.1,1.6-0.6,2l-4.4,2.4c-0.7,0.4-1.6,0.1-2-0.6c-0.4-0.7-0.1-1.6,0.6-2
							L75.5,72.8z"/>
						<path class="st6" d="M66.1,78c0.7-0.4,1.6-0.1,2,0.6c0.4,0.7,0.1,1.6-0.6,2l-4.4,2.4c-0.7,0.4-1.6,0.1-2-0.6
							c-0.4-0.7-0.1-1.6,0.6-2L66.1,78z"/>
						<path class="st6" d="M56.7,83.2c0.7-0.4,1.6-0.1,2,0.6s0.1,1.6-0.6,2l-4.4,2.4c-0.7,0.4-1.6,0.1-2-0.6c-0.4-0.7-0.1-1.6,0.6-2
							L56.7,83.2z"/>
					</g>
				</g>
			</g>
		</g>
	</g>
</g>
</svg>
