<?xml version="1.0" encoding="UTF-8"?>
<svg id="Layer_1" data-name="Layer 1" xmlns="http://www.w3.org/2000/svg" viewBox="0 0 180 180">
  <defs>
    <style>
      .cls-1, .cls-2 {
        fill: #468ff3;
      }

      .cls-3 {
        fill: #fff;
      }

      .cls-3, .cls-4, .cls-5 {
        stroke-linecap: round;
        stroke-linejoin: round;
      }

      .cls-3, .cls-4, .cls-5, .cls-6 {
        stroke-width: 5px;
      }

      .cls-3, .cls-5, .cls-6 {
        stroke: #2d5798;
      }

      .cls-4 {
        stroke: #468ff3;
      }

      .cls-4, .cls-5, .cls-6 {
        fill: none;
      }

      .cls-2 {
        opacity: .15;
      }

      .cls-6 {
        stroke-miterlimit: 10;
      }
    </style>
  </defs>
  <g>
    <path class="cls-4" d="M107.97,125.56c29.24,0,60.66-5.03,61.91-16.04,.01,.09,.02,.18,.02,.26,.01,.1,.01,.2,.01,.3v14.68c0,.45,.2,1.21,0,1.59,.21,.61,0,.91,0,1.56,0,11.48-32.11,16.71-61.94,16.71-17.9,0-26.66-.78-28.32-.81"/>
    <path class="cls-5" d="M46.04,127.91c0-.65-.21-1.06,0-1.67-.2-.38,0-1.03,0-1.48v-14.68c0-.1,0-.2,.01-.3,0-.09,.01-.18,.02-.26,.97,8.54,20.11,13.48,42.3,15.27"/>
  </g>
  <g>
    <path class="cls-4" d="M107.97,106.5c18.9,0,38.71-2.1,50.69-6.57h.01c6.53-2.44,10.75-5.56,11.2-9.47,.01,.09,.02,.18,.02,.26,.01,.1,.01,.2,.01,.3v14.68c0,.45,.2,1.2,0,1.58,.21,.61,0,.92,0,1.57,0,.22-.01,.43-.03,.64v.03c-1.25,11-32.67,16.04-61.91,16.04"/>
    <path class="cls-5" d="M46.07,109.53v-.03c-.02-.21-.03-.42-.03-.64,0-.65-.21-1.06,0-1.67-.2-.38,0-1.03,0-1.48v-14.68c0-.1,0-.2,.01-.3,0-.09,.01-.18,.02-.26,.45,3.91,4.67,7.03,11.2,9.47h.01"/>
  </g>
  <path class="cls-4" d="M103.62,87.4c1.45,.02,2.9,.04,4.35,.04,18.9,0,38.71-2.1,50.69-6.57h.01c6.57-2.44,10.78-5.6,11.2-9.5,.01,.1,.02,.2,.02,.3,.01,.1,.01,.2,.01,.3v14.68c0,.45,.2,1.2,0,1.58,.21,.61,0,.92,0,1.57,0,.22-.01,.43-.03,.64v.03c-.45,3.91-4.67,7.03-11.2,9.47h-.01c-11.99,4.47-31.8,6.57-50.69,6.57"/>
  <g>
    <path class="cls-5" d="M151.41,40.54c-10.82,2.76-26.27,4.48-43.44,4.48s-32.63-1.72-43.43-4.48"/>
    <path class="cls-4" d="M90.07,67.74c5.87,.43,11.93,.64,17.9,.64,18.91,0,38.72-2.1,50.7-6.57,6.57-2.44,10.78-5.6,11.2-9.5,.01,.09,.02,.19,.02,.29,.01,.1,.01,.2,.01,.3v14.69c0,.45,.2,1.2,0,1.58,.21,.61,0,.92,0,1.57,0,.22-.01,.43-.03,.64"/>
  </g>
  <g>
    <path class="cls-5" d="M64.54,40.54c10.81,2.76,26.27,4.48,43.43,4.48s32.63-1.72,43.44-4.48"/>
    <path class="cls-4" d="M91.76,17.65c1.4-.1,2.84-.18,4.27-.24l1.46-.07c.91-.04,1.81-.08,2.73-.1,1.19-.04,2.4-.07,3.6-.09,.87-.01,1.74-.02,2.63-.02,.51-.01,1.02-.01,1.52-.01s1.02,0,1.52,.01c.88,0,1.75,.01,2.63,.02,1.21,.02,2.41,.04,3.6,.09,.92,.02,1.82,.06,2.73,.1l1.46,.07c1.45,.07,2.87,.14,4.27,.24,.77,.06,1.53,.1,2.31,.17,.76,.06,1.51,.12,2.26,.19,22.02,1.88,40.73,6.91,41.16,15.53,.01,.1,.01,.2,.01,.3v14.69c0,.45,.2,1.2,0,1.58,.21,.61,0,.92,0,1.57,0,.22-.01,.43-.03,.64"/>
  </g>
  <path class="cls-4" d="M46.04,81.26V33.83c0-.1,0-.2,.01-.3,.28-5.66,8.45-9.78,20.26-12.46l1.95-.43c7.73-1.69,15.6-2.69,23.5-2.99h0c1.4-.1,2.84-.18,4.27-.24,.49-.02,.97-.04,1.46-.07,.9-.04,1.81-.08,2.73-.1,1.19-.04,2.39-.07,3.6-.09,.87-.01,1.74-.02,2.63-.02,.51-.01,1.02-.01,1.52-.01s1.02,0,1.52,.01c.88,0,1.75,.01,2.63,.02,1.21,.02,2.41,.04,3.6,.09,.92,.02,1.82,.06,2.73,.1,.49,.02,.97,.04,1.46,.07,1.45,.07,2.87,.14,4.27,.24,24.81,1.66,42.98,7.04,42.98,13.42,0,3.65-5.97,6.99-15.74,9.47-10.82,2.76-26.27,4.48-43.44,4.48s-32.63-1.72-43.43-4.48c-9.77-2.48-15.74-5.82-15.74-9.47"/>
  <polygon class="cls-2" points="113.84 43.89 134.66 43.89 161.34 37.73 170 31.07 170 132.37 146.8 141.29 113.84 144.89 113.84 43.89"/>
  <g>
    <circle class="cls-3" cx="49.08" cy="123.8" r="39.08"/>
    <circle class="cls-6" cx="49.08" cy="123.8" r="38.85"/>
  </g>
  <g>
    <polygon class="cls-2" points="49.08 105.06 53.73 119.38 68.78 119.38 56.6 128.22 61.25 142.53 49.08 133.69 36.9 142.53 41.55 128.22 29.38 119.38 44.43 119.38 49.08 105.06"/>
    <path class="cls-1" d="M49.08,105.06l4.65,14.31h15.05l-12.18,8.85,4.65,14.31-12.18-8.85-12.18,8.85,4.65-14.31-12.18-8.85h15.05l4.65-14.31m19.7,14.31h0m-19.7-20.01c-2.47,0-4.66,1.59-5.42,3.94l-3.37,10.37h-10.91c-2.47,0-4.66,1.59-5.42,3.94-.76,2.35,.07,4.92,2.07,6.37l8.82,6.41-3.37,10.37c-.76,2.35,.07,4.92,2.07,6.37,1,.73,2.17,1.09,3.35,1.09s2.35-.36,3.35-1.09l8.82-6.41,8.82,6.41c1,.73,2.17,1.09,3.35,1.09s2.35-.36,3.35-1.09c2-1.45,2.83-4.02,2.07-6.37l-3.37-10.37,8.74-6.35c1.47-1.03,2.44-2.74,2.44-4.67,0-3.15-2.55-5.7-5.7-5.7h-10.91l-3.37-10.37c-.76-2.35-2.95-3.94-5.42-3.94h0Z"/>
  </g>
</svg>