<?xml version="1.0" encoding="UTF-8"?>
<svg id="Layer_1" data-name="Layer 1" xmlns="http://www.w3.org/2000/svg" viewBox="0 0 180 180">
  <defs>
    <style>
      .cls-1 {
        stroke-width: 3px;
      }

      .cls-1, .cls-2 {
        stroke-linecap: round;
        stroke-linejoin: round;
      }

      .cls-1, .cls-2, .cls-3 {
        fill: none;
      }

      .cls-1, .cls-3 {
        stroke: #468ff3;
      }

      .cls-2 {
        stroke: #2d5798;
      }

      .cls-2, .cls-3 {
        stroke-width: 5.7px;
      }

      .cls-4, .cls-5 {
        fill: #468ff3;
      }

      .cls-6 {
        fill: #2d5798;
      }

      .cls-3 {
        stroke-miterlimit: 10;
      }

      .cls-5 {
        opacity: .15;
      }
    </style>
  </defs>
  <path class="cls-5" d="M171.43,159.26l-11.75-17.46c-3.02-4.49-4.64-9.79-4.64-15.21v-31.65l-.04,.06V47.96c0-11.37-9.26-20.6-20.68-20.6h-35.5v2.58c0,19.96-3.59,26.16-12.17,26.16l-65.3-.6v93.82c0,11.37,9.26,20.6,20.68,20.6h123.73c5.47,0,8.72-6.12,5.66-10.67Zm-84.27-20.32c-.25,1.84-.5,3.31-.72,4.05-.23,.75-.96,1.72-1.64,1.9l-10.02,2.75c-.67,.18-1.76-.18-1.81-.98-.52-8.16-3.3-20.55-9.48-30.9-.13-.21-.26-.49-.4-.8-1.08-2.47-3.3-4.26-5.96-4.71h0c-9.85-2.19-12.27-15.21-3.8-20.69,.02-.01,.04-.02,.04-.02,.15-.7,.66-1.36,1.32-1.61l20.98-8.2c.11-.04,.21-.07,.32-.08,.64-.09,1.13,.29,1.23,.96l4.57,30.54c.05,.34-.02,.65-.19,.88-.16,.21-.41,.35-.71,.4-.1,.02-.21,.02-.33,.01l-1.54-.11c.05,.11,.19,.29,.39,.54,6.1,7.25,9.02,16.68,7.75,26.07Zm29.07-20.8c-.14,0-.27-.02-.41-.07-8.42-2.86-17.23-4.97-28.79-6.31-.68-.08-1.24-.6-1.34-1.28l-4.52-30.19c-.1-.68,.27-1.34,.89-1.61,10.78-4.81,18.52-9.87,25.59-15.09,.23-.17,.49-.25,.74-.25,.59,0,1.15,.42,1.25,1.08l7.83,52.27c.12,.79-.51,1.45-1.25,1.45Z"/>
  <path class="cls-2" d="M23.75,59.8v88.72c0,11.37,9.26,20.6,20.68,20.6h123.73c5.47,0,8.72-6.12,5.66-10.67l-11.75-17.46c-3.02-4.49-4.64-9.79-4.64-15.21v-31.65l-.04,.06V47.15c0-11.37-9.26-20.6-20.68-20.6h-36.01"/>
  <path class="cls-3" d="M9.33,55.98h15.39s5.78,0,5.78,0h55.25c8.26,0,14.95-6.69,14.95-14.95v-15.56s0-.45,0-.45v-1.92c0-7.2-5.86-13.03-13.08-13.03h-1.87s-54.41,0-54.41,0h-2.12c-7.23,0-13.08,5.83-13.08,13.03v2.37h-.03v3.09c0,3.43-1.02,6.78-2.94,9.62l-7.43,11.04c-1.94,2.88,.12,6.75,3.58,6.75Z"/>
  <line class="cls-1" x1="30.11" y1="27.36" x2="84.89" y2="27.36"/>
  <line class="cls-1" x1="30.11" y1="39.87" x2="84.89" y2="39.87"/>
  <g>
    <path class="cls-4" d="M76.7,83.28h0m-2.6,1.02l3.77,25.16c-.72,.22-1.36,.67-1.81,1.31-.68,.98-.8,2.25-.31,3.34,.19,.41,.45,.8,.89,1.33,5.56,6.6,8.1,15.15,6.99,23.43-.27,2.03-.46,2.94-.55,3.31l-7.12,1.96c-.93-8.42-3.86-19.92-9.72-29.73,0-.01-.08-.13-.2-.42-1.55-3.53-4.69-6.03-8.42-6.68-3.8-.88-5.65-3.9-6.1-6.44-.58-3.25,.71-6.26,3.45-8.05,.6-.37,1.07-.92,1.34-1.56l17.79-6.95m-17.59,6.32h0m-1.52,2.17h0m21-12.78c-.06,0-.12,0-.19,.01-.11,.02-.21,.04-.32,.08l-20.98,8.2c-.66,.25-1.17,.91-1.32,1.61,0,0-.02,0-.04,.02-8.47,5.48-6.04,18.5,3.8,20.69h0c2.66,.45,4.88,2.24,5.96,4.71,.14,.31,.27,.58,.4,.8,6.18,10.35,8.96,22.74,9.48,30.9,.04,.66,.8,1.02,1.44,1.02,.13,0,.26-.02,.37-.05l10.02-2.75c.67-.18,1.4-1.15,1.64-1.9,.23-.74,.48-2.21,.72-4.05,1.26-9.4-1.65-18.82-7.75-26.07-.21-.25-.34-.43-.39-.54l1.54,.11s.07,0,.11,0c.07,0,.15,0,.22-.02,.3-.04,.54-.18,.71-.4,.18-.23,.25-.54,.19-.88l-4.57-30.54c-.09-.6-.5-.97-1.04-.97h0Z"/>
    <path class="cls-6" d="M109.51,65.67h0m-2.28,1.66l7.1,47.37c-8.29-2.63-16.47-4.37-26.02-5.53l-4.25-28.37c9.98-4.54,17.3-9.26,23.17-13.48m1.26-4.31c-.26,0-.52,.08-.75,.25-7.15,5.28-14.99,10.4-25.89,15.26-.63,.28-1.01,.95-.9,1.63l4.58,30.54c.1,.69,.66,1.22,1.35,1.3,11.69,1.35,20.61,3.49,29.12,6.38,.14,.05,.28,.07,.42,.07,.75,0,1.38-.66,1.26-1.47l-7.92-52.88c-.1-.66-.67-1.09-1.27-1.09h0Z"/>
    <path class="cls-4" d="M116.69,56.13c-.16,0-.33,.01-.49,.04-.82,.12-1.56,.54-2.02,1.15-.48,.63-.66,1.46-.53,2.38l9.22,61.55c.3,2.03,1.71,2.88,3.04,2.88,.15,0,.31-.01,.46-.03h0c.8-.12,1.49-.52,1.96-1.13,.52-.69,.71-1.59,.56-2.62l-9.22-61.55c-.28-1.88-1.66-2.66-2.98-2.66h0Z"/>
    <path class="cls-6" d="M132.67,88.78c0-.06-.02-.12-.03-.18v-.02c-.64-3.85-3.04-6.98-6.09-8.07l2.67,17.99c2.67-1.97,4.05-5.75,3.45-9.72Z"/>
  </g>
</svg>