<?xml version="1.0" encoding="UTF-8"?>
<svg id="Layer_1" data-name="Layer 1" xmlns="http://www.w3.org/2000/svg" viewBox="0 0 180 180">
  <defs>
    <style>
      .cls-1 {
        stroke: #468ff3;
      }

      .cls-1, .cls-2, .cls-3 {
        fill: none;
        stroke-linecap: round;
        stroke-linejoin: round;
      }

      .cls-1, .cls-3 {
        stroke-width: 5.29px;
      }

      .cls-2 {
        stroke-width: 5.7px;
      }

      .cls-2, .cls-3 {
        stroke: #2d5798;
      }

      .cls-4 {
        fill: #468ff3;
      }

      .cls-5 {
        fill: #2d5798;
      }

      .cls-6 {
        opacity: .15;
      }
    </style>
  </defs>
  <g class="cls-6">
    <path class="cls-4" d="M153.74,90l-52.81,39.47c-6.38,4.77-15.14,4.78-21.53,.03L26.26,90v51.59c0,9.24,7.49,16.72,16.72,16.72h94.04c9.24,0,16.72-7.49,16.72-16.72v-7.4"/>
  </g>
  <g>
    <g>
      <path class="cls-3" d="M165,117.14v-28.67l-55.37,43.38c-11.53,9.03-27.73,9.03-39.25,0L28.76,99.26l-13.76-10.78"/>
      <path class="cls-1" d="M15,82.45v67.38c0,10.87,8.81,19.68,19.68,19.68h110.65c10.87,0,19.68-8.81,19.68-19.68v-31.53"/>
      <polyline class="cls-1" points="148.67 65.61 165 82.45 148.67 82.45"/>
      <path class="cls-1" d="M70.86,22.44c3.87-4.06,2.66-2.53,5.49-5.59,7.76-8.38,20.96-8.48,28.86-.23l6.66,6.82"/>
      <path class="cls-1" d="M31.96,82.45H15c3.86-3.77,13.45-13.28,16.96-16.74"/>
    </g>
    <path class="cls-2" d="M32.83,101.26V39.09c0-8.23,6.67-14.9,14.9-14.9h84.94c8.23,0,14.9,6.67,14.9,14.9v62.18"/>
    <g>
      <path class="cls-5" d="M85.92,92.42c-.89,0-1.78-.34-2.46-1.02l-8.21-8.21c-1.36-1.36-1.36-3.57,0-4.93,1.36-1.36,3.57-1.36,4.93,0l5.75,5.75,15.98-15.98c1.36-1.36,3.57-1.36,4.93,0,1.36,1.36,1.36,3.57,0,4.93l-18.44,18.44c-.68,.68-1.57,1.02-2.46,1.02Z"/>
      <g>
        <path class="cls-5" d="M105.71,110.36v-16.18c0-.84,.68-1.53,1.53-1.53h16.18c1.36,0,2.04,1.65,1.08,2.61l-16.18,16.18c-.96,.96-2.61,.28-2.61-1.08Z"/>
        <g>
          <rect class="cls-4" x="95.99" y="45.18" width="8.11" height="3.79" rx="1.89" ry="1.89"/>
          <rect class="cls-4" x="80.77" y="45.18" width="8.11" height="3.79" rx="1.89" ry="1.89"/>
          <path class="cls-4" d="M116.11,45.18h-3.02c-1.05,0-1.89,.85-1.89,1.89h0c0,1.05,.85,1.89,1.89,1.89h3.02c2.79,0,5.06,2.26,5.06,5.06v28.27c0,1.61-1.31,2.92-2.92,2.92h-9.23c-5.79,0-10.49,4.7-10.49,10.49v11.15c0,1.61-1.31,2.92-2.92,2.92h-29.63c-2.79,0-5.06-2.26-5.06-5.06V54.02c0-2.79,2.26-5.06,5.06-5.06h5.8c1.05,0,1.89-.85,1.89-1.89h0c0-1.05-.85-1.89-1.89-1.89h-5.8c-4.89,0-8.85,3.96-8.85,8.85v50.68c0,4.89,3.96,8.85,8.85,8.85h29.63c3.7,0,6.7-3,6.7-6.7v-11.15c0-3.7,3-6.7,6.7-6.7h9.23c3.7,0,6.7-3,6.7-6.7v-28.27c0-4.89-3.96-8.85-8.85-8.85Z"/>
        </g>
        <g>
          <path class="cls-4" d="M77.22,53.85c-.75,0-1.36-.61-1.36-1.36v-10.84c0-.75,.61-1.36,1.36-1.36s1.36,.61,1.36,1.36v10.84c0,.75-.61,1.36-1.36,1.36Z"/>
          <path class="cls-4" d="M92.44,53.85c-.75,0-1.36-.61-1.36-1.36v-10.84c0-.75,.61-1.36,1.36-1.36s1.36,.61,1.36,1.36v10.84c0,.75-.61,1.36-1.36,1.36Z"/>
          <path class="cls-4" d="M107.65,53.85c-.75,0-1.36-.61-1.36-1.36v-10.84c0-.75,.61-1.36,1.36-1.36s1.36,.61,1.36,1.36v10.84c0,.75-.61,1.36-1.36,1.36Z"/>
        </g>
      </g>
    </g>
  </g>
</svg>