<?xml version="1.0" encoding="UTF-8"?>
<svg id="Layer_1" data-name="Layer 1" xmlns="http://www.w3.org/2000/svg" viewBox="0 0 180 180">
  <defs>
    <style>
      .cls-1, .cls-2 {
        fill: #468ff3;
      }

      .cls-2 {
        opacity: .15;
      }

      .cls-3 {
        fill: none;
        stroke: #2d5798;
        stroke-linecap: round;
        stroke-linejoin: round;
        stroke-width: 5px;
      }
    </style>
  </defs>
  <path class="cls-2" d="M150.9,29.4H46.13c-13.31,0-24.1,10.79-24.1,24.1v56.04c0,5.7-1.51,11.3-4.38,16.23l-11.51,19.74c-1.62,2.78,1.2,6.04,4.18,4.83l19.26-7.76c6.62-2.67,13.69-4.04,20.83-4.04h100.49c13.31,0,24.1-10.79,24.1-24.1V53.5c0-13.31-10.79-24.1-24.1-24.1Zm-2.31,81.64c0,2.51-2.04,4.55-4.55,4.55H52.99c-2.51,0-4.55-2.04-4.55-4.55V61.78c0-5.2,4.22-9.42,9.42-9.42h81.31c5.2,0,9.42,4.22,9.42,9.42v49.26Z"/>
  <g>
    <g>
      <path class="cls-1" d="M46.67,60.45v50.63c0,2.58,2.09,4.68,4.68,4.68h93.58c2.58,0,4.68-2.09,4.68-4.68V60.45c0-5.35-4.34-9.68-9.68-9.68H56.35c-5.35,0-9.68,4.34-9.68,9.68Zm10.81-6.41h81.31c3.88,0,7.03,3.15,7.03,7.03v45c0,1.82-2.34,2.56-3.39,1.07l-12.56-17.89c-2.29-3.26-6.84-3.96-10-1.52l-19.69,15.16c-2.28,1.75-5.39,1.94-7.86,.47l-15.51-9.25c-2.72-1.62-6.2-1.22-8.47,1l-14.27,13.86c-1.35,1.32-3.62,.36-3.62-1.53V61.06c0-3.88,3.15-7.03,7.03-7.03Z"/>
      <path class="cls-1" d="M64.45,83.09c7.88,1.29,14.6-5.42,13.31-13.31-.78-4.77-4.63-8.62-9.4-9.41-7.88-1.29-14.6,5.42-13.31,13.31,.78,4.77,4.63,8.62,9.41,9.4Z"/>
    </g>
    <path class="cls-3" d="M174.33,71.31v-17.81c0-13.31-10.79-24.1-24.1-24.1H45.46c-13.31,0-24.1,10.79-24.1,24.1v56.04c0,5.7-1.51,11.3-4.38,16.23l-11.51,19.74c-1.62,2.78,1.2,6.04,4.18,4.83l19.26-7.76c6.62-2.67,13.69-4.04,20.82-4.04h100.49c13.31,0,24.1-10.79,24.1-24.1v-18.76s0-24.37,0-24.37Z"/>
  </g>
</svg>