<?xml version="1.0" encoding="UTF-8"?>
<svg id="Layer_1" data-name="Layer 1" xmlns="http://www.w3.org/2000/svg" viewBox="0 0 180 180">
  <defs>
    <style>
      .cls-1 {
        stroke: #468ff3;
        stroke-width: 5.7px;
      }

      .cls-1, .cls-2 {
        fill: none;
        stroke-linecap: round;
        stroke-linejoin: round;
      }

      .cls-3 {
        fill: #468ff3;
      }

      .cls-4 {
        opacity: .15;
      }

      .cls-2 {
        stroke: #2d5798;
        stroke-width: 5px;
      }
    </style>
  </defs>
  <g>
    <g class="cls-4">
      <path class="cls-3" d="M131.69,102.23H48.56c0,2.26,0,6.91,0,9.17,0,15.07,0,22.87,0,37.94,0,3.62,1.95,5.77,5.19,5.76h40.49s32.03,0,32.03,0c3.57,0,5.41-2.05,5.41-6.03"/>
      <path class="cls-3" d="M145.92,77.77c-.03-3.2-2.38-5.43-5.58-5.44h-49.95s-50.09,0-50.09,0c-3.79,0-6,2.19-6.01,5.97,0,4.68,0,13.31,0,17.99,0,3.67,2.29,5.95,5.96,5.94l6.53-.02h93.61c3.18,0,5.49-2.3,5.52-5.51,.05-4.99,.05-13.94,0-18.92Z"/>
    </g>
    <g>
      <path class="cls-1" d="M74.83,102.83h-28.3l-6.53,.02c-3.68,0-5.97-2.27-5.96-5.94,0-4.68,0-13.31,0-17.99,0-3.78,2.21-5.98,6.01-5.97h50.09s49.95,0,49.95,0c3.2,.01,5.55,2.25,5.58,5.44,.06,4.99,.06,13.93,0,18.92-.03,3.22-2.34,5.51-5.52,5.51h-34.71"/>
      <g>
        <path class="cls-1" d="M48.31,105.23c0,2.26,0,4.53,0,6.79,0,15.07,0,22.87,0,37.94,0,3.62,1.95,5.77,5.19,5.76h40.49s32.03,0,32.03,0c3.57,0,5.41-2.05,5.41-6.03,0-5.4,0-24.07,0-29.46"/>
        <path class="cls-1" d="M131.44,120.99c0-5.17,0-10.34,0-15.5"/>
      </g>
    </g>
    <g>
      <path class="cls-2" d="M105.85,66.92c-5.96,0-10.74-2.2-12.87-6.46h0c-3.77-7.54,2.58-17.83,14.77-23.93,12.19-6.1,24.23-5.02,28,2.52,3.77,7.54-2.57,17.83-14.77,23.93-5.29,2.65-10.56,3.94-15.13,3.94Z"/>
      <path class="cls-2" d="M80.93,66.54c-6.75,0-15.3-3.87-22.51-9.37-5.59-4.26-10.15-9.29-12.84-14.16-4.4-7.96-2.35-12.69-.74-14.8,5.89-7.72,20.31-3.11,31.52,5.44,11.21,8.55,19.47,21.24,13.59,28.96-2.1,2.75-5.28,3.94-9.01,3.94Z"/>
    </g>
  </g>
  <line class="cls-2" x1="81.19" y1="146.22" x2="81.19" y2="82.45"/>
  <line class="cls-2" x1="99.09" y1="146.22" x2="99.09" y2="82.45"/>
</svg>