<?xml version="1.0" encoding="UTF-8"?>
<svg id="Layer_1" data-name="Layer 1" xmlns="http://www.w3.org/2000/svg" viewBox="0 0 180 180">
  <defs>
    <style>
      .cls-1 {
        stroke: #468ff3;
      }

      .cls-1, .cls-2, .cls-3, .cls-4 {
        fill: none;
        stroke-linecap: round;
        stroke-linejoin: round;
      }

      .cls-1, .cls-3 {
        stroke-width: 5.7px;
      }

      .cls-2 {
        stroke-width: 3.5px;
      }

      .cls-2, .cls-3, .cls-4 {
        stroke: #2d5798;
      }

      .cls-4 {
        stroke-width: 2px;
      }

      .cls-5 {
        fill: #468ff3;
        opacity: .15;
      }
    </style>
  </defs>
  <polyline class="cls-5" points="56.23 137.59 61.53 132.28 77.23 147.99 77.23 104.13 33.38 104.13 49.08 119.84 29.17 139.75 41.62 152.19 48.15 145.66"/>
  <g>
    <path class="cls-4" d="M89.64,113.48c.45,.03,2.39,.04,2.85,.04,13.64,0,24.74-11.1,24.74-24.74s-11.1-24.74-24.74-24.74-24.74,11.1-24.74,24.74c0,1.01,.17,1.97,.3,2.94"/>
    <path class="cls-2" d="M89.64,131.51c.45,.02,2.39,.03,2.85,.03,23.58,0,42.76-19.18,42.76-42.76s-19.18-42.75-42.76-42.75-42.76,19.18-42.76,42.75c0,1,.08,1.97,.17,2.94"/>
    <path class="cls-3" d="M89.64,149.53c.45,.01,2.39,.03,2.85,.03,33.51,0,60.77-27.26,60.77-60.77s-27.26-60.77-60.77-60.77S31.71,55.27,31.71,88.78c0,.99,.04,1.97,.1,2.94"/>
  </g>
  <polygon class="cls-1" points="56.23 137.59 61.53 132.28 77.23 147.99 77.23 104.13 33.38 104.13 49.08 119.84 29.17 139.75 41.62 152.19 48.15 145.66 56.23 137.59"/>
</svg>