<?xml version="1.0" encoding="UTF-8"?>
<svg id="Layer_1" data-name="Layer 1" xmlns="http://www.w3.org/2000/svg" viewBox="0 0 180 180">
  <defs>
    <style>
      .cls-1 {
        fill: none;
        stroke: #2d5798;
        stroke-linecap: round;
        stroke-linejoin: round;
        stroke-width: 5.7px;
      }

      .cls-2, .cls-3 {
        fill: #468ff3;
      }

      .cls-4 {
        fill: #2d5798;
      }

      .cls-3 {
        opacity: .15;
      }
    </style>
  </defs>
  <path class="cls-4" d="M113.98,166.23v-31.02c0-1.62,1.31-2.93,2.93-2.93h31.02c2.61,0,3.92,3.15,2.07,5l-31.02,31.02c-1.84,1.84-5,.54-5-2.07Z"/>
  <line class="cls-1" x1="60.93" y1="135.96" x2="99.46" y2="135.96"/>
  <path class="cls-2" d="M142.15,12.4c3.94,0,7.15,3.21,7.15,7.15V108.7c0,3.94-3.21,7.15-7.15,7.15h-26.05c-10.23,0-18.55,8.32-18.55,18.55v26.05c0,3.94-3.21,7.15-7.15,7.15H37.85c-3.94,0-7.15-3.21-7.15-7.15V19.55c0-3.94,3.21-7.15,7.15-7.15h104.3m0-5.7H37.85c-7.1,0-12.85,5.75-12.85,12.85V160.45c0,7.1,5.75,12.85,12.85,12.85h52.55c7.1,0,12.85-5.75,12.85-12.85v-26.05c0-7.1,5.75-12.85,12.85-12.85h26.05c7.1,0,12.85-5.75,12.85-12.85V19.55c0-7.1-5.75-12.85-12.85-12.85h0Z"/>
  <g>
    <path class="cls-3" d="M142.15,6.7H37.85c-7.1,0-12.85,5.75-12.85,12.85V160.45c0,7.1,5.75,12.85,12.85,12.85h52.55c7.1,0,12.85-5.75,12.85-12.85v-26.05c0-7.1,5.75-12.85,12.85-12.85h26.05c7.1,0,12.85-5.75,12.85-12.85V19.55c0-7.1-5.75-12.85-12.85-12.85Zm-52.05,20.67c7.73,0,14.03,6.26,14.03,13.97s-6.29,13.95-14.03,13.95-14.02-6.25-14.02-13.95,6.3-13.97,14.02-13.97Zm23.32,71.85c0,4.26-3.41,7.76-7.65,7.95h-31.23c-4.29-.14-7.75-3.65-7.75-7.95v-29.58c0-3.07,2.54-5.59,5.62-5.59h10.07l7.77,11.48,7.78-11.48h9.76c3.09,0,5.62,2.51,5.62,5.59v29.58Z"/>
    <g>
      <path class="cls-4" d="M89.9,30.29c6.4,0,11.61,5.18,11.61,11.55s-5.21,11.53-11.61,11.53-11.61-5.17-11.61-11.53,5.21-11.55,11.61-11.55m0-4c-8.6,0-15.61,6.96-15.61,15.55s7.01,15.53,15.61,15.53,15.61-6.96,15.61-15.53-7-15.55-15.61-15.55h0Z"/>
      <path class="cls-4" d="M109.5,65.73c1.21,0,2.23,1,2.23,2.19v32.77c0,2.51-2.05,4.65-4.58,4.81h-34.41c-2.58-.11-4.67-2.26-4.67-4.81v-32.77c0-1.19,1.02-2.19,2.23-2.19h9.04l7.42,10.96c.74,1.1,1.98,1.76,3.31,1.76h0c1.33,0,2.57-.66,3.31-1.76l7.43-10.96h8.69m0-4h-10.81l-8.62,12.71-8.61-12.71h-11.16c-3.42,0-6.23,2.78-6.23,6.19v32.77c0,4.77,3.83,8.66,8.59,8.82h34.6c4.69-.23,8.47-4.1,8.47-8.82v-32.77c0-3.41-2.8-6.19-6.23-6.19h0Z"/>
    </g>
  </g>
</svg>