<?xml version="1.0" encoding="UTF-8"?>
<svg id="Layer_1" data-name="Layer 1" xmlns="http://www.w3.org/2000/svg" viewBox="0 0 180 180">
  <defs>
    <style>
      .cls-1 {
        stroke: #2d5798;
      }

      .cls-1, .cls-2 {
        fill: none;
        stroke-linecap: round;
        stroke-linejoin: round;
        stroke-width: 5.7px;
      }

      .cls-2 {
        stroke: #468ff3;
      }

      .cls-3 {
        fill: #468ff3;
        opacity: .15;
      }
    </style>
  </defs>
  <path class="cls-2" d="M41.16,41.43c10.09,0,18.3-8.16,18.3-18.21S51.25,5,41.16,5,22.86,13.16,22.86,23.22s8.21,18.21,18.3,18.21Z"/>
  <path class="cls-2" d="M66.22,49.17h-13.59l-11.25,16.59-11.23-16.59H15.59c-4.46,0-8.13,3.63-8.13,8.08v42.76c0,6.22,5,11.29,11.21,11.51v.08h29.99"/>
  <path class="cls-2" d="M135.71,41.43c-10.09,0-18.3-8.16-18.3-18.21,0-10.06,8.21-18.22,18.3-18.22,10.08,0,18.3,8.16,18.3,18.22,0,10.05-8.21,18.21-18.3,18.21Z"/>
  <path class="cls-2" d="M110.64,49.17h13.59s11.25,16.59,11.25,16.59l11.23-16.59h14.56c4.46,0,8.13,3.63,8.13,8.08v42.76c0,5.04-3.29,9.33-7.84,10.89"/>
  <path class="cls-3" d="M88.98,71.7c11.21,0,20.33-9.06,20.33-20.23s-9.12-20.25-20.33-20.25-20.33,9.07-20.33,20.25,9.13,20.23,20.33,20.23Z"/>
  <path class="cls-3" d="M75.51,80.3h-17.35s-7.86-.12-7.86,8.97,.24,49.93,.24,49.93c0,0,1.13,11.18,13.07,11.31h38.15s-11.08-36.37,23.42-48.45v-13.59s0-8.02-8.07-8.1c-8.08-.08-15.76,0-15.76,0l-13.36,18.35-12.48-18.43Z"/>
  <path class="cls-1" d="M87.75,71.7c11.21,0,20.33-9.06,20.33-20.23s-9.12-20.25-20.33-20.25-20.33,9.07-20.33,20.25,9.13,20.23,20.33,20.23Z"/>
  <path class="cls-1" d="M125.19,100.91v-11.63c0-4.94-4.06-8.97-9.03-8.97h-15.67l-12.5,18.43-12.48-18.43h-16.18c-4.95,0-9.03,4.04-9.03,8.97v47.51c0,6.91,5.56,12.55,12.45,12.79v.09h37.24"/>
  <circle class="cls-3" cx="134.73" cy="138.54" r="36.46"/>
  <g>
    <line class="cls-2" x1="117.12" y1="137.37" x2="155.09" y2="137.37"/>
    <line class="cls-2" x1="136.1" y1="118.38" x2="136.1" y2="156.36"/>
  </g>
  <circle class="cls-1" cx="136.1" cy="137.37" r="36.44"/>
</svg>