<?xml version="1.0" encoding="UTF-8"?>
<svg id="Layer_1" data-name="Layer 1" xmlns="http://www.w3.org/2000/svg" viewBox="0 0 180 180">
  <defs>
    <style>
      .cls-1, .cls-2 {
        stroke: #468ff3;
      }

      .cls-1, .cls-2, .cls-3, .cls-4, .cls-5 {
        fill: none;
        stroke-linecap: round;
        stroke-linejoin: round;
      }

      .cls-1, .cls-5 {
        stroke-width: 5.29px;
      }

      .cls-2 {
        stroke-width: 5.29px;
      }

      .cls-3 {
        stroke-width: 5.7px;
      }

      .cls-3, .cls-4, .cls-5 {
        stroke: #2d5798;
      }

      .cls-6 {
        fill: #468ff3;
      }

      .cls-7 {
        opacity: .15;
      }

      .cls-4 {
        stroke-width: 3px;
      }
    </style>
  </defs>
  <g class="cls-7">
    <path class="cls-6" d="M153.74,90l-52.81,39.47c-6.38,4.77-15.14,4.78-21.53,.03L26.26,90v51.59c0,9.24,7.49,16.72,16.72,16.72h94.04c9.24,0,16.72-7.49,16.72-16.72v-7.4"/>
  </g>
  <g>
    <g>
      <path class="cls-5" d="M165,117.14v-28.67l-55.37,43.38c-11.53,9.03-27.73,9.03-39.25,0L28.76,99.26l-13.76-10.78"/>
      <path class="cls-1" d="M15,82.45v67.38c0,10.87,8.81,19.68,19.68,19.68h110.65c10.87,0,19.68-8.81,19.68-19.68v-31.53"/>
      <polyline class="cls-1" points="148.67 65.61 165 82.45 148.67 82.45"/>
      <path class="cls-1" d="M70.86,22.44c3.87-4.06,2.66-2.53,5.49-5.59,7.76-8.38,20.96-8.48,28.86-.23l6.66,6.82"/>
      <path class="cls-1" d="M31.96,82.45H15c3.86-3.77,13.45-13.28,16.96-16.74"/>
    </g>
    <path class="cls-3" d="M32.83,101.26V39.09c0-8.23,6.67-14.9,14.9-14.9h84.94c8.23,0,14.9,6.67,14.9,14.9v62.18"/>
    <line class="cls-2" x1="51.59" y1="62.67" x2="119.36" y2="62.67"/>
    <rect class="cls-6" x="49.62" y="47.38" width="33.4" height="8" rx="4" ry="4"/>
    <line class="cls-4" x1="51.59" y1="84.42" x2="129.11" y2="84.42"/>
    <line class="cls-4" x1="51.59" y1="95.43" x2="129.11" y2="95.43"/>
  </g>
</svg>