<?xml version="1.0" encoding="UTF-8"?>
<svg id="Layer_1" data-name="Layer 1" xmlns="http://www.w3.org/2000/svg" viewBox="0 0 180 180">
  <defs>
    <style>
      .cls-1, .cls-2 {
        fill: #468ff3;
      }

      .cls-2 {
        opacity: .15;
      }

      .cls-3 {
        fill: none;
        stroke: #2d5798;
        stroke-linecap: round;
        stroke-linejoin: round;
        stroke-width: 5px;
      }
    </style>
  </defs>
  <path class="cls-2" d="M162.08,81.67v-19.53c0-12.17-9.86-22.03-22.03-22.03H24.62c-5.36,0-8.55,5.99-5.55,10.44l14.91,22.12c.75,1.11,1.14,2.41,1.14,3.74v41.45c0,12.17,9.86,22.03,22.03,22.03h82.89c12.17,0,22.03-9.86,22.03-22.03v-14.58"/>
  <g>
    <path class="cls-3" d="M162.08,81.67v-19.53c0-12.17-9.86-22.03-22.03-22.03H24.62c-5.36,0-8.55,5.99-5.55,10.44l11.51,17.07c2.96,4.39,4.55,9.57,4.55,14.88v35.36c0,12.17,9.86,22.03,22.03,22.03h82.89c12.17,0,22.03-9.86,22.03-22.03v-36.18Z"/>
    <path class="cls-1" d="M115.94,116.79H62.25c-3.5,0-6.34-2.84-6.34-6.34s2.84-6.34,6.34-6.34h53.69c3.5,0,6.34,2.84,6.34,6.34s-2.84,6.34-6.34,6.34Z"/>
    <rect class="cls-1" x="55.92" y="83.03" width="84.02" height="12.67" rx="6.34" ry="6.34"/>
    <path class="cls-1" d="M133.6,74.61H62.25c-3.5,0-6.34-2.84-6.34-6.34s2.84-6.34,6.34-6.34h71.35c3.5,0,6.34,2.84,6.34,6.34s-2.84,6.34-6.34,6.34Z"/>
  </g>
</svg>