<?xml version="1.0" encoding="UTF-8"?>
<svg id="Layer_1" data-name="Layer 1" xmlns="http://www.w3.org/2000/svg" viewBox="0 0 180 180">
  <defs>
    <style>
      .cls-1, .cls-2 {
        fill: #468ff3;
      }

      .cls-3 {
        fill: #fff;
        stroke-linecap: round;
        stroke-linejoin: round;
      }

      .cls-3, .cls-4 {
        stroke: #2d5798;
        stroke-width: 5px;
      }

      .cls-2 {
        opacity: .15;
      }

      .cls-4 {
        fill: none;
        stroke-miterlimit: 10;
      }
    </style>
  </defs>
  <g>
    <path class="cls-2" d="M120.4,65.33c15.13,0,27.44-12.23,27.44-27.3s-12.31-27.32-27.44-27.32-27.43,12.24-27.43,27.32,12.31,27.3,27.43,27.3Z"/>
    <g>
      <path class="cls-2" d="M170.93,153.15V89.05c0-6.66-5.48-12.11-12.18-12.11h-21.15l-16.86,24.87-16.84-24.87h-21.83c-6.68,0-12.19,5.45-12.19,12.11v64.11c0,9.32,7.5,16.93,16.8,17.26l67.67-.02c9.18-.42,16.57-8,16.57-17.24Z"/>
      <path class="cls-1" d="M120.01,14.31c13.7,0,24.84,11.08,24.84,24.71s-11.14,24.68-24.84,24.68-24.83-11.07-24.83-24.68,11.14-24.71,24.83-24.71m0-5.7c-16.82,0-30.53,13.62-30.53,30.41s13.71,30.38,30.53,30.38,30.54-13.61,30.54-30.38-13.7-30.41-30.54-30.41h0Z"/>
      <path class="cls-1" d="M158.36,83.62c3.57,0,6.48,2.87,6.48,6.41v64.11c0,6.14-4.83,11.19-11.01,11.54l-67.42,.02c-6.19-.27-11.21-5.43-11.21-11.56V90.03c0-3.47,2.97-6.41,6.49-6.41h18.8l15.15,22.36c1.06,1.57,2.83,2.5,4.72,2.5h0c1.89,0,3.66-.94,4.72-2.5l15.17-22.37h18.13m0-5.7h-21.15l-16.86,24.87-16.84-24.87h-21.83c-6.68,0-12.19,5.45-12.19,12.11v64.11c0,9.32,7.5,16.93,16.8,17.26l67.67-.02c9.18-.42,16.57-8,16.57-17.24V90.03c0-6.66-5.48-12.11-12.18-12.11h0Z"/>
    </g>
  </g>
  <g>
    <circle class="cls-3" cx="49.49" cy="132.45" r="38.56"/>
    <circle class="cls-4" cx="49.49" cy="132.45" r="38.34"/>
  </g>
  <g>
    <polygon class="cls-2" points="49.49 113.96 54.08 128.09 68.93 128.09 56.92 136.82 61.51 150.94 49.49 142.21 37.48 150.94 42.06 136.82 30.05 128.09 44.9 128.09 49.49 113.96"/>
    <path class="cls-1" d="M49.49,113.96l4.59,14.12h14.85l-12.02,8.73,4.59,14.12-12.02-8.73-12.02,8.73,4.59-14.12-12.02-8.73h14.85l4.59-14.12m19.44,14.12h0m-19.45-19.82c-2.47,0-4.66,1.59-5.42,3.94l-3.31,10.19h-10.71c-2.47,0-4.66,1.59-5.42,3.94-.76,2.35,.07,4.92,2.07,6.37l8.66,6.3-3.31,10.19c-.76,2.35,.07,4.92,2.07,6.37,1,.73,2.17,1.09,3.35,1.09s2.35-.36,3.35-1.09l8.67-6.3,8.67,6.3c1,.73,2.17,1.09,3.35,1.09s2.35-.36,3.35-1.09c2-1.45,2.83-4.02,2.07-6.37l-3.31-10.19,8.58-6.23c1.47-1.03,2.44-2.74,2.44-4.67,0-3.15-2.55-5.7-5.7-5.7h-10.72l-3.31-10.19c-.76-2.35-2.95-3.94-5.42-3.94h0Z"/>
  </g>
</svg>