<?xml version="1.0" encoding="utf-8"?>
<!-- Generator: Adobe Illustrator 27.9.0, SVG Export Plug-In . SVG Version: 6.00 Build 0)  -->
<svg version="1.1" id="Layer_1" xmlns="http://www.w3.org/2000/svg" xmlns:xlink="http://www.w3.org/1999/xlink" x="0px" y="0px"
	 viewBox="0 0 260 260" style="enable-background:new 0 0 260 260;" xml:space="preserve">
<style type="text/css">
	.st0{clip-path:url(#SVGID_00000098943624916663856950000005192875603253467013_);}
	.st1{fill:#2D5798;}
	.st2{opacity:0.15;}
	.st3{fill:#468FF3;}
	.st4{fill:#FFFFFF;}
	.st5{clip-path:url(#SVGID_00000140716260274207570340000014894876056387155134_);}
</style>
<g>
	<g>
		<defs>
			<path id="SVGID_1_" d="M236.7,30.1L255,48.5c3.5,3.5,5,8.5,3.9,13.3c-0.9,4.4-3.9,8.2-7.9,10.1c2.6,3.6,3.5,8.2,2.4,12.5
				c-1.2,4.8-4.6,8.8-9.3,10.6l-163,64.2c-1.9,0.7-3.9,1.1-5.9,1.1c-5.4,0-10.3-2.6-13.2-7.1c-1.5-2.3-5.2-3.8-9.1-3.8
				c-1.8,0-3.7,0.3-5.3,1c-1.7,0.7-3.5,1-5.2,1c-5.2,0-10.2-2.8-12.8-7.6L4.2,97.3c-2-3.7-2.3-8.2-0.8-12.1c1.5-4,4.6-7.1,8.6-8.6
				c2-0.7,3.2-1.7,3.8-2.3c-1.4-3.5-1.4-7.5,0.1-11c1.6-4.1,5-7.4,9.3-8.9l67.6-24.3H-8.5v190.1h288.7V30.1H236.7z"/>
		</defs>
		<clipPath id="SVGID_00000030467339535841267810000014254466839655808414_">
			<use xlink:href="#SVGID_1_"  style="overflow:visible;"/>
		</clipPath>
		<g style="clip-path:url(#SVGID_00000030467339535841267810000014254466839655808414_);">
			<g>
				<path class="st1" d="M176.8,64.7c0.4,0,0.7,0.1,1,0.3c4.5,4.3,11.9,6.7,19.3,6.7c3.4,0,6.8-0.5,9.8-1.6l37.8,37.9
					c-10.2,3.9-12.7,13.4-5.6,21.5c0.4,0.4,0.2,0.9-0.3,1.1l-163,64.2c-0.2,0.1-0.4,0.1-0.6,0.1c-0.4,0-0.9-0.2-1.1-0.5
					c-4.3-6.6-12.6-10.3-21.2-10.3c-3.5,0-7.1,0.6-10.6,2L17,139.5c11-4,16.3-13.4,12.4-21.2c-0.2-0.4,0.1-0.8,0.6-1l146.4-52.6
					C176.5,64.7,176.7,64.7,176.8,64.7 M176.8,56.1c-1.2,0-2.3,0.2-3.4,0.6L27,109.2c-2.6,0.9-4.7,2.9-5.7,5.5
					c-1,2.5-0.8,5.2,0.4,7.6c0.3,0.6,0.6,1.5,0,2.9c-0.8,2-3.2,4.6-7.7,6.3c-2.4,0.9-4.2,2.7-5.1,5.1c-0.9,2.3-0.7,5,0.5,7.2
					l25.4,46.5c1.5,2.8,4.5,4.5,7.6,4.5c1,0,2.1-0.2,3.1-0.6c2.4-0.9,4.9-1.4,7.5-1.4c5.9,0,11.5,2.5,14.1,6.5
					c1.8,2.8,4.9,4.4,8.3,4.4c1.3,0,2.5-0.2,3.7-0.7l163-64.2c2.9-1.1,5-3.5,5.7-6.5c0.7-2.9-0.1-6-2.1-8.3
					c-1.5-1.7-2.2-3.4-1.9-4.5c0.3-1.2,1.8-2.5,4.1-3.3c2.7-1,4.7-3.4,5.3-6.2c0.6-2.9-0.3-5.8-2.3-7.9L213,64.1
					c-1.7-1.7-3.8-2.5-6.1-2.5c-1,0-2,0.2-3,0.5c-2,0.7-4.4,1.1-6.9,1.1c-5.2,0-10.6-1.8-13.3-4.3C181.9,57.1,179.4,56.1,176.8,56.1
					L176.8,56.1L176.8,56.1z"/>
				<g class="st2">
					<path class="st3" d="M177.8,65c-0.3-0.3-1-0.4-1.4-0.3L30,117.3c-0.5,0.2-0.8,0.7-0.6,1c3.9,7.7-1.4,17.1-12.4,21.2l25.4,46.5
						c11.8-4.5,25.7-0.9,31.8,8.4c0.3,0.5,1,0.7,1.7,0.4l163-64.2c0.5-0.2,0.7-0.7,0.3-1.1c-7.1-8.2-4.6-17.6,5.6-21.5l-37.8-37.9
						C197.2,73.6,184.3,71.3,177.8,65L177.8,65z"/>
				</g>
				<g>
					<path class="st4" d="M196.4,137.7c0.7,0.8,0.4,1.9-0.7,2.4c-1.1,0.4-2.7,0.1-3.4-0.7l-4.4-5.2c-0.7-0.8-0.4-1.9,0.7-2.3
						c1.1-0.4,2.6-0.1,3.3,0.7L196.4,137.7L196.4,137.7z"/>
					<path class="st4" d="M187,126.8c0.7,0.8,0.4,1.8-0.7,2.3c-1.1,0.4-2.6,0.1-3.3-0.7l-4.2-5c-0.7-0.8-0.3-1.8,0.8-2.2
						c1.1-0.4,2.6-0.1,3.3,0.7L187,126.8z"/>
					<path class="st4" d="M178,116.3c0.7,0.8,0.3,1.8-0.8,2.2c-1.1,0.4-2.5,0.1-3.2-0.7l-4.1-4.8c-0.7-0.8-0.3-1.7,0.8-2.2
						c1.1-0.4,2.5-0.1,3.2,0.7C173.9,111.6,178,116.3,178,116.3z"/>
					<path class="st4" d="M169.3,106.2c0.7,0.8,0.3,1.7-0.8,2.1s-2.5,0.1-3.1-0.6l-3.9-4.6c-0.6-0.7-0.3-1.7,0.8-2.1
						s2.5-0.1,3.1,0.6C165.3,101.6,169.3,106.2,169.3,106.2z"/>
					<path class="st4" d="M160.9,96.5c0.6,0.7,0.3,1.7-0.8,2c-1.1,0.4-2.4,0.1-3.1-0.6l-3.8-4.4c-0.6-0.7-0.3-1.6,0.8-2
						c1.1-0.4,2.4-0.1,3,0.6L160.9,96.5L160.9,96.5z"/>
					<path class="st4" d="M152.8,87.2c0.6,0.7,0.3,1.6-0.8,2c-1,0.4-2.4,0.1-3-0.6l-3.7-4.3c-0.6-0.7-0.2-1.6,0.8-1.9s2.4-0.1,3,0.6
						L152.8,87.2L152.8,87.2z"/>
				</g>
			</g>
		</g>
	</g>
	<g>
		<g>
			<path class="st4" d="M75.2,145.1c-1.9,0-3.7-0.9-4.7-2.5c-3.4-5.2-10.2-8.4-17.6-8.4c-3.1,0-6.2,0.6-9,1.7
				c-0.5,0.2-1,0.3-1.5,0.3c-1.5,0-3-0.8-3.8-2.2L13.2,87.5c-0.6-1.1-0.7-2.4-0.2-3.6s1.4-2.1,2.6-2.5c5-1.8,8.8-5.1,10.3-8.7
				c0.6-1.5,1.1-3.9-0.2-6.4c-0.6-1.2-0.7-2.7-0.2-4c0.5-1.4,1.7-2.5,3.2-3L174.9,6.6c0.6-0.2,1.3-0.3,2-0.3c1.5,0,2.9,0.6,3.9,1.5
				c3.5,3.4,9.9,5.5,16.3,5.5c3,0,5.9-0.5,8.4-1.4c0.5-0.2,1-0.3,1.5-0.3c1.1,0,2.2,0.4,3,1.3l37.8,37.9c1,1,1.5,2.5,1.2,3.9
				c-0.3,1.4-1.3,2.6-2.7,3.1c-3.6,1.4-6,3.7-6.7,6.3c-0.6,2.6,0.3,5.6,2.8,8.4c1.1,1.2,1.5,2.9,1.1,4.5c-0.4,1.6-1.5,2.9-3.1,3.5
				l-163,64.2C76.7,145,76,145.2,75.2,145.1L75.2,145.1z"/>
			<path class="st3" d="M176.8,10.6c0.4,0,0.7,0.1,1,0.3c4.5,4.3,11.9,6.7,19.3,6.7c3.4,0,6.8-0.5,9.8-1.6l37.8,37.9
				c-10.2,3.9-12.7,13.4-5.6,21.5c0.4,0.4,0.2,0.9-0.3,1.1l-163,64.2c-0.2,0.1-0.4,0.1-0.6,0.1c-0.4,0-0.9-0.2-1.1-0.5
				c-4.3-6.6-12.6-10.3-21.2-10.3c-3.5,0-7.1,0.6-10.6,2L17,85.4c11-4,16.3-13.4,12.4-21.2c-0.2-0.4,0.1-0.8,0.6-1l146.4-52.6
				C176.5,10.6,176.7,10.6,176.8,10.6 M176.8,2c-1.2,0-2.3,0.2-3.4,0.6L27,55.1c-2.6,0.9-4.7,2.9-5.7,5.5c-1,2.5-0.8,5.2,0.4,7.6
				c0.3,0.6,0.6,1.5,0,2.9c-0.8,2-3.2,4.6-7.7,6.3c-2.4,0.9-4.2,2.7-5.1,5.1c-0.9,2.3-0.7,5,0.5,7.2l25.4,46.5
				c1.5,2.8,4.5,4.5,7.6,4.5c1,0,2.1-0.2,3.1-0.6c2.4-0.9,4.9-1.4,7.5-1.4c5.9,0,11.5,2.5,14.1,6.5c1.8,2.8,4.9,4.4,8.3,4.4
				c1.3,0,2.5-0.2,3.7-0.7l163-64.2c2.9-1.1,5-3.5,5.7-6.5c0.7-2.9-0.1-6-2.1-8.3c-1.5-1.7-2.2-3.4-1.9-4.5c0.3-1.2,1.8-2.5,4.1-3.3
				c2.7-1,4.7-3.4,5.3-6.2c0.6-2.9-0.3-5.8-2.3-7.9L213,9.9c-1.7-1.7-3.8-2.5-6.1-2.5c-1,0-2,0.2-3,0.5c-2,0.7-4.4,1.1-6.9,1.1
				c-5.2,0-10.6-1.8-13.3-4.3C181.9,3,179.4,2,176.8,2L176.8,2L176.8,2z"/>
		</g>
		<g>
			<path class="st1" d="M196.4,83.6c0.7,0.8,0.4,1.9-0.7,2.4c-1.1,0.4-2.7,0.1-3.4-0.7l-4.4-5.2c-0.7-0.8-0.4-1.9,0.7-2.3
				c1.1-0.4,2.6-0.1,3.3,0.7C192,78.4,196.4,83.6,196.4,83.6z"/>
			<path class="st1" d="M187,72.7c0.7,0.8,0.4,1.8-0.7,2.3c-1.1,0.4-2.6,0.1-3.3-0.7l-4.2-5c-0.7-0.8-0.3-1.8,0.8-2.2
				c1.1-0.4,2.6-0.1,3.3,0.7L187,72.7z"/>
			<path class="st1" d="M178,62.2c0.7,0.8,0.3,1.8-0.8,2.2c-1.1,0.4-2.5,0.1-3.2-0.7l-4.1-4.8c-0.7-0.8-0.3-1.7,0.8-2.2
				c1.1-0.4,2.5-0.1,3.2,0.7C173.9,57.4,178,62.2,178,62.2z"/>
			<path class="st1" d="M169.3,52.1c0.7,0.8,0.3,1.7-0.8,2.1c-1.1,0.4-2.5,0.1-3.1-0.6l-3.9-4.6c-0.6-0.7-0.3-1.7,0.8-2.1
				c1.1-0.4,2.5-0.1,3.1,0.6C165.3,47.5,169.3,52.1,169.3,52.1z"/>
			<path class="st1" d="M160.9,42.3c0.6,0.7,0.3,1.7-0.8,2c-1.1,0.4-2.4,0.1-3.1-0.6l-3.8-4.4c-0.6-0.7-0.3-1.6,0.8-2
				c1.1-0.4,2.4-0.1,3,0.6L160.9,42.3L160.9,42.3z"/>
			<path class="st1" d="M152.8,33c0.6,0.7,0.3,1.6-0.8,2c-1,0.4-2.4,0.1-3-0.6l-3.7-4.3c-0.6-0.7-0.2-1.6,0.8-1.9
				c1-0.4,2.4-0.1,3,0.6L152.8,33L152.8,33z"/>
		</g>
	</g>
	<g>
		<defs>
			<path id="SVGID_00000052808389514530972880000003727216404762373812_" d="M236.7,84.2l18.3,18.3c3.5,3.5,5,8.5,3.9,13.3
				c-0.9,4.4-3.9,8.2-7.9,10.1c2.6,3.6,3.5,8.2,2.4,12.5c-1.2,4.8-4.6,8.8-9.3,10.6l-163,64.2c-1.9,0.7-3.9,1.1-5.9,1.1
				c-5.4,0-10.3-2.6-13.2-7.1c-1.5-2.3-5.2-3.8-9.1-3.8c-1.8,0-3.7,0.3-5.3,1c-1.7,0.7-3.5,1-5.2,1c-5.2,0-10.2-2.8-12.8-7.6
				L4.2,151.3c-2-3.7-2.3-8.2-0.8-12.1s4.6-7.1,8.6-8.6c2-0.7,3.2-1.7,3.8-2.3c-1.4-3.5-1.4-7.5,0.1-11c1.6-4.1,5-7.4,9.3-8.9
				l67.6-24.3H-8.5v190.1h288.7V84.2H236.7z"/>
		</defs>
		<clipPath id="SVGID_00000040564772677021616430000002819006631782310548_">
			<use xlink:href="#SVGID_00000052808389514530972880000003727216404762373812_"  style="overflow:visible;"/>
		</clipPath>
		<g style="clip-path:url(#SVGID_00000040564772677021616430000002819006631782310548_);">
			<g>
				<path class="st3" d="M176.8,118.8c0.4,0,0.7,0.1,1,0.3c4.5,4.3,11.9,6.7,19.3,6.7c3.4,0,6.8-0.5,9.8-1.6l37.8,37.9
					c-10.2,3.9-12.7,13.4-5.6,21.5c0.4,0.4,0.2,0.9-0.3,1.1L75.8,249c-0.2,0.1-0.4,0.1-0.6,0.1c-0.4,0-0.9-0.2-1.1-0.5
					c-4.3-6.6-12.6-10.3-21.2-10.3c-3.5,0-7.1,0.6-10.6,2L17,193.7c11-4,16.3-13.4,12.4-21.2c-0.2-0.4,0.1-0.8,0.6-1l146.4-52.6
					C176.5,118.9,176.7,118.8,176.8,118.8 M176.8,110.2c-1.2,0-2.3,0.2-3.4,0.6L27.1,163.4c-2.6,0.9-4.7,2.9-5.7,5.5
					c-1,2.5-0.8,5.2,0.4,7.6c0.3,0.6,0.6,1.5,0,2.9c-0.8,2-3.2,4.6-7.7,6.3c-2.4,0.9-4.2,2.7-5.1,5.1c-0.9,2.3-0.7,5,0.5,7.2
					l25.4,46.5c1.5,2.8,4.5,4.5,7.6,4.5c1,0,2.1-0.2,3.1-0.6c2.4-0.9,4.9-1.4,7.5-1.4c5.9,0,11.5,2.5,14.1,6.5
					c1.8,2.8,4.9,4.4,8.3,4.4c1.3,0,2.5-0.2,3.7-0.7l163-64.2c2.9-1.1,5-3.5,5.7-6.5c0.7-2.9-0.1-6-2.1-8.3
					c-1.5-1.7-2.2-3.4-1.9-4.5c0.3-1.2,1.8-2.5,4.1-3.3c2.7-1,4.7-3.4,5.3-6.2c0.6-2.9-0.3-5.8-2.3-7.9L213,118.2
					c-1.7-1.7-3.8-2.5-6.1-2.5c-1,0-2,0.2-3,0.5c-2,0.7-4.4,1.1-6.9,1.1c-5.2,0-10.6-1.8-13.3-4.3
					C181.9,111.2,179.5,110.3,176.8,110.2L176.8,110.2L176.8,110.2z"/>
				<g class="st2">
					<path class="st3" d="M177.8,119.2c-0.3-0.3-1-0.4-1.4-0.3L30,171.5c-0.5,0.2-0.8,0.7-0.6,1c3.9,7.7-1.4,17.1-12.4,21.2
						l25.4,46.5c11.8-4.5,25.7-0.9,31.8,8.4c0.3,0.5,1,0.7,1.7,0.4l163-64.2c0.5-0.2,0.7-0.7,0.3-1.1c-7.1-8.2-4.6-17.6,5.6-21.5
						l-37.8-37.9C197.2,127.8,184.3,125.4,177.8,119.2L177.8,119.2z"/>
				</g>
				<g>
					<path class="st4" d="M196.4,191.8c0.7,0.8,0.4,1.9-0.7,2.4c-1.1,0.4-2.7,0.1-3.4-0.7l-4.4-5.2c-0.7-0.8-0.4-1.9,0.7-2.3
						c1.1-0.4,2.6-0.1,3.3,0.7L196.4,191.8L196.4,191.8z"/>
					<path class="st4" d="M187,180.9c0.7,0.8,0.4,1.8-0.7,2.3c-1.1,0.4-2.6,0.1-3.3-0.7l-4.2-5c-0.7-0.8-0.3-1.8,0.8-2.2
						c1.1-0.4,2.6-0.1,3.3,0.7L187,180.9L187,180.9z"/>
					<path class="st4" d="M178,170.4c0.7,0.8,0.3,1.8-0.8,2.2s-2.5,0.1-3.2-0.7l-4.1-4.8c-0.7-0.8-0.3-1.7,0.8-2.2
						c1.1-0.4,2.5-0.1,3.2,0.7L178,170.4L178,170.4z"/>
					<path class="st4" d="M169.3,160.3c0.7,0.8,0.3,1.7-0.8,2.1c-1.1,0.4-2.5,0.1-3.1-0.6l-3.9-4.6c-0.6-0.7-0.3-1.7,0.8-2.1
						c1.1-0.4,2.5-0.1,3.1,0.6L169.3,160.3z"/>
					<path class="st4" d="M160.9,150.6c0.6,0.7,0.3,1.7-0.8,2c-1.1,0.4-2.4,0.1-3.1-0.6l-3.8-4.4c-0.6-0.7-0.3-1.6,0.8-2
						c1.1-0.4,2.4-0.1,3,0.6L160.9,150.6L160.9,150.6z"/>
					<path class="st4" d="M152.8,141.3c0.6,0.7,0.3,1.6-0.8,2c-1,0.4-2.4,0.1-3-0.6l-3.7-4.3c-0.6-0.7-0.2-1.6,0.8-1.9
						c1-0.4,2.4-0.1,3,0.6L152.8,141.3L152.8,141.3z"/>
				</g>
			</g>
		</g>
	</g>
</g>
</svg>
