<?xml version="1.0" encoding="UTF-8"?>
<svg id="Layer_1" data-name="Layer 1" xmlns="http://www.w3.org/2000/svg" viewBox="0 0 180 180">
  <defs>
    <style>
      .cls-1 {
        stroke: #468ff3;
        stroke-width: 5.7px;
      }

      .cls-1, .cls-2 {
        fill: none;
        stroke-linecap: round;
        stroke-linejoin: round;
      }

      .cls-2 {
        stroke: #fff;
        stroke-width: 10px;
      }

      .cls-3, .cls-4 {
        fill: #468ff3;
      }

      .cls-5 {
        fill: #2d5798;
      }

      .cls-4 {
        opacity: .15;
      }
    </style>
  </defs>
  <path class="cls-4" d="M130.68,119.01h20.42c8.19,0,14.83-6.64,14.83-14.83V41.66c0-10.8-8.76-19.56-19.56-19.56H35.49c-10.8,0-19.56,8.76-19.56,19.56v112.09c0,10.8,8.76,19.56,19.56,19.56H101.02c8.19,0,14.83-6.64,14.83-14.83v-24.65c0-8.19,6.64-14.83,14.83-14.83Z"/>
  <g>
    <path class="cls-5" d="M123.37,166.26v-35.79c0-1.87,1.51-3.38,3.38-3.38h35.79c3.01,0,4.52,3.64,2.39,5.77l-35.79,35.79c-2.13,2.13-5.77,.62-5.77-2.39Z"/>
    <path class="cls-3" d="M146.36,27.8c7.64,0,13.86,6.22,13.86,13.86v62.52c0,5.03-4.09,9.13-9.13,9.13h-20.42c-11.32,0-20.53,9.21-20.53,20.53v24.65c0,5.03-4.09,9.13-9.13,9.13H35.49c-7.64,0-13.86-6.22-13.86-13.86V41.66c0-7.64,6.22-13.86,13.86-13.86h110.87m0-5.7H35.49c-10.8,0-19.56,8.76-19.56,19.56v112.09c0,10.8,8.76,19.56,19.56,19.56H101.02c8.19,0,14.83-6.64,14.83-14.83v-24.65c0-8.19,6.64-14.83,14.83-14.83h20.42c8.19,0,14.83-6.64,14.83-14.83V41.66c0-10.8-8.76-19.56-19.56-19.56h0Z"/>
    <g>
      <line class="cls-2" x1="60.37" y1="6.68" x2="60.37" y2="40.8"/>
      <line class="cls-1" x1="60.37" y1="6.68" x2="60.37" y2="40.8"/>
    </g>
    <g>
      <line class="cls-2" x1="94.01" y1="6.68" x2="94.01" y2="40.8"/>
      <line class="cls-1" x1="94.01" y1="6.68" x2="94.01" y2="40.8"/>
    </g>
    <g>
      <line class="cls-2" x1="127.65" y1="6.68" x2="127.65" y2="40.8"/>
      <line class="cls-1" x1="127.65" y1="6.68" x2="127.65" y2="40.8"/>
    </g>
  </g>
  <path class="cls-5" d="M79.61,125.81c-1.97,0-3.94-.75-5.45-2.26l-18.16-18.16c-3.01-3.01-3.01-7.89,0-10.9,3.01-3.01,7.89-3.01,10.9,0l12.71,12.71,35.34-35.34c3.01-3.01,7.89-3.01,10.9,0,3.01,3.01,3.01,7.89,0,10.9l-40.79,40.79c-1.51,1.51-3.48,2.26-5.45,2.26Z"/>
</svg>