<?xml version="1.0" encoding="UTF-8"?><svg id="Layer_1" xmlns="http://www.w3.org/2000/svg" viewBox="0 0 180 180"><defs><style>.cls-1{opacity:.15;}.cls-2{font-family:ProximaNova-Black, 'Proxima Nova';font-size:24.37px;font-weight:800;}.cls-2,.cls-3{fill:#468ff3;}.cls-3{stroke-width:0px;}.cls-4{fill:none;stroke:#2d5798;stroke-linecap:round;stroke-linejoin:round;stroke-width:5px;}</style></defs><g class="cls-1"><rect class="cls-3" x="27.95" y="18.57" width="125.15" height="142.08" rx="11.87" ry="11.87"/></g><rect class="cls-4" x="27.95" y="18.57" width="125.15" height="142.08" rx="11.87" ry="11.87"/><rect class="cls-3" x="41.84" y="107.56" width="98.43" height="5.63" rx="2.69" ry="2.69"/><rect class="cls-3" x="41.84" y="127.65" width="88.02" height="5.63" rx="2.55" ry="2.55"/><text class="cls-2" transform="translate(41.84 90.76) scale(.92 1)"><tspan x="0" y="0" xml:space="preserve">{{            }}</tspan></text><path class="cls-3" d="m65.67,93.02l.17-4.98-3.83,2.66-1.74-3.32,4-2.28-4-2.28,1.74-3.32,3.83,2.66-.17-4.98h3.52l-.22,4.98,3.83-2.66,1.78,3.32-4.04,2.28,4.04,2.28-1.78,3.32-3.83-2.66.22,4.98h-3.52Z"/><path class="cls-3" d="m81.45,93.02l.17-4.98-3.83,2.66-1.74-3.32,4-2.28-4-2.28,1.74-3.32,3.83,2.66-.17-4.98h3.52l-.22,4.98,3.83-2.66,1.78,3.32-4.04,2.28,4.04,2.28-1.78,3.32-3.83-2.66.22,4.98h-3.52Z"/><path class="cls-3" d="m97.23,93.02l.17-4.98-3.83,2.66-1.74-3.32,4-2.28-4-2.28,1.74-3.32,3.83,2.66-.17-4.98h3.52l-.22,4.98,3.83-2.66,1.78,3.32-4.04,2.28,4.04,2.28-1.78,3.32-3.83-2.66.22,4.98h-3.52Z"/><path class="cls-3" d="m113.01,93.02l.17-4.98-3.83,2.66-1.74-3.32,4-2.28-4-2.28,1.74-3.32,3.83,2.66-.17-4.98h3.52l-.22,4.98,3.83-2.66,1.78,3.32-4.04,2.28,4.04,2.28-1.78,3.32-3.83-2.66.22,4.98h-3.52Z"/><rect class="cls-3" x="41.88" y="42.93" width="48.56" height="11.32" rx="1.93" ry="1.93"/></svg>