<?xml version="1.0" encoding="UTF-8"?>
<svg id="Layer_1" data-name="Layer 1" xmlns="http://www.w3.org/2000/svg" viewBox="0 0 180 180">
  <defs>
    <style>
      .cls-1 {
        stroke-width: 5.7px;
      }

      .cls-1, .cls-2 {
        stroke: #468ff3;
      }

      .cls-1, .cls-2, .cls-3 {
        fill: none;
        stroke-linecap: round;
        stroke-linejoin: round;
      }

      .cls-4, .cls-5 {
        fill: #468ff3;
      }

      .cls-6 {
        fill: #2d5798;
      }

      .cls-5 {
        font-family: ProximaNova-Medium, 'Proxima Nova';
        font-size: 28.78px;
      }

      .cls-2, .cls-3 {
        stroke-width: 5px;
      }

      .cls-3 {
        stroke: #2d5798;
      }

      .cls-7 {
        fill: #e3eefd;
      }
    </style>
  </defs>
  <path class="cls-7" d="M125.62,96.52H20.47c-7.44,0-13.47-6.03-13.47-13.47V42.08c0-7.44,6.03-13.47,13.47-13.47h123.58l-18.43,67.9Z"/>
  <circle class="cls-3" cx="93.62" cy="100.4" r="11.76"/>
  <circle class="cls-2" cx="117.32" cy="135.29" r="11.76"/>
  <path class="cls-4" d="M127.89,68.43l-15.82,51.65c-4.73,1.65-8.57,5.39-10.14,10.5-2.6,8.48,2.19,17.5,10.67,20.1,8.5,2.6,17.49-2.17,20.09-10.67,1.56-5.08,.5-10.35-2.52-14.38l19.69-64.3c.46-1.51-.39-3.1-1.89-3.57-8.48-2.6-17.5,2.19-20.09,10.67Zm-7.09,57.08c5.18,1.84,8.09,7.45,6.45,12.82-1.68,5.48-7.48,8.57-12.96,6.88-5.47-1.68-8.56-7.49-6.89-12.96,1.71-5.59,7.75-8.74,13.4-6.74Z"/>
  <path class="cls-6" d="M77.58,99.11c-.71,8.86,5.88,16.61,14.75,17.33,5.32,.43,10.24-1.79,13.48-5.55l3.03,.24,5.68-18.55-7.18-.58c-2.68-4.36-7.22-7.22-12.44-7.64-8.86-.71-16.61,5.88-17.33,14.75Zm16.87-9.06c6,.48,10.26,5.91,9.45,11.78-.75,5.42-5.63,9.35-11.11,8.91-5.73-.46-9.97-5.47-9.51-11.18,.46-5.72,5.46-9.97,11.18-9.51Z"/>
  <path class="cls-6" d="M139.84,113.62l19.83,1.59c8.86,.72,16.62-5.88,17.33-14.75,.13-1.57-1.05-2.95-2.62-3.07l-28.86-2.32-5.68,18.55Z"/>
  <path class="cls-1" d="M67.47,96.52H20.47c-7.44,0-13.47-6.03-13.47-13.47V42.08c0-7.44,6.03-13.47,13.47-13.47h123.58l-5.32,19.61"/>
  <text class="cls-5" transform="translate(28.83 70.74)"><tspan x="0" y="0">https://</tspan></text>
</svg>