<?xml version="1.0" encoding="UTF-8"?>
<svg id="Layer_1" data-name="Layer 1" xmlns="http://www.w3.org/2000/svg" xmlns:xlink="http://www.w3.org/1999/xlink" viewBox="0 0 180 180">
  <defs>
    <style>
      .cls-1, .cls-2 {
        fill: #468ff3;
      }

      .cls-3 {
        fill: #2d5798;
      }

      .cls-4 {
        clip-path: url(#clippath);
      }

      .cls-5, .cls-6 {
        fill: none;
      }

      .cls-2 {
        opacity: .15;
      }

      .cls-6 {
        stroke: #2d5798;
        stroke-linecap: round;
        stroke-linejoin: round;
        stroke-width: 5.85px;
      }
    </style>
    <clipPath id="clippath">
      <path class="cls-5" d="M129.75,39.86v45.53c0,2.49-2.02,4.5-4.5,4.5h-15.31c-4.58,0-8.29,3.73-8.25,8.31l.09,13.56c.06,6.46-5.16,11.73-11.62,11.73h-29.41c-6.9,0-12.49-5.59-12.49-12.49V39.86H4.16v125.65H174.16V39.86h-44.41Z"/>
    </clipPath>
  </defs>
  <g class="cls-4">
    <g>
      <path class="cls-2" d="M149.79,91.16c.33-1.5,.51-3.06,.51-4.66,0-11.92-9.66-21.58-21.58-21.58-2.31,0-4.54,.37-6.63,1.04-7.33-13.36-21.53-22.43-37.85-22.43-21.73,0-39.71,16.07-42.7,36.98-18.43,.89-33.1,16.12-33.1,34.78s15.59,34.82,34.82,34.82c7.46,0,14.36-2.35,20.03-6.35,6.99,7.98,17.25,13.02,28.69,13.02,12.71,0,23.96-6.22,30.9-15.78,4.96,4.03,11.28,6.45,18.16,6.45,15.92,0,28.82-12.9,28.82-28.82,0-12.87-8.43-23.76-20.07-27.47Z"/>
      <path class="cls-6" d="M149.79,91.16c.33-1.5,.51-3.06,.51-4.66,0-11.92-9.66-21.58-21.58-21.58-2.31,0-4.54,.37-6.63,1.04-7.33-13.36-21.53-22.43-37.85-22.43-21.73,0-39.71,16.07-42.7,36.98-18.43,.89-33.1,16.12-33.1,34.78s15.59,34.82,34.82,34.82c7.46,0,14.36-2.35,20.03-6.35,6.99,7.98,17.25,13.02,28.69,13.02,12.71,0,23.96-6.22,30.9-15.78,4.96,4.03,11.28,6.45,18.16,6.45,15.92,0,28.82-12.9,28.82-28.82,0-12.87-8.43-23.76-20.07-27.47Z"/>
    </g>
  </g>
  <g>
    <path class="cls-3" d="M83.65,97.41c-1.12,0-2.25-.43-3.1-1.29l-10.34-10.34c-1.71-1.71-1.71-4.49,0-6.2,1.71-1.71,4.49-1.71,6.2,0l7.23,7.23,20.12-20.12c1.71-1.71,4.49-1.71,6.2,0,1.71,1.71,1.71,4.49,0,6.2l-23.22,23.22c-.86,.86-1.98,1.29-3.1,1.29Z"/>
    <g>
      <path class="cls-3" d="M108.56,119.99v-20.38c0-1.06,.86-1.92,1.92-1.92h20.38c1.71,0,2.57,2.07,1.36,3.28l-20.38,20.38c-1.21,1.21-3.28,.35-3.28-1.36Z"/>
      <g>
        <rect class="cls-1" x="96.32" y="37.92" width="10.21" height="4.77" rx="2.38" ry="2.38"/>
        <rect class="cls-1" x="77.17" y="37.92" width="10.21" height="4.77" rx="2.38" ry="2.38"/>
        <path class="cls-1" d="M121.66,37.92h-3.8c-1.32,0-2.38,1.07-2.38,2.38h0c0,1.32,1.07,2.38,2.38,2.38h3.8c3.52,0,6.37,2.85,6.37,6.37v35.59c0,2.03-1.64,3.67-3.67,3.67h-11.63c-7.3,0-13.21,5.91-13.21,13.21v14.04c0,2.03-1.64,3.67-3.67,3.67H58.54c-3.52,0-6.37-2.85-6.37-6.37V49.06c0-3.52,2.85-6.37,6.37-6.37h7.31c1.32,0,2.38-1.07,2.38-2.38h0c0-1.32-1.07-2.38-2.38-2.38h-7.31c-6.15,0-11.14,4.99-11.14,11.14v63.81c0,6.15,4.99,11.14,11.14,11.14h37.31c4.66,0,8.44-3.78,8.44-8.44v-14.04c0-4.66,3.78-8.44,8.44-8.44h11.63c4.66,0,8.44-3.78,8.44-8.44V49.06c0-6.15-4.99-11.14-11.14-11.14Z"/>
      </g>
      <g>
        <path class="cls-1" d="M72.7,48.84c-.95,0-1.72-.77-1.72-1.72v-13.65c0-.95,.77-1.72,1.72-1.72s1.72,.77,1.72,1.72v13.65c0,.95-.77,1.72-1.72,1.72Z"/>
        <path class="cls-1" d="M91.85,48.84c-.95,0-1.72-.77-1.72-1.72v-13.65c0-.95,.77-1.72,1.72-1.72s1.72,.77,1.72,1.72v13.65c0,.95-.77,1.72-1.72,1.72Z"/>
        <path class="cls-1" d="M111.01,48.84c-.95,0-1.72-.77-1.72-1.72v-13.65c0-.95,.77-1.72,1.72-1.72s1.72,.77,1.72,1.72v13.65c0,.95-.77,1.72-1.72,1.72Z"/>
      </g>
    </g>
  </g>
</svg>