<?xml version="1.0" encoding="UTF-8"?>
<svg id="Layer_1" data-name="Layer 1" xmlns="http://www.w3.org/2000/svg" viewBox="0 0 180 180">
  <defs>
    <style>
      .cls-1, .cls-2 {
        fill: #468ff3;
      }

      .cls-3 {
        fill: #2d5798;
      }

      .cls-2 {
        opacity: .15;
      }
    </style>
  </defs>
  <path class="cls-2" d="M70.54,109.04c10.79,12.83,15.95,29.49,13.71,46.11-.44,3.25-.88,5.85-1.28,7.16-.41,1.33-1.7,3.04-2.89,3.36l-17.73,4.87c-1.19,.32-3.11-.32-3.2-1.73-.92-14.43-5.84-36.34-16.77-54.65-.23-.38-.46-.87-.7-1.41-1.91-4.37-5.84-7.54-10.54-8.33h-.01c-17.42-3.88-21.71-26.9-6.73-36.6,.04-.03,.06-.04,.07-.04,.26-1.23,1.17-2.4,2.33-2.84l37.1-14.5c.19-.07,.38-.12,.57-.15,1.12-.17,2,.51,2.18,1.69l8.09,54.01c.09,.61-.03,1.15-.34,1.56-.29,.38-.72,.62-1.25,.7h0c-.18,.03-.38,.04-.58,.02l-2.72-.19c.09,.19,.33,.52,.7,.95Z"/>
  <path class="cls-1" d="M65.67,56.44h0m-4.25,1.66l6.76,45.14c-1.32,.33-2.49,1.13-3.29,2.28-1.14,1.65-1.34,3.77-.51,5.6,.32,.71,.76,1.36,1.53,2.27,9.88,11.75,14.41,26.94,12.43,41.68-.53,3.95-.88,5.51-1.03,6.06l-13.11,3.6c-1.59-14.89-6.77-35.37-17.19-52.81-.02-.04-.15-.26-.38-.77-2.69-6.15-8.16-10.49-14.66-11.64-6.88-1.59-10.21-7.04-11.04-11.63-1.06-5.88,1.28-11.31,6.24-14.55,1.05-.64,1.86-1.6,2.31-2.74l31.93-12.48m-31.65,11.54h0m-2.55,3.65h0m37.3-22.35c-.11,0-.22,0-.33,.03-.19,.03-.38,.08-.57,.15l-37.1,14.5c-1.16,.45-2.07,1.61-2.33,2.84,0,0-.03,.02-.07,.04-14.98,9.7-10.69,32.72,6.73,36.59h.01c4.71,.8,8.63,3.96,10.54,8.33,.24,.55,.48,1.03,.7,1.41,10.93,18.31,15.85,40.22,16.77,54.65,.08,1.16,1.41,1.81,2.54,1.81,.23,0,.45-.03,.65-.08l17.73-4.87c1.19-.32,2.48-2.03,2.89-3.36,.4-1.31,.84-3.91,1.28-7.16,2.24-16.61-2.92-33.28-13.71-46.11-.37-.44-.61-.76-.7-.95l2.72,.19c.07,0,.13,0,.19,0,.13,0,.26,0,.38-.03,.53-.08,.96-.32,1.25-.7,.32-.41,.44-.96,.34-1.56l-8.09-54.01c-.16-1.06-.88-1.72-1.84-1.72h0Z"/>
  <path class="cls-3" d="M123.63,25.36h0m-3.68,2.68l12.68,84.63c-14.85-4.75-29.47-7.85-46.58-9.92l-7.58-50.57c17.94-8.15,31-16.62,41.47-24.14m2.03-7.14c-.45,0-.91,.14-1.32,.44-12.65,9.33-26.5,18.39-45.79,26.99-1.12,.5-1.78,1.68-1.6,2.89l8.09,54.01c.18,1.22,1.17,2.15,2.39,2.3,20.68,2.39,36.45,6.18,51.5,11.29,.25,.08,.5,.12,.74,.12,1.32,0,2.45-1.17,2.23-2.59l-14.01-93.51c-.18-1.17-1.18-1.93-2.24-1.93h0Z"/>
  <path class="cls-3" d="M123.46,25.92h0m-3.71,2.71l12.51,83.48c-14.64-4.67-29.06-7.74-45.92-9.78l-7.48-49.9c17.67-8.03,30.56-16.38,40.89-23.8m2.05-7.16c-.45,0-.9,.14-1.31,.43-12.5,9.22-26.2,18.18-45.26,26.68-1.1,.49-1.76,1.66-1.58,2.85l8,53.39c.18,1.2,1.16,2.13,2.37,2.27,20.44,2.36,36.03,6.11,50.91,11.16,.25,.08,.49,.12,.73,.12,1.31,0,2.42-1.16,2.21-2.56l-13.85-92.44c-.17-1.16-1.17-1.91-2.22-1.91h0Z"/>
  <path class="cls-1" d="M136.74,13.93h0m-.67,.12h0m.42-5.34c-.29,0-.58,.02-.87,.06-1.45,.22-2.76,.96-3.57,2.03-.85,1.12-1.17,2.57-.93,4.21l16.3,108.84c.54,3.59,3.03,5.09,5.38,5.09,.27,0,.54-.02,.81-.06h0c1.41-.21,2.64-.92,3.46-2,.92-1.21,1.26-2.81,.99-4.63L141.76,13.41c-.5-3.32-2.93-4.71-5.27-4.71h0Z"/>
  <path class="cls-3" d="M164.76,66.45c-.02-.11-.03-.22-.05-.32v-.03c-1.14-6.81-5.37-12.35-10.77-14.28l4.71,31.82c4.73-3.48,7.16-10.18,6.1-17.19Z"/>
</svg>