<?xml version="1.0" encoding="UTF-8"?>
<svg id="Layer_1" data-name="Layer 1" xmlns="http://www.w3.org/2000/svg" viewBox="0 0 180 180">
  <defs>
    <style>
      .cls-1 {
        stroke: #468ff3;
        stroke-width: 5.7px;
      }

      .cls-1, .cls-2 {
        fill: none;
        stroke-linecap: round;
        stroke-linejoin: round;
      }

      .cls-3 {
        fill: #468ff3;
      }

      .cls-4 {
        opacity: .15;
      }

      .cls-2 {
        stroke: #2d5798;
        stroke-width: 5px;
      }
    </style>
  </defs>
  <g>
    <g class="cls-4">
      <path class="cls-3" d="M159.95,74.71c-.04-4-2.98-6.79-6.98-6.81h-62.48s-62.66,0-62.66,0c-4.75,0-7.51,2.74-7.51,7.47,0,5.86,0,16.65,0,22.51,0,4.59,2.86,7.44,7.46,7.43l8.17-.02h117.1c3.98,0,6.87-2.87,6.91-6.9,.07-6.24,.07-17.43,0-23.67Z"/>
      <path class="cls-3" d="M142.15,105.3H38.16c-.01,2.83,0,8.65,0,11.47,0,18.85,0,28.61,0,47.45,0,4.52,2.44,7.21,6.49,7.21h50.65s40.07,0,40.07,0c4.46,0,6.77-2.57,6.77-7.54,0-6.75,0-4.43,0-11.18v-24.74c0-6.46,0-16.22,0-22.69Z"/>
    </g>
    <g>
      <path class="cls-1" d="M71.03,106.05H35.63l-8.17,.02c-4.6,.01-7.47-2.84-7.46-7.43,0-5.85,0-16.65,0-22.51,0-4.73,2.77-7.48,7.51-7.47h62.66s62.48,0,62.48,0c4,.02,6.94,2.81,6.98,6.81,.07,6.24,.07,17.43,0,23.67-.04,4.02-2.93,6.89-6.91,6.9h-43.42"/>
      <g>
        <path class="cls-1" d="M37.85,109.06c-.01,2.83,0,5.66,0,8.49,0,18.85,0,28.61,0,47.45,0,4.52,2.44,7.21,6.49,7.21h50.65s40.07,0,40.07,0c4.46,0,6.77-2.57,6.77-7.54,0-6.75,0-4.43,0-11.18"/>
        <path class="cls-1" d="M141.84,153.5c0-6.46,0-37.67,0-44.13"/>
      </g>
    </g>
    <g>
      <path class="cls-2" d="M109.83,61.13c-7.45,0-13.43-2.75-16.1-8.09h0c-4.72-9.43,3.22-22.3,18.47-29.93,15.25-7.63,30.31-6.28,35.03,3.15,4.72,9.43-3.22,22.3-18.47,29.93-6.62,3.31-13.21,4.93-18.92,4.93Z"/>
      <path class="cls-2" d="M78.65,60.66c-8.44,0-19.13-4.84-28.16-11.73-7-5.33-12.7-11.62-16.07-17.71-5.5-9.95-2.94-15.87-.93-18.51,7.36-9.66,25.41-3.89,39.43,6.8,14.02,10.69,24.36,26.57,17,36.22-2.62,3.44-6.6,4.92-11.27,4.92Z"/>
    </g>
  </g>
  <line class="cls-2" x1="78.98" y1="160.33" x2="78.98" y2="80.55"/>
  <line class="cls-2" x1="101.37" y1="160.33" x2="101.37" y2="80.55"/>
</svg>