<?xml version="1.0" encoding="UTF-8"?><svg id="Layer_1" xmlns="http://www.w3.org/2000/svg" viewBox="0 0 180 180"><defs><style>.cls-1{fill:#468ff3;opacity:.15;}.cls-1,.cls-2{stroke-width:0px;}.cls-3{fill:#fff;stroke:#468ff3;stroke-miterlimit:10;stroke-width:4.81px;}.cls-2{fill:#2d5798;}</style></defs><path class="cls-2" d="m150.93,45.37H29.07c-3.33,0-6.02,2.7-6.02,6.02s2.7,6.02,6.02,6.02h121.86c3.33,0,6.02-2.7,6.02-6.02s-2.7-6.02-6.02-6.02h0Z"/><path class="cls-2" d="m150.93,84.88H29.07c-3.33,0-6.02,2.7-6.02,6.02s2.7,6.02,6.02,6.02h121.86c3.33,0,6.02-2.7,6.02-6.02s-2.7-6.02-6.02-6.02h0Z"/><path class="cls-2" d="m150.93,124.38H29.07c-3.33,0-6.02,2.7-6.02,6.02s2.7,6.02,6.02,6.02h121.86c3.33,0,6.02-2.7,6.02-6.02s-2.7-6.02-6.02-6.02h0Z"/><circle class="cls-3" cx="125.27" cy="51.39" r="14.85"/><circle class="cls-3" cx="61.12" cy="89.73" r="14.85"/><circle class="cls-3" cx="110.42" cy="133.31" r="14.85"/><circle class="cls-1" cx="125.27" cy="51.39" r="14.89"/><circle class="cls-1" cx="59.84" cy="90.73" r="14.89"/><circle class="cls-1" cx="108.53" cy="132.3" r="14.89"/></svg>