<?xml version="1.0" encoding="UTF-8"?>
<svg id="Layer_1" data-name="Layer 1" xmlns="http://www.w3.org/2000/svg" viewBox="0 0 180 180">
  <defs>
    <style>
      .cls-1 {
        stroke-width: 3px;
      }

      .cls-1, .cls-2, .cls-3, .cls-4 {
        stroke-linecap: round;
        stroke-linejoin: round;
      }

      .cls-1, .cls-2, .cls-3, .cls-4, .cls-5 {
        fill: none;
      }

      .cls-1, .cls-4, .cls-5 {
        stroke: #468ff3;
      }

      .cls-2 {
        stroke: #fff;
        stroke-width: 5.73px;
      }

      .cls-3 {
        stroke: #2d5798;
      }

      .cls-3, .cls-5 {
        stroke-width: 5.7px;
      }

      .cls-6, .cls-7 {
        fill: #468ff3;
      }

      .cls-8 {
        fill: #2d5798;
      }

      .cls-4 {
        stroke-width: 3.27px;
      }

      .cls-5 {
        stroke-miterlimit: 10;
      }

      .cls-7 {
        opacity: .15;
      }
    </style>
  </defs>
  <path class="cls-8" d="M84.58,129.3c-1.03,0-2.06-.39-2.85-1.18l-9.49-9.49c-1.57-1.57-1.57-4.12,0-5.7,1.57-1.57,4.12-1.57,5.7,0l6.64,6.64,18.47-18.47c1.57-1.57,4.12-1.57,5.7,0,1.57,1.57,1.57,4.12,0,5.7l-21.32,21.32c-.79,.79-1.82,1.18-2.85,1.18Z"/>
  <path class="cls-7" d="M171.43,159.26l-11.75-17.46c-3.02-4.49-4.64-9.79-4.64-15.21v-31.65l-.04,.06V47.96c0-11.37-9.26-20.6-20.68-20.6h-35.5v2.58c0,19.96-3.59,26.16-12.17,26.16l-65.3-.6v93.82c0,11.37,9.26,20.6,20.68,20.6h123.73c5.47,0,8.72-6.12,5.66-10.67Zm-43.86-41.48c0,4.1-3.32,7.43-7.43,7.43h-10.23c-4.1,0-7.43,3.32-7.43,7.43v12.35c0,4.1-3.32,7.43-7.43,7.43H62.24c-5.41,0-9.8-4.39-9.8-9.8v-56.14c0-5.41,4.39-9.8,9.8-9.8h55.53c5.41,0,9.8,4.39,9.8,9.8v31.31Z"/>
  <path class="cls-3" d="M23.75,59.8v88.72c0,11.37,9.26,20.6,20.68,20.6h123.73c5.47,0,8.72-6.12,5.66-10.67l-11.75-17.46c-3.02-4.49-4.64-9.79-4.64-15.21v-31.65l-.04,.06V47.15c0-11.37-9.26-20.6-20.68-20.6h-36.01"/>
  <path class="cls-5" d="M9.33,55.98h15.39s5.78,0,5.78,0h55.25c8.26,0,14.95-6.69,14.95-14.95v-15.56s0-.45,0-.45v-1.92c0-7.2-5.86-13.03-13.08-13.03h-1.87s-54.41,0-54.41,0h-2.12c-7.23,0-13.08,5.83-13.08,13.03v2.37h-.03v3.09c0,3.43-1.02,6.78-2.94,9.62l-7.43,11.04c-1.94,2.88,.12,6.75,3.58,6.75Z"/>
  <line class="cls-1" x1="30.11" y1="27.36" x2="84.89" y2="27.36"/>
  <line class="cls-1" x1="30.11" y1="39.87" x2="84.89" y2="39.87"/>
  <g>
    <path class="cls-8" d="M107.29,150.03v-18.71c0-.98,.79-1.77,1.77-1.77h18.71c1.57,0,2.36,1.9,1.25,3.01l-18.71,18.71c-1.11,1.11-3.01,.32-3.01-1.25Z"/>
    <path class="cls-6" d="M119.3,77.96c3.84,0,6.96,3.12,6.96,6.96v32.67c0,2.47-2.01,4.48-4.48,4.48h-10.67c-6.08,0-11.02,4.94-11.02,11.02v12.88c0,2.47-2.01,4.48-4.48,4.48H61.36c-3.84,0-6.96-3.12-6.96-6.96v-58.58c0-3.84,3.12-6.96,6.96-6.96h57.94m0-3.27H61.36c-5.65,0-10.22,4.58-10.22,10.22v58.58c0,5.65,4.58,10.22,10.22,10.22h34.25c4.28,0,7.75-3.47,7.75-7.75v-12.88c0-4.28,3.47-7.75,7.75-7.75h10.67c4.28,0,7.75-3.47,7.75-7.75v-32.67c0-5.65-4.58-10.22-10.22-10.22h0Z"/>
    <g>
      <line class="cls-2" x1="74.36" y1="66.64" x2="74.36" y2="84.47"/>
      <line class="cls-4" x1="74.36" y1="66.64" x2="74.36" y2="84.47"/>
    </g>
    <g>
      <line class="cls-2" x1="91.95" y1="66.64" x2="91.95" y2="84.47"/>
      <line class="cls-4" x1="91.95" y1="66.64" x2="91.95" y2="84.47"/>
    </g>
    <g>
      <line class="cls-2" x1="109.53" y1="66.64" x2="109.53" y2="84.47"/>
      <line class="cls-4" x1="109.53" y1="66.64" x2="109.53" y2="84.47"/>
    </g>
  </g>
</svg>