<?xml version="1.0" encoding="UTF-8"?>
<svg id="Layer_1" data-name="Layer 1" xmlns="http://www.w3.org/2000/svg" viewBox="0 0 180 180">
  <defs>
    <style>
      .cls-1, .cls-2 {
        fill: #468ff3;
      }

      .cls-3 {
        fill: #2d5798;
      }

      .cls-4 {
        fill: #fff;
      }

      .cls-4, .cls-5, .cls-6 {
        stroke-linecap: round;
        stroke-linejoin: round;
      }

      .cls-4, .cls-5, .cls-6, .cls-7 {
        stroke-width: 5px;
      }

      .cls-4, .cls-6, .cls-7 {
        stroke: #2d5798;
      }

      .cls-5 {
        stroke: #468ff3;
      }

      .cls-5, .cls-6, .cls-7 {
        fill: none;
      }

      .cls-2 {
        opacity: .15;
      }

      .cls-7 {
        stroke-miterlimit: 10;
      }
    </style>
  </defs>
  <g>
    <path class="cls-5" d="M107.97,125.56c29.24,0,60.66-5.03,61.91-16.04,.01,.09,.02,.18,.02,.26,.01,.1,.01,.2,.01,.3v14.68c0,.45,.2,1.21,0,1.59,.21,.61,0,.91,0,1.56,0,11.48-32.11,16.71-61.94,16.71-17.9,0-26.66-.78-28.32-.81"/>
    <path class="cls-5" d="M107.97,106.5c18.9,0,38.71-2.1,50.69-6.57h.01c6.53-2.44,10.75-5.56,11.2-9.47,.01,.09,.02,.18,.02,.26,.01,.1,.01,.2,.01,.3v14.68c0,.45,.2,1.2,0,1.58,.21,.61,0,.92,0,1.57,0,.22-.01,.43-.03,.64v.03c-1.25,11-32.67,16.04-61.91,16.04"/>
    <path class="cls-5" d="M103.62,87.4c1.45,.02,2.9,.04,4.35,.04,18.9,0,38.71-2.1,50.69-6.57h.01c6.57-2.44,10.78-5.6,11.2-9.5,.01,.1,.02,.2,.02,.3,.01,.1,.01,.2,.01,.3v14.68c0,.45,.2,1.2,0,1.58,.21,.61,0,.92,0,1.57,0,.22-.01,.43-.03,.64v.03c-.45,3.91-4.67,7.03-11.2,9.47h-.01c-11.99,4.47-31.8,6.57-50.69,6.57"/>
    <g>
      <path class="cls-6" d="M151.41,40.54c-10.82,2.76-26.27,4.48-43.44,4.48s-32.63-1.72-43.43-4.48"/>
      <path class="cls-5" d="M90.07,67.74c5.87,.43,11.93,.64,17.9,.64,18.91,0,38.72-2.1,50.7-6.57,6.57-2.44,10.78-5.6,11.2-9.5,.01,.09,.02,.19,.02,.29,.01,.1,.01,.2,.01,.3v14.69c0,.45,.2,1.2,0,1.58,.21,.61,0,.92,0,1.57,0,.22-.01,.43-.03,.64"/>
    </g>
    <g>
      <path class="cls-6" d="M64.54,40.54c10.81,2.76,26.27,4.48,43.43,4.48s32.63-1.72,43.44-4.48"/>
      <path class="cls-5" d="M91.76,17.65c1.4-.1,2.84-.18,4.27-.24,.49-.02,.97-.04,1.46-.07,.91-.04,1.81-.08,2.73-.1,1.19-.04,2.4-.07,3.6-.09,.87-.01,1.74-.02,2.63-.02,.51-.01,1.02-.01,1.52-.01s1.02,0,1.52,.01c.88,0,1.75,.01,2.63,.02,1.21,.02,2.41,.04,3.6,.09,.92,.02,1.82,.06,2.73,.1,.49,.02,.97,.04,1.46,.07,1.45,.07,2.87,.14,4.27,.24,.77,.06,1.53,.1,2.31,.17,.76,.06,1.51,.12,2.26,.19,22.02,1.88,40.73,6.91,41.16,15.53,.01,.1,.01,.2,.01,.3v14.69c0,.45,.2,1.2,0,1.58,.21,.61,0,.92,0,1.57,0,.22-.01,.43-.03,.64"/>
    </g>
    <path class="cls-5" d="M46.04,81.26V33.83c0-.1,0-.2,.01-.3,.28-5.66,8.45-9.78,20.26-12.46l1.95-.43c7.73-1.69,15.6-2.69,23.5-2.99h0c1.4-.1,2.84-.18,4.27-.24,.49-.02,.97-.04,1.46-.07,.9-.04,1.81-.08,2.73-.1,1.19-.04,2.39-.07,3.6-.09,.87-.01,1.74-.02,2.63-.02,.51-.01,1.02-.01,1.52-.01s1.02,0,1.52,.01c.88,0,1.75,.01,2.63,.02,1.21,.02,2.41,.04,3.6,.09,.92,.02,1.82,.06,2.73,.1,.49,.02,.97,.04,1.46,.07,1.45,.07,2.87,.14,4.27,.24,24.81,1.66,42.98,7.04,42.98,13.42,0,3.65-5.97,6.99-15.74,9.47-10.82,2.76-26.27,4.48-43.44,4.48s-32.63-1.72-43.43-4.48c-9.77-2.48-15.74-5.82-15.74-9.47"/>
    <polygon class="cls-2" points="113.84 43.89 134.66 43.89 161.34 37.73 170 31.07 170 132.37 146.8 141.29 113.84 144.89 113.84 43.89"/>
    <g>
      <circle class="cls-4" cx="49.08" cy="123.8" r="39.08"/>
      <circle class="cls-7" cx="49.08" cy="123.8" r="38.85"/>
    </g>
  </g>
  <g>
    <path class="cls-2" d="M30.11,142.47l3.19,5.11c.35,.55,1.07,.72,1.63,.38l42.06-26.28c.55-.35,.72-1.07,.38-1.63l-3.19-5.11c-2.57,.96-5.56,.01-7.07-2.4s-1.05-5.52,.94-7.41l-3.19-5.11c-.34-.55-1.07-.72-1.63-.38l-42.06,26.28c-.55,.34-.72,1.07-.38,1.63l3.19,5.11c2.57-.96,5.56-.01,7.07,2.4s1.05,5.52-.94,7.41Z"/>
    <g id="ticket">
      <path class="cls-1" d="M32.71,116.48c-.21,0-.43,.06-.62,.18,0,0,0,0,0,0-.55,.35-.71,1.08-.36,1.63l3.01,4.74c.22,.35,.61,.55,1,.55,.21,0,.43-.06,.62-.18h0c.55-.35,.71-1.08,.36-1.63l-3.01-4.74c-.22-.35-.61-.55-1-.55h0Z"/>
      <path class="cls-1" d="M38.81,126.25c-.21,0-.43,.06-.62,.18-.55,.35-.72,1.07-.38,1.63l2.5,4.01c.22,.36,.61,.56,1,.56,.21,0,.43-.06,.62-.18,.55-.35,.72-1.07,.38-1.63l-2.5-4.01c-.22-.36-.61-.56-1-.56h0Z"/>
      <path class="cls-1" d="M44.44,135.26c-.21,0-.43,.06-.62,.18-.55,.35-.72,1.07-.38,1.63l3.13,5.01c.22,.36,.61,.56,1,.56,.21,0,.43-.06,.62-.18,.55-.35,.72-1.07,.38-1.63l-3.13-5.01c-.22-.36-.61-.56-1-.56h0Z"/>
      <path class="cls-3" d="M56.97,111.91l-12.02,7.51c-.55,.35-1.28,.18-1.63-.38s-.18-1.28,.38-1.63l12.02-7.51c.55-.35,1.28-.18,1.63,.38s.18,1.28-.38,1.63Z"/>
      <path class="cls-3" d="M64.47,123.93l-12.02,7.51c-.55,.35-1.28,.18-1.63-.38s-.18-1.28,.38-1.63l12.02-7.51c.55-.35,1.28-.18,1.63,.38s.18,1.28-.38,1.63Z"/>
      <path class="cls-3" d="M60.72,117.92l-12.02,7.51c-.55,.35-1.28,.18-1.63-.38s-.18-1.28,.38-1.63l12.02-7.51c.55-.35,1.28-.18,1.63,.38s.18,1.28-.38,1.63Z"/>
      <path class="cls-1" d="M65.08,94.88c-.69,0-1.4,.19-2.03,.58l-45.57,28.47c-1.79,1.12-2.34,3.49-1.22,5.29l4.07,6.51c.24,.39,.66,.6,1.09,.6,.23,0,.47-.06,.68-.19,.63-.39,1.33-.58,2.03-.58,1.28,0,2.53,.64,3.26,1.8,1.12,1.79,.57,4.17-1.22,5.29-.6,.37-.78,1.16-.41,1.76l4.07,6.51c.73,1.16,1.98,1.8,3.26,1.8,.69,0,1.4-.19,2.03-.58l45.57-28.47c1.79-1.12,2.34-3.49,1.22-5.29l-4.07-6.51c-.24-.39-.66-.6-1.09-.6-.23,0-.47,.06-.68,.19-.63,.39-1.33,.58-2.03,.58-1.28,0-2.53-.64-3.26-1.8-1.12-1.79-.57-4.17,1.22-5.29,.6-.37,.78-1.16,.41-1.76l-4.07-6.51c-.73-1.16-1.98-1.8-3.26-1.8h0Zm-41.1,37.78l-3.19-5.11c-.34-.55-.18-1.28,.38-1.63l42.06-26.28c.19-.12,.41-.18,.62-.18,.39,0,.78,.2,1,.55l3.19,5.11c-1.99,1.89-2.45,4.99-.94,7.41,1.12,1.79,3.05,2.77,5.02,2.77,.69,0,1.39-.12,2.05-.37l3.19,5.11c.35,.55,.18,1.28-.38,1.63l-42.06,26.28c-.19,.12-.41,.18-.62,.18-.39,0-.78-.2-1-.55l-3.19-5.11c1.99-1.89,2.45-4.99,.94-7.41-1.12-1.79-3.05-2.77-5.02-2.77-.69,0-1.39,.12-2.05,.37h0Z"/>
    </g>
  </g>
</svg>