<?xml version="1.0" encoding="utf-8"?>
<!-- Generator: Adobe Illustrator 26.5.2, SVG Export Plug-In . SVG Version: 6.00 Build 0)  -->
<svg version="1.1" id="Layer_1" xmlns="http://www.w3.org/2000/svg" xmlns:xlink="http://www.w3.org/1999/xlink" x="0px" y="0px"
	 viewBox="0 0 2193 93" style="enable-background:new 0 0 2193 93;" xml:space="preserve">
<style type="text/css">
	.st0{fill:#FFFFFF;}
</style>
<g>
	<g>
		<path class="st0" d="M59,72.9l-7-17.3H14.9L7.9,72.9H1L29.8,2.7h7.5L66,72.9L59,72.9L59,72.9z M33.5,9.1L16.9,50.2h33.2L33.5,9.1z
			"/>
		<path class="st0" d="M963.3,72.9V2.7h44.5v5.5h-38.5v26h37.8v5.5h-37.8v27.8h38.5v5.5L963.3,72.9L963.3,72.9z"/>
		<path class="st0" d="M1054.7,72.9V38.5c0-9.8-4.9-12.7-12.3-12.7c-6.5,0-13.3,4.1-16.5,8.7v38.4h-5.5V22h5.5v7.7
			c3.7-4.4,10.9-8.9,18.3-8.9c10.3,0,16,5,16,16.5v35.6H1054.7z"/>
		<path class="st0" d="M1076.2,63.1V26.9h-8.4V22h8.4V8.1h5.6V22h10.3v4.8h-10.3v35.4c0,4.1,1.7,7,5.3,7c2.4,0,4.5-1.2,5.7-2.4
			l2.1,4.2c-2,1.9-4.4,3.2-8.6,3.2C1079.4,74.2,1076.2,70.1,1076.2,63.1L1076.2,63.1z"/>
		<path class="st0" d="M1099.1,47.4c0-14.7,10.3-26.6,24.4-26.6c15.5,0,24,12.2,24,27v1.5H1105c0.5,11.1,7.9,20.2,19.9,20.2
			c6.4,0,12.3-2.4,16.6-7.1l2.8,3.6c-5.1,5.3-11.5,8.2-19.9,8.2C1109.6,74.2,1099.1,63.1,1099.1,47.4L1099.1,47.4z M1123.4,25.5
			c-12,0-18,10.5-18.4,19.4h37C1141.8,36.3,1136.2,25.5,1123.4,25.5L1123.4,25.5z"/>
		<path class="st0" d="M1159.6,72.9V22h5.5v8.7c4.3-5.7,10.1-9.8,17.2-9.8v6c-0.9-0.2-1.7-0.2-2.7-0.2c-5.2,0-12.1,4.6-14.4,9.1
			v37.1L1159.6,72.9L1159.6,72.9z"/>
		<path class="st0" d="M1196.3,64.7v27.6h-5.5V22h5.5v8c3.6-5.2,10.1-9.3,17.7-9.3c13.6,0,22.8,10.3,22.8,26.6s-9.2,26.8-22.8,26.8
			C1206.8,74.2,1200.4,70.5,1196.3,64.7z M1230.8,47.4c0-12.3-6.4-21.7-17.8-21.7c-7.1,0-13.8,4.2-16.7,9.1V60
			c2.9,4.8,9.7,9.3,16.7,9.3C1224.4,69.2,1230.8,59.7,1230.8,47.4L1230.8,47.4z"/>
		<path class="st0" d="M1248.4,72.9V22h5.5v8.7c4.3-5.7,10.1-9.8,17.2-9.8v6c-0.9-0.2-1.7-0.2-2.7-0.2c-5.2,0-12.1,4.6-14.4,9.1
			v37.1L1248.4,72.9L1248.4,72.9z"/>
		<path class="st0" d="M1278.2,9.8c0-2.3,2-4.1,4.2-4.1s4.2,1.8,4.2,4.1s-1.9,4.2-4.2,4.2S1278.2,12.1,1278.2,9.8z M1279.7,72.9V22
			h5.5v50.9H1279.7z"/>
		<path class="st0" d="M1295.7,66.1l3.3-4c3.3,4.1,9.3,7.5,16.4,7.5c8.5,0,13.6-4.4,13.6-10.3c0-13.9-32.1-6-32.1-24.3
			c0-7.8,6.6-14.1,18.1-14.1c8.7,0,14.5,3.4,18.2,7.5l-3.1,3.9c-2.9-4-8.4-6.7-15.2-6.7c-7.9,0-12.6,4-12.6,9.3c0,12.7,32,5,32,24.5
			c0,8.2-6.3,14.9-19.1,14.9C1307.1,74.2,1300.7,71.8,1295.7,66.1L1295.7,66.1z"/>
		<path class="st0" d="M1343.5,47.4c0-14.7,10.3-26.6,24.4-26.6c15.5,0,24,12.2,24,27v1.5h-42.5c0.5,11.1,7.9,20.2,19.9,20.2
			c6.4,0,12.3-2.4,16.6-7.1l2.8,3.6c-5.1,5.3-11.5,8.2-19.9,8.2C1354,74.2,1343.5,63.1,1343.5,47.4L1343.5,47.4z M1367.8,25.5
			c-12,0-18,10.5-18.4,19.4h37C1386.2,36.3,1380.6,25.5,1367.8,25.5L1367.8,25.5z"/>
		<path class="st0" d="M1425.4,63l3.9-4.5c4.5,5.2,11.9,10.2,22,10.2c14.3,0,18.4-8,18.4-14c0-20.6-42.1-9.9-42.1-34.4
			c0-11.5,10.3-18.7,23.1-18.7c10.4,0,18.4,3.7,23.8,9.9l-4,4.4c-5.1-6.1-12.2-8.9-20.1-8.9c-9.4,0-16.4,5.4-16.4,13
			c0,18,42.1,8.1,42.1,34.3c0,9.1-6,19.9-25,19.9C1439.6,74.2,1430.8,69.4,1425.4,63L1425.4,63z"/>
		<path class="st0" d="M1485.3,47.4c0-14.8,9.5-26.6,24.3-26.6s24.5,11.8,24.5,26.6s-9.5,26.8-24.5,26.8S1485.3,62.3,1485.3,47.4z
			 M1528.3,47.4c0-11.3-6.6-21.7-18.6-21.7s-18.5,10.4-18.5,21.7s6.7,21.8,18.5,21.8S1528.3,58.8,1528.3,47.4z"/>
		<path class="st0" d="M1546.2,72.9V2.7h5.5v70.2H1546.2z"/>
		<path class="st0" d="M1601,72.9v-7.5c-4.1,4.6-10.9,8.7-18.3,8.7c-10.3,0-16-4.8-16-16.3V22h5.5v34.5c0,9.9,4.9,12.6,12.3,12.6
			c6.5,0,13.2-3.9,16.5-8.4V22h5.5v50.9H1601z"/>
		<path class="st0" d="M1622.4,63.1V26.9h-8.4V22h8.4V8.1h5.6V22h10.3v4.8H1628v35.4c0,4.1,1.7,7,5.3,7c2.4,0,4.5-1.2,5.7-2.4
			l2.1,4.2c-2,1.9-4.4,3.2-8.6,3.2C1625.7,74.2,1622.5,70.1,1622.4,63.1L1622.4,63.1z"/>
		<path class="st0" d="M1646.8,9.8c0-2.3,2-4.1,4.2-4.1s4.2,1.8,4.2,4.1s-1.9,4.2-4.2,4.2S1646.8,12.1,1646.8,9.8z M1648.2,72.9V22
			h5.5v50.9H1648.2z"/>
		<path class="st0" d="M1665.8,47.4c0-14.8,9.5-26.6,24.3-26.6s24.5,11.8,24.5,26.6s-9.5,26.8-24.5,26.8S1665.8,62.3,1665.8,47.4z
			 M1708.8,47.4c0-11.3-6.6-21.7-18.6-21.7s-18.5,10.4-18.5,21.7s6.7,21.8,18.5,21.8S1708.8,58.8,1708.8,47.4z"/>
		<path class="st0" d="M1761,72.9V38.5c0-9.8-4.9-12.7-12.3-12.7c-6.5,0-13.3,4.1-16.5,8.7v38.4h-5.5V22h5.5v7.7
			c3.7-4.4,10.9-8.9,18.3-8.9c10.3,0,16,5,16,16.5v35.6H1761z"/>
		<path class="st0" d="M1777,66.1l3.3-4c3.3,4.1,9.3,7.5,16.4,7.5c8.5,0,13.6-4.4,13.6-10.3c0-13.9-32.1-6-32.1-24.3
			c0-7.8,6.6-14.1,18.1-14.1c8.7,0,14.5,3.4,18.2,7.5l-3.1,3.9c-2.9-4-8.4-6.7-15.2-6.7c-7.9,0-12.6,4-12.6,9.3c0,12.7,32,5,32,24.5
			c0,8.2-6.3,14.9-19.1,14.9C1788.4,74.2,1782.1,71.8,1777,66.1L1777,66.1z"/>
		<path class="st0" d="M1853.1,72.9V2.7h26.3c13.5,0,21.2,9.5,21.2,20.5s-7.8,20.5-21.2,20.5h-20.3v29.2L1853.1,72.9L1853.1,72.9z
			 M1894.2,23.2c0-8.9-6.1-15.1-15.5-15.1h-19.7v30.1h19.7C1888.1,38.3,1894.2,32,1894.2,23.2z"/>
		<path class="st0" d="M1910.8,72.9V2.7h5.5v70.2H1910.8z"/>
		<path class="st0" d="M1963.6,72.9v-6c-4.5,4.9-10.2,7.3-17.3,7.3c-8.7,0-17.8-6-17.8-17s8.9-16.9,17.8-16.9
			c7.1,0,12.8,2.3,17.3,7.3V37.3c0-7.6-6.1-11.7-13.6-11.7c-6.4,0-11.4,2.2-16,7.5l-3.1-3.8c5.3-5.7,11.2-8.5,19.6-8.5
			c10.3,0,18.5,5,18.5,16.3v35.8L1963.6,72.9L1963.6,72.9z M1963.6,62.9V51.8c-3.6-4.7-9.3-7.1-15.4-7.1c-8.3,0-13.9,5.4-13.9,12.6
			s5.6,12.5,13.9,12.5C1954.3,69.9,1960,67.5,1963.6,62.9z"/>
		<path class="st0" d="M1985.1,63.1V26.9h-8.4V22h8.4V8.1h5.6V22h10.3v4.8h-10.3v35.4c0,4.1,1.7,7,5.3,7c2.4,0,4.5-1.2,5.7-2.4
			l2.1,4.2c-2,1.9-4.4,3.2-8.6,3.2C1988.4,74.2,1985.1,70.1,1985.1,63.1L1985.1,63.1z"/>
		<path class="st0" d="M2012.7,72.9v-46h-8.4V22h8.4v-4.6c0-9.9,5.3-15.8,13.8-15.8c3.6,0,6.4,0.7,9.7,3.6l-2.6,4
			c-1.7-1.6-3.8-2.6-6.5-2.6c-5.8,0-8.7,4-8.7,10.9v4.6h10.3v4.8h-10.3v46L2012.7,72.9L2012.7,72.9z"/>
		<path class="st0" d="M2033.8,47.4c0-14.8,9.5-26.6,24.3-26.6c14.8,0,24.5,11.8,24.5,26.6s-9.5,26.8-24.5,26.8
			S2033.8,62.3,2033.8,47.4z M2076.8,47.4c0-11.3-6.6-21.7-18.6-21.7s-18.5,10.4-18.5,21.7s6.7,21.8,18.5,21.8
			S2076.8,58.8,2076.8,47.4z"/>
		<path class="st0" d="M2094.7,72.9V22h5.5v8.7c4.3-5.7,10.1-9.8,17.2-9.8v6c-0.9-0.2-1.7-0.2-2.7-0.2c-5.2,0-12.1,4.6-14.4,9.1
			v37.1L2094.7,72.9L2094.7,72.9z"/>
		<path class="st0" d="M2186.5,72.9V37.3c0-7.2-3.1-11.6-10.2-11.6c-5.5,0-11.7,4-14.5,8.6v38.5h-5.6V37.3c0-7.2-2.9-11.6-10.1-11.6
			c-5.5,0-11.6,4.1-14.6,8.7v38.4h-5.5V22h5.5v7.7c2.1-3.3,9.1-8.9,16.4-8.9c7.9,0,12.1,4.6,13.4,9.6c2.8-4.7,9.7-9.6,16.9-9.6
			c9.4,0,13.9,5.3,13.9,15.5v36.6H2186.5z"/>
	</g>
	<g>
		<g>
			<path class="st0" d="M507.5,22.7c-4.4,3-7.8,9.4-8.5,15c-3.6,29.6,22,37,22,37c-29.1,0-42.9-15.8-42.9-37
				c0-19.5,9.4-28.6,18.2-32.8l-9.1-4.1h32.1l-5.2,15.3l-5.2,15.3L507.5,22.7L507.5,22.7z"/>
			<path class="st0" d="M555.6,74.6l-9.1-4.1c8.8-4.2,18.2-13.3,18.2-32.8c0-21.2-13.8-37-42.9-37c0,0,25.6,7.4,22.1,37
				c-0.7,5.6-4.1,12-8.5,15L534,44l-5.2,15.3l-5.2,15.3L555.6,74.6L555.6,74.6z"/>
		</g>
		<path class="st0" d="M606.4,34.1l30.8-31.6h-24.7L584,33.6V2.6h-21.9c9.5,8.1,15.7,20.3,15.7,34.5c0,18.8-8.2,29.6-15.7,35.9H584
			V36.7h0.2l28.6,36.2h26.5C639.3,72.9,606.4,34.1,606.4,34.1z"/>
		<path class="st0" d="M645.8,2.6h20.5v70.3h-20.5V2.6z"/>
		<path class="st0" d="M718.8,0.7c29.4,0,41.8,15.8,41.8,37s-12.4,37-41.8,37S677,59,677,37.7S689.4,0.7,718.8,0.7z M718.8,60.3
			c15.6,0,20.7-10.2,20.7-22.6s-5.2-22.6-20.7-22.6s-20.7,10.2-20.7,22.6S703.2,60.3,718.8,60.3z"/>
		<path class="st0" d="M789,50.1c0.2,9,4.3,11,13.8,11c12.1,0,13.9-4.3,13.9-7.4c0-4.7-4.9-6.2-13-7.8l-10-2
			c-11.6-2.2-23.8-6.5-23.8-20c0-17.2,16-23.3,32-23.3c25.7,0,33,7.9,33.7,21.9h-19.9c-0.6-7.2-6.4-8.3-12.5-8.3
			c-9,0-12.9,3-12.9,6.9c0,4.8,6.4,6,13.9,7.6l9.4,2c12.9,2.6,23.4,6.8,23.4,20.7c0,19.6-19.8,23.2-35.5,23.2
			c-28.4,0-33.1-12.2-33.1-24.6L789,50.1L789,50.1z"/>
		<path class="st0" d="M846.9,2.6h20.5v31.1l28.4-31.1h24.7l-30.8,31.6l33,38.8h-26.5l-28.6-36.2h-0.2v36.2h-20.5V2.6z"/>
		<path class="st0" d="M100.6,2.6h31.6l20.7,52.2l21.9-52.2h30.5v70.3H186V15.6h-0.2l-23.3,57.3h-21l-23.4-57.3h-0.2v57.3h-17.3
			L100.6,2.6L100.6,2.6z"/>
		<path class="st0" d="M249.9,2.6h24.4l36.5,70.3H288L281.4,59h-40.9l-6.8,13.9h-21.1L249.9,2.6z M261.2,16.2l-14.4,29.7h28.3
			L261.2,16.2L261.2,16.2z"/>
		<path class="st0" d="M367.5,25.6c-1.1-7.8-7.4-10.5-15.2-10.5c-13.3,0-19.8,9.3-19.8,22.2s5.4,23,19.2,23
			c7.8,0,14.9-2.7,15.6-11.3H389c-0.9,20.8-18,25.7-39.2,25.7S311.6,64,311.6,37.8S327.9,0.7,353,0.7c17.9,0,35.2,6.3,35.5,24.9
			H367.5L367.5,25.6z"/>
		<path class="st0" d="M399,2.6h42.9c17,0,26.6,6.1,26.6,18.4c0,8.9-7.3,15.2-17.8,17v0.2c6,0.4,11.5,1.8,13.8,6.2
			c3.4,6.4,3.8,21.2,6.7,28.5h-21.7c-2.2-6.8-2-17-3.9-21.8c-1.3-3.2-4.4-4.9-12.5-4.9h-13.6v26.7H399L399,2.6L399,2.6z M419.4,32.6
			h16.3c9.4,0,12.4-2.9,12.4-8.3c0-6.8-5.3-8.1-15.2-8.1h-13.4L419.4,32.6L419.4,32.6z"/>
	</g>
</g>
</svg>
