<?xml version="1.0" encoding="UTF-8"?><svg id="Layer_1" xmlns="http://www.w3.org/2000/svg" viewBox="0 0 180 180"><defs><style>.cls-1{stroke-linejoin:round;stroke-width:2.2px;}.cls-1,.cls-2{stroke-linecap:round;}.cls-1,.cls-2,.cls-3{fill:none;}.cls-1,.cls-3{stroke:#18bcd0;}.cls-4{fill:#18bcd0;}.cls-5,.cls-6{fill:#fff;}.cls-7{fill:#ff914d;}.cls-8{fill:#19234d;}.cls-2{stroke:#19234d;stroke-width:2.5px;}.cls-2,.cls-3,.cls-6{stroke-miterlimit:10;}.cls-3{stroke-width:3.5px;}.cls-6{stroke:#fff;stroke-width:8px;}</style></defs><path class="cls-3" d="m153.99,72.14v84.15c0,6.24-5.06,11.3-11.3,11.3h-63.83c-6.24,0-11.3-5.06-11.3-11.3V26.19c0-6.24,5.06-11.3,11.3-11.3h63.83c6.24,0,11.3,5.06,11.3,11.3v50.54"/><line class="cls-2" x1="82.71" y1="44.35" x2="101.89" y2="44.35"/><line class="cls-2" x1="82.71" y1="51.27" x2="126.51" y2="51.27"/><line class="cls-2" x1="82.71" y1="58.19" x2="138.09" y2="58.19"/><line class="cls-2" x1="108.05" y1="44.35" x2="138.09" y2="44.35"/><line class="cls-1" x1="82.76" y1="72.14" x2="110.27" y2="72.14"/><line class="cls-1" x1="82.76" y1="79.06" x2="121.02" y2="79.06"/><line class="cls-1" x1="82.76" y1="94.51" x2="110.27" y2="94.51"/><line class="cls-1" x1="82.76" y1="101.43" x2="121.02" y2="101.43"/><line class="cls-1" x1="82.76" y1="117.57" x2="110.27" y2="117.57"/><line class="cls-1" x1="82.76" y1="124.49" x2="121.02" y2="124.49"/><line class="cls-1" x1="82.76" y1="140.89" x2="110.27" y2="140.89"/><line class="cls-1" x1="82.76" y1="147.81" x2="121.02" y2="147.81"/><rect class="cls-4" x="127.74" y="67.56" width="15.15" height="15.15" rx="2" ry="2"/><path class="cls-5" d="m139.07,74.99v.62c0,.17-.14.31-.31.31h-2.81v2.81c0,.17-.14.31-.31.31h-.62c-.17,0-.31-.14-.31-.31v-2.81h-2.81c-.17,0-.31-.14-.31-.31v-.62c0-.17.14-.31.31-.31h2.81v-2.81c0-.17.14-.31.31-.31h.62c.17,0,.31.14.31.31v2.81h2.81c.17,0,.31.14.31.31Z"/><rect class="cls-4" x="127.74" y="90.63" width="15.15" height="15.15" rx="2" ry="2"/><path class="cls-5" d="m139.07,98.06v.62c0,.17-.14.31-.31.31h-2.81v2.81c0,.17-.14.31-.31.31h-.62c-.17,0-.31-.14-.31-.31v-2.81h-2.81c-.17,0-.31-.14-.31-.31v-.62c0-.17.14-.31.31-.31h2.81v-2.81c0-.17.14-.31.31-.31h.62c.17,0,.31.14.31.31v2.81h2.81c.17,0,.31.14.31.31Z"/><rect class="cls-4" x="127.74" y="113.7" width="15.15" height="15.15" rx="2" ry="2"/><path class="cls-5" d="m139.07,121.14v.62c0,.17-.14.31-.31.31h-2.81v2.81c0,.17-.14.31-.31.31h-.62c-.17,0-.31-.14-.31-.31v-2.81h-2.81c-.17,0-.31-.14-.31-.31v-.62c0-.17.14-.31.31-.31h2.81v-2.81c0-.17.14-.31.31-.31h.62c.17,0,.31.14.31.31v2.81h2.81c.17,0,.31.14.31.31Z"/><rect class="cls-4" x="127.74" y="136.78" width="15.15" height="15.15" rx="2" ry="2"/><path class="cls-5" d="m139.07,144.21v.62c0,.17-.14.31-.31.31h-2.81v2.81c0,.17-.14.31-.31.31h-.62c-.17,0-.31-.14-.31-.31v-2.81h-2.81c-.17,0-.31-.14-.31-.31v-.62c0-.17.14-.31.31-.31h2.81v-2.81c0-.17.14-.31.31-.31h.62c.17,0,.31.14.31.31v2.81h2.81c.17,0,.31.14.31.31Z"/><path class="cls-6" d="m61.82,53.33c5.42,0,9.82-4.38,9.82-9.77s-4.41-9.78-9.82-9.78-9.82,4.38-9.82,9.78,4.41,9.77,9.82,9.77Z"/><path class="cls-6" d="m85.6,54.64c4.07,0,7.36-3.28,7.36-7.32s-3.29-7.35-7.36-7.35-7.36,3.29-7.36,7.35,3.29,7.32,7.36,7.32Z"/><path class="cls-6" d="m38.05,54.64c4.07,0,7.36-3.28,7.36-7.32s-3.29-7.35-7.36-7.35-7.36,3.29-7.36,7.35,3.29,7.32,7.36,7.32Z"/><path class="cls-6" d="m78.07,80.58v-20.62c0-2.14-1.76-3.89-3.92-3.89h-6.8l-5.42,8-5.42-8h-7.02c-2.15,0-3.92,1.75-3.92,3.89v20.62c0,3,2.41,5.45,5.41,5.55v14.53c0,1.57,1.12,2.91,2.66,3.2,2.65.51,5.39.77,8.18.77s5.59-.27,8.26-.78c1.54-.3,2.66-1.63,2.66-3.2v-14.52c2.95-.14,5.33-2.57,5.33-5.54Z"/><path class="cls-6" d="m41.75,80.58v-20.62c0-.25.06-.49.08-.72h-14.08c-1.8,0-3.27,1.47-3.27,3.27v17.21c0,2.49,2.02,4.54,4.52,4.64v5.29c3.73,4.29,8.28,7.84,13.42,10.41,2.18,1.09,4.74-.46,4.74-2.9v-8.12c-3.2-1.49-5.4-4.71-5.4-8.47Z"/><path class="cls-6" d="m99.17,79.73v-17.23c0-1.8-1.46-3.25-3.25-3.25h-14.14c.03.23.08.47.08.72v20.62c0,3.7-2.17,6.92-5.33,8.41v8.16c0,2.44,2.57,3.99,4.74,2.9,5.14-2.58,9.71-6.14,13.44-10.45v-5.24c2.47-.12,4.47-2.15,4.47-4.63Z"/><path class="cls-7" d="m61.82,53.09c5.42,0,9.82-4.38,9.82-9.77s-4.41-9.78-9.82-9.78-9.82,4.38-9.82,9.78,4.41,9.77,9.82,9.77Z"/><path class="cls-8" d="m85.59,54.41c4.07,0,7.36-3.28,7.36-7.32s-3.29-7.35-7.36-7.35-7.36,3.29-7.36,7.35,3.29,7.32,7.36,7.32Z"/><path class="cls-8" d="m38.05,54.41c4.07,0,7.36-3.28,7.36-7.32s-3.29-7.35-7.36-7.35-7.36,3.29-7.36,7.35,3.29,7.32,7.36,7.32Z"/><path class="cls-7" d="m78.07,80.35v-20.62c0-2.14-1.76-3.89-3.92-3.89h-6.8l-5.42,8-5.42-8h-7.02c-2.15,0-3.92,1.75-3.92,3.89v20.62c0,3,2.41,5.45,5.41,5.55v14.53c0,1.57,1.12,2.91,2.66,3.2,2.65.51,5.39.77,8.18.77s5.59-.27,8.26-.78c1.54-.3,2.66-1.63,2.66-3.2v-14.52c2.95-.14,5.33-2.57,5.33-5.54Z"/><path class="cls-8" d="m41.74,80.35v-20.62c0-.25.06-.49.08-.72h-14.08c-1.8,0-3.27,1.47-3.27,3.27v17.21c0,2.49,2.02,4.54,4.52,4.64v5.29c3.73,4.29,8.28,7.84,13.42,10.41,2.18,1.09,4.74-.46,4.74-2.9v-8.12c-3.2-1.49-5.4-4.71-5.4-8.47Z"/><path class="cls-8" d="m99.17,79.49v-17.23c0-1.8-1.46-3.25-3.25-3.25h-14.14c.03.23.08.47.08.72v20.62c0,3.7-2.17,6.92-5.33,8.41v8.16c0,2.44,2.57,3.99,4.74,2.9,5.14-2.58,9.71-6.14,13.44-10.45v-5.24c2.47-.12,4.47-2.15,4.47-4.63Z"/></svg>