<?xml version="1.0" encoding="utf-8"?>
<!-- Generator: Adobe Illustrator 25.4.1, SVG Export Plug-In . SVG Version: 6.00 Build 0)  -->
<svg version="1.1" id="Layer_1" xmlns="http://www.w3.org/2000/svg" xmlns:xlink="http://www.w3.org/1999/xlink" x="0px" y="0px"
	 viewBox="0 0 40 40" style="enable-background:new 0 0 40 40;" xml:space="preserve">
<style type="text/css">
	.st0{fill:#FFFFFF;}
</style>
<path class="st0" d="M34.1,5.8c-1.8-1.8-4-3.2-6.4-4.3c-5-2.1-10.5-2.1-15.6,0C9.8,2.6,7.6,4,5.8,5.8c-1.8,1.8-3.3,4-4.3,6.4
	C0.5,14.7,0,17.3,0,20s0.5,5.3,1.5,7.8c1,2.4,2.5,4.6,4.3,6.4c1.8,1.9,4,3.3,6.4,4.3c2.5,1,5.1,1.5,7.8,1.5s5.3-0.5,7.8-1.5
	c2.4-1,4.5-2.5,6.4-4.3c1.8-1.8,3.3-4,4.3-6.4c1-2.5,1.5-5.1,1.5-7.8c0-2.7-0.5-5.3-1.6-7.8C37.4,9.8,36,7.7,34.1,5.8z M26.1,23.7
	L15.5,34.3V25l4.6-4.6l-4.6-4.6v-10l10.8,10.8c1,1,1.9,2.1,1.9,3.5C28.2,21.5,27.1,22.7,26.1,23.7z"/>
</svg>
