<?xml version="1.0" encoding="utf-8"?>
<!-- Generator: Adobe Illustrator 25.2.1, SVG Export Plug-In . SVG Version: 6.00 Build 0)  -->
<svg version="1.1" id="Layer_1" xmlns="http://www.w3.org/2000/svg" xmlns:xlink="http://www.w3.org/1999/xlink" x="0px" y="0px"
	 viewBox="0 0 40.01 40.03" style="enable-background:new 0 0 40.01 40.03;" xml:space="preserve">
<path d="M34.13,5.83c-1.83-1.8-3.96-3.23-6.38-4.28C22.78-0.51,17.23-0.52,12.2,1.56C9.79,2.59,7.64,4.03,5.83,5.85
	c-1.85,1.85-3.3,4-4.3,6.4c-1.03,2.48-1.55,5.09-1.55,7.76c0,2.67,0.52,5.28,1.54,7.75c1,2.44,2.46,4.6,4.28,6.39
	c1.83,1.87,4,3.33,6.43,4.32c2.48,1.03,5.09,1.55,7.76,1.55c2.67,0,5.27-0.52,7.77-1.55c2.39-1,4.54-2.45,6.39-4.3
	c1.81-1.82,3.26-3.96,4.3-6.4c1.03-2.48,1.55-5.09,1.55-7.76c0-2.66-0.52-5.28-1.57-7.81C37.41,9.84,35.98,7.7,34.13,5.83z
	 M26.11,23.68L15.53,34.27V25l4.64-4.64l-4.64-4.64V5.76l10.83,10.83c0.95,0.95,1.93,2.12,1.88,3.52
	C28.17,21.5,27.1,22.69,26.11,23.68z"/>
</svg>
