<?xml version="1.0" encoding="utf-8"?>
<!-- Generator: Adobe Illustrator 25.2.1, SVG Export Plug-In . SVG Version: 6.00 Build 0)  -->
<svg version="1.1" id="Layer_1" xmlns="http://www.w3.org/2000/svg" xmlns:xlink="http://www.w3.org/1999/xlink" x="0px" y="0px"
	 viewBox="0 0 262.66 74.01" style="enable-background:new 0 0 262.66 74.01;" xml:space="preserve">
<g>
	<polygon points="150.8,1.9 132.39,1.9 132.39,74.01 180.37,74.01 180.37,55.1 150.8,55.1 	"/>
	<path d="M50.39,19.02c-0.36-1.49-0.85-2.91-1.43-4.23l-0.13-0.26c-1.45-2.89-3.38-5.32-5.74-7.21c-2.24-1.79-4.84-3.18-7.7-4.08
		c-2.74-0.88-5.72-1.33-8.83-1.33H0.16v72.11h26.4c3.11,0,6.09-0.45,8.83-1.33c2.86-0.91,5.46-2.29,7.7-4.09
		c2.36-1.89,4.29-4.31,5.74-7.21l0.13-0.26c0.59-1.33,1.07-2.75,1.43-4.23c0.39-1.62,0.59-3.32,0.59-5.08
		c0-5.39-1.54-10.05-4.51-13.85c2.96-3.81,4.51-8.46,4.51-13.86C50.98,22.34,50.78,20.63,50.39,19.02z M31.55,54.21
		c-1.15,0.93-2.79,1.38-4.98,1.38h-7.99v-8.07h7.99c2.37,0,4.06,0.45,5.04,1.33c0.3,0.32,0.52,0.66,0.68,1.07
		c0.19,0.47,0.29,1.12,0.29,1.89C32.57,53.12,32.2,53.68,31.55,54.21z M32.28,25.99c-0.16,0.4-0.38,0.75-0.68,1.07
		c-0.98,0.88-2.67,1.33-5.04,1.33h-7.99v-8.07h7.99c2.2,0,3.83,0.45,4.98,1.38c0.65,0.53,1.03,1.09,1.03,2.41
		C32.57,24.86,32.47,25.51,32.28,25.99z"/>
	<path d="M117.04,10.77c-3.39-3.33-7.33-5.98-11.79-7.91C96.06-0.95,85.8-0.97,76.49,2.89c-4.46,1.9-8.42,4.57-11.78,7.92
		c-3.42,3.42-6.09,7.4-7.95,11.84c-1.9,4.59-2.87,9.42-2.87,14.35c0,4.93,0.96,9.77,2.86,14.33c1.86,4.51,4.55,8.51,7.92,11.81
		c3.39,3.45,7.39,6.15,11.89,8c4.59,1.91,9.41,2.87,14.35,2.87c4.93,0,9.75-0.96,14.36-2.87c4.42-1.86,8.4-4.52,11.82-7.95
		c3.35-3.36,6.03-7.33,7.95-11.84c1.9-4.59,2.87-9.42,2.87-14.35c0-4.93-0.96-9.76-2.91-14.44
		C123.11,18.19,120.46,14.25,117.04,10.77z M102.21,43.79L82.65,63.36V46.22l8.58-8.59l-8.58-8.58v-18.4l20.03,20.03
		c1.75,1.76,3.58,3.93,3.47,6.51C106.03,39.75,104.05,41.95,102.21,43.79z"/>
	<path d="M242.88,23.91c-1.8-4.3-4.33-8.14-7.51-11.42c-3.31-3.39-7.08-5.99-11.22-7.72c-4.23-1.91-8.82-2.88-13.66-2.88h-25.66
		v72.11h25.66c4.84,0,9.43-0.97,13.66-2.87c4.14-1.73,7.91-4.33,11.22-7.73c3.19-3.28,5.71-7.12,7.52-11.45
		c1.8-4.39,2.72-9.1,2.72-14.01C245.61,33.12,244.69,28.41,242.88,23.91z M222.39,50.13c-3.29,3.38-7.15,5.02-11.82,5.02h-7.02
		V20.84h7.02c4.67,0,8.53,1.64,11.82,5.02c3.29,3.38,4.89,7.35,4.89,12.14C227.27,42.79,225.67,46.75,222.39,50.13z"/>
	<g>
		<path d="M261.73,60.56c-0.49-1.14-1.18-2.17-2.08-3.08c-0.89-0.87-1.91-1.56-3.08-2.07c-2.4-1-5.08-1-7.52,0.01
			c-1.16,0.5-2.2,1.19-3.08,2.07c-0.89,0.89-1.59,1.94-2.08,3.09c-0.5,1.2-0.75,2.46-0.75,3.75c0,1.29,0.25,2.55,0.75,3.75
			c0.49,1.18,1.19,2.22,2.07,3.09c0.88,0.9,1.93,1.61,3.11,2.09c1.2,0.5,2.46,0.75,3.75,0.75c1.29,0,2.55-0.25,3.75-0.75
			c1.16-0.48,2.2-1.18,3.09-2.08c0.88-0.88,1.57-1.91,2.08-3.09c0.5-1.2,0.75-2.46,0.75-3.75
			C262.49,63.05,262.24,61.79,261.73,60.56z"/>
	</g>
</g>
</svg>
