<?xml version="1.0" encoding="utf-8"?>
<!-- Generator: Adobe Illustrator 26.5.2, SVG Export Plug-In . SVG Version: 6.00 Build 0)  -->
<svg version="1.1" id="Layer_18" xmlns="http://www.w3.org/2000/svg" xmlns:xlink="http://www.w3.org/1999/xlink" x="0px" y="0px"
	 viewBox="0 0 128 128" style="enable-background:new 0 0 128 128;" xml:space="preserve">
<style type="text/css">
	.st0{fill:#0F88C9;}
	.st1{fill:#FFFFFF;}
	.st2{fill:#353B41;}
	.st3{fill:none;stroke:#0F88C9;stroke-width:5.8;stroke-miterlimit:10;}
	.st4{fill:#FFFFFF;stroke:#353B41;stroke-width:6.16;stroke-miterlimit:10;}
</style>
<g>
	<g>
		<path class="st0" d="M96.1,81.5H29.3c-3.4,0-6.2-2.8-6.2-6.2v-40c0-3.4,2.8-6.2,6.2-6.2h66.8c3.4,0,6.2,2.8,6.2,6.2v40
			C102.4,78.7,99.6,81.5,96.1,81.5z M29.3,33c-1.3,0-2.3,1-2.3,2.3v40c0,1.3,1,2.3,2.3,2.3h66.8c1.3,0,2.3-1,2.3-2.3v-40
			c0-1.3-1-2.3-2.3-2.3H29.3z"/>
		
			<rect x="20.9" y="62.1" transform="matrix(0.7559 -0.6547 0.6547 0.7559 -32.6751 40.5761)" class="st0" width="34.4" height="4"/>
		
			<rect x="85.6" y="46.9" transform="matrix(0.6547 -0.7559 0.7559 0.6547 -18.2266 88.3073)" class="st0" width="4" height="34.4"/>
		<polygon class="st0" points="62.7,63.7 23.7,37.8 25.8,34.5 62.7,58.9 99.6,34.5 101.8,37.8 		"/>
	</g>
	<g>
		<circle class="st1" cx="91.4" cy="85.5" r="21.4"/>
		<path class="st2" d="M91.4,109c-13,0-23.5-10.5-23.5-23.5S78.4,62,91.4,62s23.5,10.5,23.5,23.5S104.4,109,91.4,109z M91.4,66.2
			c-10.6,0-19.3,8.7-19.3,19.3s8.7,19.3,19.3,19.3s19.3-8.7,19.3-19.3S102,66.2,91.4,66.2z"/>
	</g>
	<path class="st2" d="M100.9,75.4l-3,19.7c-0.1,0.5-0.3,0.9-0.8,1.1c-0.2,0.1-0.5,0.2-0.7,0.2c-0.2,0-0.4,0-0.6-0.1l-5.8-2.4
		l-2.4,3.6C87.3,97.9,87,98,86.7,98c-0.5,0-1-0.4-1-1v-4.6c0-0.3,0.1-0.7,0.3-0.9l10.3-13.3l-14,12.6l-4.9-2
		c-0.5-0.2-0.9-0.7-0.9-1.4c0-0.6,0.3-1.1,0.8-1.4l21.3-12.1c0.5-0.3,1.1-0.3,1.6,0.1C100.7,74.3,101,74.9,100.9,75.4L100.9,75.4z"
		/>
</g>
<g>
	<path class="st3" d="M-230,19.6h97.8c3.4,0,6.2,2.8,6.2,6.2v58.6c0,3.4-2.8,6.2-6.2,6.2H-230c-3.4,0-6.2-2.8-6.2-6.2V25.8
		C-236.2,22.4-233.4,19.6-230,19.6z"/>
	<line class="st3" x1="-236.2" y1="84.6" x2="-198.2" y2="51.6"/>
	<line class="st3" x1="-125.7" y1="84.6" x2="-163.8" y2="51.6"/>
	<polyline class="st3" points="-125.4,27.2 -181.1,64 -236.7,27.2 	"/>
</g>
<circle class="st4" cx="-139.1" cy="99.4" r="31.3"/>
<path class="st2" d="M-125.2,84.7l-4.5,28.9c-0.1,0.7-0.5,1.3-1.1,1.6c-0.3,0.2-0.7,0.3-1.1,0.3c-0.3,0-0.6-0.1-0.9-0.2l-8.5-3.6
	l-3.5,5.3c-0.3,0.5-0.7,0.7-1.2,0.7c-0.8,0-1.4-0.7-1.4-1.4v-6.7c0-0.5,0.2-1,0.5-1.4l15.1-19.5l-20.4,18.4l-7.1-3
	c-0.8-0.3-1.3-1.1-1.4-2c-0.1-0.9,0.4-1.7,1.1-2.1l31.2-17.8c0.7-0.4,1.7-0.4,2.4,0.1C-125.4,83-125.1,83.9-125.2,84.7L-125.2,84.7z
	"/>
</svg>
