<?xml version="1.0" encoding="utf-8"?>
<!-- Generator: Adobe Illustrator 26.4.1, SVG Export Plug-In . SVG Version: 6.00 Build 0)  -->
<svg version="1.1" id="Layer_17" xmlns="http://www.w3.org/2000/svg" xmlns:xlink="http://www.w3.org/1999/xlink" x="0px" y="0px"
	 viewBox="0 0 128 128" style="enable-background:new 0 0 128 128;" xml:space="preserve">
<style type="text/css">
	.st0{fill:none;}
	.st1{fill:#0F88C9;}
	.st2{fill:#353B41;stroke:#353B41;stroke-width:0.25;stroke-miterlimit:10;}
	.st3{enable-background:new    ;}
	.st4{fill:#353B41;}
</style>
<g>
	<g>
		<path class="st0" d="M99.9,30.6H14.7c-2.9,0-5.3,2.4-5.3,5.3v24.9h95.9V35.9C105.2,33,102.8,30.6,99.9,30.6L99.9,30.6z"/>
		<path class="st1" d="M9.3,35.9c0-2.9,2.4-5.3,5.3-5.3h85.2c2.9,0,5.3,2.4,5.3,5.3v24.9h5.3V35.9c0-5.9-4.8-10.7-10.7-10.7H14.7
			C8.8,25.3,4,30,4,35.9v24.9h5.3V35.9z"/>
		<path class="st1" d="M14.7,80.7h85.2c5.9,0,10.7-4.8,10.7-10.7V52.3h-5.3V70c0,2.9-2.4,5.3-5.3,5.3H14.7c-2.9,0-5.3-2.4-5.3-5.3
			V52.3H4V70C4,75.9,8.8,80.7,14.7,80.7z"/>
	</g>
	<g>
		<path class="st2" d="M19.2,49.5l2.5,8.5l2.3-7.9c0.2-0.8,0.4-1.4,0.5-1.7s0.3-0.6,0.6-0.9c0.3-0.3,0.8-0.4,1.3-0.4s1,0.1,1.3,0.4
			c0.3,0.3,0.5,0.6,0.7,0.9c0.1,0.3,0.3,0.9,0.5,1.7l2.3,7.9l2.5-8.5c0.2-0.6,0.3-1,0.4-1.3c0.1-0.3,0.3-0.5,0.5-0.7
			c0.2-0.2,0.6-0.3,1-0.3s0.8,0.2,1.2,0.5c0.3,0.3,0.5,0.7,0.5,1.1c0,0.4-0.1,1-0.4,1.8l-3.1,9.1c-0.3,0.8-0.5,1.3-0.6,1.7
			c-0.1,0.3-0.4,0.6-0.7,0.9c-0.3,0.3-0.8,0.4-1.3,0.4c-0.6,0-1-0.1-1.4-0.4c-0.3-0.3-0.6-0.6-0.7-1.1s-0.3-1-0.5-1.6l-2.2-7.4
			l-2.1,7.4c-0.3,1-0.6,1.8-0.9,2.3c-0.3,0.5-0.9,0.8-1.7,0.8c-0.4,0-0.8-0.1-1.1-0.2s-0.5-0.4-0.7-0.7c-0.2-0.3-0.4-0.7-0.5-1.1
			c-0.1-0.4-0.3-0.7-0.3-1L16,50.5c-0.3-0.8-0.5-1.4-0.5-1.8c0-0.4,0.2-0.8,0.5-1.1c0.3-0.3,0.7-0.5,1.2-0.5c0.6,0,1.1,0.2,1.3,0.5
			C18.7,48.1,19,48.7,19.2,49.5L19.2,49.5z"/>
		<path class="st2" d="M42.3,49.5l2.5,8.5l2.3-7.9c0.2-0.8,0.4-1.4,0.5-1.7s0.3-0.6,0.6-0.9s0.8-0.4,1.3-0.4c0.6,0,1,0.1,1.3,0.4
			s0.5,0.6,0.7,0.9c0.1,0.3,0.3,0.9,0.5,1.7l2.3,7.9l2.5-8.5c0.2-0.6,0.3-1,0.4-1.3s0.3-0.5,0.5-0.7c0.2-0.2,0.6-0.3,1-0.3
			c0.5,0,0.8,0.2,1.2,0.5c0.3,0.3,0.5,0.7,0.5,1.1c0,0.4-0.1,1-0.4,1.8l-3.1,9.1c-0.3,0.8-0.5,1.3-0.6,1.7c-0.1,0.3-0.4,0.6-0.7,0.9
			c-0.3,0.3-0.8,0.4-1.3,0.4c-0.6,0-1-0.1-1.4-0.4c-0.3-0.3-0.6-0.6-0.7-1.1s-0.3-1-0.5-1.6l-2.2-7.4l-2.1,7.4
			c-0.3,1-0.6,1.8-0.9,2.3c-0.3,0.5-0.9,0.8-1.7,0.8c-0.4,0-0.8-0.1-1.1-0.2s-0.5-0.4-0.7-0.7c-0.2-0.3-0.4-0.7-0.5-1.1
			s-0.3-0.7-0.3-1l-3.1-9.1c-0.3-0.8-0.5-1.4-0.5-1.8c0-0.4,0.2-0.8,0.5-1.1c0.3-0.3,0.7-0.5,1.2-0.5c0.6,0,1.1,0.2,1.3,0.5
			C41.8,48.1,42.1,48.7,42.3,49.5L42.3,49.5z"/>
		<path class="st2" d="M65.4,49.5l2.5,8.5l2.3-7.9c0.2-0.8,0.4-1.4,0.5-1.7c0.1-0.3,0.3-0.6,0.6-0.9c0.3-0.3,0.8-0.4,1.3-0.4
			c0.6,0,1,0.1,1.3,0.4s0.5,0.6,0.7,0.9c0.1,0.3,0.3,0.9,0.5,1.7l2.3,7.9l2.5-8.5c0.2-0.6,0.3-1,0.4-1.3c0.1-0.3,0.3-0.5,0.5-0.7
			c0.2-0.2,0.6-0.3,1-0.3c0.5,0,0.8,0.2,1.2,0.5c0.3,0.3,0.5,0.7,0.5,1.1c0,0.4-0.1,1-0.4,1.8L80,59.6c-0.3,0.8-0.5,1.3-0.6,1.7
			c-0.1,0.3-0.4,0.6-0.7,0.9c-0.3,0.3-0.8,0.4-1.3,0.4c-0.6,0-1-0.1-1.4-0.4s-0.6-0.6-0.7-1.1c-0.2-0.4-0.3-1-0.5-1.6l-2.2-7.4
			l-2.1,7.4c-0.3,1-0.6,1.8-0.9,2.3c-0.3,0.5-0.9,0.8-1.7,0.8c-0.4,0-0.8-0.1-1.1-0.2s-0.5-0.4-0.7-0.7c-0.2-0.3-0.4-0.7-0.5-1.1
			c-0.1-0.4-0.3-0.7-0.3-1l-3.1-9.1c-0.3-0.8-0.5-1.4-0.5-1.8c0-0.4,0.2-0.8,0.5-1.1c0.3-0.3,0.7-0.5,1.2-0.5c0.6,0,1.1,0.2,1.3,0.5
			C64.9,48.1,65.1,48.7,65.4,49.5L65.4,49.5z"/>
		<path class="st2" d="M86.2,62.6c-0.6,0-1.1-0.2-1.5-0.6s-0.6-0.9-0.6-1.6c0-0.6,0.2-1,0.6-1.5s0.9-0.6,1.5-0.6
			c0.6,0,1.1,0.2,1.5,0.6c0.4,0.4,0.6,0.9,0.6,1.5c0,0.7-0.2,1.2-0.6,1.6C87.2,62.4,86.7,62.6,86.2,62.6L86.2,62.6z"/>
	</g>
	<g class="st3">
		<path class="st4" d="M111.6,84.5l5.6,13.6c0.4,0.9-0.1,2-0.9,2.4l-4.9,2.1c-0.9,0.4-1.9-0.1-2.3-1l-5.3-12.9l-8.7,8.9
			c-1.2,1.2-3,0.3-3-1.3V53.4c0-1.6,2-2.4,3-1.3l28.4,29.2c1.1,1.1,0.3,3.1-1.2,3.1H111.6z"/>
	</g>
</g>
</svg>
