<?xml version="1.0" encoding="UTF-8"?>
<svg id="Layer_1" data-name="Layer 1" xmlns="http://www.w3.org/2000/svg" viewBox="0 0 180 180">
  <defs>
    <style>
      .cls-1 {
        stroke: #468ff3;
      }

      .cls-1, .cls-2 {
        fill: none;
        stroke-linecap: round;
        stroke-linejoin: round;
        stroke-width: 5.7px;
      }

      .cls-2 {
        stroke: #2d5798;
      }

      .cls-3 {
        fill: #468ff3;
        opacity: .15;
      }
    </style>
  </defs>
  <path class="cls-1" d="M135.41,76.01h-55.55c-8.9,0-16.11,7.21-16.11,16.11s7.21,16.11,16.11,16.11h5.81s10.23,0,10.23,0h5.95c12.15,0,21.99,9.85,21.99,21.99s-9.85,21.99-21.99,21.99H45.31"/>
  <path class="cls-3" d="M135.41,28.01c-9.92,0-17.97,8.05-17.97,17.97s17.97,29.95,17.97,29.95c0,0,17.97-20.03,17.97-29.95s-8.05-17.97-17.97-17.97Zm0,28.42s-5.99-7.13-5.99-10.45,2.67-5.99,5.99-5.99,5.99,2.67,5.99,5.99-5.99,10.45-5.99,10.45Z"/>
  <path class="cls-3" d="M45.31,104.28c-9.92,0-17.97,8.05-17.97,17.97s17.97,29.95,17.97,29.95c0,0,17.97-20.03,17.97-29.95s-8.05-17.97-17.97-17.97Zm0,28.42s-5.99-7.13-5.99-10.45,2.67-5.99,5.99-5.99,5.99,2.67,5.99,5.99-5.99,10.45-5.99,10.45Z"/>
  <path class="cls-2" d="M45.31,104.28c-9.92,0-17.97,8.05-17.97,17.97s17.97,29.95,17.97,29.95c0,0,17.97-20.03,17.97-29.95s-8.05-17.97-17.97-17.97Zm0,28.42s-5.99-7.13-5.99-10.45,2.67-5.99,5.99-5.99,5.99,2.67,5.99,5.99-5.99,10.45-5.99,10.45Z"/>
  <path class="cls-2" d="M135.41,28.01c-9.92,0-17.97,8.05-17.97,17.97s17.97,29.95,17.97,29.95c0,0,17.97-20.03,17.97-29.95s-8.05-17.97-17.97-17.97Zm0,28.42s-5.99-7.13-5.99-10.45,2.67-5.99,5.99-5.99,5.99,2.67,5.99,5.99-5.99,10.45-5.99,10.45Z"/>
</svg>