<?xml version="1.0" encoding="utf-8"?>
<!-- Generator: Adobe Illustrator 26.5.2, SVG Export Plug-In . SVG Version: 6.00 Build 0)  -->
<svg version="1.1" id="Layer_1" xmlns="http://www.w3.org/2000/svg" xmlns:xlink="http://www.w3.org/1999/xlink" x="0px" y="0px"
	 viewBox="0 0 128 128" style="enable-background:new 0 0 128 128;" xml:space="preserve">
<style type="text/css">
	.st0{display:none;}
	.st1{display:inline;}
	.st2{fill:#0F88C9;}
	.st3{fill:#343B43;}
	.st4{fill:#353B41;}
	.st5{display:inline;fill:#0F88C9;}
	.st6{display:inline;fill:#353B41;}
	.st7{enable-background:new    ;}
	.st8{fill:none;}
	.st9{fill:#EEEEEF;}
	.st10{display:inline;fill:#343B43;}
	.st11{fill:#353B41;stroke:#353B41;stroke-width:0.25;stroke-miterlimit:10;}
	.st12{font-family:'FontAwesome5Brands-Regular';}
	.st13{font-size:59.0517px;}
</style>
<g id="calendar" class="st0">
	<g class="st1">
		<g>
			<path class="st2" d="M96.3,111.3H31.7c-6.3,0-11.4-5.1-11.4-11.4V35.2c0-6.3,5.1-11.4,11.4-11.4h64.7c6.3,0,11.4,5.1,11.4,11.4
				v64.7C107.8,106.1,102.6,111.3,96.3,111.3z M31.7,30.2c-2.7,0-5,2.2-5,5v64.7c0,2.7,2.2,5,5,5h64.7c2.7,0,5-2.2,5-5V35.2
				c0-2.7-2.2-5-5-5H31.7z"/>
			<path class="st3" d="M44.2,37.6c-1.8,0-3.2-1.4-3.2-3.2V20c0-1.8,1.4-3.2,3.2-3.2s3.2,1.4,3.2,3.2v14.4
				C47.4,36.2,45.9,37.6,44.2,37.6z"/>
			<path class="st3" d="M63.8,37.6c-1.8,0-3.2-1.4-3.2-3.2V20c0-1.8,1.4-3.2,3.2-3.2S67,18.2,67,20v14.4
				C67,36.2,65.6,37.6,63.8,37.6z"/>
			<path class="st3" d="M83.5,37.6c-1.8,0-3.2-1.4-3.2-3.2V20c0-1.8,1.4-3.2,3.2-3.2c1.8,0,3.2,1.4,3.2,3.2v14.4
				C86.7,36.2,85.2,37.6,83.5,37.6z"/>
		</g>
		<g>
			<path class="st4" d="M47.2,59.5h-9c-0.9,0-1.6-0.7-1.6-1.6v-9c0-0.9,0.7-1.6,1.6-1.6h9c0.9,0,1.6,0.7,1.6,1.6v9
				C48.9,58.7,48.1,59.5,47.2,59.5z"/>
			<path class="st4" d="M68.5,59.5h-9c-0.9,0-1.6-0.7-1.6-1.6v-9c0-0.9,0.7-1.6,1.6-1.6h9c0.9,0,1.6,0.7,1.6,1.6v9
				C70.1,58.7,69.4,59.5,68.5,59.5z"/>
			<path class="st4" d="M89.8,59.5h-9c-0.9,0-1.6-0.7-1.6-1.6v-9c0-0.9,0.7-1.6,1.6-1.6h9c0.9,0,1.6,0.7,1.6,1.6v9
				C91.4,58.7,90.7,59.5,89.8,59.5z"/>
			<path class="st4" d="M47.2,77.5h-9c-0.9,0-1.6-0.7-1.6-1.6v-9c0-0.9,0.7-1.6,1.6-1.6h9c0.9,0,1.6,0.7,1.6,1.6v9
				C48.9,76.8,48.1,77.5,47.2,77.5z"/>
			<path class="st4" d="M68.5,77.5h-9c-0.9,0-1.6-0.7-1.6-1.6v-9c0-0.9,0.7-1.6,1.6-1.6h9c0.9,0,1.6,0.7,1.6,1.6v9
				C70.1,76.8,69.4,77.5,68.5,77.5z"/>
			<path class="st4" d="M89.8,77.5h-9c-0.9,0-1.6-0.7-1.6-1.6v-9c0-0.9,0.7-1.6,1.6-1.6h9c0.9,0,1.6,0.7,1.6,1.6v9
				C91.4,76.8,90.7,77.5,89.8,77.5z"/>
			<path class="st4" d="M47.2,95.5h-9c-0.9,0-1.6-0.7-1.6-1.6v-9c0-0.9,0.7-1.6,1.6-1.6h9c0.9,0,1.6,0.7,1.6,1.6v9
				C48.8,94.8,48.1,95.5,47.2,95.5z"/>
			<path class="st4" d="M68.5,95.5h-9c-0.9,0-1.6-0.7-1.6-1.6v-9c0-0.9,0.7-1.6,1.6-1.6h9c0.9,0,1.6,0.7,1.6,1.6v9
				C70.1,94.8,69.4,95.5,68.5,95.5z"/>
			<path class="st4" d="M89.8,95.5h-9c-0.9,0-1.6-0.7-1.6-1.6v-9c0-0.9,0.7-1.6,1.6-1.6h9c0.9,0,1.6,0.7,1.6,1.6v9
				C91.4,94.8,90.7,95.5,89.8,95.5z"/>
		</g>
	</g>
</g>
<g id="Text" class="st0">
	<g class="st1">
		<path class="st2" d="M39.8,77.6V45l0,0V27.7c0-3.3-2.7-6.1-6.1-6.1c-3.3,0-6.1,2.7-6.1,6.1v72.6c0,3.3,2.7,6.1,6.1,6.1
			c3.3,0,6.1-2.7,6.1-6.1V77.6L39.8,77.6z"/>
		<path class="st2" d="M94.3,21.6c-3.3,0-6.1,2.7-6.1,6.1v24.2l0,0V64l0,0v36.3c0,3.3,2.7,6.1,6.1,6.1c3.3,0,6.1-2.7,6.1-6.1V27.7
			C100.3,24.4,97.6,21.6,94.3,21.6z"/>
		<path class="st2" d="M52.3,70h26.4l0,0h14c2.7,0,4.9-2.7,4.9-6.1s-2.2-6.1-4.9-6.1H34c-2.7,0-4.9,2.7-4.9,6.1
			c0,3.4,2.2,6.1,4.9,6.1H52.3L52.3,70z"/>
	</g>
</g>
<g id="devider" class="st0">
	<g class="st1">
		<path class="st2" d="M120.3,58.5H7.7c-1.8,0-3.2-1.4-3.2-3.2s1.4-3.2,3.2-3.2h112.6c1.8,0,3.2,1.4,3.2,3.2S122.1,58.5,120.3,58.5z
			"/>
		<path class="st2" d="M120.3,108.6H7.7c-1.8,0-3.2-1.4-3.2-3.2c0-1.8,1.4-3.2,3.2-3.2h112.6c1.8,0,3.2,1.4,3.2,3.2
			C123.5,107.1,122.1,108.6,120.3,108.6z"/>
		<path class="st4" d="M39,40.9H23.5c-1.7,0-3-1.3-3-3V22.4c0-1.7,1.3-3,3-3H39c1.7,0,3,1.3,3,3v15.5C42,39.6,40.7,40.9,39,40.9z"/>
		<path class="st4" d="M71.7,40.9H56.2c-1.7,0-3-1.3-3-3V22.4c0-1.7,1.3-3,3-3h15.5c1.7,0,3,1.3,3,3v15.5
			C74.7,39.6,73.4,40.9,71.7,40.9z"/>
		<path class="st4" d="M104.4,40.9H89c-1.7,0-3-1.3-3-3V22.4c0-1.7,1.3-3,3-3h15.5c1.7,0,3,1.3,3,3v15.5
			C107.4,39.6,106.1,40.9,104.4,40.9z"/>
		<path class="st4" d="M39,91.2H23.5c-1.7,0-3-1.3-3-3V72.7c0-1.7,1.3-3,3-3H39c1.7,0,3,1.3,3,3v15.5C42,89.9,40.6,91.2,39,91.2z"/>
		<path class="st4" d="M71.7,91.2H56.2c-1.7,0-3-1.3-3-3V72.7c0-1.7,1.3-3,3-3h15.5c1.7,0,3,1.3,3,3v15.5
			C74.7,89.9,73.3,91.2,71.7,91.2z"/>
		<path class="st4" d="M104.4,91.2H88.9c-1.7,0-3-1.3-3-3V72.7c0-1.7,1.3-3,3-3h15.5c1.7,0,3,1.3,3,3v15.5
			C107.4,89.9,106.1,91.2,104.4,91.2z"/>
	</g>
</g>
<g id="button" class="st0">
	<g class="st1">
		<path class="st2" d="M79.8,133H61.7c-9.1,0-17.7-4.3-23.1-11.6l-17.2-23c-1.4-1.9-2.2-4.1-2.2-6.5c0-6,4.8-10.8,10.8-10.8
			c3.4,0,6.6,1.6,8.6,4.3l4.8,6.4V40.5c0-5.9,4.9-10.8,11-10.8c5.9,0,10.6,4.8,10.6,10.8v22.8c0.9-0.2,1.9-0.3,2.8-0.3
			c4,0,7.6,1.9,9.9,5.1c2-1.3,4.3-2,6.8-2c4.6,0,8.7,2.5,10.8,6.4c0.9-0.2,1.9-0.3,2.8-0.3c6.8,0,12.3,5.5,12.3,12.3v18.2
			C110.3,119.3,96.6,133,79.8,133z M29.9,87.6c-2.1,0-4.3,1.7-4.3,4.3c0,0.9,0.3,1.8,0.9,2.6l17.2,23c4.2,5.6,10.9,9,18,9h18.2
			c13.2,0,24-10.8,24-24V84.4c0-3.2-2.6-5.8-5.8-5.8c-1.1,0-2.1,0.3-3,0.9l-4,2.4l-0.9-4.6c-0.5-2.8-2.9-4.8-5.7-4.8
			c-2,0-3.9,1.1-5,2.8l-4.2,6.8l-1.8-7.8c-0.7-2.9-3-4.9-5.8-4.9c-1.8,0-3.1,0.8-3.9,1.5l-5.4,4.9V40.5c0-2.4-1.9-4.3-4.2-4.3
			c-2.5,0-4.5,1.9-4.5,4.3v70.7L33.3,89.3C32.6,88.2,31.3,87.6,29.9,87.6z"/>
		<g>
			<path class="st4" d="M52.9,14.4h2c0.9,0,1.6-0.7,1.6-1.6V-2.1c0-0.9-0.7-1.6-1.6-1.6h-2c-0.9,0-1.6,0.7-1.6,1.6l0.1,14.9
				C51.2,13.7,52,14.4,52.9,14.4z"/>
			<path class="st4" d="M17.1,32v2c0,0.9,0.7,1.6,1.6,1.6l14.9-0.1c0.9,0,1.6-0.7,1.6-1.6v-2c0-0.9-0.7-1.6-1.6-1.6l-14.9,0.1
				C17.9,30.4,17.1,31.1,17.1,32z"/>
			<path class="st4" d="M72.4,32v2c0,0.9,0.7,1.6,1.6,1.6l14.9-0.1c0.9,0,1.6-0.7,1.6-1.6v-2c0-0.9-0.7-1.6-1.6-1.6H74
				C73.1,30.4,72.4,31.1,72.4,32z"/>
			<path class="st4" d="M66.2,19.1l1.4,1.4c0.6,0.6,1.7,0.6,2.3,0L80.4,9.9c0.6-0.6,0.6-1.7,0-2.3L79,6.2c-0.6-0.6-1.7-0.6-2.3,0
				L66.2,16.8C65.6,17.4,65.6,18.5,66.2,19.1z"/>
			<path class="st4" d="M40,20.5l1.4-1.4c0.6-0.6,0.6-1.7,0-2.3L30.8,6.2c-0.6-0.6-1.7-0.6-2.3,0l-1.4,1.4c-0.6,0.6-0.6,1.7,0,2.3
				l10.6,10.5C38.3,21.1,39.3,21.1,40,20.5z"/>
			<path class="st4" d="M41.5,46.9l-1.4-1.4c-0.6-0.6-1.7-0.6-2.3,0L27.3,56.2c-0.6,0.6-0.6,1.7,0,2.3l1.4,1.4
				c0.6,0.6,1.7,0.6,2.3,0l10.4-10.6C42.2,48.6,42.2,47.6,41.5,46.9z"/>
			<path class="st4" d="M67.8,45.5l-1.4,1.4c-0.6,0.6-0.6,1.7,0,2.3L77,59.6c0.6,0.6,1.7,0.6,2.3,0l1.4-1.4c0.6-0.6,0.6-1.7,0-2.3
				L70.1,45.4C69.5,44.8,68.4,44.8,67.8,45.5z"/>
		</g>
	</g>
</g>
<g id="paragraph" class="st0">
	<g class="st1">
		<g>
			<path class="st2" d="M83.6,115.9H25.9c-1.7,0-3-1.4-3-3l0,0c0-1.7,1.4-3,3-3h57.7c1.7,0,3,1.4,3,3l0,0
				C86.7,114.5,85.3,115.9,83.6,115.9z"/>
			<path class="st2" d="M83.6,99.9H25.9c-1.7,0-3-1.4-3-3l0,0c0-1.7,1.4-3,3-3h57.7c1.7,0,3,1.4,3,3l0,0
				C86.7,98.6,85.3,99.9,83.6,99.9z"/>
			<path class="st2" d="M83.6,68H25.9c-1.7,0-3-1.4-3-3l0,0c0-1.7,1.4-3,3-3h57.7c1.7,0,3,1.4,3,3l0,0C86.7,66.7,85.3,68,83.6,68z"
				/>
			<path class="st2" d="M57.7,52.1H25.9c-1.7,0-3-1.4-3-3l0,0c0-1.7,1.4-3,3-3h31.8c1.7,0,3,1.4,3,3l0,0
				C60.8,50.7,59.4,52.1,57.7,52.1z"/>
			<path class="st2" d="M57.7,84H25.9c-1.7,0-3-1.4-3-3l0,0c0-1.7,1.4-3,3-3h31.8c1.7,0,3,1.4,3,3l0,0C60.8,82.6,59.4,84,57.7,84z"
				/>
		</g>
		<g>
			<path class="st4" d="M98.1,28.9L78.4,48.5c-0.2,0.2-0.4,0.3-0.6,0.3l-10,2c-0.8,0.2-1.6-0.6-1.4-1.4l2-10c0-0.2,0.2-0.4,0.3-0.6
				l19.6-19.6L98.1,28.9z M104,22.9l-4.3,4.3l-9.6-9.7l4.3-4.3c1.4-1.4,3.7-1.4,5.1,0l4.5,4.5C105.5,19.2,105.5,21.5,104,22.9z"/>
		</g>
	</g>
</g>
<g id="radio" class="st0">
	<g class="st1">
		<g>
			<circle class="st4" cx="64" cy="64" r="10.9"/>
		</g>
	</g>
	<path class="st5" d="M64,109.2c-24.9,0-45.2-20.3-45.2-45.2S39.1,18.8,64,18.8s45.2,20.3,45.2,45.2S88.9,109.2,64,109.2z M64,25.7
		c-21.1,0-38.3,17.2-38.3,38.3s17.2,38.3,38.3,38.3s38.3-17.2,38.3-38.3S85.1,25.7,64,25.7z"/>
	<circle class="st6" cx="64" cy="64" r="18.9"/>
</g>
<g id="Spacing" class="st0">
	<g class="st1">
		<g>
			<path class="st2" d="M112.6,38.8h-50c-2.8,0-5.1-2.3-5.1-5.1s2.3-5.1,5.1-5.1h49.9c2.8,0,5.1,2.3,5.1,5.1
				C117.6,36.6,115.4,38.8,112.6,38.8z"/>
			<path class="st2" d="M112.6,69.1h-50c-2.8,0-5.1-2.3-5.1-5.1s2.3-5.1,5.1-5.1h49.9c2.8,0,5.1,2.3,5.1,5.1
				C117.6,66.8,115.4,69.1,112.6,69.1z"/>
			<path class="st2" d="M112.6,99.3h-50c-2.8,0-5.1-2.3-5.1-5.1c0-2.8,2.3-5.1,5.1-5.1h49.9c2.8,0,5.1,2.3,5.1,5.1
				C117.6,97.1,115.4,99.3,112.6,99.3z"/>
		</g>
		<path class="st4" d="M44.4,89.4c0-2.5-2-4.5-4.5-4.5l0,0l0,0c-1.2,0-2.3,0.5-3.1,1.3c-0.1,0.1-0.1,0.1-0.2,0.2L32,90.9V59.5V37.1
			l4.4,4.4c0.2,0.2,0.3,0.4,0.5,0.5c0.8,0.7,1.8,1.1,2.9,1.1l0,0c1.2,0,2.3-0.5,3.1-1.3c0.1-0.1,0.1-0.1,0.2-0.2
			c0.8-0.8,1.3-1.9,1.3-3.1c0-1.1-0.4-2.1-1-2.9c-0.1-0.1-0.2-0.2-0.3-0.3c0,0,0,0-0.1-0.1s-0.2-0.2-0.3-0.3L30.5,23
			c-1.8-1.8-4.6-1.8-6.4,0L11.7,35.3l-0.1,0.1c-0.8,0.8-1.3,1.9-1.3,3.2l0,0l0,0c0,2.5,2,4.5,4.5,4.5l0,0l0,0c1.2,0,2.3-0.5,3.1-1.3
			c0.1-0.1,0.1-0.1,0.2-0.2l4.7-4.6v22.3v18l-0.1,13.4l-4.4-4.4c-0.2-0.2-0.3-0.4-0.5-0.5c-0.8-0.7-1.8-1.1-2.9-1.1l0,0
			c-1.2,0-2.3,0.5-3.1,1.3c-0.1,0.1-0.1,0.1-0.2,0.2c-0.8,0.8-1.3,1.9-1.3,3.1c0,1.1,0.4,2.1,1,2.9c0.1,0.1,0.2,0.2,0.3,0.3
			c0,0,0,0,0.1,0.1s0.2,0.2,0.3,0.3L24.3,105c1.8,1.8,4.6,1.8,6.4,0L43,92.7l0.1-0.1C43.9,91.8,44.4,90.7,44.4,89.4L44.4,89.4
			L44.4,89.4z"/>
	</g>
</g>
<g id="PDF" class="st0">
	<g class="st1">
		<g>
			<path class="st3" d="M83.7,71.3c-0.6,0-4.6,0.3-10.2,1.2c-2.2-2-4.1-4.5-5.6-7.2c0.2-0.6,0.4-1.2,0.6-1.8
				c0.3-1.3,1.7-7.3,1.7-11.8c0-4.2-3.4-7.6-7.6-7.6S55,47.5,55,51.7c0,0.1,0,6.5,3.1,14.1c-1.6,4.4-3.5,8.8-5.7,13.1
				c-4.8,2.3-8.9,5-11.9,8.1c-1.4,1.5-2.1,3.3-2.1,5.6c0,4.2,3.4,7.5,7.6,7.5c2.4,0,4.6-1.2,6.1-3.2c1.7-2.3,4.1-6.1,6.9-11
				c3.6-1.4,7.6-2.6,12.2-3.6c3.1,2.2,6.5,3.9,10.3,5.2c1,0.3,2.1,0.5,3.3,0.5c4.6,0,8.2-3.7,8.2-8.3c0-4.6-3.7-8.3-8.3-8.3
				L83.7,71.3L83.7,71.3z M44.8,91.2c2-2.1,4.5-3.8,7.2-5.4c-2.1,3.7-3.9,6.3-4.9,7.6c-0.7,1.1-2.7,0.6-2.7-1.2
				C44.4,91.8,44.6,91.4,44.8,91.2z M63.3,69.3c1.4,2.5,3.3,4.9,5.6,7.2c-3.2,0.7-6.6,1.6-10,2.9C60.4,76.3,61.9,72.9,63.3,69.3z
				 M62.8,61.2c-1.7-5.1-1.7-9.1-1.7-9.5c0-0.8,0.7-1.5,1.5-1.5s1.5,0.7,1.5,1.5C64.1,55.1,63.2,59.5,62.8,61.2z M83.4,81.7
				c-2.8-0.9-5.2-2.1-7.3-3.4c4.6-0.7,7.7-0.9,7.7-0.9h0.8c1.2,0,2.3,1,2.3,2.4c0,1.2-0.9,2.1-2.1,2.1
				C84.2,81.9,83.8,81.8,83.4,81.7z"/>
		</g>
		<g>
			<g>
				<path class="st3" d="M79.4,12.3v24.2h24.2L79.4,12.3z"/>
				<g class="st7">
					<path class="st2" d="M91.2,115.7H36.7c-6.8,0-12.3-5.5-12.3-12.3V24.7c0-6.8,5.5-12.3,12.3-12.3h42.6v24.2h24.2v66.8
						C103.5,110.2,98,115.7,91.2,115.7z M36.7,18.9c-3.2,0-5.8,2.6-5.8,5.8v78.7c0,3.2,2.6,5.8,5.8,5.8h54.5c3.2,0,5.8-2.6,5.8-5.8
						V43.1H72.8V18.9H36.7z"/>
				</g>
			</g>
		</g>
	</g>
</g>
<g id="checkbox" class="st0">
	<g class="st1">
		<path class="st2" d="M94.3,109.6H33.7c-8.5,0-15.3-6.9-15.3-15.3V33.7c0-8.5,6.9-15.3,15.3-15.3h60.5c8.5,0,15.3,6.9,15.3,15.3
			v60.5C109.6,102.7,102.7,109.6,94.3,109.6z M33.7,24.9c-4.9,0-8.9,4-8.9,8.9v60.5c0,4.9,4,8.9,8.9,8.9h60.5c4.9,0,8.9-4,8.9-8.9
			V33.7c0-4.9-4-8.9-8.9-8.9L33.7,24.9L33.7,24.9z"/>
		<path class="st4" d="M85.9,55.6L61.7,79.8c-1,1-2.4,1.6-3.7,1.6s-2.7-0.5-3.7-1.5L42.1,67.7c-2.1-2.1-2.1-5.4,0-7.5s5.4-2.1,7.5,0
			l8.4,8.4l20.5-20.5c2.1-2.1,5.4-2.1,7.5,0C88,50.2,88,53.6,85.9,55.6z"/>
	</g>
</g>
<g id="Text_Input" class="st0">
	<g class="st1">
		<g>
			<g>
				<polygon class="st8" points="28.1,70 38.6,70 33.4,56.9 				"/>
				<path class="st2" d="M115.8,27.6H80.2v6.1h35.6c3.3,0,6.1,2.7,6.1,6.1v48.4c0,3.3-2.7,6.1-6.1,6.1H80.2v6.1h35.6
					c6.7,0,12.1-5.4,12.1-12.1V39.7C127.9,33,122.5,27.6,115.8,27.6z"/>
				<path class="st2" d="M12.2,94.2c-3.3,0-6.1-2.7-6.1-6.1V39.7c0-3.3,2.7-6.1,6.1-6.1H55v-6.1H12.2c-6.7,0-12.1,5.4-12.1,12.1V88
					c0,6.7,5.4,12.1,12.1,12.1H55V94H12.2V94.2z"/>
				<path class="st4" d="M48.3,77.9L36.2,47.7c-0.5-1.3-1.6-1.9-2.8-1.9s-2.3,0.6-2.8,1.9L18.5,77.9c-0.6,1.6,0.1,3.3,1.7,3.9
					s3.3-0.2,3.9-1.7l1.6-4.3l0.1,0.2h15.1l0.1-0.2l1.6,4.3c0.6,1.6,2.4,2.3,3.9,1.7C48.1,81.2,48.9,79.5,48.3,77.9z M28.1,70
					l5.2-13l5.2,13H28.1z"/>
			</g>
		</g>
		<path class="st4" d="M74.7,107.5h-4.2V20.2h4.1c1.7,0,3.1-1.4,3.1-3.1S76.3,14,74.6,14H60.2c-1.7,0-3.1,1.4-3.1,3.1
			s1.4,3.1,3.1,3.1h4.1v87.3h-4c-1.8,0-3.2,1.4-3.2,3.2s1.4,3.2,3.2,3.2h14.4c1.8,0,3.2-1.4,3.2-3.2S76.5,107.5,74.7,107.5z"/>
	</g>
</g>
<g id="Drop_Down" class="st0">
	<g class="st1">
		<path class="st2" d="M94.3,109.6H33.7c-8.5,0-15.3-6.9-15.3-15.3V33.7c0-8.5,6.9-15.3,15.3-15.3h60.5c8.5,0,15.3,6.9,15.3,15.3
			v60.5C109.6,102.7,102.7,109.6,94.3,109.6z M33.7,24.9c-4.9,0-8.9,4-8.9,8.9v60.5c0,4.9,4,8.9,8.9,8.9h60.5c4.9,0,8.9-4,8.9-8.9
			V33.7c0-4.9-4-8.9-8.9-8.9L33.7,24.9L33.7,24.9z"/>
		<path class="st4" d="M89.4,59.2L68.3,80.4c-1.2,1.2-2.7,1.8-4.3,1.8s-3.1-0.6-4.3-1.8L38.5,59.2c-2.4-2.4-2.4-6.2,0-8.6
			s6.2-2.4,8.6,0l16.9,17l16.9-16.9c2.4-2.4,6.2-2.4,8.6,0C91.8,53,91.8,56.8,89.4,59.2z"/>
	</g>
</g>
<g id="File_Upload" class="st0">
	<g class="st1">
		<g>
			<g>
				<path class="st3" d="M79.4,12.3v24.2h24.2L79.4,12.3z"/>
				<g class="st7">
					<path class="st2" d="M91.2,115.7H36.7c-6.8,0-12.3-5.5-12.3-12.3V24.7c0-6.8,5.5-12.3,12.3-12.3h42.6v24.2h24.2v66.8
						C103.5,110.2,98,115.7,91.2,115.7z M36.7,18.9c-3.2,0-5.8,2.6-5.8,5.8v78.7c0,3.2,2.6,5.8,5.8,5.8h54.5c3.2,0,5.8-2.6,5.8-5.8
						V43.1H72.8V18.9H36.7z"/>
				</g>
			</g>
		</g>
		<path class="st4" d="M67,59.3c-1.8-1.8-4.6-1.8-6.4,0L45.5,74.4c-1.8,1.8-1.8,4.6,0,6.4s4.6,1.8,6.4,0l7.5-7.4v22.3
			c0,2.5,2,4.5,4.5,4.5s4.5-2,4.5-4.5V73.5l7.4,7.4c0.9,0.9,2,1.3,3.2,1.3s2.3-0.4,3.2-1.3c1.8-1.8,1.8-4.6,0-6.4L67,59.3z"/>
	</g>
</g>
<g id="Time_Picker" class="st0">
	<g class="st1">
		<g>
			<g>
				<path class="st2" d="M64,111.6c-26.2,0-47.6-21.4-47.6-47.6S37.8,16.4,64,16.4s47.6,21.4,47.6,47.6S90.2,111.6,64,111.6z
					 M64,22.9c-22.7,0-41.1,18.5-41.1,41.1s18.5,41.1,41.1,41.1s41.1-18.5,41.1-41.1S86.7,22.9,64,22.9z"/>
			</g>
		</g>
		<path class="st4" d="M59.8,64c0,1.4,0.7,2.7,1.9,3.3l16.6,11.1c1.9,1.4,4.5,0.9,5.6-1c1.4-1.9,0.9-4.5-1-5.8l-14.8-9.8V40.4
			c0-2.3-1.9-4.2-4.3-4.2c-2.1,0-4.2,1.9-4.2,4.2L59.8,64z"/>
	</g>
</g>
<g id="Text_Box" class="st0">
	<g class="st1">
		<g>
			<path class="st2" d="M3.5,39.8c0-6.7,5.4-12.1,12.1-12.1h96.8c6.7,0,12.1,5.4,12.1,12.1v48.4c0,6.7-5.4,12.1-12.1,12.1H15.6
				c-6.7,0-12.1-5.4-12.1-12.1V39.8z M9.5,39.8v48.4c0,3.3,2.7,6.1,6.1,6.1h96.8c3.3,0,6.1-2.7,6.1-6.1V39.8c0-3.3-2.7-6.1-6.1-6.1
				H15.6C12.3,33.7,9.5,36.5,9.5,39.8z"/>
		</g>
		<path class="st4" d="M51.7,78L39.6,47.8c-0.5-1.3-1.6-1.9-2.8-1.9s-2.3,0.6-2.8,1.9L21.9,78c-0.6,1.6,0.1,3.3,1.7,3.9
			s3.3-0.2,3.9-1.7l1.6-4.3l0.1,0.2h15.1l0.1-0.2l1.6,4.3c0.6,1.6,2.4,2.3,3.9,1.7C51.5,81.3,52.3,79.6,51.7,78z M31.6,70.1l5.2-13
			l5.2,13H31.6z"/>
		<path class="st4" d="M80.2,62.6c1.2-1.7,2-3.9,2-6.1c0-5.8-4.7-10.6-10.6-10.6H61c-1.7,0-3,1.4-3,3v30.3c0,1.7,1.4,3,3,3h13.6
			c5.8,0,10.6-4.7,10.6-10.6C85.2,67.6,83.2,64.5,80.2,62.6z M64,51.9h7.6c2.5,0,4.5,2,4.5,4.5s-2,4.5-4.5,4.5H64V51.9z M74.6,76.1
			H64V67h10.6c2.5,0,4.5,2,4.5,4.5S77.1,76.1,74.6,76.1z"/>
	</g>
</g>
<g id="Image" class="st0">
	<g class="st1">
		<g>
			<g>
				<path class="st9" d="M99.6,92.5c-0.5,1-1.6,1.6-2.7,1.6H30.8c-1.1,0-2.2-0.6-2.7-1.7c-0.5-1-0.4-2.2,0.3-3.2L41.6,71
					c0.6-0.8,1.5-1.2,2.4-1.2c1,0,1.9,0.5,2.4,1.2l6.1,8.4l17.6-26.3c0.6-1,1.5-1.5,2.5-1.5s2,0.5,2.5,1.3l24.2,36.3
					C100.1,90.3,100.2,91.5,99.6,92.5z"/>
				<g class="st7">
					<path class="st2" d="M103,109.4H24.4c-6.8,0-12.3-5.5-12.3-12.3V30.5c0-6.8,5.5-12.3,12.3-12.3H103c6.8,0,12.3,5.5,12.3,12.3
						v66.6C115.3,103.9,109.8,109.4,103,109.4z M24.4,24.7c-3.2,0-5.8,2.6-5.8,5.8v66.6c0,3.2,2.6,5.8,5.8,5.8H103
						c3.2,0,5.8-2.6,5.8-5.8V30.5c0-3.2-2.6-5.8-5.8-5.8H24.4z"/>
				</g>
			</g>
		</g>
		<circle class="st3" cx="36.3" cy="42.6" r="9.1"/>
		<path class="st4" d="M99.6,92.5c-0.5,1-1.6,1.6-2.7,1.6H30.8c-1.1,0-2.2-0.6-2.7-1.7c-0.5-1-0.4-2.2,0.3-3.2L41.6,71
			c0.6-0.8,1.5-1.2,2.4-1.2c1,0,1.9,0.5,2.4,1.2l6.1,8.4l17.6-26.3c0.6-1,1.5-1.5,2.5-1.5s2,0.5,2.5,1.3l24.2,36.3
			C100.1,90.3,100.2,91.5,99.6,92.5z"/>
	</g>
</g>
<g id="Layer_16" class="st0">
	<g class="st1">
		<g>
			<path class="st9" d="M99.6,92.6c-0.5,1-1.5,1.6-2.7,1.6h-66c-1.1,0-2.2-0.6-2.7-1.7c-0.5-1-0.4-2.2,0.3-3.1l13.2-18.1
				c0.6-0.8,1.5-1.2,2.4-1.2c1,0,1.9,0.5,2.4,1.2l6.1,8.4l17.6-26.2c0.6-1,1.5-1.5,2.5-1.5s2,0.5,2.5,1.3l24.1,36.2
				C100.1,90.4,100.1,91.6,99.6,92.6z"/>
			<g class="st7">
				<path class="st2" d="M103,109.5H24.5c-6.8,0-12.3-5.5-12.3-12.3V30.8c0-6.8,5.5-12.3,12.3-12.3H103c6.8,0,12.3,5.5,12.3,12.3
					v66.4C115.2,104,109.7,109.5,103,109.5z M24.5,25c-3.2,0-5.8,2.6-5.8,5.8v66.4c0,3.2,2.6,5.8,5.8,5.8H103c3.2,0,5.8-2.6,5.8-5.8
					V30.8c0-3.2-2.6-5.8-5.8-5.8H24.5z"/>
			</g>
		</g>
	</g>
	<circle class="st10" cx="36.4" cy="42.9" r="9.1"/>
	<path class="st6" d="M99.6,92.6c-0.5,1-1.5,1.6-2.7,1.6h-66c-1.1,0-2.2-0.6-2.7-1.7c-0.5-1-0.4-2.2,0.3-3.1l13.2-18.1
		c0.6-0.8,1.5-1.2,2.4-1.2c1,0,1.9,0.5,2.4,1.2l6.1,8.4l17.6-26.2c0.6-1,1.5-1.5,2.5-1.5s2,0.5,2.5,1.3l24.1,36.2
		C100.1,90.4,100.1,91.6,99.6,92.6z"/>
	<g class="st1">
		<path class="st2" d="M128.8,28.8H119v5.9h9.9c2.2,0,4,1.8,4,4v50.8c0,2.2-1.8,4-4,4H119v5.9h9.9c5.4,0,9.9-4.4,9.9-9.9V38.6
			C138.7,33.2,134.3,28.8,128.8,28.8z"/>
		<path class="st2" d="M-1,93.4c-2.2,0-4-1.8-4-4V38.6c0-2.2,1.8-4,4-4h9.9v-5.9H-1c-5.4,0-9.9,4.4-9.9,9.9v50.8
			c0,5.4,4.4,9.9,9.9,9.9h9.9v-5.9C8.9,93.4-1,93.4-1,93.4z"/>
	</g>
</g>
<g id="Layer_17" class="st0">
	<g class="st1">
		<g>
			<path class="st8" d="M108,29.3H9.6c-3.4,0-6.2,2.7-6.2,6.2v28.8h110.7V35.4C114.1,32,111.4,29.3,108,29.3z"/>
			<path class="st2" d="M3.4,35.4c0-3.4,2.8-6.2,6.2-6.2H108c3.4,0,6.2,2.7,6.2,6.2v28.8h6.2V35.4c0-6.8-5.5-12.3-12.3-12.3H9.6
				c-6.8,0-12.3,5.5-12.3,12.3v28.8h6.2L3.4,35.4L3.4,35.4z"/>
			<path class="st2" d="M9.6,87.1H108c6.8,0,12.3-5.5,12.3-12.3V54.4h-6.2v20.4c0,3.4-2.7,6.2-6.2,6.2H9.6c-3.4,0-6.2-2.7-6.2-6.2
				V54.4h-6.2v20.4C-2.8,81.6,2.8,87.1,9.6,87.1z"/>
		</g>
		<g>
			<path class="st11" d="M14.8,51.2l2.9,9.8l2.6-9.1c0.3-0.9,0.5-1.6,0.6-1.9c0.1-0.3,0.4-0.7,0.8-1s0.9-0.5,1.5-0.5
				c0.7,0,1.2,0.2,1.5,0.5s0.6,0.7,0.8,1s0.4,1,0.6,1.9l2.6,9.1l2.9-9.8c0.2-0.7,0.3-1.2,0.5-1.5c0.1-0.3,0.3-0.6,0.6-0.8
				s0.7-0.4,1.2-0.4s1,0.2,1.4,0.5c0.4,0.4,0.6,0.8,0.6,1.3c0,0.4-0.2,1.1-0.5,2l-3.6,10.5c-0.3,0.9-0.5,1.5-0.7,1.9
				s-0.4,0.7-0.8,1.1c-0.4,0.3-0.9,0.5-1.5,0.5c-0.7,0-1.2-0.2-1.6-0.5s-0.7-0.7-0.8-1.2c-0.2-0.5-0.4-1.1-0.6-1.9l-2.5-8.5
				l-2.4,8.5c-0.3,1.2-0.7,2.1-1,2.7c-0.4,0.6-1,0.9-2,0.9c-0.5,0-0.9-0.1-1.2-0.3c-0.3-0.2-0.6-0.5-0.8-0.8s-0.4-0.8-0.6-1.2
				c-0.2-0.5-0.3-0.9-0.4-1.1l-3.5-10.5c-0.4-1-0.5-1.7-0.5-2c0-0.5,0.2-0.9,0.6-1.3s0.8-0.6,1.4-0.6c0.7,0,1.2,0.2,1.5,0.6
				S14.5,50.2,14.8,51.2z"/>
			<path class="st11" d="M41.5,51.2l2.9,9.8l2.6-9.1c0.3-0.9,0.5-1.6,0.6-1.9c0.1-0.3,0.4-0.7,0.8-1c0.4-0.3,0.9-0.5,1.5-0.5
				c0.7,0,1.2,0.2,1.5,0.5c0.4,0.3,0.6,0.7,0.8,1s0.4,1,0.6,1.9l2.6,9.1l2.9-9.8c0.2-0.7,0.3-1.2,0.5-1.5c0.1-0.3,0.3-0.6,0.6-0.8
				s0.7-0.4,1.2-0.4s1,0.2,1.4,0.5c0.4,0.4,0.6,0.8,0.6,1.3c0,0.4-0.2,1.1-0.5,2l-3.6,10.5c-0.3,0.9-0.5,1.5-0.7,1.9
				s-0.4,0.7-0.8,1.1c-0.4,0.3-0.9,0.5-1.5,0.5c-0.7,0-1.2-0.2-1.6-0.5s-0.7-0.7-0.8-1.2c-0.2-0.5-0.4-1.1-0.6-1.9L50,54.2l-2.4,8.5
				c-0.3,1.2-0.7,2.1-1,2.7c-0.4,0.6-1,0.9-2,0.9c-0.5,0-0.9-0.1-1.2-0.3c-0.3-0.2-0.6-0.5-0.8-0.8S42.2,64.4,42,64
				c-0.2-0.5-0.3-0.9-0.4-1.1l-3.5-10.5c-0.4-1-0.5-1.7-0.5-2c0-0.5,0.2-0.9,0.6-1.3s0.8-0.6,1.4-0.6c0.7,0,1.2,0.2,1.5,0.6
				S41.2,50.2,41.5,51.2z"/>
			<path class="st11" d="M68.2,51.2L71,61l2.6-9.1c0.3-0.9,0.5-1.6,0.6-1.9c0.1-0.3,0.4-0.7,0.8-1s0.9-0.5,1.5-0.5
				c0.7,0,1.2,0.2,1.5,0.5c0.4,0.3,0.6,0.7,0.8,1s0.4,1,0.6,1.9L82,61l2.9-9.8c0.2-0.7,0.3-1.2,0.5-1.5c0.1-0.3,0.3-0.6,0.6-0.8
				c0.3-0.2,0.7-0.4,1.2-0.4s1,0.2,1.4,0.5c0.4,0.4,0.6,0.8,0.6,1.3c0,0.4-0.2,1.1-0.5,2L85,62.8c-0.3,0.9-0.5,1.5-0.7,1.9
				s-0.4,0.7-0.8,1.1c-0.4,0.3-0.9,0.5-1.5,0.5c-0.7,0-1.2-0.2-1.6-0.5s-0.7-0.7-0.8-1.2c-0.2-0.5-0.4-1.1-0.6-1.9l-2.5-8.5
				l-2.4,8.5c-0.3,1.2-0.7,2.1-1,2.7c-0.4,0.6-1,0.9-2,0.9c-0.5,0-0.9-0.1-1.2-0.3c-0.3-0.2-0.6-0.5-0.8-0.8
				c-0.2-0.3-0.4-0.8-0.6-1.2c-0.2-0.5-0.3-0.9-0.4-1.1l-3.5-10.5c-0.4-1-0.5-1.7-0.5-2c0-0.5,0.2-0.9,0.6-1.3s0.8-0.6,1.4-0.6
				c0.7,0,1.2,0.2,1.5,0.6S67.9,50.2,68.2,51.2z"/>
			<path class="st11" d="M92.1,66.2c-0.7,0-1.2-0.2-1.7-0.6s-0.7-1-0.7-1.8c0-0.7,0.2-1.2,0.7-1.7s1-0.7,1.7-0.7s1.2,0.2,1.7,0.7
				s0.7,1,0.7,1.7c0,0.8-0.2,1.4-0.7,1.8C93.3,66,92.8,66.2,92.1,66.2z"/>
		</g>
		<text transform="matrix(1 0 0 1 98.9083 105.2402)" class="st4 st12 st13">arrow-pointer</text>
	</g>
</g>
<g id="Layer_18" class="st0">
	<path class="st5" d="M65.4,16.1c-12.2-0.4-23.9,4.1-32.7,12.7S19,48.9,19,61.3c0,20.6,14,38.5,33.4,43.7c14.2,4,30.1,1.1,41.8-9
		c0.2-0.1,0.3-0.3,0.5-0.5c1.4-1.7,1.5-4.2,0-5.9c-1.6-1.9-4.5-2.1-6.3-0.5c-8.3,7.1-19.2,9.6-29.5,8h-0.1c-0.8-0.1-1.5-0.3-2.3-0.4
		c-1.7-0.4-3.4-0.9-5.1-1.5C37.6,89.9,28,76.5,28,61.3c0-9.9,3.9-19.2,11-26.1c7-6.8,16.2-10.5,26.1-10.1C84.4,25.7,100,42.7,100,63
		v3.6c0,4.6-3.7,8.3-8.3,8.3c-4.6,0-8.3-3.7-8.3-8.3V44.7c0-2.5-2-4.3-4.5-4.3c-2.2,0-4,1.7-4.4,3.8c-3.4-2.6-7.6-4.1-12.1-4.1
		c-11.6,0-21,9.4-21,20.8s9.4,20.8,21,20.8c5.8,0,11-2.3,14.8-6.1c3.1,4.8,8.4,7.9,14.5,7.9c9.5,0,17.3-7.8,17.3-17.3V63
		C109,37.9,89.4,16.7,65.4,16.1z M62.5,73.1c-6.6,0-12-5.4-12-11.8c0-6.6,5.4-11.8,12-11.8s12,5.4,12,11.8S69.1,73.1,62.5,73.1z"/>
</g>
<g id="Layer_19" class="st0">
	<g class="st1">
		<path class="st4" d="M76.6-1.5H51.4c-3.6,0-6.5,2.9-6.5,6.5v25.1c0,3.6,2.9,6.5,6.5,6.5h25.1c3.6,0,6.6-2.9,6.6-6.5V5
			C83.1,1.4,80.2-1.5,76.6-1.5z M79.8,30.2c0,1.8-1.5,3.3-3.3,3.3H51.4c-1.8,0-3.3-1.5-3.3-3.3V5c0-1.8,1.5-3.3,3.3-3.3h25.1
			c1.8,0,3.3,1.5,3.3,3.3V30.2z"/>
		<path class="st2" d="M76.6,44.9H51.4c-3.6,0-6.5,2.9-6.5,6.5v25.1c0,3.6,2.9,6.5,6.5,6.5h25.1c3.6,0,6.6-2.9,6.6-6.5V51.4
			C83.1,47.8,80.2,44.9,76.6,44.9z M79.8,76.6c0,1.8-1.5,3.3-3.3,3.3H51.4c-1.8,0-3.3-1.5-3.3-3.3V51.4c0-1.8,1.5-3.3,3.3-3.3h25.1
			c1.8,0,3.3,1.5,3.3,3.3V76.6z"/>
		<path class="st4" d="M71.6,103.4L61,113.9l-4.6-4.5c-0.6-0.6-1.7-0.6-2.3,0s-0.6,1.7,0,2.3l5.7,5.6c0.3,0.3,0.7,0.5,1.1,0.5
			s0.8-0.2,1.2-0.5l11.7-11.6c0.6-0.6,0.7-1.7,0-2.3C73.3,102.8,72.2,102.8,71.6,103.4z"/>
		<path class="st2" d="M71.6,57L61,67.5L56.4,63c-0.6-0.6-1.7-0.6-2.3,0s-0.6,1.7,0,2.3l5.7,5.6c0.3,0.3,0.7,0.5,1.1,0.5
			s0.8-0.2,1.2-0.5l11.7-11.6c0.6-0.6,0.7-1.7,0-2.3C73.3,56.4,72.2,56.4,71.6,57z"/>
		<path class="st4" d="M76.6,91.3H51.4c-3.6,0-6.5,2.9-6.5,6.6V123c0,3.6,2.9,6.6,6.5,6.6h25.1c3.6,0,6.6-2.9,6.6-6.6V97.9
			C83.1,94.2,80.2,91.3,76.6,91.3z M79.8,123c0,1.8-1.5,3.3-3.3,3.3H51.4c-1.8,0-3.3-1.5-3.3-3.3V97.9c0-1.8,1.5-3.3,3.3-3.3h25.1
			c1.8,0,3.3,1.5,3.3,3.3V123z"/>
	</g>
</g>
<g id="Layer_20" class="st0">
	<g class="st1">
		<path class="st2" d="M92.8,4.4H35c-5.5,0-9.9,4.5-9.9,9.9v99.4c0,5.5,4.5,9.9,9.9,9.9h57.8c5.5,0,9.9-4.5,9.9-9.9V14.3
			C102.7,8.8,98.3,4.4,92.8,4.4z M97.8,113.7c0,2.8-2.2,5-5,5H35c-2.8,0-5-2.2-5-5V14.3c0-2.8,2.2-5,5-5h57.8c2.8,0,5,2.2,5,5V113.7
			z"/>
		<circle class="st2" cx="63.9" cy="19.1" r="4.1"/>
		<path class="st4" d="M85.1,76.4l-9.1-4c-1.1-0.5-2.3-0.2-3.1,0.8l-3.7,4.5c-5.8-2.9-10.5-7.6-13.4-13.4l4.5-3.6
			c0.9-0.7,1.2-2,0.8-3.1l-3.9-9.1c-0.5-1.2-1.8-1.8-3-1.5l-8.5,2c-1.2,0.3-2,1.3-2,2.6C43.7,72.8,60.9,90,82.1,90
			c1.2,0,2.3-0.8,2.6-2l2-8.5C86.9,78.2,86.2,76.9,85.1,76.4z"/>
	</g>
</g>
<g id="Layer_21" class="st0">
	<g class="st1">
		<path class="st2" d="M113.1,27.1H14.7c-6.8,0-12.3,5.5-12.3,12.3v49.2c0,6.8,5.5,12.3,12.3,12.3h98.4c6.8,0,12.3-5.5,12.3-12.3
			V39.4C125.4,32.6,119.9,27.1,113.1,27.1z M119.3,88.6c0,3.4-2.7,6.2-6.2,6.2H14.7c-3.4,0-6.2-2.7-6.2-6.2V39.4
			c0-3.4,2.8-6.2,6.2-6.2h98.4c3.4,0,6.2,2.7,6.2,6.2C119.3,39.4,119.3,88.6,119.3,88.6z"/>
		<path class="st4" d="M34.5,81.3h-3.9V61.5V60V47.5h3.8c1.6,0,2.8-1.4,2.8-3c0-1.7-1.3-3-2.8-3H21.1c-1.6,0-2.8,1.4-2.8,3
			c0,1.7,1.3,3,2.8,3h3.8V60v1.5v19.8h-3.7c-1.6,0-3,1.4-3,3.2c0,1.8,1.3,3.2,3,3.2h13.3c1.6,0,3-1.4,3-3.2
			C37.5,82.8,36.2,81.3,34.5,81.3z"/>
	</g>
</g>
<g id="Layer_22">
	<g>
		<path class="st4" d="M42.3,57.4h-2.9V44v-1v-8.6h2.8c1.2,0,2.1-0.9,2.1-2.1s-0.9-2.1-2.1-2.1h-9.8c-1.2,0-2.1,0.9-2.1,2.1
			s0.9,2.1,2.1,2.1h2.8v8.6v1v13.4h-2.7c-1.2,0-2.2,1-2.2,2.2s1,2.2,2.2,2.2h9.7c1.2,0,2.2-1,2.2-2.2C44.4,58.3,43.4,57.4,42.3,57.4
			z"/>
		<path class="st2" d="M101.9,19.9H26c-5.4,0-9.9,4.5-9.9,9.9v68.3c0,5.4,4.5,10,10,10h76c5.4,0,10-4.5,10-10V29.8
			C112,24.4,107.5,19.9,101.9,19.9z M106.8,98.2c0,2.7-2.2,4.9-4.9,4.9H26c-2.7,0-4.9-2.2-4.9-4.9V29.8c0-2.7,2.2-4.9,4.9-4.9h76
			c2.7,0,4.9,2.2,4.9,4.9L106.8,98.2L106.8,98.2L106.8,98.2z"/>
	</g>
</g>
</svg>
