<?xml version="1.0" encoding="UTF-8"?>
<svg id="Layer_1" data-name="Layer 1" xmlns="http://www.w3.org/2000/svg" viewBox="0 0 40 40">
  <g>
    <path d="M20.39,27.75c-.09,0-.73,0-.9-.01-.35-.02-.61-.32-.6-.67,.02-.35,.32-.61,.67-.6,.11,0,.65,.01,.83,.01,3.8,0,6.89-3.09,6.89-6.89s-3.09-6.89-6.89-6.89-6.89,3.09-6.89,6.89c0,.19,.03,.39,.06,.61,0,.07,.02,.14,.03,.21,.04,.35-.2,.66-.55,.71-.35,.04-.66-.2-.71-.55,0-.07-.02-.13-.03-.19-.03-.24-.07-.5-.07-.78,0-4.49,3.66-8.15,8.15-8.15s8.15,3.66,8.15,8.15-3.66,8.15-8.15,8.15Z"/>
    <path d="M20.39,33.22c-.13,0-.73,0-.89-.01-.35-.01-.62-.31-.61-.66,.01-.35,.31-.63,.66-.61,.12,0,.69,0,.84,0,6.82,0,12.36-5.55,12.36-12.36s-5.54-12.36-12.36-12.36-12.36,5.54-12.36,12.36c0,.29,.03,.58,.05,.83,.03,.35-.22,.66-.57,.69-.35,.03-.66-.22-.69-.57-.03-.28-.05-.61-.05-.95,0-7.51,6.11-13.62,13.62-13.62s13.62,6.11,13.62,13.62-6.11,13.63-13.62,13.63Z"/>
    <path d="M20.39,38.7c-.14,0-.74,0-.88,0-.35,0-.62-.3-.61-.65,0-.35,.3-.63,.65-.61,.13,0,.71,0,.85,0,9.83,0,17.84-8,17.84-17.84S30.22,1.76,20.39,1.76,2.55,9.76,2.55,19.6c0,.26,0,.53,.03,.86,.02,.35-.25,.65-.59,.67-.35,.02-.65-.25-.67-.59-.02-.35-.03-.65-.03-.93C1.29,9.07,9.85,.5,20.39,.5s19.1,8.57,19.1,19.1-8.57,19.1-19.1,19.1Z"/>
  </g>
  <path d="M4.93,39.5c-.16,0-.32-.06-.45-.18l-3.78-3.78c-.12-.12-.19-.28-.19-.45s.07-.33,.19-.45l5.6-5.6L1.98,24.71c-.18-.18-.23-.45-.14-.69,.1-.24,.33-.39,.58-.39H15.75c.35,0,.63,.28,.63,.63v13.33c0,.26-.15,.49-.39,.58-.24,.1-.51,.04-.69-.14l-4.33-4.33-1.16,1.16c-.25,.25-.65,.25-.89,0s-.25-.65,0-.89l1.61-1.61c.24-.24,.66-.24,.89,0l3.69,3.69v-11.17H3.95l3.69,3.69c.12,.12,.19,.28,.19,.45s-.07,.33-.19,.45l-5.6,5.6,2.89,2.89,1.54-1.54c.25-.25,.65-.25,.89,0,.25,.25,.25,.65,0,.89l-1.98,1.98c-.12,.12-.29,.18-.45,.18Z"/>
</svg>