<?xml version="1.0" encoding="UTF-8"?><svg id="Layer_1" xmlns="http://www.w3.org/2000/svg" viewBox="0 0 500 500"><defs><style>.cls-1{fill:#0e86c8;}.cls-2{fill:#9dce6d;}.cls-3{fill:#a7def8;}</style></defs><path class="cls-1" d="M148.28,40.23C78.95,78.74,32.02,152.69,32.02,237.62c0,116.92,88.92,213.06,202.82,224.51l22.84-224.51L148.28,40.23Z"/><path class="cls-2" d="M467.57,215.68c-6.77-99.33-89.48-177.81-190.52-177.81-33.6,0-65.16,8.69-92.59,23.92l92.59,167.06,190.52-13.17Z"/><path class="cls-3" d="M467.98,251.18c0-4.43-.16-8.82-.46-13.17l-190.52,13.17-19.33,190.01c6.36,.64,12.8,.97,19.33,.97,105.47,0,190.98-85.5,190.98-190.98h0Z"/><g><g><path class="cls-3" d="M239.52,294.11v-23.1c0-13.17-10.68-23.84-23.84-23.84h-5.47c-13.17,0-23.84,10.68-23.84,23.84v23.1h53.15Z"/><circle class="cls-3" cx="212.94" cy="225.47" r="16.78"/></g><g><path class="cls-3" d="M173.55,317.16v-22.68c0-12.93-10.48-23.41-23.41-23.41h-5.37c-12.93,0-23.41,10.48-23.41,23.41v22.68h52.19Z"/><circle class="cls-3" cx="147.46" cy="249.71" r="16.47"/></g><g><path class="cls-3" d="M108.55,294.11v-23.1c0-13.17-10.68-23.84-23.84-23.84h-5.47c-13.17,0-23.84,10.68-23.84,23.84v23.1h53.15Z"/><circle class="cls-3" cx="81.97" cy="225.47" r="16.78"/></g></g></svg>