<?xml version="1.0" encoding="utf-8"?>
<!-- Generator: Adobe Illustrator 26.1.0, SVG Export Plug-In . SVG Version: 6.00 Build 0)  -->
<svg version="1.1" xmlns="http://www.w3.org/2000/svg" xmlns:xlink="http://www.w3.org/1999/xlink" x="0px" y="0px"
	 viewBox="0 0 150 150" style="enable-background:new 0 0 150 150;" xml:space="preserve">
<style type="text/css">
	.st0{display:none;}
	.st1{display:inline;}
	.st2{fill:#0F88C9;}
	.st3{fill:#343B43;}
	.st4{fill:#353B41;}
	.st5{display:inline;fill:#0F88C9;}
	.st6{display:inline;fill:#353B41;}
	.st7{enable-background:new    ;}
	.st8{fill:none;}
	.st9{fill:#EEEEEF;}
	.st10{display:inline;fill:#343B43;}
</style>
<g id="calendar" class="st0">
	<g class="st1">
		<g>
			<path class="st2" d="M107.34,122.27H42.66c-6.31,0-11.44-5.13-11.44-11.44V46.15c0-6.31,5.13-11.44,11.44-11.44h64.68
				c6.31,0,11.44,5.13,11.44,11.44v64.68C118.78,117.13,113.64,122.27,107.34,122.27z M42.66,41.17c-2.75,0-4.99,2.24-4.99,4.99
				v64.68c0,2.75,2.24,4.99,4.99,4.99h64.68c2.75,0,4.99-2.24,4.99-4.99V46.15c0-2.75-2.24-4.99-4.99-4.99H42.66z"/>
			<path class="st3" d="M55.17,48.63c-1.78,0-3.23-1.44-3.23-3.23V30.96c0-1.78,1.44-3.23,3.23-3.23c1.78,0,3.23,1.44,3.23,3.23
				V45.4C58.39,47.18,56.95,48.63,55.17,48.63z"/>
			<path class="st3" d="M74.81,48.63c-1.78,0-3.23-1.44-3.23-3.23V30.96c0-1.78,1.44-3.23,3.23-3.23s3.23,1.44,3.23,3.23V45.4
				C78.04,47.18,76.59,48.63,74.81,48.63z"/>
			<path class="st3" d="M94.46,48.63c-1.78,0-3.23-1.44-3.23-3.23V30.96c0-1.78,1.44-3.23,3.23-3.23c1.78,0,3.23,1.44,3.23,3.23
				V45.4C97.68,47.18,96.24,48.63,94.46,48.63z"/>
		</g>
		<g>
			<path class="st4" d="M58.24,70.47h-8.99c-0.9,0-1.62-0.73-1.62-1.62v-8.99c0-0.9,0.73-1.62,1.62-1.62h8.99
				c0.9,0,1.62,0.73,1.62,1.62v8.99C59.86,69.75,59.13,70.47,58.24,70.47z"/>
			<path class="st4" d="M79.5,70.47H70.5c-0.9,0-1.62-0.73-1.62-1.62v-8.99c0-0.9,0.73-1.62,1.62-1.62h8.99
				c0.9,0,1.62,0.73,1.62,1.62v8.99C81.12,69.75,80.39,70.47,79.5,70.47z"/>
			<path class="st4" d="M100.78,70.47h-8.99c-0.9,0-1.62-0.73-1.62-1.62v-8.99c0-0.9,0.73-1.62,1.62-1.62h8.99
				c0.9,0,1.62,0.73,1.62,1.62v8.99C102.4,69.75,101.68,70.47,100.78,70.47z"/>
			<path class="st4" d="M58.23,88.49h-8.99c-0.9,0-1.62-0.73-1.62-1.62v-8.99c0-0.9,0.73-1.62,1.62-1.62h8.99
				c0.9,0,1.62,0.73,1.62,1.62v8.99C59.85,87.76,59.12,88.49,58.23,88.49z"/>
			<path class="st4" d="M79.49,88.49h-8.99c-0.9,0-1.62-0.73-1.62-1.62v-8.99c0-0.9,0.73-1.62,1.62-1.62h8.99
				c0.9,0,1.62,0.73,1.62,1.62v8.99C81.11,87.76,80.38,88.49,79.49,88.49z"/>
			<path class="st4" d="M100.77,88.49h-8.99c-0.9,0-1.62-0.73-1.62-1.62v-8.99c0-0.9,0.73-1.62,1.62-1.62h8.99
				c0.9,0,1.62,0.73,1.62,1.62v8.99C102.39,87.76,101.67,88.49,100.77,88.49z"/>
			<path class="st4" d="M58.21,106.51h-8.99c-0.9,0-1.62-0.73-1.62-1.62v-8.99c0-0.9,0.73-1.62,1.62-1.62h8.99
				c0.9,0,1.62,0.73,1.62,1.62v8.99C59.84,105.78,59.11,106.51,58.21,106.51z"/>
			<path class="st4" d="M79.47,106.51h-8.99c-0.9,0-1.62-0.73-1.62-1.62v-8.99c0-0.9,0.73-1.62,1.62-1.62h8.99
				c0.9,0,1.62,0.73,1.62,1.62v8.99C81.1,105.78,80.37,106.51,79.47,106.51z"/>
			<path class="st4" d="M100.76,106.51h-8.99c-0.9,0-1.62-0.73-1.62-1.62v-8.99c0-0.9,0.73-1.62,1.62-1.62h8.99
				c0.9,0,1.62,0.73,1.62,1.62v8.99C102.38,105.78,101.65,106.51,100.76,106.51z"/>
		</g>
	</g>
</g>
<g id="Text" class="st0">
	<g class="st1">
		<path class="st2" d="M50.8,88.62V55.98h0V38.7c0-3.34-2.71-6.05-6.05-6.05c-3.34,0-6.05,2.71-6.05,6.05v72.61
			c0,3.34,2.71,6.05,6.05,6.05c3.34,0,6.05-2.71,6.05-6.05L50.8,88.62L50.8,88.62z"/>
		<path class="st2" d="M105.25,32.65c-3.34,0-6.05,2.71-6.05,6.05v24.2h0V75h0v36.3c0,3.34,2.71,6.05,6.05,6.05
			c3.34,0,6.05-2.71,6.05-6.05V38.7C111.3,35.36,108.59,32.65,105.25,32.65z"/>
		<path class="st2" d="M63.35,81.05h26.45v0h14c2.71,0,4.9-2.71,4.9-6.05s-2.2-6.05-4.9-6.05H44.97c-2.71,0-4.9,2.71-4.9,6.05
			s2.19,6.05,4.9,6.05L63.35,81.05L63.35,81.05z"/>
	</g>
</g>
<g id="devider" class="st0">
	<g class="st1">
		<path class="st2" d="M131.3,69.55H18.7c-1.78,0-3.23-1.44-3.23-3.23s1.44-3.23,3.23-3.23H131.3c1.78,0,3.23,1.44,3.23,3.23
			S133.09,69.55,131.3,69.55z"/>
		<path class="st2" d="M131.3,119.55H18.7c-1.78,0-3.23-1.44-3.23-3.23c0-1.78,1.44-3.23,3.23-3.23H131.3
			c1.78,0,3.23,1.44,3.23,3.23C134.53,118.11,133.09,119.55,131.3,119.55z"/>
		<path class="st4" d="M50,51.92H34.53c-1.66,0-3-1.34-3-3V33.45c0-1.66,1.34-3,3-3H50c1.66,0,3,1.34,3,3v15.47
			C53,50.57,51.65,51.92,50,51.92z"/>
		<path class="st4" d="M82.69,51.92H67.22c-1.66,0-3-1.34-3-3V33.45c0-1.66,1.34-3,3-3h15.47c1.66,0,3,1.34,3,3v15.47
			C85.69,50.57,84.35,51.92,82.69,51.92z"/>
		<path class="st4" d="M115.43,51.92H99.96c-1.66,0-3-1.34-3-3V33.45c0-1.66,1.34-3,3-3h15.47c1.66,0,3,1.34,3,3v15.47
			C118.43,50.57,117.09,51.92,115.43,51.92z"/>
		<path class="st4" d="M49.98,102.2H34.51c-1.66,0-3-1.34-3-3V83.73c0-1.66,1.34-3,3-3h15.47c1.66,0,3,1.34,3,3V99.2
			C52.98,100.86,51.63,102.2,49.98,102.2z"/>
		<path class="st4" d="M82.67,102.2H67.2c-1.66,0-3-1.34-3-3V83.73c0-1.66,1.34-3,3-3h15.47c1.66,0,3,1.34,3,3V99.2
			C85.67,100.86,84.33,102.2,82.67,102.2z"/>
		<path class="st4" d="M115.41,102.2H99.94c-1.66,0-3-1.34-3-3V83.73c0-1.66,1.34-3,3-3h15.47c1.66,0,3,1.34,3,3V99.2
			C118.41,100.86,117.07,102.2,115.41,102.2z"/>
	</g>
</g>
<g id="button" class="st0">
	<g class="st1">
		<path class="st2" d="M90,138.62H73.11c-8.43,0-16.48-4.03-21.54-10.77l-16.05-21.4c-1.31-1.75-2.01-3.83-2.01-6.02
			c0-5.54,4.5-10.05,10.04-10.05c3.15,0,6.16,1.5,8.04,4.02l4.45,5.93V52.56c0-5.54,4.58-10.04,10.2-10.04
			c5.45,0,9.88,4.5,9.88,10.04V73.8c0.86-0.21,1.74-0.31,2.63-0.31c3.71,0,7.06,1.81,9.18,4.71c1.84-1.22,4.01-1.9,6.3-1.9
			c4.26,0,8.06,2.36,10.03,5.95c0.87-0.21,1.75-0.32,2.64-0.32c6.31,0,11.45,5.14,11.45,11.45v16.89
			C118.34,125.9,105.63,138.62,90,138.62z M43.54,96.39c-1.94,0-4.03,1.54-4.03,4.04c0,0.88,0.28,1.71,0.81,2.42l16.05,21.4
			c3.93,5.24,10.19,8.37,16.74,8.37H90c12.32,0,22.34-10.02,22.34-22.34V93.38c0-3-2.44-5.44-5.44-5.44c-0.98,0-1.93,0.27-2.81,0.82
			l-3.71,2.27l-0.81-4.27c-0.49-2.57-2.73-4.44-5.34-4.44c-1.89,0-3.62,0.99-4.63,2.64l-3.87,6.34l-1.63-7.25
			c-0.61-2.72-2.77-4.55-5.36-4.55c-1.69,0-2.9,0.77-3.62,1.42l-5.01,4.52V52.56c0-2.19-1.78-4.04-3.88-4.04
			c-2.35,0-4.19,1.77-4.19,4.04v65.8L46.77,98C46.01,96.97,44.83,96.39,43.54,96.39z"/>
		<g>
			<path class="st4" d="M65.03,28.3l1.64-0.01c0.9,0,1.63-0.74,1.63-1.64l-0.06-13.64c0-0.9-0.74-1.63-1.64-1.63l-1.64,0.01
				c-0.9,0-1.63,0.74-1.63,1.64l0.06,13.64C63.39,27.57,64.13,28.3,65.03,28.3z"/>
			<path class="st4" d="M31.66,44.76l0.01,1.64c0,0.9,0.74,1.63,1.64,1.63l13.64-0.06c0.9,0,1.63-0.74,1.63-1.64l-0.01-1.64
				c0-0.9-0.74-1.63-1.64-1.63l-13.64,0.06C32.38,43.12,31.65,43.85,31.66,44.76z"/>
			<path class="st4" d="M83.06,44.76l0.01,1.64c0,0.9,0.74,1.63,1.64,1.63l13.64-0.06c0.9,0,1.63-0.74,1.63-1.64l-0.01-1.64
				c0-0.9-0.74-1.63-1.64-1.63l-13.64,0.06C83.79,43.12,83.06,43.85,83.06,44.76z"/>
			<path class="st4" d="M77.43,32.73l1.17,1.16c0.64,0.64,1.68,0.63,2.31-0.01l9.6-9.68c0.64-0.64,0.63-1.68-0.01-2.31l-1.17-1.16
				c-0.64-0.64-1.68-0.63-2.31,0.01l-9.6,9.68C76.78,31.06,76.79,32.09,77.43,32.73z"/>
			<path class="st4" d="M53,33.84l1.16-1.17c0.64-0.64,0.63-1.68-0.01-2.31l-9.68-9.6c-0.64-0.64-1.68-0.63-2.31,0.01l-1.16,1.17
				c-0.64,0.64-0.63,1.68,0.01,2.31l9.68,9.6C51.33,34.48,52.36,34.48,53,33.84z"/>
			<path class="st4" d="M54.29,58.46l-1.17-1.15c-0.64-0.63-1.68-0.62-2.31,0.02l-9.56,9.72c-0.63,0.64-0.62,1.68,0.02,2.31
				l1.17,1.15c0.64,0.63,1.68,0.62,2.31-0.02l9.56-9.72C54.94,60.13,54.93,59.1,54.29,58.46z"/>
			<path class="st4" d="M78.71,57.25l-1.15,1.17c-0.63,0.64-0.62,1.68,0.02,2.31l9.72,9.56c0.64,0.63,1.68,0.62,2.31-0.02l1.15-1.17
				c0.63-0.64,0.62-1.68-0.02-2.31l-9.72-9.56C80.38,56.6,79.34,56.61,78.71,57.25z"/>
		</g>
	</g>
</g>
<g id="paragraph" class="st0">
	<g class="st1">
		<g>
			<path class="st2" d="M94.64,126.86h-57.7c-1.68,0-3.04-1.36-3.04-3.04v0c0-1.68,1.36-3.04,3.04-3.04h57.7
				c1.68,0,3.04,1.36,3.04,3.04v0C97.67,125.5,96.32,126.86,94.64,126.86z"/>
			<path class="st2" d="M94.64,110.92h-57.7c-1.68,0-3.04-1.36-3.04-3.04v0c0-1.68,1.36-3.04,3.04-3.04h57.7
				c1.68,0,3.04,1.36,3.04,3.04v0C97.67,109.56,96.32,110.92,94.64,110.92z"/>
			<path class="st2" d="M94.64,79.04h-57.7c-1.68,0-3.04-1.36-3.04-3.04v0c0-1.68,1.36-3.04,3.04-3.04h57.7
				c1.68,0,3.04,1.36,3.04,3.04v0C97.67,77.68,96.32,79.04,94.64,79.04z"/>
			<path class="st2" d="M68.73,63.1H36.93c-1.68,0-3.04-1.36-3.04-3.04v0c0-1.68,1.36-3.04,3.04-3.04h31.79
				c1.68,0,3.04,1.36,3.04,3.04v0C71.76,61.74,70.4,63.1,68.73,63.1z"/>
			<path class="st2" d="M68.73,94.97H36.93c-1.68,0-3.04-1.36-3.04-3.04v0c0-1.68,1.36-3.04,3.04-3.04h31.79
				c1.68,0,3.04,1.36,3.04,3.04v0C71.76,93.61,70.4,94.97,68.73,94.97z"/>
		</g>
		<g>
			<path class="st4" d="M109.06,39.88L89.41,59.52c-0.17,0.17-0.38,0.28-0.62,0.33l-9.96,1.99c-0.85,0.17-1.59-0.58-1.42-1.43
				l1.99-9.96c0.05-0.23,0.16-0.45,0.33-0.62l19.64-19.64L109.06,39.88z M114.98,33.88l-4.28,4.28l-9.61-9.68l4.28-4.28
				c1.42-1.42,3.72-1.42,5.14,0l4.55,4.55C116.47,30.17,116.47,32.47,114.98,33.88z"/>
		</g>
	</g>
</g>
<g id="radio" class="st0">
	<g class="st1">
		<g>
			<circle class="st4" cx="75" cy="75" r="10.89"/>
		</g>
	</g>
	<path class="st5" d="M75,120.16c-24.9,0-45.16-20.26-45.16-45.16S50.1,29.84,75,29.84S120.16,50.1,120.16,75S99.9,120.16,75,120.16
		z M75,36.67c-21.13,0-38.33,17.2-38.33,38.33s17.2,38.33,38.33,38.33s38.33-17.2,38.33-38.33S96.13,36.67,75,36.67z"/>
	<circle class="st6" cx="75" cy="75" r="18.87"/>
</g>
<g id="Spacing" class="st0">
	<g class="st1">
		<g>
			<path class="st2" d="M123.57,49.83H73.64c-2.81,0-5.08-2.28-5.08-5.08c0-2.81,2.28-5.08,5.08-5.08h49.92
				c2.81,0,5.08,2.28,5.08,5.08C128.65,47.55,126.37,49.83,123.57,49.83z"/>
			<path class="st2" d="M123.57,80.08H73.64c-2.81,0-5.08-2.28-5.08-5.08s2.28-5.08,5.08-5.08h49.92c2.81,0,5.08,2.28,5.08,5.08
				S126.37,80.08,123.57,80.08z"/>
			<path class="st2" d="M123.57,110.34H73.64c-2.81,0-5.08-2.28-5.08-5.08c0-2.81,2.28-5.08,5.08-5.08h49.92
				c2.81,0,5.08,2.28,5.08,5.08C128.65,108.06,126.37,110.34,123.57,110.34z"/>
		</g>
		<path class="st4" d="M55.4,100.4c0-2.5-2.03-4.53-4.53-4.53c-0.01,0-0.01,0-0.02,0s-0.01,0-0.02,0c-1.21,0-2.31,0.48-3.12,1.25
			c-0.06,0.06-0.12,0.11-0.17,0.17l-4.57,4.47v-31.3V48.14l4.39,4.39c0.17,0.2,0.35,0.38,0.55,0.55c0.79,0.67,1.8,1.08,2.91,1.09
			c0.01,0,0.01,0,0.02,0c1.21,0,2.31-0.48,3.12-1.25c0.06-0.06,0.12-0.11,0.17-0.17c0.78-0.82,1.27-1.92,1.27-3.15
			c0-1.1-0.4-2.09-1.05-2.88c-0.09-0.11-0.2-0.19-0.29-0.29c-0.02-0.02-0.05-0.05-0.07-0.07c-0.11-0.11-0.21-0.23-0.33-0.32
			L41.47,33.97c-1.77-1.77-4.64-1.77-6.42,0L22.73,46.29c-0.03,0.03-0.05,0.05-0.08,0.08c-0.8,0.82-1.3,1.94-1.3,3.19
			c0,0.01,0,0.01,0,0.02s0,0.01,0,0.02c0,2.5,2.03,4.53,4.53,4.53c0.01,0,0.01,0,0.02,0c0.01,0,0.01,0,0.02,0
			c1.21,0,2.31-0.48,3.12-1.25c0.06-0.06,0.12-0.11,0.17-0.17l4.67-4.57v22.33v18.04l-0.1,13.36l-4.39-4.39
			c-0.17-0.2-0.35-0.38-0.55-0.55c-0.79-0.67-1.8-1.08-2.91-1.09c-0.01,0-0.01,0-0.02,0c-1.21,0-2.31,0.48-3.12,1.25
			c-0.06,0.06-0.12,0.11-0.17,0.17c-0.78,0.82-1.27,1.92-1.27,3.15c0,1.1,0.4,2.09,1.05,2.88c0.09,0.11,0.2,0.19,0.29,0.29
			c0.02,0.02,0.05,0.05,0.07,0.07c0.11,0.11,0.21,0.23,0.33,0.32l12.19,12.07c1.77,1.77,4.64,1.77,6.42,0l12.32-12.32
			c0.03-0.03,0.05-0.05,0.08-0.08c0.8-0.82,1.3-1.94,1.3-3.19c0-0.01,0-0.01,0-0.02S55.4,100.41,55.4,100.4z"/>
	</g>
</g>
<g id="PDF" class="st0">
	<g class="st1">
		<g>
			<path class="st3" d="M94.69,82.32c-0.62,0.02-4.63,0.26-10.24,1.21c-2.22-2.05-4.09-4.46-5.57-7.19c0.2-0.61,0.39-1.22,0.58-1.84
				c0.32-1.3,1.69-7.29,1.69-11.84c0-4.17-3.39-7.56-7.56-7.56c-4.17,0-7.56,3.39-7.56,7.56c0,0.08,0.04,6.5,3.13,14.07
				c-1.59,4.37-3.51,8.76-5.74,13.07c-4.85,2.28-8.86,5.02-11.91,8.14c-1.41,1.45-2.11,3.33-2.11,5.58c0,4.16,3.39,7.54,7.55,7.54
				c2.43,0,4.57-1.17,6.14-3.15c1.65-2.32,4.15-6.07,6.88-11.04c3.56-1.43,7.64-2.65,12.16-3.61c3.06,2.16,6.52,3.9,10.31,5.18
				c1.02,0.35,2.12,0.53,3.26,0.53c4.57,0,8.16-3.65,8.16-8.32c0-4.59-3.73-8.32-8.32-8.32H94.69z M55.83,102.15
				c2.04-2.08,4.5-3.84,7.19-5.35c-2.14,3.67-3.94,6.3-4.86,7.6c-0.74,1.06-2.72,0.62-2.72-1.21
				C55.44,102.79,55.58,102.42,55.83,102.15z M74.27,80.28c1.44,2.47,3.29,4.93,5.63,7.21c-3.17,0.71-6.61,1.64-10.01,2.87
				C71.39,87.33,72.89,83.94,74.27,80.28z M73.8,72.15c-1.67-5.09-1.73-9.11-1.73-9.5c0-0.83,0.68-1.51,1.51-1.51
				s1.51,0.68,1.51,1.51C75.1,66.09,74.17,70.52,73.8,72.15z M94.37,92.69c-2.78-0.93-5.21-2.1-7.34-3.43
				c4.56-0.72,7.68-0.89,7.74-0.9h0.76c1.25,0,2.27,1.02,2.27,2.44c0,1.15-0.95,2.1-2.1,2.1C95.24,92.9,94.76,92.83,94.37,92.69z"/>
		</g>
		<g>
			<g>
				<path class="st3" d="M90.36,23.33v24.2h24.2L90.36,23.33z"/>
				<g class="st7">
					<path class="st2" d="M102.19,126.67H47.74c-6.78,0-12.3-5.52-12.3-12.3V35.72c0-6.78,5.52-12.3,12.3-12.3h42.55v24.2h24.2
						v66.76C114.49,121.15,108.97,126.67,102.19,126.67z M47.74,29.87c-3.23,0-5.85,2.62-5.85,5.85v78.66
						c0,3.23,2.62,5.85,5.85,5.85h54.45c3.23,0,5.85-2.62,5.85-5.85v-60.3h-24.2v-24.2H47.74z"/>
				</g>
			</g>
		</g>
	</g>
</g>
<g id="checkbox" class="st0">
	<g class="st1">
		<path class="st2" d="M105.25,120.58h-60.5c-8.45,0-15.33-6.88-15.33-15.33v-60.5c0-8.45,6.88-15.33,15.33-15.33h60.5
			c8.45,0,15.33,6.88,15.33,15.33v60.5C120.58,113.7,113.7,120.58,105.25,120.58z M44.75,35.87c-4.89,0-8.87,3.98-8.87,8.87v60.5
			c0,4.89,3.98,8.87,8.87,8.87h60.5c4.89,0,8.87-3.98,8.87-8.87v-60.5c0-4.89-3.98-8.87-8.87-8.87H44.75z"/>
		<path class="st4" d="M96.9,66.64l-24.2,24.2c-1.04,1.04-2.38,1.55-3.74,1.55s-2.71-0.51-3.75-1.55l-12.1-12.1
			c-2.06-2.07-2.06-5.42,0-7.49c2.07-2.07,5.42-2.07,7.49,0l8.35,8.36l20.46-20.46c2.07-2.07,5.42-2.07,7.49,0
			C98.96,61.22,98.96,64.58,96.9,66.64z"/>
	</g>
</g>
<g id="Text_Input" class="st0">
	<g class="st1">
		<g>
			<g>
				<polygon class="st8" points="39.15,80.96 49.59,80.96 44.37,67.93 				"/>
				<path class="st2" d="M126.81,38.61H91.21v6.05h35.59c3.35,0,6.05,2.7,6.05,6.05v48.4c0,3.35-2.7,6.05-6.05,6.05H91.21v6.05
					h35.59c6.67,0,12.1-5.43,12.1-12.1v-48.4C138.91,44.02,133.48,38.61,126.81,38.61z"/>
				<path class="st2" d="M23.19,105.16c-3.34,0-6.05-2.7-6.05-6.05v-48.4c0-3.35,2.71-6.05,6.05-6.05h42.75v-6.05H23.19
					c-6.68,0-12.1,5.42-12.1,12.1v48.4c0,6.67,5.42,12.1,12.1,12.1h42.75v-6.05H23.19z"/>
				<path class="st4" d="M59.29,88.92l-12.1-30.25c-0.47-1.32-1.59-1.91-2.82-1.91s-2.34,0.59-2.82,1.91L29.46,88.92
					c-0.62,1.55,0.13,3.31,1.69,3.93c1.55,0.61,3.31-0.15,3.93-1.7l1.64-4.31l0.08,0.17h15.13l0.08-0.17l1.64,4.31
					c0.62,1.55,2.38,2.31,3.93,1.7C59.13,92.23,59.89,90.47,59.29,88.92z M39.15,80.96l5.22-13.03l5.22,13.03H39.15z"/>
			</g>
		</g>
		<path class="st4" d="M85.7,118.47h-4.24V31.21h4.14c1.69,0,3.07-1.37,3.07-3.07c0-1.69-1.37-3.07-3.07-3.07H71.2
			c-1.69,0-3.07,1.37-3.07,3.07c0,1.69,1.37,3.07,3.07,3.07h4.14v87.26h-4.04c-1.78,0-3.23,1.44-3.23,3.23s1.44,3.23,3.23,3.23H85.7
			c1.78,0,3.23-1.44,3.23-3.23S87.48,118.47,85.7,118.47z"/>
	</g>
</g>
<g id="Drop_Down" class="st0">
	<g class="st1">
		<path class="st2" d="M105.25,120.58h-60.5c-8.45,0-15.33-6.88-15.33-15.33v-60.5c0-8.45,6.88-15.33,15.33-15.33h60.5
			c8.45,0,15.33,6.88,15.33,15.33v60.5C120.58,113.7,113.7,120.58,105.25,120.58z M44.75,35.87c-4.89,0-8.87,3.98-8.87,8.87v60.5
			c0,4.89,3.98,8.87,8.87,8.87h60.5c4.89,0,8.87-3.98,8.87-8.87v-60.5c0-4.89-3.98-8.87-8.87-8.87H44.75z"/>
		<path class="st4" d="M100.45,70.2L79.27,91.37c-1.17,1.19-2.72,1.78-4.27,1.78s-3.1-0.59-4.28-1.77L49.55,70.2
			c-2.36-2.36-2.36-6.19,0-8.56s6.19-2.36,8.56,0L75,78.56l16.9-16.9c2.36-2.36,6.19-2.36,8.56,0
			C102.82,64.02,102.81,67.83,100.45,70.2z"/>
	</g>
</g>
<g id="File_Upload">
	<g>
		<g>
			<g>
				<path class="st3" d="M90.36,23.33v24.2h24.2L90.36,23.33z"/>
				<g class="st7">
					<path class="st2" d="M102.19,126.67H47.74c-6.78,0-12.3-5.52-12.3-12.3V35.72c0-6.78,5.52-12.3,12.3-12.3h42.55v24.2h24.2
						v66.76C114.49,121.15,108.97,126.67,102.19,126.67z M47.74,29.87c-3.23,0-5.85,2.62-5.85,5.85v78.66
						c0,3.23,2.62,5.85,5.85,5.85h54.45c3.23,0,5.85-2.62,5.85-5.85v-60.3h-24.2v-24.2H47.74z"/>
				</g>
			</g>
		</g>
		<path class="st4" d="M78.01,70.32c-1.77-1.77-4.64-1.77-6.42,0L56.47,85.44c-1.77,1.77-1.77,4.64,0,6.42
			c1.77,1.77,4.64,1.77,6.42,0l7.54-7.38v22.33c0,2.51,2.04,4.54,4.54,4.54s4.54-2.03,4.54-4.54V84.48l7.38,7.38
			c0.88,0.9,2.04,1.34,3.21,1.34s2.32-0.44,3.21-1.33c1.77-1.77,1.77-4.64,0-6.42L78.01,70.32z"/>
	</g>
</g>
<g id="Time_Picker" class="st0">
	<g class="st1">
		<g>
			<g>
				<path class="st2" d="M75,122.6c-26.25,0-47.6-21.35-47.6-47.6S48.75,27.4,75,27.4s47.6,21.35,47.6,47.6S101.25,122.6,75,122.6z
					 M75,33.86c-22.69,0-41.14,18.46-41.14,41.14S52.31,116.14,75,116.14S116.14,97.69,116.14,75S97.69,33.86,75,33.86z"/>
			</g>
		</g>
		<path class="st4" d="M70.84,75c0,1.39,0.69,2.68,1.85,3.31L89.33,89.4c1.91,1.42,4.49,0.9,5.62-1.01c1.42-1.91,0.9-4.49-1.01-5.77
			l-14.78-9.84V51.43c0-2.31-1.85-4.16-4.32-4.16c-2.15,0-4.16,1.85-4.16,4.16L70.84,75z"/>
	</g>
</g>
<g id="Text_Box" class="st0">
	<g class="st1">
		<g>
			<path class="st2" d="M14.5,50.8c0-6.68,5.42-12.1,12.1-12.1h96.81c6.67,0,12.1,5.42,12.1,12.1v48.4c0,6.67-5.43,12.1-12.1,12.1
				H26.6c-6.68,0-12.1-5.43-12.1-12.1V50.8z M20.55,50.8v48.4c0,3.35,2.71,6.05,6.05,6.05h96.81c3.35,0,6.05-2.7,6.05-6.05V50.8
				c0-3.35-2.7-6.05-6.05-6.05H26.6C23.26,44.75,20.55,47.45,20.55,50.8z"/>
		</g>
		<path class="st4" d="M62.69,89.01l-12.1-30.25c-0.47-1.32-1.59-1.91-2.82-1.91c-1.23,0-2.34,0.59-2.82,1.91L32.86,89.01
			c-0.62,1.55,0.13,3.31,1.69,3.93c1.55,0.61,3.31-0.15,3.93-1.7l1.64-4.31l0.08,0.17h15.13l0.08-0.17l1.64,4.31
			c0.62,1.55,2.38,2.31,3.93,1.7C62.54,92.32,63.3,90.56,62.69,89.01z M42.55,81.05l5.22-13.03l5.22,13.03H42.55z"/>
		<path class="st4" d="M91.18,73.58c1.25-1.74,1.97-3.86,1.97-6.14c0-5.84-4.75-10.59-10.59-10.59H71.97
			c-1.66,0-3.03,1.36-3.03,3.03v30.25c0,1.66,1.36,3.03,3.03,3.03h13.61c5.84,0,10.59-4.75,10.59-10.59
			C96.18,78.61,94.19,75.45,91.18,73.58z M75,62.9h7.56c2.51,0,4.54,2.02,4.54,4.54s-2.02,4.54-4.54,4.54H75V62.9z M85.59,87.1H75
			v-9.08h10.59c2.51,0,4.54,2.02,4.54,4.54S88.1,87.1,85.59,87.1z"/>
	</g>
</g>
<g id="Image" class="st0">
	<g class="st1">
		<g>
			<g>
				<path class="st9" d="M110.65,103.49c-0.53,0.98-1.55,1.59-2.67,1.59H41.81c-1.14,0-2.18-0.64-2.7-1.65
					c-0.52-1.01-0.42-2.23,0.25-3.15L52.6,82.12c0.57-0.79,1.48-1.24,2.44-1.24c0.96,0,1.87,0.46,2.44,1.24l6.14,8.42l17.64-26.3
					c0.57-1,1.51-1.51,2.52-1.51c1,0,1.96,0.51,2.52,1.35l24.2,36.3C111.12,101.29,111.18,102.49,110.65,103.49z"/>
				<g class="st7">
					<path class="st2" d="M114.03,120.4H35.38c-6.78,0-12.3-5.52-12.3-12.3V41.55c0-6.78,5.52-12.3,12.3-12.3h78.66
						c6.78,0,12.3,5.52,12.3,12.3v66.55C126.34,114.88,120.82,120.4,114.03,120.4z M35.38,35.7c-3.23,0-5.85,2.62-5.85,5.85v66.55
						c0,3.23,2.62,5.85,5.85,5.85h78.66c3.23,0,5.85-2.62,5.85-5.85V41.55c0-3.23-2.62-5.85-5.85-5.85H35.38z"/>
				</g>
			</g>
		</g>
		<circle class="st3" cx="47.31" cy="53.65" r="9.08"/>
		<path class="st4" d="M110.65,103.49c-0.53,0.98-1.55,1.59-2.67,1.59H41.81c-1.14,0-2.18-0.64-2.7-1.65
			c-0.52-1.01-0.42-2.23,0.25-3.15L52.6,82.12c0.57-0.79,1.48-1.24,2.44-1.24c0.96,0,1.87,0.46,2.44,1.24l6.14,8.42l17.64-26.3
			c0.57-1,1.51-1.51,2.52-1.51c1,0,1.96,0.51,2.52,1.35l24.2,36.3C111.12,101.29,111.18,102.49,110.65,103.49z"/>
	</g>
</g>
<g id="Layer_16" class="st0">
	<g class="st1">
		<g>
			<path class="st9" d="M110.59,103.6c-0.53,0.98-1.55,1.58-2.66,1.58H41.91c-1.14,0-2.18-0.64-2.69-1.65
				c-0.52-1.01-0.42-2.23,0.25-3.15l13.21-18.11c0.57-0.79,1.47-1.24,2.44-1.24c0.96,0,1.87,0.46,2.44,1.24l6.12,8.4l17.6-26.24
				c0.57-1,1.51-1.51,2.51-1.51c1,0,1.95,0.5,2.51,1.34l24.15,36.22C111.07,101.41,111.12,102.6,110.59,103.6z"/>
			<g class="st7">
				<path class="st2" d="M113.97,120.48H35.49c-6.77,0-12.28-5.51-12.28-12.28V41.8c0-6.77,5.51-12.28,12.28-12.28h78.48
					c6.77,0,12.28,5.51,12.28,12.28v66.41C126.25,114.97,120.74,120.48,113.97,120.48z M35.49,35.96c-3.22,0-5.84,2.62-5.84,5.84
					v66.41c0,3.22,2.62,5.84,5.84,5.84h78.48c3.22,0,5.84-2.62,5.84-5.84V41.8c0-3.22-2.62-5.84-5.84-5.84H35.49z"/>
			</g>
		</g>
	</g>
	<circle class="st10" cx="47.39" cy="53.87" r="9.06"/>
	<path class="st6" d="M110.59,103.6c-0.53,0.98-1.55,1.58-2.66,1.58H41.91c-1.14,0-2.18-0.64-2.69-1.65
		c-0.52-1.01-0.42-2.23,0.25-3.15l13.21-18.11c0.57-0.79,1.47-1.24,2.44-1.24c0.96,0,1.87,0.46,2.44,1.24l6.12,8.4l17.6-26.24
		c0.57-1,1.51-1.51,2.51-1.51c1,0,1.95,0.5,2.51,1.34l24.15,36.22C111.07,101.41,111.12,102.6,110.59,103.6z"/>
	<g class="st1">
		<path class="st2" d="M139.83,39.76h-9.86v5.85h9.86c2.2,0,4,1.79,4,4v50.78c0,2.2-1.79,4-4,4h-9.86v5.85h9.86
			c5.43,0,9.85-4.42,9.85-9.85V49.61C149.68,44.18,145.26,39.76,139.83,39.76z"/>
		<path class="st2" d="M10,104.39c-2.21,0-4-1.79-4-4V49.61c0-2.2,1.79-4,4-4h9.86v-5.85H10c-5.43,0-9.85,4.42-9.85,9.85v50.78
			c0,5.43,4.42,9.85,9.85,9.85h9.86v-5.85H10z"/>
	</g>
</g>
</svg>
