<?xml version="1.0" encoding="UTF-8"?>
<svg id="Layer_1" data-name="Layer 1" xmlns="http://www.w3.org/2000/svg" viewBox="0 0 180 180">
  <defs>
    <style>
      .cls-1, .cls-2 {
        fill: #468ff3;
      }

      .cls-3 {
        fill: #2d5798;
      }

      .cls-2 {
        opacity: .15;
      }
    </style>
  </defs>
  <path class="cls-2" d="M147.3,135.73c4.54-6.06,7.17-13.21,7.17-20.88,0-13.83-8.55-25.98-21.47-33.02-9.04,19.59-33.38,39.85-73.12,30.3,0,.32-.03,2.4-.03,2.72,0,21.78,21.18,39.43,47.31,39.43,10.58,0,20.35-2.89,28.23-7.78l22.03,10.93-10.12-21.69Z"/>
  <path class="cls-1" d="M78.1,28.27c25.68,0,46.56,16.98,46.56,37.86s-20.89,37.86-46.56,37.86c-10.27,0-20.02-2.68-28.18-7.74-.92-.57-1.96-.86-3.01-.86-.87,0-1.73,.2-2.53,.59l-9.76,4.84,4.3-9.22c.89-1.91,.66-4.15-.61-5.83-4.44-5.91-6.78-12.7-6.78-19.64,0-20.87,20.89-37.86,46.56-37.86m0-5.7c-28.86,0-52.26,19.5-52.26,43.56,0,8.47,2.9,16.38,7.92,23.07l-11.18,23.97,24.34-12.07c8.7,5.4,19.5,8.6,31.18,8.6,28.86,0,52.26-19.5,52.26-43.56s-23.4-43.56-52.26-43.56h0Z"/>
  <path class="cls-3" d="M135.14,89.92c8.63,6.36,13.63,15.37,13.63,24.93,0,6.17-2.09,12.2-6.03,17.46-1.26,1.68-1.5,3.92-.61,5.83l3.24,6.95-7.45-3.7c-.8-.4-1.67-.59-2.53-.59-1.05,0-2.09,.29-3.01,.86-7.3,4.53-16.02,6.93-25.22,6.93-21.15,0-38.66-12.85-41.28-29.43,4.62,.74,9.15,1.12,13.54,1.12,27.67,0,46.29-14.79,55.71-30.34m-2.14-8.1c-7.45,16.15-25.29,32.74-53.57,32.74-6.04,0-12.55-.76-19.55-2.44,0,.32-.03,2.4-.03,2.72,0,21.78,21.18,39.43,47.31,39.43,10.58,0,20.35-2.89,28.23-7.78l22.03,10.93-10.12-21.69c4.54-6.06,7.17-13.21,7.17-20.88,0-13.83-8.55-25.98-21.47-33.02h0Z"/>
</svg>