<?xml version="1.0" encoding="UTF-8"?>
<svg id="Layer_1" data-name="Layer 1" xmlns="http://www.w3.org/2000/svg" viewBox="0 0 180 180">
  <defs>
    <style>
      .cls-1 {
        stroke: #468ff3;
      }

      .cls-1, .cls-2 {
        fill: none;
        stroke-linecap: round;
        stroke-linejoin: round;
        stroke-width: 5.7px;
      }

      .cls-2 {
        stroke: #2d5798;
      }

      .cls-3 {
        fill: #468ff3;
      }

      .cls-4 {
        opacity: .15;
      }
    </style>
  </defs>
  <g class="cls-4">
    <rect class="cls-3" x="35.21" y="46" width="27.91" height="19.74"/>
    <rect class="cls-3" x="76.04" y="46" width="27.91" height="19.74"/>
    <rect class="cls-3" x="116.87" y="46" width="27.91" height="19.74"/>
    <rect class="cls-3" x="35.21" y="80.13" width="27.91" height="19.74"/>
    <rect class="cls-3" x="76.04" y="80.13" width="27.91" height="19.74"/>
    <rect class="cls-3" x="116.87" y="80.13" width="27.91" height="19.74"/>
    <rect class="cls-3" x="35.21" y="114.26" width="27.91" height="19.74"/>
    <rect class="cls-3" x="76.04" y="114.26" width="27.91" height="19.74"/>
  </g>
  <g>
    <rect class="cls-1" x="35" y="45.62" width="28" height="20"/>
    <rect class="cls-1" x="76.04" y="46" width="27.91" height="19.74"/>
    <rect class="cls-1" x="116.87" y="46" width="27.91" height="19.74"/>
    <rect class="cls-1" x="35.21" y="80.13" width="27.91" height="19.74"/>
    <rect class="cls-1" x="76.04" y="80.13" width="27.91" height="19.74"/>
    <rect class="cls-1" x="116.87" y="80.13" width="27.91" height="19.74"/>
    <rect class="cls-1" x="35.21" y="114.26" width="27.91" height="19.74"/>
    <rect class="cls-1" x="76.04" y="114.26" width="27.91" height="19.74"/>
    <rect class="cls-2" x="116.87" y="114.26" width="27.91" height="19.74"/>
  </g>
</svg>