<?xml version="1.0" encoding="utf-8"?>
<!-- Generator: Adobe Illustrator 26.4.1, SVG Export Plug-In . SVG Version: 6.00 Build 0)  -->
<svg version="1.1" id="Layer_19" xmlns="http://www.w3.org/2000/svg" xmlns:xlink="http://www.w3.org/1999/xlink" x="0px" y="0px"
	 viewBox="0 0 128 128" style="enable-background:new 0 0 128 128;" xml:space="preserve">
<style type="text/css">
	.st0{fill:#353B41;}
	.st1{fill:#0F88C9;}
</style>
<g>
	<path class="st0" d="M75.5,4h-23c-3.3,0-6,2.7-6,6v23c0,3.3,2.7,6,6,6h23c3.3,0,6-2.7,6-6V10C81.5,6.7,78.8,4,75.5,4z M78.5,33
		c0,1.6-1.3,3-3,3h-23c-1.6,0-3-1.3-3-3V10c0-1.6,1.3-3,3-3h23c1.6,0,3,1.3,3,3V33L78.5,33z"/>
	<path class="st1" d="M75.5,46.5h-23c-3.3,0-6,2.7-6,6v23c0,3.3,2.7,6,6,6h23c3.3,0,6-2.7,6-6v-23C81.5,49.2,78.8,46.5,75.5,46.5z
		 M78.5,75.5c0,1.6-1.3,3-3,3h-23c-1.6,0-3-1.3-3-3v-23c0-1.6,1.3-3,3-3h23c1.6,0,3,1.3,3,3V75.5z"/>
	<path class="st0" d="M70.9,100.1l-9.7,9.6l-4.2-4.1c-0.6-0.6-1.5-0.6-2.1,0s-0.6,1.5,0,2.1l5.2,5.1c0.3,0.3,0.7,0.4,1.1,0.4
		c0.4,0,0.8-0.1,1.1-0.4L73,102.2c0.6-0.6,0.6-1.5,0-2.1C72.5,99.5,71.5,99.5,70.9,100.1z"/>
	<path class="st1" d="M70.9,57.6l-9.7,9.6l-4.2-4.1c-0.6-0.6-1.5-0.6-2.1,0s-0.6,1.5,0,2.1l5.2,5.1c0.3,0.3,0.7,0.4,1.1,0.4
		c0.4,0,0.8-0.1,1.1-0.4L73,59.8c0.6-0.6,0.6-1.5,0-2.1C72.5,57,71.5,57,70.9,57.6L70.9,57.6z"/>
	<path class="st0" d="M75.5,89h-23c-3.3,0-6,2.7-6,6v23c0,3.3,2.7,6,6,6h23c3.3,0,6-2.7,6-6V95C81.5,91.7,78.8,89,75.5,89z
		 M78.5,118c0,1.6-1.3,3-3,3h-23c-1.6,0-3-1.3-3-3V95c0-1.6,1.3-3,3-3h23c1.6,0,3,1.3,3,3V118z"/>
</g>
</svg>
