<?xml version="1.0" encoding="utf-8"?>
<!-- Generator: Adobe Illustrator 26.5.2, SVG Export Plug-In . SVG Version: 6.00 Build 0)  -->
<svg version="1.1" id="Layer_17" xmlns="http://www.w3.org/2000/svg" xmlns:xlink="http://www.w3.org/1999/xlink" x="0px" y="0px"
	 viewBox="0 0 128 128" style="enable-background:new 0 0 128 128;" xml:space="preserve">
<style type="text/css">
	.st0{fill:#0F88C9;}
	.st1{fill:#FFFFFF;}
	.st2{fill:#353B41;}
</style>
<g>
	<path class="st0" d="M75.5,104.4H31.3c-4.5,0-8.3-3.7-8.3-8.3V19.9c0-4.5,3.7-8.3,8.3-8.3h44.3c4.5,0,8.3,3.7,8.3,8.3v76.1
		C83.7,100.7,80,104.4,75.5,104.4z M31.3,16.7c-1.7,0-3.1,1.4-3.1,3.1v76.1c0,1.7,1.4,3.1,3.1,3.1h44.3c1.7,0,3.1-1.4,3.1-3.1V19.8
		c0-1.7-1.4-3.1-3.1-3.1C75.5,16.7,31.3,16.7,31.3,16.7z"/>
	<circle class="st0" cx="53.4" cy="23.6" r="3.1"/>
	<path class="st0" d="M69.6,67.3l-1.4,6.2c-0.1,0.8-1,1.6-1.8,1.6C50.9,75,38.3,62.5,38.3,47c0-0.8,0.6-1.7,1.6-1.8l6.2-1.4
		c0.8-0.3,1.8,0.3,2.3,1.1l2.8,6.6c0.3,0.8,0.1,1.7-0.6,2.3l-3.5,2.4c2.1,4.2,5.5,7.8,9.7,9.7l2.7-3.2c0.6-0.7,1.4-0.8,2.3-0.6
		l6.6,2.8C69.3,65.5,69.8,66.3,69.6,67.3L69.6,67.3z"/>
	<g>
		<circle class="st1" cx="88.8" cy="94.1" r="27.6"/>
		<path class="st2" d="M88.8,124.4c-16.8,0-30.4-13.7-30.4-30.3S72,63.8,88.6,63.8s30.3,13.7,30.3,30.3S105.4,124.4,88.8,124.4z
			 M88.8,69.1c-13.8,0-25,11.1-25,25s11.1,25,25,25s25-11.1,25-25S102.5,69.1,88.8,69.1z"/>
	</g>
	<path class="st2" d="M101,81l-3.9,25.5c-0.1,0.6-0.4,1.1-1,1.4c-0.3,0.1-0.7,0.3-1,0.3s-0.6,0-0.7-0.1l-7.5-3.1l-3.2,4.7
		c-0.3,0.4-0.7,0.6-1.1,0.6c-0.7,0-1.3-0.6-1.3-1.3V103c0-0.4,0.1-0.8,0.4-1.3l13.4-17.2l-18,16.4l-6.3-2.7c-0.7-0.3-1.1-1-1.3-1.7
		c0-0.8,0.3-1.4,1-1.8L97.9,79c0.7-0.4,1.4-0.3,2.1,0.1C100.8,79.6,101.2,80.3,101,81L101,81z"/>
</g>
</svg>
