<?xml version="1.0" encoding="UTF-8"?><svg id="Layer_18_copy" xmlns="http://www.w3.org/2000/svg" viewBox="0 0 150 150"><defs><style>.cls-1{fill:none;stroke:#0f88c9;stroke-miterlimit:10;stroke-width:5.18px;}.cls-2{fill:#353b41;}</style></defs><circle class="cls-1" cx="75" cy="76.82" r="37.78"/><path class="cls-2" d="m86.77,96.23c-.27,0-.53-.08-.76-.25l-11.01-8-11.01,8c-.23.17-.49.25-.76.25s-.53-.08-.76-.25c-.45-.33-.64-.91-.47-1.45l4.21-12.94-11.01-8c-.45-.33-.64-.91-.47-1.45.17-.53.67-.89,1.23-.89h13.61l4.21-12.94c.17-.53.67-.89,1.23-.89s1.06.36,1.23.89l4.21,12.94h13.61c.56,0,1.06.36,1.23.89.17.53-.02,1.12-.47,1.45l-11.01,8,4.21,12.94c.17.53-.02,1.12-.47,1.45-.23.17-.49.25-.76.25Z"/><path class="cls-2" d="m75,58.71l4.5,13.84h14.55l-11.77,8.55,4.5,13.84-11.77-8.55-11.77,8.55,4.5-13.84-11.77-8.55h14.55l4.5-13.84m19.05,13.84h0m-19.05-16.43c-1.12,0-2.12.72-2.46,1.79l-3.91,12.05h-12.67c-1.12,0-2.12.72-2.46,1.79-.35,1.07.03,2.24.94,2.9l10.25,7.45-3.91,12.05c-.35,1.07.03,2.24.94,2.9.45.33.99.49,1.52.49s1.07-.16,1.52-.49l10.25-7.45,10.25,7.45c.45.33.99.49,1.52.49s1.07-.16,1.52-.49c.91-.66,1.29-1.83.94-2.9l-3.91-12.05,10.2-7.41c.68-.47,1.12-1.25,1.12-2.13,0-1.43-1.16-2.59-2.59-2.59h-12.67l-3.91-12.05c-.35-1.07-1.34-1.79-2.46-1.79h0Z"/></svg>