<?xml version="1.0" encoding="UTF-8"?>
<svg id="Layer_1" data-name="Layer 1" xmlns="http://www.w3.org/2000/svg" viewBox="0 0 180 180">
  <defs>
    <style>
      .cls-1 {
        fill: #468ff3;
      }

      .cls-2 {
        fill: #2d5798;
      }

      .cls-3 {
        opacity: .15;
      }
    </style>
  </defs>
  <path class="cls-1" d="M38.18,40.89c-.47,0-.93,.13-1.38,.41-.43,.26-.64,.69-.86,1.11-1.13,2.19-2.26,4.38-3.4,6.57-2.07,4.01-4.14,8.02-6.22,12.02-2.52,4.87-5.04,9.73-7.56,14.6-2.23,4.3-4.45,8.6-6.68,12.89-.57,1.1-1.15,2.2-1.71,3.31-.62,1.21-.41,2.85,1.12,3.51,.07,.03,.13,.07,.2,.1,4.82,2.49,9.64,4.98,14.46,7.46,.42,.22,.84,.45,1.27,.63,.37,.16,.74,.23,1.09,.23,.88,0,1.65-.48,2.12-1.36,.27-.5,.52-1.01,.78-1.51,.13-.25,.27-.5,.45-.82,.26,.44,.47,.79,.69,1.15,5.44,9.03,12.63,16.42,21.26,22.44,1.13,.79,2.28,1.51,3.56,2.04,9.71,4.04,19.42,8.08,29.14,12.11,.87,.36,1.78,.66,2.7,.9,1,.26,2,.4,3,.4s1.97-.14,2.95-.45c3.01-.95,5.02-2.89,5.8-6.01,.01-.04,.05-.08,.08-.13,.8,.35,1.58,.71,2.37,1.03,1.29,.51,2.59,.78,3.88,.78s2.68-.29,4-.91c2.6-1.22,4.32-3.2,4.89-6.07,.02-.12,.05-.23,.08-.37,.23,.08,.42,.14,.61,.21,1.05,.38,2.12,.57,3.2,.57,.49,0,.99-.04,1.49-.12,1.97-.31,3.62-1.24,4.98-2.67,1.71-1.78,2.77-3.88,2.96-6.38,.03-.36,.03-.72,.04-1.1,.24,.01,.48,.02,.72,.02,3.27,0,5.86-1.4,7.82-4.02,2.14-2.85,2.56-5.98,1.16-9.33,2.26-2.22,4.78-3.99,7.86-4.98,.09,.19,.18,.35,.25,.51,.54,1.2,1.09,2.39,1.62,3.59,.3,.67,.8,1.06,1.52,1.21,.18,.04,.37,.05,.54,.05,.51,0,1-.14,1.48-.35,4.1-1.85,8.19-3.69,12.29-5.54,1.25-.56,2.5-1.13,3.75-1.68,.66-.29,1.11-.75,1.29-1.46,.17-.64,.12-1.26-.16-1.87-.71-1.54-1.41-3.09-2.11-4.64-5.54-12.25-11.08-24.49-16.63-36.74-1.46-3.23-2.93-6.45-4.38-9.69-.33-.74-.88-1.14-1.67-1.24-.14-.02-.27-.03-.4-.03-.51,0-.99,.13-1.46,.34-5.34,2.41-10.69,4.81-16.04,7.22-1.09,.49-1.55,1.38-1.34,2.58,.04,.25,.1,.49,.16,.75-.16,.07-.29,.13-.43,.18-.98,.36-1.97,.68-2.93,1.08-.33,.14-.65,.19-.98,.19-.13,0-.27,0-.41-.02-.94-.1-1.89-.21-2.84-.28-2.95-.24-5.9-.47-8.85-.69-3.39-.25-6.79-.48-10.19-.48-.56,0-1.12,0-1.69,.02-1.64,.04-3.29,.14-4.92,.31-2.64,.28-5.23,.82-7.81,1.44-.12,.03-.24,.04-.37,.04-.15,0-.3-.02-.43-.05-3.81-.99-7.71-1.51-11.61-1.9-1.78-.18-3.57-.31-5.36-.36-1.01-.03-2.02-.04-3.02-.04-1.16,0-2.33,.01-3.49,.03-1.28,.02-2.55,.12-3.85,.19,0-.11-.02-.21-.02-.32,.07-.97-.37-1.64-1.22-2.08-.46-.23-.91-.47-1.36-.71-3.86-1.99-7.73-3.99-11.59-5.98-1.02-.53-2.03-1.08-3.07-1.58-.41-.2-.82-.3-1.23-.3h0Zm-10.75,57.22c-3.91-2.02-7.8-4.02-11.74-6.06,7.85-15.18,15.69-30.32,23.56-45.52,3.93,2.03,7.8,4.03,11.74,6.06-7.85,15.18-15.69,30.32-23.56,45.52h0Zm124.9,.9c-7.05-15.58-14.08-31.12-21.14-46.73,4.05-1.82,8.03-3.61,12.06-5.43,7.05,15.58,14.08,31.13,21.14,46.73-4.02,1.81-8,3.61-12.06,5.43h0Zm-60.3,35.3c-1.01,0-1.99-.25-2.93-.63-1.95-.79-3.89-1.59-5.82-2.4-7.98-3.32-15.95-6.63-23.92-9.97-.73-.31-1.43-.73-2.1-1.17-3.5-2.28-6.7-4.95-9.7-7.85-4.07-3.93-7.62-8.28-10.56-13.11-.79-1.29-1.49-2.64-2.24-3.96-.15-.27-.15-.48,0-.76,4.49-8.66,8.98-17.32,13.46-25.98,1.91-3.7,3.83-7.4,5.73-11.1,.17-.33,.38-.48,.74-.52,2.49-.26,4.98-.46,7.49-.48,.39,0,.78,0,1.17,0,2.29,0,4.59,.07,6.88,.26,1.47,.12,2.94,.29,4.41,.43,0,.05,.01,.09,.02,.14-.4,.17-.8,.32-1.19,.5-1.58,.72-3.17,1.41-4.72,2.2-3.16,1.61-5.6,3.97-7.43,7.02-1.6,2.67-3.04,5.42-4.36,8.22-1.51,3.19-2.95,6.4-4.1,9.74-.9,2.59-1.65,5.22-2.05,7.94-.24,1.62-.29,3.24,.15,4.84,.66,2.37,2.7,4,5.16,4.14,.16,0,.33,.01,.49,.01,1.18,0,2.32-.24,3.44-.63,2.02-.7,3.85-1.76,5.59-2.98,5.13-3.59,9.37-8.02,12.55-13.43,.37-.63,.7-1.29,1.02-1.94,.11-.22,.23-.33,.48-.36,2.5-.31,5-.62,7.5-.98,3.16-.46,6.32-.93,9.4-1.84,.19-.06,.36-.09,.52-.09,.28,0,.53,.09,.82,.29,10.58,7.35,21.18,14.67,31.77,22.01,1.25,.86,2.5,1.72,3.74,2.59,1.09,.76,1.71,1.8,1.79,3.12,.03,.46-.01,.96-.14,1.4-.33,1.16-1,2.12-1.95,2.85-.75,.58-1.56,.87-2.4,.87-.51,0-1.04-.11-1.58-.32-.46-.18-.89-.42-1.31-.68-8.24-4.95-16.47-9.9-24.71-14.85-1.68-1.01-3.38-1.97-5.05-2.98-.46-.28-.9-.4-1.31-.4-.86,0-1.56,.53-1.96,1.18-.76,1.24-.46,2.62,.78,3.37,3.58,2.16,7.17,4.31,10.76,6.47,5.2,3.12,10.4,6.25,15.6,9.38,.38,.23,.74,.47,1.09,.74,1.58,1.21,2.27,3.41,1.22,5.34-.26,.48-.54,.96-.88,1.39-.83,1.06-2.01,1.64-3.25,1.64-.57,0-1.15-.12-1.71-.37-1-.44-1.96-.97-2.94-1.47-4.8-2.49-9.6-4.98-14.4-7.47-4.02-2.09-8.05-4.15-12.06-6.27-.47-.25-.92-.36-1.34-.36-1.04,0-1.89,.67-2.28,1.55-.51,1.15-.16,2.25,.94,2.86,.88,.48,1.78,.93,2.67,1.4,5.5,2.85,10.99,5.7,16.49,8.55,1.04,.54,2.09,1.05,3.11,1.62,.62,.35,1.23,.73,1.77,1.19,.37,.31,.66,.73,.9,1.15,.38,.68,.27,1.37-.13,2.03-.91,1.5-2.26,2.12-3.9,2.12-.12,0-.25,0-.37-.01-1.03-.05-1.96-.44-2.86-.89-1.66-.84-3.31-1.71-4.98-2.54-6.16-3.07-12.33-6.14-18.49-9.21-1.67-.83-3.34-1.66-5-2.49-.44-.22-.9-.36-1.37-.36-.17,0-.35,.02-.53,.06-1,.23-1.73,.99-1.83,1.94-.13,1.19,.32,2.06,1.3,2.55,2.24,1.11,4.48,2.22,6.72,3.34,4.46,2.22,8.93,4.44,13.39,6.68,.63,.32,1.24,.7,1.83,1.09,.48,.31,.86,.74,1.1,1.27,.21,.47,.19,.9-.08,1.35-.8,1.36-2.06,1.91-3.56,2.02-.15,.01-.29,.02-.44,.02h0Zm29.92-75.8c.62,0,1.22-.1,1.81-.34,1.17-.47,2.35-.9,3.53-1.34,.17-.06,.34-.13,.58-.22,5.76,12.72,11.49,25.4,17.25,38.12-1.74,.63-3.35,1.39-4.86,2.35-1.5,.95-2.88,2.07-4.17,3.35-.16-.1-.31-.19-.46-.29-10.01-6.96-20.01-13.93-30.02-20.88-2.21-1.53-4.45-3.01-6.67-4.52-.42-.29-.86-.44-1.31-.44-.28,0-.57,.06-.87,.18-2.07,.86-4.27,1.25-6.46,1.66-3.81,.71-7.65,1.18-11.5,1.63-.38,.04-.76,.09-1.14,.12-1.04,.1-1.77,.62-2.2,1.57-.28,.61-.56,1.23-.88,1.83-1.58,3-3.62,5.65-5.99,8.07-1.84,1.89-3.79,3.65-6.02,5.09-.98,.63-2,1.22-3.05,1.71-.75,.35-1.58,.55-2.39,.75-.1,.03-.21,.04-.32,.04-.23,0-.47-.04-.71-.05-.31-.01-.45-.22-.51-.49-.05-.23-.08-.47-.1-.7-.07-1.43,.11-2.84,.44-4.23,.82-3.44,2.03-6.75,3.42-9.99,1.6-3.73,3.33-7.4,5.41-10.88,.75-1.25,1.58-2.46,2.44-3.64,.35-.48,.83-.87,1.31-1.23,1.81-1.33,3.8-2.32,5.85-3.2,5.34-2.3,10.89-3.9,16.6-4.95,2.33-.43,4.68-.62,7.03-.62,.66,0,1.31,.01,1.97,.04,2.88,.13,5.77,.23,8.65,.41,2.61,.16,5.21,.39,7.81,.61,1.64,.14,3.27,.3,4.91,.45,.2,.02,.41,.03,.61,.03h0Z"/>
  <path class="cls-2" d="M105.65,79.29m30.47,21.16c1.3-1.28,2.67-2.39,4.17-3.35,1.51-.96,3.12-1.72,4.86-2.35-5.76-12.72-11.49-25.4-17.25-38.12-.24,.09-.41,.16-.58,.22-1.18,.44-2.37,.87-3.53,1.34-.78,.31-1.58,.38-2.4,.31-.88-.08-2.15-.23-3.03-.3-3.24-.25-6.47-.56-9.71-.76-2.95-.18-5.9-.29-8.85-.42-3.1-.14-6.2,.09-9.25,.67-6.2,1.17-12.2,2.99-17.94,5.66-1.54,.72-3.02,1.58-4.36,2.62-.38,.3-.74,.63-1.02,1-.86,1.18-1.69,2.39-2.44,3.64-2.09,3.49-3.82,7.15-5.41,10.88-1.39,3.24-2.6,6.55-3.42,9.99-.33,1.4-.52,2.8-.44,4.23,.01,.24,.04,.47,.1,.7,.06,.27,.2,.47,.51,.49,.34,.01,.71,.1,1.03,.02,.81-.2,1.64-.4,2.39-.75,.78-.37,1.54-.78,2.29-1.23,1.74-1.05,3.32-2.32,4.82-3.68,3.2-2.91,5.95-6.16,7.95-9.96,.31-.6,.6-1.21,.88-1.83,.4-.87,1.23-1.48,2.19-1.57,.39-.04,.77-.08,1.16-.12,3.85-.45,7.69-.92,11.5-1.63,1.9-.35,4.66-1.05,6.71-1.79,.57-.2,1.19-.12,1.69,.22l5.34,3.61-7.48,1.49c-4.45,1.32-9.09,1.72-13.64,2.49-1.07,.18-2.15,.23-3.22,.33-.28,.03-.4,.14-.51,.36-.32,.65-.65,1.31-1.02,1.94-3.18,5.41-7.42,9.84-12.55,13.43-1.74,1.22-3.57,2.28-5.59,2.98-1.25,.43-2.52,.68-3.85,.62-2.45-.12-4.58-1.78-5.24-4.14-.44-1.6-.39-3.22-.15-4.84,.4-2.72,1.15-5.35,2.05-7.94,1.16-3.33,2.6-6.55,4.1-9.74,1.33-2.81,2.76-5.56,4.36-8.22,1.83-3.05,4.27-5.41,7.43-7.02,1.54-.79,3.14-1.47,4.72-2.2,.39-.18,.8-.34,1.19-.5,0-.05,9.92-3.21,10.18-3.27,2.58-.62,5.17-1.16,7.81-1.44,1.63-.17,3.28-.27,4.92-.31,3.97-.09,7.92,.17,11.88,.46,3.22,.24,6.45,.5,9.67,.76,.68,.06,1.36,.15,2.05,.22,.54,.06,1.05,0,1.59-.28,.78-.41,1.61-.7,2.48-.9,.23-.05,.4-.14,.65-.24-.06-.26-.12-.5-.16-.75-.21-1.2,.25-2.09,1.34-2.58,5.35-2.41,10.69-4.82,16.04-7.22,.59-.26,1.24-.4,1.88-.31,.78,.11,1.32,.51,1.65,1.24,1.45,3.23,2.92,6.46,4.38,9.69,5.54,12.25,11.08,24.49,16.63,36.74,.67,1.49,1.35,2.98,2.03,4.46,.27,.6,.4,1.28,.26,1.92-.16,.78-.62,1.28-1.32,1.58-1.25,.55-2.5,1.11-3.75,1.68-4.1,1.84-8.19,3.69-12.29,5.54-.66,.3-1.35,.45-2.08,.29-.69-.15-1.23-.68-1.52-1.32-.52-1.16-1.04-2.31-1.57-3.47-.07-.16-.16-.32-.25-.51-3.08,.99-5.61,2.76-7.86,4.98l-3.16-3.73Zm-4.9-48.15c7.06,15.61,14.1,31.16,21.14,46.73,4.05-1.83,8.04-3.62,12.06-5.43-7.06-15.61-14.1-31.15-21.14-46.73-4.03,1.82-8.01,3.61-12.06,5.43Z"/>
  <g class="cls-3">
    <path class="cls-1" d="M127.87,56.61c-.24,.09-.41,.16-.58,.22-1.18,.44-2.37,.87-3.53,1.34-.79,.32-1.59,.39-2.42,.31-1.64-.15-3.27-.32-4.91-.45-2.6-.22-5.2-.45-7.81-.61-2.88-.18-5.76-.28-8.65-.41-3.02-.13-6.02,.03-9,.58-5.72,1.05-11.27,2.64-16.6,4.95-2.05,.88-4.05,1.87-5.85,3.2-.48,.35-.97,.75-1.31,1.23-.86,1.18-1.69,2.39-2.44,3.64-2.09,3.49-3.82,7.15-5.41,10.88-1.39,3.24-2.6,6.55-3.42,9.99-.33,1.4-.52,2.8-.44,4.23,.01,.24,.04,.47,.1,.7,.06,.27,.2,.47,.51,.49,.34,.01,.71,.1,1.03,.02,.81-.2,1.64-.4,2.39-.75,1.05-.49,2.08-1.08,3.05-1.71,2.22-1.43,4.17-3.2,6.02-5.09,2.36-2.42,4.41-5.07,5.99-8.07,.31-.6,.6-1.21,.88-1.83,.43-.95,1.16-1.47,2.2-1.57,.38-.04,.76-.08,1.14-.12,3.85-.45,7.69-.92,11.5-1.63,2.19-.41,4.38-.79,6.46-1.66,.76-.32,1.49-.21,2.18,.26,2.22,1.51,4.46,2.99,6.67,4.52,10.01,6.95,20.01,13.92,30.02,20.88,.14,.1,.3,.19,.46,.29,1.3-1.28,2.67-2.39,4.17-3.35,1.51-.96,3.12-1.72,4.86-2.35-5.76-12.72-11.49-25.4-17.25-38.12Zm3.31-4.34c7.06,15.61,14.1,31.16,21.14,46.73,4.05-1.83,8.04-3.62,12.06-5.43-7.06-15.61-14.1-31.15-21.14-46.73-4.03,1.82-8.01,3.61-12.06,5.43Z"/>
  </g>
</svg>