<?xml version="1.0" encoding="utf-8"?>
<!-- Generator: Adobe Illustrator 26.5.2, SVG Export Plug-In . SVG Version: 6.00 Build 0)  -->
<svg version="1.1" id="Layer_20" xmlns="http://www.w3.org/2000/svg" xmlns:xlink="http://www.w3.org/1999/xlink" x="0px" y="0px"
	 viewBox="0 0 128 128" style="enable-background:new 0 0 128 128;" xml:space="preserve">
<style type="text/css">
	.st0{fill:#0F88C9;}
	.st1{fill:#353B41;}
</style>
<g>
	<path class="st0" d="M87.3,16H40.8c-4.4,0-8,3.6-8,8v80c0,4.4,3.6,8,8,8h46.5c4.4,0,8-3.6,8-8V24C95.2,19.6,91.7,16,87.3,16
		L87.3,16z M91.3,104c0,2.2-1.8,4-4,4H40.8c-2.2,0-4-1.8-4-4V24c0-2.2,1.8-4,4-4h46.5c2.2,0,4,1.8,4,4L91.3,104L91.3,104z"/>
	<circle class="st0" cx="64" cy="27.8" r="3.3"/>
	<path class="st1" d="M81.1,73.9l-7.4-3.1c-0.9-0.4-1.8-0.2-2.5,0.6l-3,3.6c-4.6-2.3-8.5-6.1-10.8-10.8l3.6-3c0.7-0.6,1-1.6,0.6-2.5
		l-3.1-7.4c-0.4-1-1.4-1.4-2.4-1.2l-6.8,1.6c-1,0.2-1.6,1-1.6,2.1c0,17,13.8,30.9,30.9,30.9c1,0,1.8-0.6,2.1-1.6l1.6-6.8
		C82.6,75.4,82,74.4,81.1,73.9L81.1,73.9z"/>
</g>
</svg>
