<?xml version="1.0" encoding="UTF-8"?>
<svg id="Layer_1" data-name="Layer 1" xmlns="http://www.w3.org/2000/svg" viewBox="0 0 40 40">
  <path d="M16.56,1.75c7.65,0,13.87,5.09,13.87,11.35s-6.22,11.35-13.87,11.35c-3.05,0-5.94-.8-8.36-2.3-.2-.12-.43-.19-.66-.19-.19,0-.38,.04-.55,.13l-3.84,1.91,1.73-3.7c.19-.42,.14-.91-.13-1.28-1.34-1.78-2.04-3.83-2.04-5.92C2.69,6.84,8.91,1.75,16.56,1.75m0-1.25C8.21,.5,1.44,6.14,1.44,13.1c0,2.45,.84,4.74,2.29,6.67L.5,26.7l7.04-3.49c2.52,1.56,5.64,2.49,9.02,2.49,8.35,0,15.12-5.64,15.12-12.6S24.91,.5,16.56,.5h0Z"/>
  <path d="M32.93,19.4c2.82,1.92,4.47,4.76,4.47,7.79,0,1.87-.63,3.7-1.82,5.29-.28,.37-.33,.86-.13,1.28l1.42,3.04-3.18-1.58c-.18-.09-.37-.13-.55-.13-.23,0-.46,.06-.66,.19-2.18,1.35-4.77,2.06-7.51,2.06-6.54,0-11.92-4.15-12.4-9.4,1.5,.27,2.97,.41,4.38,.41,8.06,0,13.4-4.42,15.99-8.95m-.49-1.76c-2.16,4.67-7.31,9.47-15.49,9.47-1.75,0-3.63-.22-5.65-.7,0,.09,0,.69,0,.79,0,6.3,6.13,11.4,13.68,11.4,3.06,0,5.89-.84,8.16-2.25l6.37,3.16-2.93-6.27c1.31-1.75,2.07-3.82,2.07-6.04,0-4-2.47-7.51-6.21-9.55h0Z"/>
</svg>