<?xml version="1.0" encoding="UTF-8"?>
<svg id="Layer_1" data-name="Layer 1" xmlns="http://www.w3.org/2000/svg" viewBox="0 0 40 40">
  <path d="M25.61,2.15v7.26c0,.38,.31,.69,.69,.69h7.26c.61,0,.92-.74,.48-1.17L26.78,1.67c-.43-.43-1.17-.13-1.17,.48Z"/>
  <path d="M20.09,1.78c.95,0,1.73,.78,1.73,1.73v6.1c0,2.36,1.92,4.29,4.29,4.29h6.1c.95,0,1.73,.78,1.73,1.73v20.87c0,.95-.78,1.73-1.73,1.73H7.79c-.95,0-1.73-.78-1.73-1.73V3.51c0-.95,.78-1.73,1.73-1.73h12.3m0-1.28H7.79c-1.66,0-3.01,1.35-3.01,3.01V36.49c0,1.66,1.35,3.01,3.01,3.01h24.42c1.66,0,3.01-1.35,3.01-3.01V15.62c0-1.66-1.35-3.01-3.01-3.01h-6.1c-1.66,0-3.01-1.35-3.01-3.01V3.51c0-1.66-1.35-3.01-3.01-3.01h0Z"/>
  <path d="M22.3,17.53s.07,0,.11,.01c2.6,.63,4.68,2.71,5.31,5.31,.04,.18-.04,.32-.09,.39-.04,.06-.17,.19-.38,.19h-4.93c-.26,0-.48-.21-.48-.48v-4.93c0-.29,.24-.48,.47-.48m-4.59,1.41c.22,0,.46,.19,.46,.48v4.94c0,1.5,1.22,2.72,2.72,2.72h4.94c.21,0,.34,.13,.39,.19,.05,.06,.13,.2,.09,.37-.78,3.25-3.66,5.52-7.01,5.52-.15,0-.31,0-.46-.01-1.73-.11-3.38-.86-4.63-2.11s-2-2.89-2.11-4.63c-.22-3.51,2.1-6.66,5.51-7.47,.03,0,.07-.01,.1-.01m4.59-2.53c-.85,0-1.59,.71-1.59,1.61v4.93c0,.88,.72,1.6,1.6,1.6h4.93c1.03,0,1.8-.96,1.56-1.96-.73-3.02-3.11-5.41-6.14-6.14-.12-.03-.25-.04-.37-.04h0Zm-4.59,1.41c-.12,0-.24,.01-.36,.04-3.83,.91-6.63,4.47-6.37,8.63,.26,4.15,3.63,7.52,7.78,7.78,.18,.01,.36,.02,.53,.02,3.93,0,7.23-2.72,8.1-6.39,.24-.99-.54-1.94-1.56-1.94h-4.94c-.88,0-1.6-.72-1.6-1.6v-4.94c0-.9-.73-1.61-1.58-1.61h0Z"/>
</svg>