<?xml version="1.0" encoding="UTF-8"?>
<svg id="Layer_1" data-name="Layer 1" xmlns="http://www.w3.org/2000/svg" viewBox="0 0 40 40">
  <path d="M6.51,39.22c-.18,0-.35-.08-.47-.21-.57-.63-5.54-6.27-5.54-9.39,0-3.31,2.7-6.01,6.01-6.01s6.01,2.7,6.01,6.01c0,3.12-4.98,8.76-5.54,9.39-.12,.13-.29,.21-.47,.21Zm0-14.35c-2.62,0-4.76,2.13-4.76,4.76,0,2.03,3.09,6.07,4.76,8.02,1.66-1.95,4.76-5.99,4.76-8.02,0-2.62-2.13-4.76-4.76-4.76Zm0,8.51c-.19,0-.36-.08-.48-.22-.46-.54-1.94-2.4-1.94-3.53,0-1.33,1.09-2.42,2.42-2.42s2.42,1.09,2.42,2.42c0,1.14-1.49,2.99-1.94,3.53-.12,.14-.29,.22-.48,.22Zm0-4.92c-.64,0-1.17,.52-1.17,1.17,0,.37,.54,1.28,1.17,2.12,.62-.84,1.17-1.75,1.17-2.12,0-.64-.52-1.17-1.17-1.17Z"/>
  <path d="M33.49,16.38c-.18,0-.35-.08-.47-.21-.57-.63-5.54-6.27-5.54-9.39,0-3.31,2.7-6.01,6.01-6.01s6.01,2.7,6.01,6.01c0,3.12-4.98,8.76-5.54,9.39-.12,.13-.29,.21-.47,.21Zm0-14.35c-2.62,0-4.76,2.13-4.76,4.76,0,2.03,3.09,6.07,4.76,8.02,1.66-1.95,4.76-5.99,4.76-8.02,0-2.62-2.13-4.76-4.76-4.76Zm0,8.51h0c-.19,0-.36-.08-.48-.22-.46-.54-1.94-2.4-1.94-3.53,0-1.33,1.09-2.42,2.42-2.42s2.42,1.09,2.42,2.42c0,1.14-1.49,2.99-1.94,3.53-.12,.14-.29,.22-.48,.22Zm0-4.92c-.64,0-1.17,.52-1.17,1.17,0,.37,.54,1.28,1.17,2.12,.62-.84,1.17-1.75,1.17-2.12,0-.64-.52-1.17-1.17-1.17Z"/>
  <path d="M23.44,39.22H6.51c-.35,0-.63-.28-.63-.63s.28-.63,.63-.63H23.44c3.29,0,5.96-2.67,5.96-5.96s-2.67-5.96-5.96-5.96h-6.59c-3.01,0-5.45-2.45-5.45-5.45s2.45-5.45,5.45-5.45h16.64c.35,0,.63,.28,.63,.63s-.28,.63-.63,.63H16.85c-2.31,0-4.2,1.88-4.2,4.2s1.88,4.2,4.2,4.2h6.59c3.98,0,7.21,3.24,7.21,7.21s-3.24,7.21-7.21,7.21Z"/>
</svg>