<?xml version="1.0" encoding="UTF-8"?>
<svg id="Layer_1" data-name="Layer 1" xmlns="http://www.w3.org/2000/svg" viewBox="0 0 40 40">
  <path d="M8.35,39.5H3.61c-.35,0-.64-.28-.64-.64v-14.1c0-.35,.28-.64,.64-.64h4.75c.35,0,.64,.28,.64,.64v14.1c0,.35-.28,.64-.64,.64Zm-4.11-1.27h3.47v-12.83h-3.47v12.83Z"/>
  <path d="M17.71,39.5h-4.75c-.35,0-.64-.28-.64-.64V17.73c0-.35,.28-.64,.64-.64h4.75c.35,0,.64,.28,.64,.64v21.13c0,.35-.28,.64-.64,.64Zm-4.11-1.27h3.47V18.37h-3.47v19.86Z"/>
  <path d="M27.06,39.5h-4.75c-.35,0-.64-.28-.64-.64V22.45c0-.35,.28-.64,.64-.64h4.75c.35,0,.64,.28,.64,.64v16.42c0,.35-.28,.64-.64,.64Zm-4.11-1.27h3.47v-15.14h-3.47v15.14Z"/>
  <path d="M36.39,39.5h-4.75c-.35,0-.64-.28-.64-.64V13.06c0-.35,.28-.64,.64-.64h4.75c.35,0,.64,.28,.64,.64v25.8c0,.35-.28,.64-.64,.64Zm-4.11-1.27h3.48V13.7h-3.48v24.53Z"/>
  <path d="M5.98,17.8c-.2,0-.39-.09-.52-.27-.2-.29-.14-.68,.15-.89l9.35-6.68c.18-.13,.42-.15,.62-.06l8.92,3.91L33.54,3.38c.23-.27,.63-.29,.9-.07,.27,.23,.29,.63,.07,.9l-9.33,10.8c-.18,.21-.48,.28-.74,.17l-9.02-3.96-9.06,6.47c-.11,.08-.24,.12-.37,.12Z"/>
  <g>
    <circle cx="5.98" cy="17.16" r="2.66"/>
    <path d="M5.98,20.45c-1.81,0-3.29-1.48-3.29-3.29s1.48-3.29,3.29-3.29,3.29,1.48,3.29,3.29-1.48,3.29-3.29,3.29Zm0-5.31c-1.11,0-2.02,.91-2.02,2.02s.91,2.02,2.02,2.02,2.02-.91,2.02-2.02-.91-2.02-2.02-2.02Z"/>
  </g>
  <g>
    <circle cx="15.33" cy="10.49" r="2.66"/>
    <path d="M15.33,13.78c-1.81,0-3.29-1.48-3.29-3.29s1.48-3.29,3.29-3.29,3.29,1.48,3.29,3.29-1.48,3.29-3.29,3.29Zm0-5.31c-1.11,0-2.02,.91-2.02,2.02s.91,2.02,2.02,2.02,2.02-.91,2.02-2.02-.91-2.02-2.02-2.02Z"/>
  </g>
  <g>
    <circle cx="24.69" cy="14.59" r="2.66"/>
    <path d="M24.69,17.88c-1.81,0-3.29-1.48-3.29-3.29s1.48-3.29,3.29-3.29,3.29,1.48,3.29,3.29-1.48,3.29-3.29,3.29Zm0-5.31c-1.11,0-2.02,.91-2.02,2.02s.91,2.02,2.02,2.02,2.02-.91,2.02-2.02-.91-2.02-2.02-2.02Z"/>
  </g>
  <g>
    <circle cx="34.02" cy="3.79" r="2.66"/>
    <path d="M34.02,7.08c-1.81,0-3.29-1.48-3.29-3.29s1.48-3.29,3.29-3.29,3.29,1.48,3.29,3.29-1.48,3.29-3.29,3.29Zm0-5.31c-1.11,0-2.02,.91-2.02,2.02s.91,2.02,2.02,2.02,2.02-.91,2.02-2.02-.91-2.02-2.02-2.02Z"/>
  </g>
</svg>