<?xml version="1.0" encoding="UTF-8"?>
<svg id="Layer_1" data-name="Layer 1" xmlns="http://www.w3.org/2000/svg" viewBox="0 0 40 40">
  <path d="M22.23,39.5h-4.45c-.35,0-.63-.28-.63-.62v-4.36c0-.35,.28-.62,.63-.62s.63,.28,.63,.62v3.74h3.2v-4.05c0-.35,.28-.62,.63-.62s.63,.28,.63,.62v4.68c0,.35-.28,.62-.63,.62ZM17.89,6.07c-.35,0-.63-.28-.63-.62V1.12c0-.35,.28-.62,.63-.62h4.45c.35,0,.63,.28,.63,.62v4c0,.35-.28,.62-.63,.62s-.63-.28-.63-.62V1.75h-3.2v3.69c0,.35-.28,.62-.63,.62Z"/>
  <path d="M18.77,34.86c-.4,0-.81-.02-1.21-.05-2.83-.09-5.97-.87-7.99-1.99-.2-.11-.32-.32-.32-.55,0-.05,0-.1,.02-.16l1.36-5.32c.05-.19,.18-.34,.36-.42,.18-.08,.38-.07,.55,.03,1.31,.72,3.99,1.92,7.24,1.92,1.74,0,3.78-.57,3.78-2.19,0-1.12-.75-2.12-4.44-3.36-4-1.35-8.6-3.58-8.6-8.91,0-4.42,3.14-7.76,8.19-8.7l.26-.05c1.43-.27,2.89-.37,4.34-.28,3.41,.1,5.55,.94,6.87,1.56,.22,.1,.36,.33,.36,.56,0,.05,0,.11-.02,.16l-1.36,5.13c-.05,.18-.17,.33-.34,.41-.17,.08-.36,.08-.53,0l-.04-.02c-1.1-.53-3.14-1.51-6.23-1.51-2.09,0-3.28,.72-3.28,1.96,0,1.05,1.37,1.93,5.04,3.27,5.6,1.96,8,4.69,8,9.13s-3.29,8.05-8.59,8.97h-.05c-1.1,.25-2.23,.38-3.35,.38Zm-8.17-2.91c1.51,.73,4.09,1.52,7.01,1.61,.01,0,.02,0,.03,0,1.41,.11,2.83,.01,4.21-.29h.06s.02-.02,.03-.02c4.67-.8,7.57-3.77,7.57-7.74s-2.01-6.15-7.17-7.95c-3.81-1.39-5.87-2.51-5.87-4.45,0-.75,.33-3.21,4.53-3.21,2.84,0,4.86,.75,6.13,1.33l1.03-3.9c-1.24-.53-3.11-1.14-5.91-1.23,0,0-.01,0-.02,0-1.35-.08-2.71,0-4.04,.26l-.26,.05c-4.49,.84-7.17,3.63-7.17,7.47,0,3.58,2.32,5.89,7.75,7.72,3.17,1.07,5.29,2.26,5.29,4.55,0,2.09-1.98,3.44-5.03,3.44s-5.57-.95-7.13-1.71l-1.04,4.07Z"/>
</svg>