<?xml version="1.0" encoding="UTF-8"?><svg id="Layer_1" xmlns="http://www.w3.org/2000/svg" viewBox="0 0 500 500"><defs><style>.cls-1{fill:#0f88c9;}.cls-2{fill:#a7def8;}.cls-3{fill:#9ece6d;}</style></defs><path class="cls-3" d="M448.18,330.61c0-2.18-.09-4.35-.26-6.49l17.69-12.15-7.87-24.24-21.47,.54c-2.27-3.7-4.8-7.2-7.63-10.46l7.18-20.26-20.63-14.96-16.99,13.06c-4-1.66-8.13-3.03-12.37-4.02l-6.1-20.56h-25.49l-6.08,20.56c-4.26,.99-8.39,2.36-12.35,4.02l-17.02-13.06-3.96,2.88-16.67,12.09,7.16,20.24c-2.81,3.29-5.36,6.79-7.63,10.49l-21.43-.54-7.89,24.24,17.66,12.13c-.15,2.14-.24,4.32-.24,6.51s.09,4.35,.24,6.51l-17.66,12.13,7.89,24.24,21.43-.54c1.38,2.25,2.88,4.43,4.45,6.53,1.02,1.36,2.08,2.68,3.18,3.96l-7.16,20.24,20.63,14.96,17.02-13.06c3.96,1.66,8.09,3.03,12.35,4.02l6.08,20.56h25.49l6.1-20.56c4.24-.99,8.37-2.36,12.37-4.02l16.99,13.06,20.63-14.96-7.18-20.26c2.83-3.26,5.36-6.77,7.63-10.46l21.47,.54,7.87-24.24-17.69-12.15c.17-2.14,.26-4.3,.26-6.49v-.03Zm-81.19,47.96c-26.51,0-47.98-21.47-47.98-47.96s21.47-47.96,47.98-47.96,47.96,21.47,47.96,47.96-21.47,47.96-47.96,47.96Z"/><path class="cls-1" d="M297.16,69.83H52.06c-9.77,0-17.66,7.91-17.66,17.66V362.52c0,9.75,7.89,17.67,17.66,17.67h210.62c-.32-.65-.58-1.32-.82-2.01l-7.89-24.24c-2.08-6.38,.3-13.36,5.84-17.17l8.97-6.16-8.97-6.16c-5.54-3.81-7.91-10.79-5.84-17.17l7.89-24.24c2.03-6.23,7.87-10.44,14.4-10.44h.39l10.88,.28-3.63-10.29c-2.23-6.31-.04-13.36,5.38-17.3l16.65-12.06,3.96-2.88c1.51-1.12,3.2-1.9,4.95-2.36V87.49c0-9.75-7.91-17.66-17.66-17.66h-.01Z"/><rect class="cls-2" x="63.01" y="151.9" width="221.75" height="49.02" rx="9.44" ry="9.44"/><rect class="cls-3" x="63.01" y="276.16" width="171.31" height="35.64" rx="7.07" ry="7.07"/><rect class="cls-2" x="63.01" y="123.62" width="58.98" height="12.74" rx="3.34" ry="3.34"/><rect class="cls-2" x="63.01" y="244.36" width="88.97" height="12.74" rx="4.1" ry="4.1"/></svg>