<?xml version="1.0" encoding="UTF-8"?><svg id="Layer_1" xmlns="http://www.w3.org/2000/svg" viewBox="0 0 500 500"><defs><style>.cls-1{fill:#0f88c9;}.cls-2{fill:#fff;}.cls-3{fill:#a7def8;}.cls-4{fill:#9ece6d;}</style></defs><g><path class="cls-4" d="M230.96,321.99v-85.47c0-48.73-39.51-88.24-88.24-88.24h-20.23c-48.72,0-88.23,39.51-88.23,88.24v85.47H230.96Z"/><circle class="cls-4" cx="132.61" cy="74.3" r="62.09"/></g><g><path class="cls-3" d="M465.74,321.99v-85.47c0-48.73-39.51-88.24-88.24-88.24h-20.23c-48.73,0-88.24,39.51-88.24,88.24v85.47h196.7"/><circle class="cls-3" cx="367.37" cy="74.3" r="62.09"/></g><path class="cls-2" d="M134.18,487.79v-101.67c0-57.97,46.99-104.96,104.96-104.96h24.06c57.97,0,104.96,46.99,104.96,104.96v101.67"/><circle class="cls-2" cx="251.16" cy="225.85" r="79.44"/><path class="cls-1" d="M350.82,471.34v-85.47c0-48.73-39.51-88.24-88.24-88.24h-20.23c-48.73,0-88.24,39.51-88.24,88.24v85.47h196.71Z"/><circle class="cls-1" cx="251.16" cy="225.85" r="62.09"/><circle class="cls-2" cx="358.22" cy="403.6" r="77.84"/><path class="cls-1" d="M410.22,399.03v9.1c0,3.41-2.78,6.16-6.16,6.16h-35.15v35.15c0,3.38-2.78,6.16-6.16,6.16h-9.1c-3.38,0-6.16-2.78-6.16-6.16v-35.15h-35.12c-3.41,0-6.16-2.75-6.16-6.16v-9.1c0-3.38,2.75-6.16,6.16-6.16h35.12v-35.12c0-3.41,2.78-6.16,6.16-6.16h9.1c3.38,0,6.16,2.75,6.16,6.16v35.12h35.15c3.38,0,6.16,2.78,6.16,6.16Z"/></svg>