<?xml version="1.0" encoding="UTF-8"?>
<svg id="Layer_1" data-name="Layer 1" xmlns="http://www.w3.org/2000/svg" viewBox="0 0 40 40">
  <path d="M10.75,12.28H1.13c-.35,0-.63-.28-.63-.63V4.85c0-.35,.28-.63,.63-.63H10.75c.35,0,.63,.28,.63,.63v6.8c0,.35-.28,.63-.63,.63ZM1.77,11.01H10.11V5.48H1.77v5.53Z"/>
  <path d="M24.81,12.28H15.19c-.35,0-.63-.28-.63-.63V4.85c0-.35,.28-.63,.63-.63h9.61c.35,0,.63,.28,.63,.63v6.8c0,.35-.28,.63-.63,.63Zm-8.98-1.27h8.35V5.48H15.83v5.53Z"/>
  <path d="M38.87,12.28h-9.61c-.35,0-.63-.28-.63-.63V4.85c0-.35,.28-.63,.63-.63h9.61c.35,0,.63,.28,.63,.63v6.8c0,.35-.28,.63-.63,.63Zm-8.98-1.27h8.35V5.48h-8.35v5.53Z"/>
  <path d="M10.75,24.03H1.13c-.35,0-.63-.28-.63-.63v-6.8c0-.35,.28-.63,.63-.63H10.75c.35,0,.63,.28,.63,.63v6.8c0,.35-.28,.63-.63,.63Zm-8.98-1.27H10.11v-5.53H1.77v5.53Z"/>
  <path d="M24.81,24.03H15.19c-.35,0-.63-.28-.63-.63v-6.8c0-.35,.28-.63,.63-.63h9.61c.35,0,.63,.28,.63,.63v6.8c0,.35-.28,.63-.63,.63Zm-8.98-1.27h8.35v-5.53H15.83v5.53Z"/>
  <path d="M38.87,24.03h-9.61c-.35,0-.63-.28-.63-.63v-6.8c0-.35,.28-.63,.63-.63h9.61c.35,0,.63,.28,.63,.63v6.8c0,.35-.28,.63-.63,.63Zm-8.98-1.27h8.35v-5.53h-8.35v5.53Z"/>
  <path d="M10.75,35.79H1.13c-.35,0-.63-.28-.63-.63v-6.8c0-.35,.28-.63,.63-.63H10.75c.35,0,.63,.28,.63,.63v6.8c0,.35-.28,.63-.63,.63Zm-8.98-1.27H10.11v-5.53H1.77v5.53Z"/>
  <path d="M24.81,35.79H15.19c-.35,0-.63-.28-.63-.63v-6.8c0-.35,.28-.63,.63-.63h9.61c.35,0,.63,.28,.63,.63v6.8c0,.35-.28,.63-.63,.63Zm-8.98-1.27h8.35v-5.53H15.83v5.53Z"/>
  <path d="M38.87,35.79h-9.61c-.35,0-.63-.28-.63-.63v-6.8c0-.35,.28-.63,.63-.63h9.61c.35,0,.63,.28,.63,.63v6.8c0,.35-.28,.63-.63,.63Zm-8.98-1.27h8.35v-5.53h-8.35v5.53Z"/>
</svg>