<?xml version="1.0" encoding="utf-8"?>
<!-- Generator: Adobe Illustrator 26.4.1, SVG Export Plug-In . SVG Version: 6.00 Build 0)  -->
<svg version="1.1" id="Layer_21" xmlns="http://www.w3.org/2000/svg" xmlns:xlink="http://www.w3.org/1999/xlink" x="0px" y="0px"
	 viewBox="0 0 128 128" style="enable-background:new 0 0 128 128;" xml:space="preserve">
<style type="text/css">
	.st0{fill:#0F88C9;}
	.st1{fill:#353B41;}
</style>
<path class="st0" d="M112,28H16C9.4,28,4,33.4,4,40v48c0,6.6,5.4,12,12,12h96c6.6,0,12-5.4,12-12V40C124,33.4,118.6,28,112,28
	L112,28z M118,88c0,3.3-2.7,6-6,6H16c-3.3,0-6-2.7-6-6V40c0-3.3,2.7-6,6-6h96c3.3,0,6,2.7,6,6V88L118,88z"/>
<g>
	<path class="st1" d="M74.5,59c-0.5-0.5-0.5-1.2,0-1.7l2-2c0.5-0.5,1.2-0.5,1.7,0l12,11.8l12-11.8c0.5-0.5,1.2-0.5,1.7,0l2,2
		c0.5,0.5,0.5,1.2,0,1.7L91,73.7c-0.5,0.5-1.2,0.5-1.7,0L74.5,59z"/>
</g>
</svg>
