<?xml version="1.0" encoding="UTF-8"?>
<svg id="Layer_1" data-name="Layer 1" xmlns="http://www.w3.org/2000/svg" viewBox="0 0 40 40">
  <path d="M33.93,22.24c-.75,.24-1.37,.67-1.92,1.21,.34,.82,.24,1.58-.28,2.28-.51,.68-1.2,1.03-2.08,.97,0,.09,0,.18,0,.27-.05,.61-.3,1.12-.72,1.56-.33,.35-.73,.58-1.22,.65-.39,.06-.77,.02-1.14-.11-.05-.02-.09-.03-.15-.05,0,.03-.02,.06-.02,.09-.14,.7-.56,1.18-1.19,1.48-.63,.3-1.28,.29-1.92,.03-.19-.08-.38-.17-.58-.25,0,.01-.02,.02-.02,.03-.19,.76-.68,1.23-1.41,1.47-.48,.15-.97,.14-1.45,.01-.22-.06-.44-.13-.66-.22-2.37-.98-4.74-1.97-7.11-2.95-.31-.13-.59-.31-.87-.5-2.1-1.47-3.86-3.27-5.18-5.47-.05-.09-.1-.17-.17-.28-.04,.08-.08,.14-.11,.2-.06,.12-.13,.25-.19,.37-.16,.3-.46,.41-.78,.27-.11-.04-.21-.1-.31-.15-1.18-.61-2.35-1.21-3.53-1.82-.02,0-.03-.02-.05-.02-.37-.16-.43-.56-.27-.86,.14-.27,.28-.54,.42-.81,.54-1.05,1.09-2.1,1.63-3.14,.61-1.19,1.23-2.37,1.84-3.56,.51-.98,1.01-1.95,1.52-2.93,.28-.53,.55-1.07,.83-1.6,.05-.1,.11-.21,.21-.27,.21-.13,.42-.13,.64-.03,.25,.12,.5,.26,.75,.38,.94,.49,1.88,.97,2.83,1.46,.11,.06,.22,.12,.33,.17,.21,.11,.31,.27,.3,.51,0,.03,0,.05,0,.08,.32-.02,.63-.04,.94-.05,.53,0,1.06-.01,1.59,0,.44,.01,.87,.04,1.31,.09,.95,.1,1.9,.22,2.83,.46,.06,.02,.13,.02,.2,0,.63-.15,1.26-.28,1.9-.35,.4-.04,.8-.07,1.2-.08,.97-.02,1.93,.04,2.9,.11,.72,.05,1.44,.11,2.16,.17,.23,.02,.46,.04,.69,.07,.12,.01,.22,0,.34-.04,.23-.1,.48-.18,.71-.26,.03-.01,.06-.03,.1-.04-.01-.06-.03-.12-.04-.18-.05-.29,.06-.51,.33-.63,1.3-.59,2.61-1.17,3.91-1.76,.15-.07,.29-.1,.45-.08,.19,.03,.33,.12,.41,.3,.35,.79,.71,1.58,1.07,2.36,1.35,2.99,2.7,5.97,4.05,8.96,.17,.38,.34,.75,.51,1.13,.07,.15,.08,.3,.04,.46-.05,.17-.15,.29-.32,.36-.31,.13-.61,.27-.92,.41-1,.45-2,.9-3,1.35-.16,.07-.32,.11-.49,.07-.18-.03-.3-.13-.37-.29-.13-.29-.26-.58-.4-.88-.02-.04-.04-.08-.06-.12ZM16.25,12s0-.02,0-.03c-.36-.04-.72-.07-1.07-.11-.65-.06-1.31-.07-1.96-.06-.61,0-1.22,.05-1.83,.12-.09,0-.14,.05-.18,.13-.46,.9-.93,1.81-1.4,2.71-1.09,2.11-2.19,4.22-3.28,6.34-.04,.07-.03,.12,0,.18,.18,.32,.35,.65,.55,.96,.72,1.18,1.58,2.24,2.58,3.2,.73,.71,1.51,1.36,2.37,1.91,.16,.11,.33,.21,.51,.29,1.94,.81,3.89,1.62,5.83,2.43,.47,.2,.95,.39,1.42,.59,.26,.11,.54,.17,.82,.15,.37-.03,.67-.16,.87-.49,.07-.11,.07-.22,.02-.33-.06-.13-.15-.23-.27-.31-.15-.09-.29-.19-.45-.27-1.09-.55-2.18-1.09-3.26-1.63-.55-.27-1.09-.54-1.64-.81-.24-.12-.35-.33-.32-.62,.02-.23,.2-.42,.45-.47,.17-.04,.32,0,.46,.07,.41,.2,.81,.4,1.22,.61,1.5,.75,3.01,1.5,4.51,2.25,.41,.2,.81,.41,1.21,.62,.22,.11,.45,.2,.7,.22,.44,.02,.8-.12,1.04-.51,.1-.16,.12-.33,.03-.49-.06-.1-.13-.21-.22-.28-.13-.11-.28-.21-.43-.29-.25-.14-.51-.26-.76-.4-1.34-.7-2.68-1.39-4.02-2.09-.22-.11-.44-.22-.65-.34-.27-.15-.35-.42-.23-.7,.13-.3,.49-.5,.88-.29,.98,.52,1.96,1.02,2.94,1.53,1.17,.61,2.34,1.21,3.51,1.82,.24,.12,.47,.25,.72,.36,.44,.19,.92,.07,1.21-.31,.08-.1,.15-.22,.21-.34,.26-.47,.09-1.01-.3-1.3-.08-.06-.17-.12-.27-.18-1.27-.76-2.54-1.52-3.8-2.29-.87-.53-1.75-1.05-2.62-1.58-.3-.18-.38-.52-.19-.82,.14-.23,.45-.4,.8-.19,.41,.25,.82,.48,1.23,.73,2.01,1.21,4.02,2.41,6.03,3.62,.1,.06,.21,.12,.32,.17,.35,.14,.68,.09,.97-.13,.23-.18,.39-.41,.47-.7,.03-.11,.04-.23,.03-.34-.02-.32-.17-.58-.44-.76-.3-.21-.61-.42-.91-.63-2.58-1.79-5.17-3.58-7.75-5.37-.11-.08-.2-.09-.33-.05-.75,.22-1.52,.34-2.29,.45-.61,.09-1.22,.16-1.83,.24-.06,0-.09,.03-.12,.09-.08,.16-.16,.32-.25,.47-.78,1.32-1.81,2.4-3.06,3.28-.43,.3-.87,.56-1.36,.73-.31,.11-.63,.17-.96,.15-.6-.03-1.1-.43-1.26-1.01-.11-.39-.09-.79-.04-1.18,.1-.66,.28-1.31,.5-1.94,.28-.81,.63-1.6,1-2.38,.32-.69,.67-1.36,1.06-2.01,.45-.74,1.04-1.32,1.81-1.71,.38-.19,.77-.36,1.15-.54,.1-.04,.19-.08,.29-.12Zm12.98-.15c-.06,.02-.1,.04-.14,.05-.29,.11-.58,.21-.86,.33-.19,.08-.39,.09-.59,.07-.4-.04-.8-.08-1.2-.11-.63-.05-1.27-.11-1.91-.15-.7-.04-1.41-.07-2.11-.1-.74-.03-1.47,0-2.2,.14-1.39,.26-2.75,.64-4.05,1.21-.5,.22-.99,.46-1.43,.78-.12,.09-.24,.18-.32,.3-.21,.29-.41,.58-.59,.89-.51,.85-.93,1.74-1.32,2.65-.34,.79-.63,1.6-.83,2.44-.08,.34-.13,.68-.11,1.03,0,.06,.01,.12,.02,.17,.01,.06,.05,.12,.12,.12,.08,0,.17,.02,.25,0,.2-.05,.4-.1,.58-.18,.26-.12,.51-.26,.74-.42,.54-.35,1.02-.78,1.47-1.24,.58-.59,1.08-1.24,1.46-1.97,.08-.15,.15-.3,.21-.45,.11-.23,.28-.36,.54-.38,.09,0,.19-.02,.28-.03,.94-.11,1.88-.23,2.8-.4,.53-.1,1.07-.19,1.58-.4,.19-.08,.36-.05,.53,.06,.54,.37,1.09,.73,1.63,1.1,2.44,1.7,4.88,3.39,7.32,5.09,.04,.02,.07,.05,.11,.07,.32-.31,.65-.58,1.02-.82,.37-.23,.76-.42,1.19-.57-1.4-3.1-2.8-6.19-4.21-9.3Zm.81-1.06c1.72,3.81,3.44,7.6,5.16,11.4,.99-.45,1.96-.88,2.94-1.32-1.72-3.81-3.44-7.6-5.16-11.4-.98,.44-1.95,.88-2.94,1.32Zm-22.42-1.4c-1.92,3.71-3.83,7.4-5.75,11.1,.96,.5,1.91,.98,2.86,1.48,1.92-3.71,3.83-7.4,5.75-11.1-.96-.5-1.91-.98-2.86-1.48Z"/>
</svg>