<?xml version="1.0" encoding="utf-8"?>
<!-- Generator: Adobe Illustrator 26.4.1, SVG Export Plug-In . SVG Version: 6.00 Build 0)  -->
<svg version="1.1" id="Layer_21" xmlns="http://www.w3.org/2000/svg" xmlns:xlink="http://www.w3.org/1999/xlink" x="0px" y="0px"
	 viewBox="0 0 128 128" style="enable-background:new 0 0 128 128;" xml:space="preserve">
<style type="text/css">
	.st0{fill:#0F88C9;}
	.st1{fill:#353B41;}
</style>
<g>
	<path class="st0" d="M112,28H16C9.4,28,4,33.4,4,40v48c0,6.6,5.4,12,12,12h96c6.6,0,12-5.4,12-12V40C124,33.4,118.6,28,112,28
		L112,28z M118,88c0,3.3-2.7,6-6,6H16c-3.3,0-6-2.7-6-6V40c0-3.3,2.7-6,6-6h96c3.3,0,6,2.7,6,6V88L118,88z"/>
	<path class="st1" d="M35.4,80.9h-3.8v-33h3.7c1.5,0,2.8-1.3,2.8-3c0-1.6-1.2-3-2.8-3h-13c-1.5,0-2.8,1.3-2.8,3c0,1.6,1.2,3,2.8,3
		H26v33h-3.6c-1.6,0-2.9,1.4-2.9,3.1c0,1.7,1.3,3.1,2.9,3.1h13c1.6,0,2.9-1.4,2.9-3.1C38.3,82.3,37,80.9,35.4,80.9z"/>
</g>
</svg>
