<?xml version="1.0" encoding="UTF-8"?>
<svg id="Layer_1" data-name="Layer 1" xmlns="http://www.w3.org/2000/svg" viewBox="0 0 180 180">
  <defs>
    <style>
      .cls-1 {
        fill: #fff;
      }

      .cls-2 {
        opacity: .15;
      }

      .cls-2, .cls-3 {
        fill: #abb4be;
      }
    </style>
  </defs>
  <path class="cls-2" d="M99.92,56.76v-19.5c0-5.31-4.31-9.62-9.62-9.62H50.96c-5.31,0-9.62,4.31-9.62,9.62v105.48c0,5.31,4.31,9.62,9.62,9.62h78.08c5.31,0,9.62-4.31,9.62-9.62V76c0-5.31-4.31-9.62-9.62-9.62h-19.5c-5.31,0-9.62-4.31-9.62-9.62Z"/>
  <path class="cls-3" d="M107.95,32.93v23.22c0,1.21,.98,2.19,2.19,2.19h23.22c1.95,0,2.93-2.36,1.55-3.74l-23.22-23.22c-1.38-1.38-3.74-.4-3.74,1.55Z"/>
  <path class="cls-3" d="M90.3,33.34c2.16,0,3.92,1.76,3.92,3.92v19.5c0,8.45,6.87,15.32,15.32,15.32h19.5c2.16,0,3.92,1.76,3.92,3.92v66.74c0,2.16-1.76,3.92-3.92,3.92H50.96c-2.16,0-3.92-1.76-3.92-3.92V37.26c0-2.16,1.76-3.92,3.92-3.92h39.34m0-5.7H50.96c-5.31,0-9.62,4.31-9.62,9.62v105.48c0,5.31,4.31,9.62,9.62,9.62h78.08c5.31,0,9.62-4.31,9.62-9.62V76c0-5.31-4.31-9.62-9.62-9.62h-19.5c-5.31,0-9.62-4.31-9.62-9.62v-19.5c0-5.31-4.31-9.62-9.62-9.62h0Z"/>
  <g>
    <path class="cls-1" d="M87.74,133.21c-.51,0-1.03-.02-1.54-.05-12.1-.75-21.79-10.44-22.55-22.55-.73-11.77,7.03-22.29,18.46-25.02,.19-.05,.38-.07,.57-.07,1.39,0,2.56,1.21,2.56,2.64v15.79c0,4.2,3.42,7.62,7.62,7.62h15.79c.82,0,1.58,.37,2.09,1.02,.28,.36,.72,1.11,.48,2.12-2.6,10.9-12.26,18.5-23.48,18.5Zm9.64-31.16c-1.44,0-2.62-1.18-2.62-2.62v-15.78c0-1.43,1.18-2.64,2.59-2.64,.2,0,.4,.02,.6,.07,8.7,2.1,15.68,9.08,17.78,17.78,.25,1.04-.2,1.81-.48,2.17-.51,.64-1.27,1.01-2.08,1.01h-15.78Z"/>
    <path class="cls-3" d="M97.35,78.52v5c7.81,1.88,14.06,8.14,15.95,15.94,0,0-.04,.1-.14,.1h-15.78c-.07,0-.12-.05-.12-.12v-15.78c0-.1,.1-.14,.1-.14,0,0,0,0,0,0v-5m-14.65,9.51h0m-.02,0s.07,.06,.07,.14v15.79c0,5.58,4.54,10.12,10.12,10.12h15.79c.08,0,.13,.06,.14,.06-2.34,9.76-10.99,16.58-21.04,16.58-.46,0-.93-.01-1.39-.04-10.67-.66-19.54-9.54-20.21-20.21-.65-10.54,6.29-19.97,16.52-22.43m14.68-9.51c-2.73,0-5.09,2.26-5.09,5.14v15.78c0,2.83,2.29,5.12,5.12,5.12h15.78c3.29,0,5.77-3.07,5-6.27-2.34-9.67-9.95-17.29-19.62-19.62-.4-.1-.8-.14-1.19-.14h0Zm-14.66,4.51c-.38,0-.77,.04-1.16,.14-12.24,2.93-21.2,14.3-20.37,27.61,.82,13.27,11.62,24.06,24.89,24.89,.57,.04,1.14,.05,1.7,.05,12.57,0,23.11-8.71,25.91-20.42,.76-3.18-1.74-6.22-5-6.22h-15.79c-2.83,0-5.12-2.29-5.12-5.12v-15.79c0-2.87-2.34-5.14-5.06-5.14h0Z"/>
  </g>
</svg>