<?xml version="1.0" encoding="utf-8"?>
<!-- Generator: Adobe Illustrator 26.5.2, SVG Export Plug-In . SVG Version: 6.00 Build 0)  -->
<svg version="1.1" id="Layer_18_copy" xmlns="http://www.w3.org/2000/svg" xmlns:xlink="http://www.w3.org/1999/xlink" x="0px"
	 y="0px" viewBox="0 0 128 128" style="enable-background:new 0 0 128 128;" xml:space="preserve">
<style type="text/css">
	.st0{fill:#0F88C9;}
</style>
<g>
	<path class="st0" d="M104.9,97H24.1c-4.2,0-7.6-3.4-7.6-7.6V41c0-4.2,3.4-7.6,7.6-7.6h80.9c4.2,0,7.6,3.4,7.6,7.6v48.5
		C112.5,93.6,109.1,97,104.9,97z M24.1,38.2c-1.6,0-2.8,1.2-2.8,2.8v48.5c0,1.6,1.2,2.8,2.8,2.8h80.9c1.6,0,2.8-1.2,2.8-2.8V41
		c0-1.6-1.2-2.8-2.8-2.8H24.1z"/>
	
		<rect x="13.8" y="73.5" transform="matrix(0.7559 -0.6547 0.6547 0.7559 -41.208 41.1959)" class="st0" width="41.6" height="4.8"/>
	
		<rect x="92.1" y="55.1" transform="matrix(0.6547 -0.7559 0.7559 0.6547 -24.7714 97.6773)" class="st0" width="4.8" height="41.6"/>
	<polygon class="st0" points="64.5,75.4 17.2,44.1 19.9,40.1 64.5,69.6 109.1,40.1 111.8,44.1 	"/>
</g>
</svg>
