<?xml version="1.0" encoding="utf-8"?>
<!-- Generator: Adobe Illustrator 26.5.3, SVG Export Plug-In . SVG Version: 6.00 Build 0)  -->
<svg version="1.1" id="Layer_1" xmlns="http://www.w3.org/2000/svg" xmlns:xlink="http://www.w3.org/1999/xlink" x="0px" y="0px"
	 viewBox="0 0 211 189" style="enable-background:new 0 0 211 189;" xml:space="preserve">
<style type="text/css">
	.st0{fill:none;}
	.st1{fill:#ED2E67;}
	.st2{fill:#231F20;}
</style>
<g>
	<g>
		<g>
			<path class="st0" d="M104.3,46.1L104.3,46.1C88.8,46.1,76,58.8,76,74.3v3v25.2h28.2c15.5,0,28.2-12.8,28.2-28.2
				C132.5,58.8,119.7,46.1,104.3,46.1z M104.2,86.8H91.7v-9.5v-3c0-6.8,5.7-12.5,12.5-12.5h0c6.8,0,12.5,5.7,12.5,12.5
				C116.8,81.1,111.1,86.8,104.2,86.8z"/>
		</g>
		<g>
			<path class="st1" d="M104.3,61.7L104.3,61.7c-6.8,0-12.5,5.7-12.5,12.5v3v9.5h12.5c6.8,0,12.5-5.7,12.5-12.5
				C116.8,67.5,111.1,61.7,104.3,61.7z"/>
		</g>
		<g>
			<path class="st1" d="M104.3,22.5L104.3,22.5c-28.5,0-51.8,23.3-51.8,51.8v51.8H76h28.2c28.5,0,51.8-23.3,51.8-51.8
				C156,45.8,132.7,22.5,104.3,22.5z M104.2,102.5H76V77.3v-3c0-15.5,12.8-28.2,28.2-28.2h0c15.5,0,28.2,12.7,28.2,28.2
				C132.5,89.8,119.7,102.5,104.2,102.5z"/>
		</g>
	</g>
	<g>
		<path class="st2" d="M23.5,142.8c0-1.7,1.3-3.1,3.1-3.1h7.8c8.7,0,14.8,6,14.8,13.8v0.1c0,7.8-6,13.9-14.8,13.9h-7.8
			c-1.7,0-3.1-1.3-3.1-3.1V142.8z M34.4,162c5,0,8.4-3.4,8.4-8.3v-0.1c0-4.9-3.4-8.4-8.4-8.4h-4.7V162H34.4z"/>
		<path class="st2" d="M72.3,164.7c0,1.7-1.3,3-3,3c-1.7,0-3-1.3-3-3v-0.2c-1.4,1.8-3.2,3.4-6.2,3.4c-4.6,0-7.2-3-7.2-7.9v-11
			c0-1.7,1.3-3,3-3s3,1.3,3,3v9.1c0,2.9,1.3,4.3,3.7,4.3c2.3,0,3.8-1.5,3.8-4.3V149c0-1.7,1.3-3,3-3c1.7,0,3,1.3,3,3V164.7z"/>
		<path class="st2" d="M76.6,141.2c0-1.7,1.5-2.8,3.4-2.8c1.9,0,3.4,1.1,3.4,2.8v0.1c0,1.7-1.5,2.9-3.4,2.9
			C78.1,144.1,76.6,143,76.6,141.2L76.6,141.2z M76.9,149c0-1.7,1.3-3,3-3c1.7,0,3,1.3,3,3v15.7c0,1.7-1.3,3-3,3c-1.7,0-3-1.3-3-3
			V149z"/>
		<path class="st2" d="M88.6,161.5v-10.1h-0.2c-1.4,0-2.6-1.2-2.6-2.6c0-1.4,1.2-2.6,2.6-2.6h0.2v-2.7c0-1.7,1.3-3,3-3
			c1.7,0,3,1.3,3,3v2.7h2.7c1.4,0,2.6,1.2,2.6,2.6c0,1.4-1.2,2.6-2.6,2.6h-2.7v9.1c0,1.4,0.6,2.1,1.9,2.1c0.2,0,0.6,0,0.7,0
			c1.3,0,2.5,1.1,2.5,2.5c0,1.1-0.7,1.9-1.5,2.3c-1.1,0.4-2.1,0.6-3.5,0.6C91.1,167.9,88.6,166.4,88.6,161.5z"/>
		<path class="st1" d="M103.8,142.7c0-1.7,1.3-3.1,3.1-3.1h0.6c1.5,0,2.3,0.7,3.2,1.8l11.8,15.5v-14.3c0-1.7,1.3-3,3-3
			c1.7,0,3,1.3,3,3v22.1c0,1.7-1.3,3.1-3.1,3.1h-0.2c-1.5,0-2.3-0.7-3.2-1.8l-12.2-16v14.9c0,1.7-1.3,3-3,3c-1.7,0-3-1.3-3-3V142.7z
			"/>
		<path class="st1" d="M132.4,157L132.4,157c0-6.2,4.9-11.1,11.5-11.1c6.6,0,11.5,4.9,11.5,11v0.1c0,6.1-4.9,11.1-11.5,11.1
			C137.3,168,132.4,163.1,132.4,157z M149.5,157L149.5,157c0-3.2-2.3-6-5.6-6c-3.5,0-5.5,2.7-5.5,5.8v0.1c0,3.1,2.3,5.9,5.6,5.9
			C147.4,162.8,149.5,160.1,149.5,157z"/>
		<path class="st1" d="M162.2,165.2l-5.2-15c-0.1-0.4-0.3-1-0.3-1.5c0-1.4,1.1-2.7,2.9-2.7c1.5,0,2.5,1,2.9,2.3l3.3,10.8l3.3-10.8
			c0.4-1.4,1.5-2.4,3.1-2.4h0.4c1.5,0,2.7,1,3.1,2.4l3.4,10.8l3.3-10.9c0.4-1.3,1.3-2.3,2.9-2.3c1.7,0,2.8,1.3,2.8,2.8
			c0,0.4-0.1,1-0.2,1.2l-5.4,15.2c-0.6,1.9-1.9,2.7-3.3,2.7h-0.2c-1.5,0-2.7-0.8-3.3-2.6l-3.4-10.7l-3.4,10.7
			c-0.6,1.7-1.8,2.6-3.3,2.6h-0.2C164.1,167.9,162.9,167.1,162.2,165.2z"/>
	</g>
</g>
</svg>
