<?xml version="1.0" encoding="utf-8"?>
<!-- Generator: Adobe Illustrator 25.3.1, SVG Export Plug-In . SVG Version: 6.00 Build 0)  -->
<svg version="1.1" id="Layer_1" xmlns="http://www.w3.org/2000/svg" xmlns:xlink="http://www.w3.org/1999/xlink" x="0px" y="0px"
	 viewBox="0 0 300 256" style="enable-background:new 0 0 300 256;" xml:space="preserve">
<g>
	<path d="M101.92,76.5c-15.12,10.3-26.85,32.26-29.14,51.52c-12.41,101.86,75.94,127.31,75.94,127.31
		C48.44,255.33,1,201.05,1,128.02C1,60.7,33.48,29.45,63.76,14.88L32.34,0.67h110.45l-17.99,52.82l-18.02,52.59L101.92,76.5z"/>
	<path d="M267.68,255.33l-31.48-14.24c30.33-14.57,62.8-45.82,62.8-113.08C299,54.93,251.58,0.67,151.22,0.67
		c0,0,88.34,25.42,76.02,127.35c-2.28,19.19-14.01,41.22-29.13,51.55l-4.86-29.75l-18.01,52.66l-17.99,52.85H267.68z"/>
</g>
</svg>
